<svg viewBox="0 0 1719 797" aria-label="COVID-19: Variation Analysis on ARTIC PE Data" role="img" xmlns="http://www.w3.org/2000/svg">
  <title>COVID-19: Variation Analysis on ARTIC PE Data</title>
  <defs>
    <pattern id="wd-grid" width="20" height="20" patternUnits="userSpaceOnUse">
      <path d="M 20 0 L 0 0 0 20" fill="none" stroke="#c5d5e4" stroke-width="0.5"/>
    </pattern>
    <pattern id="wd-grid-major" width="100" height="100" patternUnits="userSpaceOnUse">
      <rect width="100" height="100" fill="url(#wd-grid)"/>
      <path d="M 100 0 L 0 0 0 100" fill="none" stroke="#b0c4d8" stroke-width="1"/>
    </pattern>
    <filter id="wd-shadow" x="-5%" y="-5%" width="115%" height="115%">
      <feDropShadow dx="1" dy="2" stdDeviation="1.5" flood-opacity="0.15"/>
    </filter>
  </defs>
  <rect width="1719" height="797" fill="#f8f9fa"/>
  <rect width="1719" height="797" fill="url(#wd-grid-major)"/>
  <rect x="0" y="0" width="1719" height="45" fill="#25537b"/>
  <text x="20" y="28" font-family="system-ui, sans-serif" font-size="16" font-weight="600" fill="white">COVID-19: Variation Analysis on ARTIC PE Data</text>
  <path d="M 220.6 128.0 C 258.0 128.0, 276.6 121.0, 314.0 121.0" stroke="white" fill="none" stroke-linecap="round" stroke-width="8"/>
  <path d="M 219.0 279.0 C 369.8 279.0, 445.2 111.7, 596.0 111.7" stroke="white" fill="none" stroke-linecap="round" stroke-width="7"/>
  <path d="M 238.0 423.0 C 624.8 423.0, 818.2 116.3, 1205.0 116.3" stroke="white" fill="none" stroke-linecap="round" stroke-width="7"/>
  <path d="M 514.0 111.7 C 546.8 111.7, 563.2 130.3, 596.0 130.3" stroke="white" fill="none" stroke-linecap="round" stroke-width="8"/>
  <path d="M 796.0 121.0 C 826.4 121.0, 841.6 128.0, 872.0 128.0" stroke="white" fill="none" stroke-linecap="round" stroke-width="8"/>
  <path d="M 1093.0 128.0 C 1137.8 128.0, 1160.2 139.7, 1205.0 139.7" stroke="white" fill="none" stroke-linecap="round" stroke-width="8"/>
  <path d="M 1305.0 163.0 C 1305.0 337.0, 129.0 337.0, 129.0 511.0" stroke="white" fill="none" stroke-linecap="round" stroke-width="8"/>
  <path d="M 229.0 562.3 C 260.6 562.3, 276.4 574.0, 308.0 574.0" stroke="white" fill="none" stroke-linecap="round" stroke-width="8"/>
  <path d="M 520.0 574.0 C 550.0 574.0, 560.0 567.0, 590.0 567.0" stroke="white" fill="none" stroke-linecap="round" stroke-width="8"/>
  <path d="M 229.1 588.7 C 488.5 588.7, 618.1 565.3, 877.5 565.3" stroke="white" fill="none" stroke-linecap="round" stroke-width="8"/>
  <path d="M 228.9 582.7 C 488.3 582.7, 617.9 559.3, 877.3 559.3" stroke="white" fill="none" stroke-linecap="round" stroke-width="7"/>
  <path d="M 801.3 569.9 C 831.4 569.9, 846.5 588.6, 876.7 588.6" stroke="white" fill="none" stroke-linecap="round" stroke-width="8"/>
  <path d="M 802.7 564.1 C 832.9 564.1, 848.0 582.8, 878.1 582.8" stroke="white" fill="none" stroke-linecap="round" stroke-width="7"/>
  <path d="M 1087.6 574.0 C 1117.8 574.0, 1132.8 574.0, 1163.0 574.0" stroke="white" fill="none" stroke-linecap="round" stroke-width="8"/>
  <path d="M 1447.0 574.0 C 1477.0 574.0, 1487.0 419.5, 1517.0 419.5" stroke="white" fill="none" stroke-linecap="round" stroke-width="8"/>
  <path d="M 1305.0 609.0 C 1305.0 639.0, 982.5 639.0, 982.5 669.0" stroke="white" fill="none" stroke-linecap="round" stroke-width="7"/>
  <path d="M 514.0 130.3 C 549.2 130.3, 566.8 720.0, 602.0 720.0" stroke="white" fill="none" stroke-linecap="round" stroke-width="7"/>
  <path d="M 982.5 163.0 C 982.5 416.0, 696.0 416.0, 696.0 669.0" stroke="white" fill="none" stroke-linecap="round" stroke-width="7"/>
  <path d="M 220.6 128.0 C 258.0 128.0, 276.6 121.0, 314.0 121.0" stroke="#25537b" fill="none" stroke-linecap="round" stroke-width="4"/>
  <path d="M 219.0 279.0 C 369.8 279.0, 445.2 111.7, 596.0 111.7" stroke="#25537b" fill="none" stroke-linecap="round" stroke-width="3"/>
  <path d="M 238.0 423.0 C 624.8 423.0, 818.2 116.3, 1205.0 116.3" stroke="#25537b" fill="none" stroke-linecap="round" stroke-width="3"/>
  <path d="M 514.0 111.7 C 546.8 111.7, 563.2 130.3, 596.0 130.3" stroke="#25537b" fill="none" stroke-linecap="round" stroke-width="4"/>
  <path d="M 796.0 121.0 C 826.4 121.0, 841.6 128.0, 872.0 128.0" stroke="#25537b" fill="none" stroke-linecap="round" stroke-width="4"/>
  <path d="M 1093.0 128.0 C 1137.8 128.0, 1160.2 139.7, 1205.0 139.7" stroke="#25537b" fill="none" stroke-linecap="round" stroke-width="4"/>
  <path d="M 1305.0 163.0 C 1305.0 337.0, 129.0 337.0, 129.0 511.0" stroke="#25537b" fill="none" stroke-linecap="round" stroke-width="4"/>
  <path d="M 229.0 562.3 C 260.6 562.3, 276.4 574.0, 308.0 574.0" stroke="#25537b" fill="none" stroke-linecap="round" stroke-width="4"/>
  <path d="M 520.0 574.0 C 550.0 574.0, 560.0 567.0, 590.0 567.0" stroke="#25537b" fill="none" stroke-linecap="round" stroke-width="4"/>
  <path d="M 229.1 588.7 C 488.5 588.7, 618.1 565.3, 877.5 565.3" stroke="#25537b" fill="none" stroke-linecap="round" stroke-width="4"/>
  <path d="M 228.9 582.7 C 488.3 582.7, 617.9 559.3, 877.3 559.3" stroke="#25537b" fill="none" stroke-linecap="round" stroke-width="3"/>
  <path d="M 801.3 569.9 C 831.4 569.9, 846.5 588.6, 876.7 588.6" stroke="#25537b" fill="none" stroke-linecap="round" stroke-width="4"/>
  <path d="M 802.7 564.1 C 832.9 564.1, 848.0 582.8, 878.1 582.8" stroke="#25537b" fill="none" stroke-linecap="round" stroke-width="3"/>
  <path d="M 1087.6 574.0 C 1117.8 574.0, 1132.8 574.0, 1163.0 574.0" stroke="#25537b" fill="none" stroke-linecap="round" stroke-width="4"/>
  <path d="M 1447.0 574.0 C 1477.0 574.0, 1487.0 419.5, 1517.0 419.5" stroke="#25537b" fill="none" stroke-linecap="round" stroke-width="4"/>
  <path d="M 1305.0 609.0 C 1305.0 639.0, 982.5 639.0, 982.5 669.0" stroke="#25537b" fill="none" stroke-linecap="round" stroke-width="3" stroke-dasharray="5 3"/>
  <path d="M 514.0 130.3 C 549.2 130.3, 566.8 720.0, 602.0 720.0" stroke="#25537b" fill="none" stroke-linecap="round" stroke-width="3" stroke-dasharray="5 3"/>
  <path d="M 982.5 163.0 C 982.5 416.0, 696.0 416.0, 696.0 669.0" stroke="#25537b" fill="none" stroke-linecap="round" stroke-width="3" stroke-dasharray="5 3"/>
  <g filter="url(#wd-shadow)" transform="translate(37.4, 65.0)">
    <rect width="183.2" height="98.0" rx="4" fill="white" stroke="#ffd700" stroke-width="1.5"/>
    <rect width="183.2" height="28" rx="4" fill="#ffd700"/>
    <rect x="0" y="24" width="183.2" height="4" fill="#ffd700"/>
    <text x="10" y="19" font-family="system-ui, sans-serif" font-size="11" font-weight="500" fill="rgba(44,49,67,0.75)">1:</text>
    <text x="26" y="19" font-family="system-ui, sans-serif" font-size="11" font-weight="600" fill="#2C3143">PE FASTQ Reads</text>
    <text x="91.6" y="52" text-anchor="middle" font-family="system-ui, sans-serif" font-size="10" fill="#495057">list:paired collection</text>
    <text x="91.6" y="66" text-anchor="middle" font-family="system-ui, sans-serif" font-size="9" fill="#868e96">Illumina ARTIC amplicon data</text>
    <circle cx="183.2" cy="63.0" r="6" fill="white" stroke="#ffd700" stroke-width="2"/>
  </g>
  <g filter="url(#wd-shadow)" transform="translate(39.0, 223.0)">
    <rect width="180.0" height="84.0" rx="4" fill="white" stroke="#ffd700" stroke-width="1.5"/>
    <rect width="180.0" height="28" rx="4" fill="#ffd700"/>
    <rect x="0" y="24" width="180.0" height="4" fill="#ffd700"/>
    <text x="10" y="19" font-family="system-ui, sans-serif" font-size="11" font-weight="600" fill="#2C3143">SARS-CoV-2 Reference</text>
    <text x="90.0" y="52" text-anchor="middle" font-family="system-ui, sans-serif" font-size="10" fill="#495057">NC_045512.2 FASTA</text>
    <circle cx="180.0" cy="56.0" r="6" fill="white" stroke="#ffd700" stroke-width="2"/>
  </g>
  <g filter="url(#wd-shadow)" transform="translate(20.0, 367.0)">
    <rect width="218.0" height="84.0" rx="4" fill="white" stroke="#ffd700" stroke-width="1.5"/>
    <rect width="218.0" height="28" rx="4" fill="#ffd700"/>
    <rect x="0" y="24" width="218.0" height="4" fill="#ffd700"/>
    <text x="10" y="19" font-family="system-ui, sans-serif" font-size="11" font-weight="600" fill="#2C3143">ARTIC Primer BED</text>
    <text x="109.0" y="52" text-anchor="middle" font-family="system-ui, sans-serif" font-size="10" fill="#495057">Primer positions + amplicon map</text>
    <circle cx="218.0" cy="56.0" r="6" fill="white" stroke="#ffd700" stroke-width="2"/>
  </g>
  <g filter="url(#wd-shadow)" transform="translate(314.0, 65.0)">
    <rect width="200.0" height="84.0" rx="4" fill="white" stroke="#25537b" stroke-width="1"/>
    <rect width="200.0" height="28" rx="4" fill="#25537b"/>
    <rect x="0" y="24" width="200.0" height="4" fill="#25537b"/>
    <text x="10" y="19" font-family="system-ui, sans-serif" font-size="11" font-weight="500" fill="rgba(255,255,255,0.85)">2:</text>
    <text x="26" y="19" font-family="system-ui, sans-serif" font-size="11" font-weight="600" fill="white">fastp</text>
    <text x="100.0" y="52" text-anchor="middle" font-family="system-ui, sans-serif" font-size="10" fill="#495057">Quality trimming &amp; filtering</text>
    <circle cx="0.0" cy="56.0" r="6" fill="white" stroke="#25537b" stroke-width="2"/>
    <circle cx="200.0" cy="46.7" r="6" fill="white" stroke="#25537b" stroke-width="2"/>
    <circle cx="200.0" cy="65.3" r="6" fill="white" stroke="#25537b" stroke-width="2"/>
  </g>
  <g filter="url(#wd-shadow)" transform="translate(596.0, 65.0)">
    <rect width="200.0" height="84.0" rx="4" fill="white" stroke="#25537b" stroke-width="1"/>
    <rect width="200.0" height="28" rx="4" fill="#25537b"/>
    <rect x="0" y="24" width="200.0" height="4" fill="#25537b"/>
    <text x="10" y="19" font-family="system-ui, sans-serif" font-size="11" font-weight="500" fill="rgba(255,255,255,0.85)">3:</text>
    <text x="26" y="19" font-family="system-ui, sans-serif" font-size="11" font-weight="600" fill="white">BWA-MEM</text>
    <text x="100.0" y="52" text-anchor="middle" font-family="system-ui, sans-serif" font-size="10" fill="#495057">Map reads to reference</text>
    <circle cx="0.0" cy="46.7" r="6" fill="white" stroke="#25537b" stroke-width="2"/>
    <circle cx="0.0" cy="65.3" r="6" fill="white" stroke="#25537b" stroke-width="2"/>
    <circle cx="200.0" cy="56.0" r="6" fill="white" stroke="#25537b" stroke-width="2"/>
  </g>
  <g filter="url(#wd-shadow)" transform="translate(872.0, 65.0)">
    <rect width="221.0" height="98.0" rx="4" fill="white" stroke="#25537b" stroke-width="1"/>
    <rect width="221.0" height="28" rx="4" fill="#25537b"/>
    <rect x="0" y="24" width="221.0" height="4" fill="#25537b"/>
    <text x="10" y="19" font-family="system-ui, sans-serif" font-size="11" font-weight="500" fill="rgba(255,255,255,0.85)">4:</text>
    <text x="26" y="19" font-family="system-ui, sans-serif" font-size="11" font-weight="600" fill="white">Filter &amp; Realign</text>
    <text x="110.5" y="52" text-anchor="middle" font-family="system-ui, sans-serif" font-size="10" fill="#495057">MAPQ&gt;=20 filter, LoFreq realign</text>
    <text x="110.5" y="66" text-anchor="middle" font-family="system-ui, sans-serif" font-size="9" fill="#868e96">Samtools view + Viterbi + IndelQual</text>
    <circle cx="0.0" cy="63.0" r="6" fill="white" stroke="#25537b" stroke-width="2"/>
    <circle cx="221.0" cy="63.0" r="6" fill="white" stroke="#25537b" stroke-width="2"/>
    <circle cx="110.5" cy="98.0" r="6" fill="white" stroke="#25537b" stroke-width="2"/>
  </g>
  <g filter="url(#wd-shadow)" transform="translate(1205.0, 65.0)">
    <rect width="200.0" height="98.0" rx="4" fill="white" stroke="#25537b" stroke-width="1"/>
    <rect width="200.0" height="28" rx="4" fill="#25537b"/>
    <rect x="0" y="24" width="200.0" height="4" fill="#25537b"/>
    <text x="10" y="19" font-family="system-ui, sans-serif" font-size="11" font-weight="500" fill="rgba(255,255,255,0.85)">5:</text>
    <text x="26" y="19" font-family="system-ui, sans-serif" font-size="11" font-weight="600" fill="white">ivar trim</text>
    <text x="100.0" y="52" text-anchor="middle" font-family="system-ui, sans-serif" font-size="10" fill="#495057">Trim ARTIC primer sequences</text>
    <text x="100.0" y="66" text-anchor="middle" font-family="system-ui, sans-serif" font-size="9" fill="#868e96">Amplicon-aware trimming</text>
    <circle cx="0.0" cy="51.3" r="6" fill="white" stroke="#25537b" stroke-width="2"/>
    <circle cx="0.0" cy="74.7" r="6" fill="white" stroke="#25537b" stroke-width="2"/>
    <circle cx="100.0" cy="98.0" r="6" fill="white" stroke="#25537b" stroke-width="2"/>
  </g>
  <g filter="url(#wd-shadow)" transform="translate(29.0, 511.0)">
    <rect width="200.0" height="98.0" rx="4" fill="white" stroke="#25537b" stroke-width="1"/>
    <rect width="200.0" height="28" rx="4" fill="#25537b"/>
    <rect x="0" y="24" width="200.0" height="4" fill="#25537b"/>
    <text x="10" y="19" font-family="system-ui, sans-serif" font-size="11" font-weight="500" fill="rgba(255,255,255,0.85)">6:</text>
    <text x="26" y="19" font-family="system-ui, sans-serif" font-size="11" font-weight="600" fill="white">LoFreq Call (1st pass)</text>
    <text x="100.0" y="52" text-anchor="middle" font-family="system-ui, sans-serif" font-size="10" fill="#495057">Initial variant calling</text>
    <text x="100.0" y="66" text-anchor="middle" font-family="system-ui, sans-serif" font-size="9" fill="#868e96">SNVs + indels</text>
    <circle cx="100.0" cy="0.0" r="6" fill="white" stroke="#25537b" stroke-width="2"/>
    <circle cx="200.0" cy="51.3" r="6" fill="white" stroke="#25537b" stroke-width="2"/>
    <circle cx="200.0" cy="74.7" r="6" fill="white" stroke="#25537b" stroke-width="2"/>
  </g>
  <g filter="url(#wd-shadow)" transform="translate(308.0, 511.0)">
    <rect width="212.0" height="98.0" rx="4" fill="white" stroke="#25537b" stroke-width="1"/>
    <rect width="212.0" height="28" rx="4" fill="#25537b"/>
    <rect x="0" y="24" width="212.0" height="4" fill="#25537b"/>
    <text x="10" y="19" font-family="system-ui, sans-serif" font-size="11" font-weight="500" fill="rgba(255,255,255,0.85)">7:</text>
    <text x="26" y="19" font-family="system-ui, sans-serif" font-size="11" font-weight="600" fill="white">ivar removereads</text>
    <text x="106.0" y="52" text-anchor="middle" font-family="system-ui, sans-serif" font-size="10" fill="#495057">Remove primer-biased amplicons</text>
    <text x="106.0" y="66" text-anchor="middle" font-family="system-ui, sans-serif" font-size="9" fill="#868e96">Excludes tainted amplicon reads</text>
    <circle cx="0.0" cy="63.0" r="6" fill="white" stroke="#25537b" stroke-width="2"/>
    <circle cx="212.0" cy="63.0" r="6" fill="white" stroke="#25537b" stroke-width="2"/>
  </g>
  <g filter="url(#wd-shadow)" transform="translate(590.0, 511.0)">
    <rect width="212.0" height="84.0" rx="4" fill="white" stroke="#25537b" stroke-width="1"/>
    <rect width="212.0" height="28" rx="4" fill="#25537b"/>
    <rect x="0" y="24" width="212.0" height="4" fill="#25537b"/>
    <text x="10" y="19" font-family="system-ui, sans-serif" font-size="11" font-weight="500" fill="rgba(255,255,255,0.85)">8:</text>
    <text x="26" y="19" font-family="system-ui, sans-serif" font-size="11" font-weight="600" fill="white">LoFreq Call (2nd pass)</text>
    <text x="106.0" y="52" text-anchor="middle" font-family="system-ui, sans-serif" font-size="10" fill="#495057">Bias-corrected variant calling</text>
    <circle cx="0.0" cy="56.0" r="6" fill="white" stroke="#25537b" stroke-width="2"/>
    <circle cx="212.0" cy="56.0" r="6" fill="white" stroke="#25537b" stroke-width="2"/>
  </g>
  <g filter="url(#wd-shadow)" transform="translate(877.4, 511.0)">
    <rect width="210.2" height="98.0" rx="4" fill="white" stroke="#25537b" stroke-width="1"/>
    <rect width="210.2" height="28" rx="4" fill="#25537b"/>
    <rect x="0" y="24" width="210.2" height="4" fill="#25537b"/>
    <text x="10" y="19" font-family="system-ui, sans-serif" font-size="11" font-weight="500" fill="rgba(255,255,255,0.85)">9:</text>
    <text x="26" y="19" font-family="system-ui, sans-serif" font-size="11" font-weight="600" fill="white">Amplicon Bias Annotation</text>
    <text x="105.1" y="52" text-anchor="middle" font-family="system-ui, sans-serif" font-size="10" fill="#495057">Flag bias-affected variants</text>
    <text x="105.1" y="66" text-anchor="middle" font-family="system-ui, sans-serif" font-size="9" fill="#868e96">bcftools annotate + VCF intersect</text>
    <circle cx="0.0" cy="51.3" r="6" fill="white" stroke="#25537b" stroke-width="2"/>
    <circle cx="0.0" cy="74.7" r="6" fill="white" stroke="#25537b" stroke-width="2"/>
    <circle cx="210.2" cy="63.0" r="6" fill="white" stroke="#25537b" stroke-width="2"/>
  </g>
  <g filter="url(#wd-shadow)" transform="translate(1163.0, 511.0)">
    <rect width="284.0" height="98.0" rx="4" fill="white" stroke="#25537b" stroke-width="1"/>
    <rect width="284.0" height="28" rx="4" fill="#25537b"/>
    <rect x="0" y="24" width="284.0" height="4" fill="#25537b"/>
    <text x="10" y="19" font-family="system-ui, sans-serif" font-size="11" font-weight="500" fill="rgba(255,255,255,0.85)">10:</text>
    <text x="26" y="19" font-family="system-ui, sans-serif" font-size="11" font-weight="600" fill="white">SnpEff + LoFreq filter</text>
    <text x="142.0" y="52" text-anchor="middle" font-family="system-ui, sans-serif" font-size="10" fill="#495057">Functional annotation &amp; strand-bias filter</text>
    <text x="142.0" y="66" text-anchor="middle" font-family="system-ui, sans-serif" font-size="9" fill="#868e96">COVID-19-specific annotation</text>
    <circle cx="0.0" cy="63.0" r="6" fill="white" stroke="#25537b" stroke-width="2"/>
    <circle cx="284.0" cy="63.0" r="6" fill="white" stroke="#25537b" stroke-width="2"/>
    <circle cx="142.0" cy="98.0" r="6" fill="white" stroke="#25537b" stroke-width="2"/>
  </g>
  <g filter="url(#wd-shadow)" transform="translate(1517.0, 367.0)">
    <rect width="182.0" height="77.0" rx="4" fill="white" stroke="#10b981" stroke-width="1.5"/>
    <rect width="182.0" height="28" rx="4" fill="#10b981"/>
    <rect x="0" y="24" width="182.0" height="4" fill="#10b981"/>
    <text x="10" y="19" font-family="system-ui, sans-serif" font-size="11" font-weight="600" fill="white">Annotated Variants</text>
    <text x="91.0" y="52" text-anchor="middle" font-family="system-ui, sans-serif" font-size="10" fill="#495057">Final VCF with bias flags</text>
    <circle cx="0.0" cy="52.5" r="5" fill="white" stroke="#10b981" stroke-width="2"/>
  </g>
  <g filter="url(#wd-shadow)" transform="translate(900.5, 669.0)">
    <rect width="164.0" height="64.0" rx="4" fill="white" stroke="#5bc0de" stroke-width="1.5" stroke-dasharray="4 2"/>
    <rect width="164.0" height="24" rx="4" fill="#5bc0de"/>
    <rect x="0" y="20" width="164.0" height="4" fill="#5bc0de"/>
    <text x="10" y="15" font-family="system-ui, sans-serif" font-size="11" font-weight="600" fill="white">SnpEff Stats</text>
    <text x="82.0" y="48" text-anchor="middle" font-family="system-ui, sans-serif" font-size="10" fill="#495057">Variant effect summary</text>
    <circle cx="82.0" cy="0.0" r="5" fill="white" stroke="#5bc0de" stroke-width="2"/>
  </g>
  <g filter="url(#wd-shadow)" transform="translate(602.0, 669.0)">
    <rect width="188.0" height="78.0" rx="4" fill="white" stroke="#5bc0de" stroke-width="1.5" stroke-dasharray="4 2"/>
    <rect width="188.0" height="24" rx="4" fill="#5bc0de"/>
    <rect x="0" y="20" width="188.0" height="4" fill="#5bc0de"/>
    <text x="10" y="15" font-family="system-ui, sans-serif" font-size="11" font-weight="600" fill="white">MultiQC</text>
    <text x="94.0" y="48" text-anchor="middle" font-family="system-ui, sans-serif" font-size="10" fill="#495057">Preprocessing &amp; mapping QC</text>
    <text x="94.0" y="62" text-anchor="middle" font-family="system-ui, sans-serif" font-size="9" fill="#868e96">fastp + Samtools + QualiMap</text>
    <circle cx="0.0" cy="51.0" r="5" fill="white" stroke="#5bc0de" stroke-width="2"/>
    <circle cx="94.0" cy="0.0" r="5" fill="white" stroke="#5bc0de" stroke-width="2"/>
  </g>
  <g transform="translate(20, 782)">
    <text x="0" y="0" font-family="system-ui, sans-serif" font-size="10" font-weight="600" fill="#495057">Legend:</text>
    <rect x="60" y="-10" width="14" height="14" rx="2" fill="white" stroke="#ffd700" stroke-width="1.5"/>
    <text x="80" y="0" font-family="system-ui, sans-serif" font-size="9" fill="#6c757d">Input</text>
    <line x1="123.0" y1="-4" x2="163.0" y2="-4" stroke="#25537b" stroke-width="4" stroke-linecap="round"/>
    <text x="171.0" y="0" font-family="system-ui, sans-serif" font-size="9" fill="#6c757d">Data flow</text>
    <line x1="235.6" y1="-4" x2="275.6" y2="-4" stroke="#25537b" stroke-width="3" stroke-linecap="round"/>
    <text x="283.6" y="0" font-family="system-ui, sans-serif" font-size="9" fill="#6c757d">Secondary</text>
    <line x1="348.2" y1="-4" x2="388.2" y2="-4" stroke="#25537b" stroke-width="3" stroke-linecap="round" stroke-dasharray="5 3"/>
    <text x="396.2" y="0" font-family="system-ui, sans-serif" font-size="9" fill="#6c757d">QC metrics</text>
    <rect x="466.2" y="-10" width="14" height="14" rx="2" fill="white" stroke="#10b981" stroke-width="1.5"/>
    <text x="486.2" y="0" font-family="system-ui, sans-serif" font-size="9" fill="#6c757d">Output</text>
    <rect x="534.6" y="-10" width="14" height="14" rx="2" fill="white" stroke="#5bc0de" stroke-width="1.5"/>
    <text x="554.6" y="0" font-family="system-ui, sans-serif" font-size="9" fill="#6c757d">Report</text>
  </g>
</svg>