<svg xmlns="http://www.w3.org/2000/svg" viewBox="0 0 920 450" role="img" aria-label="QIIME2 IIb: Denoising and feature table creation paired-end workflow diagram">
  <title>QIIME2 IIb: Denoising and Feature Table Creation (Paired-End)</title>
  <desc>Workflow that uses DADA2 to denoise paired-end demultiplexed sequences, creating a feature table and representative sequences, then visualizes results with tabulations and summaries.</desc>

  <defs>
    <pattern id="grid" width="20" height="20" patternUnits="userSpaceOnUse">
      <path d="M 20 0 L 0 0 0 20" fill="none" stroke="#c5d5e4" stroke-width="0.5"/>
    </pattern>
    <pattern id="grid-major" width="100" height="100" patternUnits="userSpaceOnUse">
      <rect width="100" height="100" fill="url(#grid)"/>
      <path d="M 100 0 L 0 0 0 100" fill="none" stroke="#b0c4d8" stroke-width="1"/>
    </pattern>
    <style>
      .connection { stroke: #25537b; stroke-width: 4; fill: none; stroke-linecap: round; }
      .connection-qc { stroke: #25537b; stroke-width: 3; fill: none; stroke-linecap: round; stroke-dasharray: 5 3; }
      .node-card { filter: drop-shadow(1px 2px 3px rgba(0,0,0,0.15)); }
    </style>
  </defs>

  <!-- Background -->
  <rect width="920" height="450" fill="#f8f9fa"/>
  <rect width="920" height="450" fill="url(#grid-major)"/>

  <!-- Title bar -->
  <rect x="0" y="0" width="920" height="45" fill="#25537b"/>
  <text x="20" y="28" font-family="system-ui, sans-serif" font-size="16" font-weight="600" fill="white">QIIME2 IIb: Denoising &amp; Feature Table (Paired-End)</text>

  <!-- CONNECTIONS -->
  <!-- Metadata to Feature Table Summarize -->
  <path class="connection" d="M 200 115 C 440 115, 500 375, 570 375"/>
  <!-- Demux seqs to DADA2 -->
  <path class="connection" d="M 200 215 C 255 215, 270 190, 310 190"/>
  <!-- DADA2 to Rep Seqs output -->
  <path class="connection" d="M 510 170 C 540 170, 555 90, 570 90"/>
  <!-- DADA2 to Feature Table output -->
  <path class="connection" d="M 510 190 C 540 190, 555 195, 570 195"/>
  <!-- DADA2 to Denoising Stats output -->
  <path class="connection" d="M 510 210 C 540 210, 555 295, 570 295"/>
  <!-- Rep Seqs to Viz (green) -->
  <path class="connection-qc" d="M 770 90 C 800 90, 810 90, 820 90"/>
  <!-- Stats to Viz (green) -->
  <path class="connection-qc" d="M 770 295 C 800 295, 810 295, 820 295"/>
  <!-- Table to Viz (green) -->
  <path class="connection-qc" d="M 770 195 C 790 195, 790 380, 820 380"/>

  <!-- NODE: Metadata Input (Gold) -->
  <g class="node-card" transform="translate(20, 70)">
    <rect width="180" height="90" rx="4" fill="white" stroke="#ffd700" stroke-width="1.5"/>
    <rect width="180" height="28" rx="4" fill="#ffd700"/>
    <rect x="0" y="24" width="180" height="4" fill="#ffd700"/>
    <text x="10" y="19" font-family="system-ui, sans-serif" font-size="11" fill="rgba(44,49,67,0.6)">1:</text>
    <text x="26" y="19" font-family="system-ui, sans-serif" font-size="11" font-weight="600" fill="#2C3143">Metadata</text>
    <text x="90" y="55" text-anchor="middle" font-family="system-ui, sans-serif" font-size="10" fill="#495057">Sample metadata</text>
    <text x="90" y="72" text-anchor="middle" font-family="system-ui, sans-serif" font-size="9" fill="#868e96">tabular (TSV)</text>
    <circle cx="180" cy="45" r="6" fill="white" stroke="#ffd700" stroke-width="2"/>
  </g>

  <!-- NODE: Demultiplexed Sequences Input (Gold) -->
  <g class="node-card" transform="translate(20, 170)">
    <rect width="180" height="90" rx="4" fill="white" stroke="#ffd700" stroke-width="1.5"/>
    <rect width="180" height="28" rx="4" fill="#ffd700"/>
    <rect x="0" y="24" width="180" height="4" fill="#ffd700"/>
    <text x="10" y="19" font-family="system-ui, sans-serif" font-size="11" fill="rgba(44,49,67,0.6)">2:</text>
    <text x="26" y="19" font-family="system-ui, sans-serif" font-size="11" font-weight="600" fill="#2C3143">Demux Sequences</text>
    <text x="90" y="55" text-anchor="middle" font-family="system-ui, sans-serif" font-size="10" fill="#495057">Demultiplexed sequences</text>
    <text x="90" y="72" text-anchor="middle" font-family="system-ui, sans-serif" font-size="9" fill="#868e96">qza format</text>
    <circle cx="180" cy="45" r="6" fill="white" stroke="#ffd700" stroke-width="2"/>
  </g>

  <!-- NODE: DADA2 Denoise Paired (Blue - central) -->
  <g class="node-card" transform="translate(310, 145)">
    <rect width="200" height="90" rx="4" fill="white" stroke="#25537b" stroke-width="1"/>
    <rect width="200" height="28" rx="4" fill="#25537b"/>
    <rect x="0" y="24" width="200" height="4" fill="#25537b"/>
    <text x="10" y="19" font-family="system-ui, sans-serif" font-size="11" fill="rgba(255,255,255,0.7)">3:</text>
    <text x="26" y="19" font-family="system-ui, sans-serif" font-size="11" font-weight="600" fill="white">DADA2 Denoise</text>
    <text x="100" y="55" text-anchor="middle" font-family="system-ui, sans-serif" font-size="10" fill="#495057">Denoise &amp; dereplicate</text>
    <text x="100" y="69" text-anchor="middle" font-family="system-ui, sans-serif" font-size="10" fill="#495057">paired-end sequences</text>
    <text x="100" y="83" text-anchor="middle" font-family="system-ui, sans-serif" font-size="9" fill="#868e96">dada2 denoise-paired</text>
    <circle cx="0" cy="45" r="6" fill="white" stroke="#25537b" stroke-width="2"/>
    <circle cx="200" cy="25" r="6" fill="white" stroke="#25537b" stroke-width="2"/>
    <circle cx="200" cy="45" r="6" fill="white" stroke="#25537b" stroke-width="2"/>
    <circle cx="200" cy="65" r="6" fill="white" stroke="#25537b" stroke-width="2"/>
  </g>

  <!-- NODE: Rep Seqs Output (Orange) -->
  <g class="node-card" transform="translate(570, 60)">
    <rect width="200" height="60" rx="4" fill="white" stroke="#f97316" stroke-width="1.5"/>
    <rect width="200" height="24" rx="4" fill="#f97316"/>
    <rect x="0" y="20" width="200" height="4" fill="#f97316"/>
    <text x="100" y="16" text-anchor="middle" font-family="system-ui, sans-serif" font-size="10" font-weight="600" fill="white">Representative Sequences</text>
    <text x="100" y="42" text-anchor="middle" font-family="system-ui, sans-serif" font-size="9" fill="#495057">Denoised rep seqs (qza)</text>
    <circle cx="0" cy="30" r="5" fill="white" stroke="#f97316" stroke-width="2"/>
    <circle cx="200" cy="30" r="5" fill="white" stroke="#f97316" stroke-width="2"/>
  </g>

  <!-- NODE: Feature Table Output (Orange) -->
  <g class="node-card" transform="translate(570, 165)">
    <rect width="200" height="60" rx="4" fill="white" stroke="#f97316" stroke-width="1.5"/>
    <rect width="200" height="24" rx="4" fill="#f97316"/>
    <rect x="0" y="20" width="200" height="4" fill="#f97316"/>
    <text x="100" y="16" text-anchor="middle" font-family="system-ui, sans-serif" font-size="10" font-weight="600" fill="white">Feature Table</text>
    <text x="100" y="42" text-anchor="middle" font-family="system-ui, sans-serif" font-size="9" fill="#495057">DADA2 output table (qza)</text>
    <circle cx="0" cy="30" r="5" fill="white" stroke="#f97316" stroke-width="2"/>
    <circle cx="200" cy="30" r="5" fill="white" stroke="#f97316" stroke-width="2"/>
  </g>

  <!-- NODE: Denoising Stats Output (Orange) -->
  <g class="node-card" transform="translate(570, 265)">
    <rect width="200" height="60" rx="4" fill="white" stroke="#f97316" stroke-width="1.5"/>
    <rect width="200" height="24" rx="4" fill="#f97316"/>
    <rect x="0" y="20" width="200" height="4" fill="#f97316"/>
    <text x="100" y="16" text-anchor="middle" font-family="system-ui, sans-serif" font-size="10" font-weight="600" fill="white">Denoising Statistics</text>
    <text x="100" y="42" text-anchor="middle" font-family="system-ui, sans-serif" font-size="9" fill="#495057">DADA2 stats (qza)</text>
    <circle cx="0" cy="30" r="5" fill="white" stroke="#f97316" stroke-width="2"/>
    <circle cx="200" cy="30" r="5" fill="white" stroke="#f97316" stroke-width="2"/>
  </g>

  <!-- NODE: Rep Seqs Visualization (Green) -->
  <g class="node-card" transform="translate(820, 65)">
    <rect width="80" height="55" rx="4" fill="white" stroke="#10b981" stroke-width="1.5"/>
    <rect width="80" height="24" rx="4" fill="#10b981"/>
    <rect x="0" y="20" width="80" height="4" fill="#10b981"/>
    <text x="40" y="16" text-anchor="middle" font-family="system-ui, sans-serif" font-size="10" font-weight="600" fill="white">Seq View</text>
    <text x="40" y="42" text-anchor="middle" font-family="system-ui, sans-serif" font-size="8" fill="#868e96">tabulate-seqs</text>
    <circle cx="0" cy="25" r="5" fill="white" stroke="#10b981" stroke-width="2"/>
  </g>

  <!-- NODE: Stats Visualization (Green) -->
  <g class="node-card" transform="translate(820, 270)">
    <rect width="80" height="55" rx="4" fill="white" stroke="#10b981" stroke-width="1.5"/>
    <rect width="80" height="24" rx="4" fill="#10b981"/>
    <rect x="0" y="20" width="80" height="4" fill="#10b981"/>
    <text x="40" y="16" text-anchor="middle" font-family="system-ui, sans-serif" font-size="10" font-weight="600" fill="white">Stats</text>
    <text x="40" y="42" text-anchor="middle" font-family="system-ui, sans-serif" font-size="8" fill="#868e96">metadata tab.</text>
    <circle cx="0" cy="25" r="5" fill="white" stroke="#10b981" stroke-width="2"/>
  </g>

  <!-- NODE: Feature Table Summarize (Green) -->
  <g class="node-card" transform="translate(820, 355)">
    <rect width="80" height="55" rx="4" fill="white" stroke="#10b981" stroke-width="1.5"/>
    <rect width="80" height="24" rx="4" fill="#10b981"/>
    <rect x="0" y="20" width="80" height="4" fill="#10b981"/>
    <text x="40" y="16" text-anchor="middle" font-family="system-ui, sans-serif" font-size="10" font-weight="600" fill="white">Table</text>
    <text x="40" y="42" text-anchor="middle" font-family="system-ui, sans-serif" font-size="8" fill="#868e96">ft summarize</text>
    <circle cx="0" cy="25" r="5" fill="white" stroke="#10b981" stroke-width="2"/>
  </g>

  <!-- Legend -->
  <g transform="translate(20, 425)">
    <text x="0" y="0" font-family="system-ui, sans-serif" font-size="10" font-weight="600" fill="#495057">Legend:</text>
    <rect x="60" y="-10" width="14" height="14" rx="2" fill="white" stroke="#ffd700" stroke-width="1.5"/>
    <text x="80" y="0" font-family="system-ui, sans-serif" font-size="9" fill="#6c757d">Input</text>
    <line x1="120" y1="-4" x2="160" y2="-4" stroke="#25537b" stroke-width="4" stroke-linecap="round"/>
    <text x="168" y="0" font-family="system-ui, sans-serif" font-size="9" fill="#6c757d">Data flow</text>
    <line x1="240" y1="-4" x2="280" y2="-4" stroke="#25537b" stroke-width="3" stroke-linecap="round" stroke-dasharray="5 3"/>
    <text x="288" y="0" font-family="system-ui, sans-serif" font-size="9" fill="#6c757d">QC metrics</text>
    <rect x="360" y="-10" width="14" height="14" rx="2" fill="white" stroke="#f97316" stroke-width="1.5"/>
    <text x="380" y="0" font-family="system-ui, sans-serif" font-size="9" fill="#6c757d">Output</text>
    <rect x="430" y="-10" width="14" height="14" rx="2" fill="white" stroke="#10b981" stroke-width="1.5"/>
    <text x="450" y="0" font-family="system-ui, sans-serif" font-size="9" fill="#6c757d">Report</text>
  </g>

</svg>