<svg viewBox="0 0 1107 371" aria-label="BigWig Replicates Averaging" role="img" xmlns="http://www.w3.org/2000/svg">
  <title>BigWig Replicates Averaging</title>
  <defs>
    <pattern id="wd-grid" width="20" height="20" patternUnits="userSpaceOnUse">
      <path d="M 20 0 L 0 0 0 20" fill="none" stroke="#c5d5e4" stroke-width="0.5"/>
    </pattern>
    <pattern id="wd-grid-major" width="100" height="100" patternUnits="userSpaceOnUse">
      <rect width="100" height="100" fill="url(#wd-grid)"/>
      <path d="M 100 0 L 0 0 0 100" fill="none" stroke="#b0c4d8" stroke-width="1"/>
    </pattern>
    <filter id="wd-shadow" x="-5%" y="-5%" width="115%" height="115%">
      <feDropShadow dx="1" dy="2" stdDeviation="1.5" flood-opacity="0.15"/>
    </filter>
  </defs>
  <rect width="1107" height="371" fill="#f8f9fa"/>
  <rect width="1107" height="371" fill="url(#wd-grid-major)"/>
  <rect x="0" y="0" width="1107" height="45" fill="#25537b"/>
  <text x="20" y="28" font-family="system-ui, sans-serif" font-size="16" font-weight="600" fill="white">BigWig Replicates Averaging</text>
  <path d="M 201.6 128.0 C 242.2 128.0, 262.6 128.0, 303.2 128.0" stroke="white" fill="none" stroke-linecap="round" stroke-width="8"/>
  <path d="M 503.2 128.0 C 543.2 128.0, 563.2 116.3, 603.2 116.3" stroke="white" fill="none" stroke-linecap="round" stroke-width="8"/>
  <path d="M 203.2 286.0 C 363.2 286.0, 443.2 139.7, 603.2 139.7" stroke="white" fill="none" stroke-linecap="round" stroke-width="7"/>
  <path d="M 827.2 128.0 C 867.2 128.0, 887.2 117.5, 927.2 117.5" stroke="white" fill="none" stroke-linecap="round" stroke-width="8"/>
  <path d="M 201.6 128.0 C 242.2 128.0, 262.6 128.0, 303.2 128.0" stroke="#25537b" fill="none" stroke-linecap="round" stroke-width="4"/>
  <path d="M 503.2 128.0 C 543.2 128.0, 563.2 116.3, 603.2 116.3" stroke="#25537b" fill="none" stroke-linecap="round" stroke-width="4"/>
  <path d="M 203.2 286.0 C 363.2 286.0, 443.2 139.7, 603.2 139.7" stroke="#25537b" fill="none" stroke-linecap="round" stroke-width="3"/>
  <path d="M 827.2 128.0 C 867.2 128.0, 887.2 117.5, 927.2 117.5" stroke="#25537b" fill="none" stroke-linecap="round" stroke-width="4"/>
  <g filter="url(#wd-shadow)" transform="translate(21.6, 65.0)">
    <rect width="180.0" height="98.0" rx="4" fill="white" stroke="#ffd700" stroke-width="1.5"/>
    <rect width="180.0" height="28" rx="4" fill="#ffd700"/>
    <rect x="0" y="24" width="180.0" height="4" fill="#ffd700"/>
    <text x="10" y="19" font-family="system-ui, sans-serif" font-size="11" font-weight="500" fill="rgba(44,49,67,0.75)">1:</text>
    <text x="26" y="19" font-family="system-ui, sans-serif" font-size="11" font-weight="600" fill="#2C3143">BigWig Collection</text>
    <text x="90.0" y="52" text-anchor="middle" font-family="system-ui, sans-serif" font-size="10" fill="#495057">list collection</text>
    <text x="90.0" y="66" text-anchor="middle" font-family="system-ui, sans-serif" font-size="9" fill="#868e96">Replicate BigWig files</text>
    <circle cx="180.0" cy="63.0" r="6" fill="white" stroke="#ffd700" stroke-width="2"/>
  </g>
  <g filter="url(#wd-shadow)" transform="translate(20.0, 223.0)">
    <rect width="183.2" height="98.0" rx="4" fill="white" stroke="#ffd700" stroke-width="1.5"/>
    <rect width="183.2" height="28" rx="4" fill="#ffd700"/>
    <rect x="0" y="24" width="183.2" height="4" fill="#ffd700"/>
    <text x="10" y="19" font-family="system-ui, sans-serif" font-size="11" font-weight="600" fill="#2C3143">Bin Size</text>
    <text x="91.6" y="52" text-anchor="middle" font-family="system-ui, sans-serif" font-size="10" fill="#495057">Integer parameter</text>
    <text x="91.6" y="66" text-anchor="middle" font-family="system-ui, sans-serif" font-size="9" fill="#868e96">Resolution for output BigWig</text>
    <circle cx="183.2" cy="63.0" r="6" fill="white" stroke="#ffd700" stroke-width="2"/>
  </g>
  <g filter="url(#wd-shadow)" transform="translate(303.2, 65.0)">
    <rect width="200.0" height="98.0" rx="4" fill="white" stroke="#25537b" stroke-width="1"/>
    <rect width="200.0" height="28" rx="4" fill="#25537b"/>
    <rect x="0" y="24" width="200.0" height="4" fill="#25537b"/>
    <text x="10" y="19" font-family="system-ui, sans-serif" font-size="11" font-weight="500" fill="rgba(255,255,255,0.85)">2:</text>
    <text x="26" y="19" font-family="system-ui, sans-serif" font-size="11" font-weight="600" fill="white">Apply Rules</text>
    <text x="100.0" y="52" text-anchor="middle" font-family="system-ui, sans-serif" font-size="10" fill="#495057">Group by sample name</text>
    <text x="100.0" y="66" text-anchor="middle" font-family="system-ui, sans-serif" font-size="9" fill="#868e96">Parse sample_replicate IDs</text>
    <circle cx="0.0" cy="63.0" r="6" fill="white" stroke="#25537b" stroke-width="2"/>
    <circle cx="200.0" cy="63.0" r="6" fill="white" stroke="#25537b" stroke-width="2"/>
  </g>
  <g filter="url(#wd-shadow)" transform="translate(603.2, 65.0)">
    <rect width="224.0" height="98.0" rx="4" fill="white" stroke="#25537b" stroke-width="1"/>
    <rect width="224.0" height="28" rx="4" fill="#25537b"/>
    <rect x="0" y="24" width="224.0" height="4" fill="#25537b"/>
    <text x="10" y="19" font-family="system-ui, sans-serif" font-size="11" font-weight="500" fill="rgba(255,255,255,0.85)">3:</text>
    <text x="26" y="19" font-family="system-ui, sans-serif" font-size="11" font-weight="600" fill="white">bigwigAverage</text>
    <text x="112.0" y="52" text-anchor="middle" font-family="system-ui, sans-serif" font-size="10" fill="#495057">Average signal across replicates</text>
    <text x="112.0" y="66" text-anchor="middle" font-family="system-ui, sans-serif" font-size="9" fill="#868e96">deepTools mean per position</text>
    <circle cx="0.0" cy="51.3" r="6" fill="white" stroke="#25537b" stroke-width="2"/>
    <circle cx="0.0" cy="74.7" r="6" fill="white" stroke="#25537b" stroke-width="2"/>
    <circle cx="224.0" cy="63.0" r="6" fill="white" stroke="#25537b" stroke-width="2"/>
  </g>
  <g filter="url(#wd-shadow)" transform="translate(927.2, 65.0)">
    <rect width="160.0" height="77.0" rx="4" fill="white" stroke="#10b981" stroke-width="1.5"/>
    <rect width="160.0" height="28" rx="4" fill="#10b981"/>
    <rect x="0" y="24" width="160.0" height="4" fill="#10b981"/>
    <text x="10" y="19" font-family="system-ui, sans-serif" font-size="11" font-weight="600" fill="white">Averaged BigWigs</text>
    <text x="80.0" y="52" text-anchor="middle" font-family="system-ui, sans-serif" font-size="10" fill="#495057">One BigWig per sample</text>
    <circle cx="0.0" cy="52.5" r="5" fill="white" stroke="#10b981" stroke-width="2"/>
  </g>
  <g transform="translate(20, 356)">
    <text x="0" y="0" font-family="system-ui, sans-serif" font-size="10" font-weight="600" fill="#495057">Legend:</text>
    <rect x="60" y="-10" width="14" height="14" rx="2" fill="white" stroke="#ffd700" stroke-width="1.5"/>
    <text x="80" y="0" font-family="system-ui, sans-serif" font-size="9" fill="#6c757d">Input</text>
    <line x1="123.0" y1="-4" x2="163.0" y2="-4" stroke="#25537b" stroke-width="4" stroke-linecap="round"/>
    <text x="171.0" y="0" font-family="system-ui, sans-serif" font-size="9" fill="#6c757d">Data flow</text>
    <rect x="235.6" y="-10" width="14" height="14" rx="2" fill="white" stroke="#10b981" stroke-width="1.5"/>
    <text x="255.6" y="0" font-family="system-ui, sans-serif" font-size="9" fill="#6c757d">Output</text>
  </g>
</svg>