<svg viewBox="0 0 876 357" aria-label="Host or Contamination Removal on Short-Reads" role="img" xmlns="http://www.w3.org/2000/svg">
  <title>Host or Contamination Removal on Short-Reads</title>
  <defs>
    <pattern id="wd-grid" width="20" height="20" patternUnits="userSpaceOnUse">
      <path d="M 20 0 L 0 0 0 20" fill="none" stroke="#c5d5e4" stroke-width="0.5"/>
    </pattern>
    <pattern id="wd-grid-major" width="100" height="100" patternUnits="userSpaceOnUse">
      <rect width="100" height="100" fill="url(#wd-grid)"/>
      <path d="M 100 0 L 0 0 0 100" fill="none" stroke="#b0c4d8" stroke-width="1"/>
    </pattern>
    <filter id="wd-shadow" x="-5%" y="-5%" width="115%" height="115%">
      <feDropShadow dx="1" dy="2" stdDeviation="1.5" flood-opacity="0.15"/>
    </filter>
  </defs>
  <rect width="876" height="357" fill="#f8f9fa"/>
  <rect width="876" height="357" fill="url(#wd-grid-major)"/>
  <rect x="0" y="0" width="876" height="45" fill="#25537b"/>
  <text x="20" y="28" font-family="system-ui, sans-serif" font-size="16" font-weight="600" fill="white">Host or Contamination Removal on Short-Reads</text>
  <path d="M 214.0 121.0 C 260.0 121.0, 283.0 116.3, 329.0 116.3" stroke="white" fill="none" stroke-linecap="round" stroke-width="8"/>
  <path d="M 207.0 279.0 C 255.8 279.0, 280.2 139.7, 329.0 139.7" stroke="white" fill="none" stroke-linecap="round" stroke-width="7"/>
  <path d="M 529.0 116.3 C 575.0 116.3, 598.0 117.5, 644.0 117.5" stroke="white" fill="none" stroke-linecap="round" stroke-width="8"/>
  <path d="M 529.0 139.7 C 583.4 139.7, 610.6 267.0, 665.0 267.0" stroke="white" fill="none" stroke-linecap="round" stroke-width="7"/>
  <path d="M 835.0 267.0 C 906.6 267.0, 584.4 275.5, 656.0 275.5" stroke="white" fill="none" stroke-linecap="round" stroke-width="8"/>
  <path d="M 214.0 121.0 C 260.0 121.0, 283.0 116.3, 329.0 116.3" stroke="#25537b" fill="none" stroke-linecap="round" stroke-width="4"/>
  <path d="M 207.0 279.0 C 255.8 279.0, 280.2 139.7, 329.0 139.7" stroke="#25537b" fill="none" stroke-linecap="round" stroke-width="3"/>
  <path d="M 529.0 116.3 C 575.0 116.3, 598.0 117.5, 644.0 117.5" stroke="#25537b" fill="none" stroke-linecap="round" stroke-width="4"/>
  <path d="M 529.0 139.7 C 583.4 139.7, 610.6 267.0, 665.0 267.0" stroke="#25537b" fill="none" stroke-linecap="round" stroke-width="3" stroke-dasharray="5 3"/>
  <path d="M 835.0 267.0 C 906.6 267.0, 584.4 275.5, 656.0 275.5" stroke="#25537b" fill="none" stroke-linecap="round" stroke-width="4"/>
  <g filter="url(#wd-shadow)" transform="translate(20.0, 65.0)">
    <rect width="194.0" height="84.0" rx="4" fill="white" stroke="#ffd700" stroke-width="1.5"/>
    <rect width="194.0" height="28" rx="4" fill="#ffd700"/>
    <rect x="0" y="24" width="194.0" height="4" fill="#ffd700"/>
    <text x="10" y="19" font-family="system-ui, sans-serif" font-size="11" font-weight="600" fill="#2C3143">Short-reads</text>
    <text x="97.0" y="52" text-anchor="middle" font-family="system-ui, sans-serif" font-size="10" fill="#495057">Paired-end fastq collection</text>
    <circle cx="194.0" cy="56.0" r="6" fill="white" stroke="#ffd700" stroke-width="2"/>
  </g>
  <g filter="url(#wd-shadow)" transform="translate(27.0, 223.0)">
    <rect width="180.0" height="84.0" rx="4" fill="white" stroke="#ffd700" stroke-width="1.5"/>
    <rect width="180.0" height="28" rx="4" fill="#ffd700"/>
    <rect x="0" y="24" width="180.0" height="4" fill="#ffd700"/>
    <text x="10" y="19" font-family="system-ui, sans-serif" font-size="11" font-weight="600" fill="#2C3143">Reference Genome</text>
    <text x="90.0" y="52" text-anchor="middle" font-family="system-ui, sans-serif" font-size="10" fill="#495057">Host/contaminant genome</text>
    <circle cx="180.0" cy="56.0" r="6" fill="white" stroke="#ffd700" stroke-width="2"/>
  </g>
  <g filter="url(#wd-shadow)" transform="translate(329.0, 65.0)">
    <rect width="200.0" height="98.0" rx="4" fill="white" stroke="#25537b" stroke-width="1"/>
    <rect width="200.0" height="28" rx="4" fill="#25537b"/>
    <rect x="0" y="24" width="200.0" height="4" fill="#25537b"/>
    <text x="10" y="19" font-family="system-ui, sans-serif" font-size="11" font-weight="500" fill="rgba(255,255,255,0.85)">1:</text>
    <text x="26" y="19" font-family="system-ui, sans-serif" font-size="11" font-weight="600" fill="white">Bowtie2</text>
    <text x="100.0" y="52" text-anchor="middle" font-family="system-ui, sans-serif" font-size="10" fill="#495057">Map against reference</text>
    <text x="100.0" y="66" text-anchor="middle" font-family="system-ui, sans-serif" font-size="9" fill="#868e96">Keep unaligned reads</text>
    <circle cx="0.0" cy="51.3" r="6" fill="white" stroke="#25537b" stroke-width="2"/>
    <circle cx="0.0" cy="74.7" r="6" fill="white" stroke="#25537b" stroke-width="2"/>
    <circle cx="200.0" cy="51.3" r="6" fill="white" stroke="#25537b" stroke-width="2"/>
    <circle cx="200.0" cy="74.7" r="6" fill="white" stroke="#25537b" stroke-width="2"/>
  </g>
  <g filter="url(#wd-shadow)" transform="translate(665.0, 223.0)">
    <rect width="170.0" height="64.0" rx="4" fill="white" stroke="#5bc0de" stroke-width="1.5" stroke-dasharray="4 2"/>
    <rect width="170.0" height="24" rx="4" fill="#5bc0de"/>
    <rect x="0" y="20" width="170.0" height="4" fill="#5bc0de"/>
    <text x="10" y="15" font-family="system-ui, sans-serif" font-size="11" font-weight="500" fill="rgba(255,255,255,0.85)">2:</text>
    <text x="26" y="15" font-family="system-ui, sans-serif" font-size="11" font-weight="600" fill="white">MultiQC</text>
    <text x="85.0" y="48" text-anchor="middle" font-family="system-ui, sans-serif" font-size="10" fill="#495057">Aggregate mapping stats</text>
    <circle cx="0.0" cy="44.0" r="5" fill="white" stroke="#5bc0de" stroke-width="2"/>
    <circle cx="170.0" cy="44.0" r="5" fill="white" stroke="#5bc0de" stroke-width="2"/>
  </g>
  <g filter="url(#wd-shadow)" transform="translate(644.0, 65.0)">
    <rect width="212.0" height="77.0" rx="4" fill="white" stroke="#10b981" stroke-width="1.5"/>
    <rect width="212.0" height="28" rx="4" fill="#10b981"/>
    <rect x="0" y="24" width="212.0" height="4" fill="#10b981"/>
    <text x="10" y="19" font-family="system-ui, sans-serif" font-size="11" font-weight="600" fill="white">Filtered Reads</text>
    <text x="106.0" y="52" text-anchor="middle" font-family="system-ui, sans-serif" font-size="10" fill="#495057">Reads without host/contaminant</text>
    <circle cx="0.0" cy="52.5" r="5" fill="white" stroke="#10b981" stroke-width="2"/>
  </g>
  <g filter="url(#wd-shadow)" transform="translate(656.0, 223.0)">
    <rect width="188.0" height="77.0" rx="4" fill="white" stroke="#10b981" stroke-width="1.5"/>
    <rect width="188.0" height="28" rx="4" fill="#10b981"/>
    <rect x="0" y="24" width="188.0" height="4" fill="#10b981"/>
    <text x="10" y="19" font-family="system-ui, sans-serif" font-size="11" font-weight="600" fill="white">MultiQC HTML Report</text>
    <text x="94.0" y="52" text-anchor="middle" font-family="system-ui, sans-serif" font-size="10" fill="#495057">Mapping statistics summary</text>
    <circle cx="0.0" cy="52.5" r="5" fill="white" stroke="#10b981" stroke-width="2"/>
  </g>
  <g transform="translate(20, 342)">
    <text x="0" y="0" font-family="system-ui, sans-serif" font-size="10" font-weight="600" fill="#495057">Legend:</text>
    <rect x="60" y="-10" width="14" height="14" rx="2" fill="white" stroke="#ffd700" stroke-width="1.5"/>
    <text x="80" y="0" font-family="system-ui, sans-serif" font-size="9" fill="#6c757d">Input</text>
    <line x1="123.0" y1="-4" x2="163.0" y2="-4" stroke="#25537b" stroke-width="4" stroke-linecap="round"/>
    <text x="171.0" y="0" font-family="system-ui, sans-serif" font-size="9" fill="#6c757d">Data flow</text>
    <line x1="235.6" y1="-4" x2="275.6" y2="-4" stroke="#25537b" stroke-width="3" stroke-linecap="round" stroke-dasharray="5 3"/>
    <text x="283.6" y="0" font-family="system-ui, sans-serif" font-size="9" fill="#6c757d">QC metrics</text>
    <rect x="353.6" y="-10" width="14" height="14" rx="2" fill="white" stroke="#10b981" stroke-width="1.5"/>
    <text x="373.6" y="0" font-family="system-ui, sans-serif" font-size="9" fill="#6c757d">Output</text>
    <rect x="422.0" y="-10" width="14" height="14" rx="2" fill="white" stroke="#5bc0de" stroke-width="1.5"/>
    <text x="442.0" y="0" font-family="system-ui, sans-serif" font-size="9" fill="#6c757d">Report</text>
  </g>
</svg>