<svg viewBox="0 0 1596 497" aria-label="Clinical Metaproteomics Verification" role="img" xmlns="http://www.w3.org/2000/svg">
  <title>Clinical Metaproteomics Verification</title>
  <defs>
    <pattern id="wd-grid" width="20" height="20" patternUnits="userSpaceOnUse">
      <path d="M 20 0 L 0 0 0 20" fill="none" stroke="#c5d5e4" stroke-width="0.5"/>
    </pattern>
    <pattern id="wd-grid-major" width="100" height="100" patternUnits="userSpaceOnUse">
      <rect width="100" height="100" fill="url(#wd-grid)"/>
      <path d="M 100 0 L 0 0 0 100" fill="none" stroke="#b0c4d8" stroke-width="1"/>
    </pattern>
    <filter id="wd-shadow" x="-5%" y="-5%" width="115%" height="115%">
      <feDropShadow dx="1" dy="2" stdDeviation="1.5" flood-opacity="0.15"/>
    </filter>
  </defs>
  <rect width="1596" height="497" fill="#f8f9fa"/>
  <rect width="1596" height="497" fill="url(#wd-grid-major)"/>
  <rect x="0" y="0" width="1596" height="55" fill="#25537b"/>
  <text x="20" y="28" font-family="system-ui, sans-serif" font-size="16" font-weight="600" fill="white">Clinical Metaproteomics Verification</text>
  <text x="20" y="44" font-family="system-ui, sans-serif" font-size="11" fill="rgba(255,255,255,0.85)">Verify microbial peptides with PepQuery2</text>
  <path d="M 210.0 131.0 C 350.0 131.0, 420.0 261.0, 560.0 261.0" stroke="white" fill="none" stroke-linecap="round" stroke-width="8"/>
  <path d="M 220.0 419.0 C 356.0 419.0, 424.0 275.0, 560.0 275.0" stroke="white" fill="none" stroke-linecap="round" stroke-width="8"/>
  <path d="M 490.0 131.0 C 520.0 131.0, 530.0 289.0, 560.0 289.0" stroke="white" fill="none" stroke-linecap="round" stroke-width="8"/>
  <path d="M 210.0 275.0 C 458.0 275.0, 582.0 265.7, 830.0 265.7" stroke="white" fill="none" stroke-linecap="round" stroke-width="7"/>
  <path d="M 760.0 275.0 C 790.0 275.0, 800.0 284.3, 830.0 284.3" stroke="white" fill="none" stroke-linecap="round" stroke-width="8"/>
  <path d="M 1030.0 265.7 C 1170.8 265.7, 1241.2 271.5, 1382.0 271.5" stroke="white" fill="none" stroke-linecap="round" stroke-width="8"/>
  <path d="M 1030.0 284.3 C 1060.0 284.3, 1070.0 275.0, 1100.0 275.0" stroke="white" fill="none" stroke-linecap="round" stroke-width="8"/>
  <path d="M 1312.0 275.0 C 1345.9 275.0, 1362.8 127.5, 1396.7 127.5" stroke="white" fill="none" stroke-linecap="round" stroke-width="8"/>
  <path d="M 210.0 131.0 C 350.0 131.0, 420.0 261.0, 560.0 261.0" stroke="#25537b" fill="none" stroke-linecap="round" stroke-width="4"/>
  <path d="M 220.0 419.0 C 356.0 419.0, 424.0 275.0, 560.0 275.0" stroke="#25537b" fill="none" stroke-linecap="round" stroke-width="4"/>
  <path d="M 490.0 131.0 C 520.0 131.0, 530.0 289.0, 560.0 289.0" stroke="#25537b" fill="none" stroke-linecap="round" stroke-width="4"/>
  <path d="M 210.0 275.0 C 458.0 275.0, 582.0 265.7, 830.0 265.7" stroke="#25537b" fill="none" stroke-linecap="round" stroke-width="3"/>
  <path d="M 760.0 275.0 C 790.0 275.0, 800.0 284.3, 830.0 284.3" stroke="#25537b" fill="none" stroke-linecap="round" stroke-width="4"/>
  <path d="M 1030.0 265.7 C 1170.8 265.7, 1241.2 271.5, 1382.0 271.5" stroke="#25537b" fill="none" stroke-linecap="round" stroke-width="4"/>
  <path d="M 1030.0 284.3 C 1060.0 284.3, 1070.0 275.0, 1100.0 275.0" stroke="#25537b" fill="none" stroke-linecap="round" stroke-width="4"/>
  <path d="M 1312.0 275.0 C 1345.9 275.0, 1362.8 127.5, 1396.7 127.5" stroke="#25537b" fill="none" stroke-linecap="round" stroke-width="4"/>
  <g filter="url(#wd-shadow)" transform="translate(30.0, 75.0)">
    <rect width="180.0" height="84.0" rx="4" fill="white" stroke="#ffd700" stroke-width="1.5"/>
    <rect width="180.0" height="28" rx="4" fill="#ffd700"/>
    <rect x="0" y="24" width="180.0" height="4" fill="#ffd700"/>
    <text x="10" y="19" font-family="system-ui, sans-serif" font-size="11" font-weight="600" fill="#2C3143">MS/MS Datasets</text>
    <text x="90.0" y="52" text-anchor="middle" font-family="system-ui, sans-serif" font-size="10" fill="#495057">MGF spectra collection</text>
    <circle cx="180.0" cy="56.0" r="6" fill="white" stroke="#ffd700" stroke-width="2"/>
  </g>
  <g filter="url(#wd-shadow)" transform="translate(30.0, 219.0)">
    <rect width="180.0" height="84.0" rx="4" fill="white" stroke="#ffd700" stroke-width="1.5"/>
    <rect width="180.0" height="28" rx="4" fill="#ffd700"/>
    <rect x="0" y="24" width="180.0" height="4" fill="#ffd700"/>
    <text x="10" y="19" font-family="system-ui, sans-serif" font-size="11" font-weight="600" fill="#2C3143">Peptide Reports</text>
    <text x="90.0" y="52" text-anchor="middle" font-family="system-ui, sans-serif" font-size="10" fill="#495057">SGPS + MaxQuant reports</text>
    <circle cx="180.0" cy="56.0" r="6" fill="white" stroke="#ffd700" stroke-width="2"/>
  </g>
  <g filter="url(#wd-shadow)" transform="translate(20.0, 363.0)">
    <rect width="200.0" height="84.0" rx="4" fill="white" stroke="#ffd700" stroke-width="1.5"/>
    <rect width="200.0" height="28" rx="4" fill="#ffd700"/>
    <rect x="0" y="24" width="200.0" height="4" fill="#ffd700"/>
    <text x="10" y="19" font-family="system-ui, sans-serif" font-size="11" font-weight="600" fill="#2C3143">Distinct Peptides</text>
    <text x="100.0" y="52" text-anchor="middle" font-family="system-ui, sans-serif" font-size="10" fill="#495057">Candidate microbial peptides</text>
    <circle cx="200.0" cy="56.0" r="6" fill="white" stroke="#ffd700" stroke-width="2"/>
  </g>
  <g filter="url(#wd-shadow)" transform="translate(290.0, 75.0)">
    <rect width="200.0" height="84.0" rx="4" fill="white" stroke="#25537b" stroke-width="1"/>
    <rect width="200.0" height="28" rx="4" fill="#25537b"/>
    <rect x="0" y="24" width="200.0" height="4" fill="#25537b"/>
    <text x="10" y="19" font-family="system-ui, sans-serif" font-size="11" font-weight="500" fill="rgba(255,255,255,0.85)">1:</text>
    <text x="26" y="19" font-family="system-ui, sans-serif" font-size="11" font-weight="600" fill="white">Build Reference DB</text>
    <text x="100.0" y="52" text-anchor="middle" font-family="system-ui, sans-serif" font-size="10" fill="#495057">Human UniProt + cRAP FASTA</text>
    <circle cx="200.0" cy="56.0" r="6" fill="white" stroke="#25537b" stroke-width="2"/>
  </g>
  <g filter="url(#wd-shadow)" transform="translate(560.0, 219.0)">
    <rect width="200.0" height="84.0" rx="4" fill="white" stroke="#25537b" stroke-width="1"/>
    <rect width="200.0" height="28" rx="4" fill="#25537b"/>
    <rect x="0" y="24" width="200.0" height="4" fill="#25537b"/>
    <text x="10" y="19" font-family="system-ui, sans-serif" font-size="11" font-weight="500" fill="rgba(255,255,255,0.85)">2:</text>
    <text x="26" y="19" font-family="system-ui, sans-serif" font-size="11" font-weight="600" fill="white">PepQuery2</text>
    <text x="100.0" y="52" text-anchor="middle" font-family="system-ui, sans-serif" font-size="10" fill="#495057">Validate against reference</text>
    <circle cx="0.0" cy="42.0" r="6" fill="white" stroke="#25537b" stroke-width="2"/>
    <circle cx="0.0" cy="56.0" r="6" fill="white" stroke="#25537b" stroke-width="2"/>
    <circle cx="0.0" cy="70.0" r="6" fill="white" stroke="#25537b" stroke-width="2"/>
    <circle cx="200.0" cy="56.0" r="6" fill="white" stroke="#25537b" stroke-width="2"/>
  </g>
  <g filter="url(#wd-shadow)" transform="translate(830.0, 219.0)">
    <rect width="200.0" height="84.0" rx="4" fill="white" stroke="#25537b" stroke-width="1"/>
    <rect width="200.0" height="28" rx="4" fill="#25537b"/>
    <rect x="0" y="24" width="200.0" height="4" fill="#25537b"/>
    <text x="10" y="19" font-family="system-ui, sans-serif" font-size="11" font-weight="500" fill="rgba(255,255,255,0.85)">3:</text>
    <text x="26" y="19" font-family="system-ui, sans-serif" font-size="11" font-weight="600" fill="white">Filter &amp; Map Proteins</text>
    <text x="100.0" y="52" text-anchor="middle" font-family="system-ui, sans-serif" font-size="10" fill="#495057">Extract verified peptides</text>
    <circle cx="0.0" cy="46.7" r="6" fill="white" stroke="#25537b" stroke-width="2"/>
    <circle cx="0.0" cy="65.3" r="6" fill="white" stroke="#25537b" stroke-width="2"/>
    <circle cx="200.0" cy="46.7" r="6" fill="white" stroke="#25537b" stroke-width="2"/>
    <circle cx="200.0" cy="65.3" r="6" fill="white" stroke="#25537b" stroke-width="2"/>
  </g>
  <g filter="url(#wd-shadow)" transform="translate(1100.0, 219.0)">
    <rect width="212.0" height="84.0" rx="4" fill="white" stroke="#25537b" stroke-width="1"/>
    <rect width="212.0" height="28" rx="4" fill="#25537b"/>
    <rect x="0" y="24" width="212.0" height="4" fill="#25537b"/>
    <text x="10" y="19" font-family="system-ui, sans-serif" font-size="11" font-weight="500" fill="rgba(255,255,255,0.85)">4:</text>
    <text x="26" y="19" font-family="system-ui, sans-serif" font-size="11" font-weight="600" fill="white">UniProt Fetch</text>
    <text x="106.0" y="52" text-anchor="middle" font-family="system-ui, sans-serif" font-size="10" fill="#495057">Download verified protein seqs</text>
    <circle cx="0.0" cy="56.0" r="6" fill="white" stroke="#25537b" stroke-width="2"/>
    <circle cx="212.0" cy="56.0" r="6" fill="white" stroke="#25537b" stroke-width="2"/>
  </g>
  <g filter="url(#wd-shadow)" transform="translate(1396.7, 75.0)">
    <rect width="164.6" height="77.0" rx="4" fill="white" stroke="#10b981" stroke-width="1.5"/>
    <rect width="164.6" height="28" rx="4" fill="#10b981"/>
    <rect x="0" y="24" width="164.6" height="4" fill="#10b981"/>
    <text x="10" y="19" font-family="system-ui, sans-serif" font-size="11" font-weight="600" fill="white">Quantitation Database</text>
    <text x="82.3" y="52" text-anchor="middle" font-family="system-ui, sans-serif" font-size="10" fill="#495057">Verified protein FASTA</text>
    <circle cx="0.0" cy="52.5" r="5" fill="white" stroke="#10b981" stroke-width="2"/>
  </g>
  <g filter="url(#wd-shadow)" transform="translate(1382.0, 219.0)">
    <rect width="194.0" height="77.0" rx="4" fill="white" stroke="#10b981" stroke-width="1.5"/>
    <rect width="194.0" height="28" rx="4" fill="#10b981"/>
    <rect x="0" y="24" width="194.0" height="4" fill="#10b981"/>
    <text x="10" y="19" font-family="system-ui, sans-serif" font-size="11" font-weight="600" fill="white">Verified Peptides</text>
    <text x="97.0" y="52" text-anchor="middle" font-family="system-ui, sans-serif" font-size="10" fill="#495057">PepQuery-confirmed peptides</text>
    <circle cx="0.0" cy="52.5" r="5" fill="white" stroke="#10b981" stroke-width="2"/>
  </g>
  <g transform="translate(20, 482)">
    <text x="0" y="0" font-family="system-ui, sans-serif" font-size="10" font-weight="600" fill="#495057">Legend:</text>
    <rect x="60" y="-10" width="14" height="14" rx="2" fill="white" stroke="#ffd700" stroke-width="1.5"/>
    <text x="80" y="0" font-family="system-ui, sans-serif" font-size="9" fill="#6c757d">Input</text>
    <line x1="123.0" y1="-4" x2="163.0" y2="-4" stroke="#25537b" stroke-width="4" stroke-linecap="round"/>
    <text x="171.0" y="0" font-family="system-ui, sans-serif" font-size="9" fill="#6c757d">Data flow</text>
    <line x1="235.6" y1="-4" x2="275.6" y2="-4" stroke="#25537b" stroke-width="3" stroke-linecap="round"/>
    <text x="283.6" y="0" font-family="system-ui, sans-serif" font-size="9" fill="#6c757d">Secondary</text>
    <rect x="348.2" y="-10" width="14" height="14" rx="2" fill="white" stroke="#10b981" stroke-width="1.5"/>
    <text x="368.2" y="0" font-family="system-ui, sans-serif" font-size="9" fill="#6c757d">Output</text>
  </g>
</svg>