<svg viewBox="0 0 1358 487" aria-label="Post-Assembly Bacterial QC and Contamination Control" role="img" xmlns="http://www.w3.org/2000/svg">
  <title>Post-Assembly Bacterial QC and Contamination Control</title>
  <defs>
    <pattern id="wd-grid" width="20" height="20" patternUnits="userSpaceOnUse">
      <path d="M 20 0 L 0 0 0 20" fill="none" stroke="#c5d5e4" stroke-width="0.5"/>
    </pattern>
    <pattern id="wd-grid-major" width="100" height="100" patternUnits="userSpaceOnUse">
      <rect width="100" height="100" fill="url(#wd-grid)"/>
      <path d="M 100 0 L 0 0 0 100" fill="none" stroke="#b0c4d8" stroke-width="1"/>
    </pattern>
    <filter id="wd-shadow" x="-5%" y="-5%" width="115%" height="115%">
      <feDropShadow dx="1" dy="2" stdDeviation="1.5" flood-opacity="0.15"/>
    </filter>
  </defs>
  <rect width="1358" height="487" fill="#f8f9fa"/>
  <rect width="1358" height="487" fill="url(#wd-grid-major)"/>
  <rect x="0" y="0" width="1358" height="45" fill="#25537b"/>
  <text x="20" y="28" font-family="system-ui, sans-serif" font-size="16" font-weight="600" fill="white">Post-Assembly Bacterial QC and Contamination Control</text>
  <path d="M 207.0 251.0 C 248.6 251.0, 269.4 111.7, 311.0 111.7" stroke="white" fill="none" stroke-linecap="round" stroke-width="8"/>
  <path d="M 214.0 121.0 C 252.8 121.0, 272.2 130.3, 311.0 130.3" stroke="white" fill="none" stroke-linecap="round" stroke-width="7"/>
  <path d="M 207.0 265.0 C 243.8 265.0, 262.2 265.0, 299.0 265.0" stroke="white" fill="none" stroke-linecap="round" stroke-width="8"/>
  <path d="M 207.0 279.0 C 248.6 279.0, 269.4 399.7, 311.0 399.7" stroke="white" fill="none" stroke-linecap="round" stroke-width="8"/>
  <path d="M 207.0 399.7 C 248.6 399.7, 269.4 418.3, 311.0 418.3" stroke="white" fill="none" stroke-linecap="round" stroke-width="7"/>
  <path d="M 511.0 399.7 C 549.8 399.7, 569.2 399.7, 608.0 399.7" stroke="white" fill="none" stroke-linecap="round" stroke-width="8"/>
  <path d="M 207.0 418.3 C 367.4 418.3, 447.6 418.3, 608.0 418.3" stroke="white" fill="none" stroke-linecap="round" stroke-width="7"/>
  <path d="M 511.0 111.7 C 777.8 111.7, 911.2 117.5, 1178.0 117.5" stroke="white" fill="none" stroke-linecap="round" stroke-width="8"/>
  <path d="M 511.0 130.3 C 663.8 130.3, 740.2 244.0, 893.0 244.0" stroke="white" fill="none" stroke-linecap="round" stroke-width="7"/>
  <path d="M 523.0 255.7 C 785.0 255.7, 916.0 261.5, 1178.0 261.5" stroke="white" fill="none" stroke-linecap="round" stroke-width="8"/>
  <path d="M 523.0 274.3 C 671.0 274.3, 745.0 258.0, 893.0 258.0" stroke="white" fill="none" stroke-linecap="round" stroke-width="7"/>
  <path d="M 511.0 418.3 C 663.8 418.3, 740.2 272.0, 893.0 272.0" stroke="white" fill="none" stroke-linecap="round" stroke-width="7"/>
  <path d="M 808.0 409.0 C 842.0 409.0, 859.0 286.0, 893.0 286.0" stroke="white" fill="none" stroke-linecap="round" stroke-width="7"/>
  <path d="M 1093.0 265.0 C 1127.0 265.0, 1144.0 405.5, 1178.0 405.5" stroke="white" fill="none" stroke-linecap="round" stroke-width="8"/>
  <path d="M 207.0 251.0 C 248.6 251.0, 269.4 111.7, 311.0 111.7" stroke="#25537b" fill="none" stroke-linecap="round" stroke-width="4"/>
  <path d="M 214.0 121.0 C 252.8 121.0, 272.2 130.3, 311.0 130.3" stroke="#25537b" fill="none" stroke-linecap="round" stroke-width="3"/>
  <path d="M 207.0 265.0 C 243.8 265.0, 262.2 265.0, 299.0 265.0" stroke="#25537b" fill="none" stroke-linecap="round" stroke-width="4"/>
  <path d="M 207.0 279.0 C 248.6 279.0, 269.4 399.7, 311.0 399.7" stroke="#25537b" fill="none" stroke-linecap="round" stroke-width="4"/>
  <path d="M 207.0 399.7 C 248.6 399.7, 269.4 418.3, 311.0 418.3" stroke="#25537b" fill="none" stroke-linecap="round" stroke-width="3"/>
  <path d="M 511.0 399.7 C 549.8 399.7, 569.2 399.7, 608.0 399.7" stroke="#25537b" fill="none" stroke-linecap="round" stroke-width="4"/>
  <path d="M 207.0 418.3 C 367.4 418.3, 447.6 418.3, 608.0 418.3" stroke="#25537b" fill="none" stroke-linecap="round" stroke-width="3"/>
  <path d="M 511.0 111.7 C 777.8 111.7, 911.2 117.5, 1178.0 117.5" stroke="#25537b" fill="none" stroke-linecap="round" stroke-width="4"/>
  <path d="M 511.0 130.3 C 663.8 130.3, 740.2 244.0, 893.0 244.0" stroke="#25537b" fill="none" stroke-linecap="round" stroke-width="3" stroke-dasharray="5 3"/>
  <path d="M 523.0 255.7 C 785.0 255.7, 916.0 261.5, 1178.0 261.5" stroke="#25537b" fill="none" stroke-linecap="round" stroke-width="4"/>
  <path d="M 523.0 274.3 C 671.0 274.3, 745.0 258.0, 893.0 258.0" stroke="#25537b" fill="none" stroke-linecap="round" stroke-width="3" stroke-dasharray="5 3"/>
  <path d="M 511.0 418.3 C 663.8 418.3, 740.2 272.0, 893.0 272.0" stroke="#25537b" fill="none" stroke-linecap="round" stroke-width="3" stroke-dasharray="5 3"/>
  <path d="M 808.0 409.0 C 842.0 409.0, 859.0 286.0, 893.0 286.0" stroke="#25537b" fill="none" stroke-linecap="round" stroke-width="3" stroke-dasharray="5 3"/>
  <path d="M 1093.0 265.0 C 1127.0 265.0, 1144.0 405.5, 1178.0 405.5" stroke="#25537b" fill="none" stroke-linecap="round" stroke-width="4"/>
  <g filter="url(#wd-shadow)" transform="translate(27.0, 209.0)">
    <rect width="180.0" height="84.0" rx="4" fill="white" stroke="#ffd700" stroke-width="1.5"/>
    <rect width="180.0" height="28" rx="4" fill="#ffd700"/>
    <rect x="0" y="24" width="180.0" height="4" fill="#ffd700"/>
    <text x="10" y="19" font-family="system-ui, sans-serif" font-size="11" font-weight="600" fill="#2C3143">Assembled Contigs</text>
    <text x="90.0" y="52" text-anchor="middle" font-family="system-ui, sans-serif" font-size="10" fill="#495057">FASTA file</text>
    <circle cx="180.0" cy="42.0" r="6" fill="white" stroke="#ffd700" stroke-width="2"/>
    <circle cx="180.0" cy="56.0" r="6" fill="white" stroke="#ffd700" stroke-width="2"/>
    <circle cx="180.0" cy="70.0" r="6" fill="white" stroke="#ffd700" stroke-width="2"/>
  </g>
  <g filter="url(#wd-shadow)" transform="translate(20.0, 65.0)">
    <rect width="194.0" height="84.0" rx="4" fill="white" stroke="#ffd700" stroke-width="1.5"/>
    <rect width="194.0" height="28" rx="4" fill="#ffd700"/>
    <rect x="0" y="24" width="194.0" height="4" fill="#ffd700"/>
    <text x="10" y="19" font-family="system-ui, sans-serif" font-size="11" font-weight="600" fill="#2C3143">Paired-End Reads</text>
    <text x="97.0" y="52" text-anchor="middle" font-family="system-ui, sans-serif" font-size="10" fill="#495057">Forward &amp;amp; reverse FASTQ</text>
    <circle cx="194.0" cy="56.0" r="6" fill="white" stroke="#ffd700" stroke-width="2"/>
  </g>
  <g filter="url(#wd-shadow)" transform="translate(27.0, 353.0)">
    <rect width="180.0" height="84.0" rx="4" fill="white" stroke="#ffd700" stroke-width="1.5"/>
    <rect width="180.0" height="28" rx="4" fill="#ffd700"/>
    <rect x="0" y="24" width="180.0" height="4" fill="#ffd700"/>
    <text x="10" y="19" font-family="system-ui, sans-serif" font-size="11" font-weight="600" fill="#2C3143">Taxonomy Database</text>
    <text x="90.0" y="52" text-anchor="middle" font-family="system-ui, sans-serif" font-size="10" fill="#495057">Kraken2 / Bracken DB</text>
    <circle cx="180.0" cy="46.7" r="6" fill="white" stroke="#ffd700" stroke-width="2"/>
    <circle cx="180.0" cy="65.3" r="6" fill="white" stroke="#ffd700" stroke-width="2"/>
  </g>
  <g filter="url(#wd-shadow)" transform="translate(311.0, 65.0)">
    <rect width="200.0" height="84.0" rx="4" fill="white" stroke="#25537b" stroke-width="1"/>
    <rect width="200.0" height="28" rx="4" fill="#25537b"/>
    <rect x="0" y="24" width="200.0" height="4" fill="#25537b"/>
    <text x="10" y="19" font-family="system-ui, sans-serif" font-size="11" font-weight="500" fill="rgba(255,255,255,0.85)">1:</text>
    <text x="26" y="19" font-family="system-ui, sans-serif" font-size="11" font-weight="600" fill="white">QUAST</text>
    <text x="100.0" y="52" text-anchor="middle" font-family="system-ui, sans-serif" font-size="10" fill="#495057">Assembly quality metrics</text>
    <circle cx="0.0" cy="46.7" r="6" fill="white" stroke="#25537b" stroke-width="2"/>
    <circle cx="0.0" cy="65.3" r="6" fill="white" stroke="#25537b" stroke-width="2"/>
    <circle cx="200.0" cy="46.7" r="6" fill="white" stroke="#25537b" stroke-width="2"/>
    <circle cx="200.0" cy="65.3" r="6" fill="white" stroke="#25537b" stroke-width="2"/>
  </g>
  <g filter="url(#wd-shadow)" transform="translate(299.0, 209.0)">
    <rect width="224.0" height="84.0" rx="4" fill="white" stroke="#25537b" stroke-width="1"/>
    <rect width="224.0" height="28" rx="4" fill="#25537b"/>
    <rect x="0" y="24" width="224.0" height="4" fill="#25537b"/>
    <text x="10" y="19" font-family="system-ui, sans-serif" font-size="11" font-weight="500" fill="rgba(255,255,255,0.85)">2:</text>
    <text x="26" y="19" font-family="system-ui, sans-serif" font-size="11" font-weight="600" fill="white">CheckM2</text>
    <text x="112.0" y="52" text-anchor="middle" font-family="system-ui, sans-serif" font-size="10" fill="#495057">Completeness &amp;amp; contamination</text>
    <circle cx="0.0" cy="56.0" r="6" fill="white" stroke="#25537b" stroke-width="2"/>
    <circle cx="224.0" cy="46.7" r="6" fill="white" stroke="#25537b" stroke-width="2"/>
    <circle cx="224.0" cy="65.3" r="6" fill="white" stroke="#25537b" stroke-width="2"/>
  </g>
  <g filter="url(#wd-shadow)" transform="translate(311.0, 353.0)">
    <rect width="200.0" height="84.0" rx="4" fill="white" stroke="#25537b" stroke-width="1"/>
    <rect width="200.0" height="28" rx="4" fill="#25537b"/>
    <rect x="0" y="24" width="200.0" height="4" fill="#25537b"/>
    <text x="10" y="19" font-family="system-ui, sans-serif" font-size="11" font-weight="500" fill="rgba(255,255,255,0.85)">3:</text>
    <text x="26" y="19" font-family="system-ui, sans-serif" font-size="11" font-weight="600" fill="white">Kraken2</text>
    <text x="100.0" y="52" text-anchor="middle" font-family="system-ui, sans-serif" font-size="10" fill="#495057">Taxonomy classification</text>
    <circle cx="0.0" cy="46.7" r="6" fill="white" stroke="#25537b" stroke-width="2"/>
    <circle cx="0.0" cy="65.3" r="6" fill="white" stroke="#25537b" stroke-width="2"/>
    <circle cx="200.0" cy="46.7" r="6" fill="white" stroke="#25537b" stroke-width="2"/>
    <circle cx="200.0" cy="65.3" r="6" fill="white" stroke="#25537b" stroke-width="2"/>
  </g>
  <g filter="url(#wd-shadow)" transform="translate(608.0, 353.0)">
    <rect width="200.0" height="84.0" rx="4" fill="white" stroke="#25537b" stroke-width="1"/>
    <rect width="200.0" height="28" rx="4" fill="#25537b"/>
    <rect x="0" y="24" width="200.0" height="4" fill="#25537b"/>
    <text x="10" y="19" font-family="system-ui, sans-serif" font-size="11" font-weight="500" fill="rgba(255,255,255,0.85)">4:</text>
    <text x="26" y="19" font-family="system-ui, sans-serif" font-size="11" font-weight="600" fill="white">Bracken</text>
    <text x="100.0" y="52" text-anchor="middle" font-family="system-ui, sans-serif" font-size="10" fill="#495057">Abundance estimation</text>
    <circle cx="0.0" cy="46.7" r="6" fill="white" stroke="#25537b" stroke-width="2"/>
    <circle cx="0.0" cy="65.3" r="6" fill="white" stroke="#25537b" stroke-width="2"/>
    <circle cx="200.0" cy="56.0" r="6" fill="white" stroke="#25537b" stroke-width="2"/>
  </g>
  <g filter="url(#wd-shadow)" transform="translate(893.0, 209.0)">
    <rect width="200.0" height="84.0" rx="4" fill="white" stroke="#25537b" stroke-width="1"/>
    <rect width="200.0" height="28" rx="4" fill="#25537b"/>
    <rect x="0" y="24" width="200.0" height="4" fill="#25537b"/>
    <text x="10" y="19" font-family="system-ui, sans-serif" font-size="11" font-weight="500" fill="rgba(255,255,255,0.85)">5:</text>
    <text x="26" y="19" font-family="system-ui, sans-serif" font-size="11" font-weight="600" fill="white">ToolDistillator</text>
    <text x="100.0" y="52" text-anchor="middle" font-family="system-ui, sans-serif" font-size="10" fill="#495057">Aggregate results to JSON</text>
    <circle cx="0.0" cy="35.0" r="6" fill="white" stroke="#25537b" stroke-width="2"/>
    <circle cx="0.0" cy="49.0" r="6" fill="white" stroke="#25537b" stroke-width="2"/>
    <circle cx="0.0" cy="63.0" r="6" fill="white" stroke="#25537b" stroke-width="2"/>
    <circle cx="0.0" cy="77.0" r="6" fill="white" stroke="#25537b" stroke-width="2"/>
    <circle cx="200.0" cy="56.0" r="6" fill="white" stroke="#25537b" stroke-width="2"/>
  </g>
  <g filter="url(#wd-shadow)" transform="translate(1178.0, 65.0)">
    <rect width="160.0" height="77.0" rx="4" fill="white" stroke="#10b981" stroke-width="1.5"/>
    <rect width="160.0" height="28" rx="4" fill="#10b981"/>
    <rect x="0" y="24" width="160.0" height="4" fill="#10b981"/>
    <text x="10" y="19" font-family="system-ui, sans-serif" font-size="11" font-weight="600" fill="white">QUAST Report</text>
    <text x="80.0" y="52" text-anchor="middle" font-family="system-ui, sans-serif" font-size="10" fill="#495057">Assembly statistics</text>
    <circle cx="0.0" cy="52.5" r="5" fill="white" stroke="#10b981" stroke-width="2"/>
  </g>
  <g filter="url(#wd-shadow)" transform="translate(1178.0, 209.0)">
    <rect width="160.0" height="77.0" rx="4" fill="white" stroke="#10b981" stroke-width="1.5"/>
    <rect width="160.0" height="28" rx="4" fill="#10b981"/>
    <rect x="0" y="24" width="160.0" height="4" fill="#10b981"/>
    <text x="10" y="19" font-family="system-ui, sans-serif" font-size="11" font-weight="600" fill="white">CheckM2 Report</text>
    <text x="80.0" y="52" text-anchor="middle" font-family="system-ui, sans-serif" font-size="10" fill="#495057">Quality assessment</text>
    <circle cx="0.0" cy="52.5" r="5" fill="white" stroke="#10b981" stroke-width="2"/>
  </g>
  <g filter="url(#wd-shadow)" transform="translate(1178.0, 353.0)">
    <rect width="160.0" height="77.0" rx="4" fill="white" stroke="#10b981" stroke-width="1.5"/>
    <rect width="160.0" height="28" rx="4" fill="#10b981"/>
    <rect x="0" y="24" width="160.0" height="4" fill="#10b981"/>
    <text x="10" y="19" font-family="system-ui, sans-serif" font-size="11" font-weight="600" fill="white">QC Summary</text>
    <text x="80.0" y="52" text-anchor="middle" font-family="system-ui, sans-serif" font-size="10" fill="#495057">Combined JSON report</text>
    <circle cx="0.0" cy="52.5" r="5" fill="white" stroke="#10b981" stroke-width="2"/>
  </g>
  <g transform="translate(20, 472)">
    <text x="0" y="0" font-family="system-ui, sans-serif" font-size="10" font-weight="600" fill="#495057">Legend:</text>
    <rect x="60" y="-10" width="14" height="14" rx="2" fill="white" stroke="#ffd700" stroke-width="1.5"/>
    <text x="80" y="0" font-family="system-ui, sans-serif" font-size="9" fill="#6c757d">Input</text>
    <line x1="123.0" y1="-4" x2="163.0" y2="-4" stroke="#25537b" stroke-width="4" stroke-linecap="round"/>
    <text x="171.0" y="0" font-family="system-ui, sans-serif" font-size="9" fill="#6c757d">Data flow</text>
    <line x1="235.6" y1="-4" x2="275.6" y2="-4" stroke="#25537b" stroke-width="3" stroke-linecap="round"/>
    <text x="283.6" y="0" font-family="system-ui, sans-serif" font-size="9" fill="#6c757d">Secondary</text>
    <line x1="348.2" y1="-4" x2="388.2" y2="-4" stroke="#25537b" stroke-width="3" stroke-linecap="round" stroke-dasharray="5 3"/>
    <text x="396.2" y="0" font-family="system-ui, sans-serif" font-size="9" fill="#6c757d">QC metrics</text>
    <rect x="466.2" y="-10" width="14" height="14" rx="2" fill="white" stroke="#10b981" stroke-width="1.5"/>
    <text x="486.2" y="0" font-family="system-ui, sans-serif" font-size="9" fill="#6c757d">Output</text>
  </g>
</svg>