<svg viewBox="0 0 960 487" aria-label="Clinical Metaproteomics Quantitation" role="img" xmlns="http://www.w3.org/2000/svg">
  <title>Clinical Metaproteomics Quantitation</title>
  <defs>
    <pattern id="wd-grid" width="20" height="20" patternUnits="userSpaceOnUse">
      <path d="M 20 0 L 0 0 0 20" fill="none" stroke="#c5d5e4" stroke-width="0.5"/>
    </pattern>
    <pattern id="wd-grid-major" width="100" height="100" patternUnits="userSpaceOnUse">
      <rect width="100" height="100" fill="url(#wd-grid)"/>
      <path d="M 100 0 L 0 0 0 100" fill="none" stroke="#b0c4d8" stroke-width="1"/>
    </pattern>
    <filter id="wd-shadow" x="-5%" y="-5%" width="115%" height="115%">
      <feDropShadow dx="1" dy="2" stdDeviation="1.5" flood-opacity="0.15"/>
    </filter>
  </defs>
  <rect width="960" height="487" fill="#f8f9fa"/>
  <rect width="960" height="487" fill="url(#wd-grid-major)"/>
  <rect x="0" y="0" width="960" height="45" fill="#25537b"/>
  <text x="20" y="28" font-family="system-ui, sans-serif" font-size="16" font-weight="600" fill="white">Clinical Metaproteomics Quantitation</text>
  <text x="20" y="40" font-family="system-ui, sans-serif" font-size="10" fill="rgba(255,255,255,0.7)">TMT-based microbial protein quantification</text>
  <path d="M 208.0 121.0 C 238.0 121.0, 228.0 251.0, 258.0 251.0" stroke="#25537b" fill="none" stroke-linecap="round" stroke-width="4"/>
  <path d="M 204.0 265.0 C 234.0 265.0, 228.0 265.0, 258.0 265.0" stroke="#25537b" fill="none" stroke-linecap="round" stroke-width="4"/>
  <path d="M 204.0 409.0 C 234.0 409.0, 228.0 279.0, 258.0 279.0" stroke="#25537b" fill="none" stroke-linecap="round" stroke-width="3"/>
  <path d="M 458.0 265.0 C 488.0 265.0, 478.0 265.0, 508.0 265.0" stroke="#25537b" fill="none" stroke-linecap="round" stroke-width="4"/>
  <path d="M 714.0 255.7 C 744.0 255.7, 734.0 109.0, 764.0 109.0" stroke="#25537b" fill="none" stroke-linecap="round" stroke-width="4"/>
  <path d="M 714.0 274.3 C 744.0 274.3, 740.0 253.0, 770.0 253.0" stroke="#25537b" fill="none" stroke-linecap="round" stroke-width="4"/>
  <g filter="url(#wd-shadow)" transform="translate(20.0, 65.0)">
    <rect width="188.0" height="84.0" rx="4" fill="white" stroke="#ffd700" stroke-width="1.5"/>
    <rect width="188.0" height="28" rx="4" fill="#ffd700"/>
    <rect x="0" y="24" width="188.0" height="4" fill="#ffd700"/>
    <text x="10" y="19" font-family="system-ui, sans-serif" font-size="11" font-weight="600" fill="#2C3143">Quantitation Database</text>
    <text x="94.0" y="52" text-anchor="middle" font-family="system-ui, sans-serif" font-size="10" fill="#495057">Protein FASTA for MaxQuant</text>
    <circle cx="188.0" cy="56.0" r="6" fill="white" stroke="#ffd700" stroke-width="2"/>
  </g>
  <g filter="url(#wd-shadow)" transform="translate(24.0, 209.0)">
    <rect width="180.0" height="84.0" rx="4" fill="white" stroke="#ffd700" stroke-width="1.5"/>
    <rect width="180.0" height="28" rx="4" fill="#ffd700"/>
    <rect x="0" y="24" width="180.0" height="4" fill="#ffd700"/>
    <text x="10" y="19" font-family="system-ui, sans-serif" font-size="11" font-weight="600" fill="#2C3143">Raw MS Files</text>
    <text x="90.0" y="52" text-anchor="middle" font-family="system-ui, sans-serif" font-size="10" fill="#495057">Thermo .raw collection</text>
    <circle cx="180.0" cy="56.0" r="6" fill="white" stroke="#ffd700" stroke-width="2"/>
  </g>
  <g filter="url(#wd-shadow)" transform="translate(24.0, 353.0)">
    <rect width="180.0" height="84.0" rx="4" fill="white" stroke="#ffd700" stroke-width="1.5"/>
    <rect width="180.0" height="28" rx="4" fill="#ffd700"/>
    <rect x="0" y="24" width="180.0" height="4" fill="#ffd700"/>
    <text x="10" y="19" font-family="system-ui, sans-serif" font-size="11" font-weight="600" fill="#2C3143">Experimental Design</text>
    <text x="90.0" y="52" text-anchor="middle" font-family="system-ui, sans-serif" font-size="10" fill="#495057">MaxQuant design file</text>
    <circle cx="180.0" cy="56.0" r="6" fill="white" stroke="#ffd700" stroke-width="2"/>
  </g>
  <g filter="url(#wd-shadow)" transform="translate(258.0, 209.0)">
    <rect width="200.0" height="84.0" rx="4" fill="white" stroke="#25537b" stroke-width="1"/>
    <rect width="200.0" height="28" rx="4" fill="#25537b"/>
    <rect x="0" y="24" width="200.0" height="4" fill="#25537b"/>
    <text x="10" y="19" font-family="system-ui, sans-serif" font-size="11" fill="rgba(255,255,255,0.7)">1:</text>
    <text x="26" y="19" font-family="system-ui, sans-serif" font-size="11" font-weight="600" fill="white">MaxQuant</text>
    <text x="100.0" y="52" text-anchor="middle" font-family="system-ui, sans-serif" font-size="10" fill="#495057">TMT quantification search</text>
    <circle cx="0.0" cy="42.0" r="6" fill="white" stroke="#25537b" stroke-width="2"/>
    <circle cx="0.0" cy="56.0" r="6" fill="white" stroke="#25537b" stroke-width="2"/>
    <circle cx="0.0" cy="70.0" r="6" fill="white" stroke="#25537b" stroke-width="2"/>
    <circle cx="200.0" cy="56.0" r="6" fill="white" stroke="#25537b" stroke-width="2"/>
  </g>
  <g filter="url(#wd-shadow)" transform="translate(508.0, 209.0)">
    <rect width="206.0" height="84.0" rx="4" fill="white" stroke="#25537b" stroke-width="1"/>
    <rect width="206.0" height="28" rx="4" fill="#25537b"/>
    <rect x="0" y="24" width="206.0" height="4" fill="#25537b"/>
    <text x="10" y="19" font-family="system-ui, sans-serif" font-size="11" fill="rgba(255,255,255,0.7)">2:</text>
    <text x="26" y="19" font-family="system-ui, sans-serif" font-size="11" font-weight="600" fill="white">Filter Microbial</text>
    <text x="103.0" y="52" text-anchor="middle" font-family="system-ui, sans-serif" font-size="10" fill="#495057">Remove human/contaminant hits</text>
    <circle cx="0.0" cy="56.0" r="6" fill="white" stroke="#25537b" stroke-width="2"/>
    <circle cx="206.0" cy="46.7" r="6" fill="white" stroke="#25537b" stroke-width="2"/>
    <circle cx="206.0" cy="65.3" r="6" fill="white" stroke="#25537b" stroke-width="2"/>
  </g>
  <g filter="url(#wd-shadow)" transform="translate(764.0, 65.0)">
    <rect width="176.0" height="64.0" rx="4" fill="white" stroke="#f97316" stroke-width="1.5"/>
    <rect width="176.0" height="24" rx="4" fill="#f97316"/>
    <rect x="0" y="20" width="176.0" height="4" fill="#f97316"/>
    <text x="10" y="15" font-family="system-ui, sans-serif" font-size="11" font-weight="600" fill="white">Quantified Proteins</text>
    <text x="88.0" y="48" text-anchor="middle" font-family="system-ui, sans-serif" font-size="10" fill="#495057">Microbial protein groups</text>
    <circle cx="0.0" cy="44.0" r="5" fill="white" stroke="#f97316" stroke-width="2"/>
  </g>
  <g filter="url(#wd-shadow)" transform="translate(770.0, 209.0)">
    <rect width="164.0" height="64.0" rx="4" fill="white" stroke="#f97316" stroke-width="1.5"/>
    <rect width="164.0" height="24" rx="4" fill="#f97316"/>
    <rect x="0" y="20" width="164.0" height="4" fill="#f97316"/>
    <text x="10" y="15" font-family="system-ui, sans-serif" font-size="11" font-weight="600" fill="white">Quantified Peptides</text>
    <text x="82.0" y="48" text-anchor="middle" font-family="system-ui, sans-serif" font-size="10" fill="#495057">Microbial peptide list</text>
    <circle cx="0.0" cy="44.0" r="5" fill="white" stroke="#f97316" stroke-width="2"/>
  </g>
  <g transform="translate(20, 472)">
    <text x="0" y="0" font-family="system-ui, sans-serif" font-size="10" font-weight="600" fill="#495057">Legend:</text>
    <rect x="60" y="-10" width="14" height="14" rx="2" fill="white" stroke="#ffd700" stroke-width="1.5"/>
    <text x="80" y="0" font-family="system-ui, sans-serif" font-size="9" fill="#6c757d">Input</text>
    <line x1="180" y1="-4" x2="220" y2="-4" stroke="#25537b" stroke-width="4" stroke-linecap="round"/>
    <text x="228" y="0" font-family="system-ui, sans-serif" font-size="9" fill="#6c757d">Data flow</text>
    <line x1="300" y1="-4" x2="340" y2="-4" stroke="#25537b" stroke-width="3" stroke-linecap="round"/>
    <text x="348" y="0" font-family="system-ui, sans-serif" font-size="9" fill="#6c757d">Secondary</text>
    <rect x="420" y="-10" width="14" height="14" rx="2" fill="white" stroke="#f97316" stroke-width="1.5"/>
    <text x="440" y="0" font-family="system-ui, sans-serif" font-size="9" fill="#6c757d">Output</text>
  </g>
</svg>