<svg xmlns="http://www.w3.org/2000/svg" viewBox="0 0 1020 520" role="img" aria-label="DADA2 paired-end amplicon analysis workflow diagram">
  <title>DADA2 Amplicon Analysis Pipeline - Paired End</title>
  <desc>Workflow for paired-end amplicon analysis using DADA2: quality profiling, filtering, error learning, denoising, merging, chimera removal, and taxonomy assignment.</desc>
  <defs>
    <pattern id="grid" width="20" height="20" patternUnits="userSpaceOnUse">
      <path d="M 20 0 L 0 0 0 20" fill="none" stroke="#c5d5e4" stroke-width="0.5"/>
    </pattern>
    <pattern id="grid-major" width="100" height="100" patternUnits="userSpaceOnUse">
      <rect width="100" height="100" fill="url(#grid)"/>
      <path d="M 100 0 L 0 0 0 100" fill="none" stroke="#b0c4d8" stroke-width="1"/>
    </pattern>
    <style>
      .connection { stroke: #25537b; stroke-width: 4; fill: none; stroke-linecap: round; }
      .connection-qc { stroke: #25537b; stroke-width: 3; fill: none; stroke-linecap: round; stroke-dasharray: 5 3; }
      .connection-secondary { stroke: #25537b; stroke-width: 3; fill: none; stroke-linecap: round; }
      .node-card { filter: drop-shadow(1px 2px 3px rgba(0,0,0,0.15)); }
    </style>
  </defs>
  <rect width="1020" height="520" fill="#f8f9fa"/>
  <rect width="1020" height="520" fill="url(#grid-major)"/>
  <rect x="0" y="0" width="1020" height="45" fill="#25537b"/>
  <text x="20" y="28" font-family="system-ui, sans-serif" font-size="16" font-weight="600" fill="white">DADA2 Amplicon Analysis Pipeline - Paired End</text>

  <!-- NODES -->
  <!-- Input: Paired reads -->
  <g class="node-card" transform="translate(20,70)">
    <rect width="180" height="70" rx="4" fill="white" stroke="#ffd700" stroke-width="1.5"/>
    <rect width="180" height="28" rx="4" fill="#ffd700"/>
    <rect x="0" y="24" width="180" height="4" fill="#ffd700"/>
    <text x="10" y="19" font-family="system-ui, sans-serif" font-size="11" fill="rgba(44,49,67,0.6)">1:</text>
    <text x="24" y="19" font-family="system-ui, sans-serif" font-size="11" font-weight="600" fill="#2C3143">Paired Input Data</text>
    <text x="90" y="52" text-anchor="middle" font-family="system-ui, sans-serif" font-size="10" fill="#495057">list:paired collection</text>
    <circle cx="180" cy="45" r="6" fill="white" stroke="#ffd700" stroke-width="2"/>
  </g>

  <!-- filterAndTrim -->
  <g class="node-card" transform="translate(250,70)">
    <rect width="200" height="90" rx="4" fill="white" stroke="#25537b" stroke-width="1"/>
    <rect width="200" height="28" rx="4" fill="#25537b"/>
    <rect x="0" y="24" width="200" height="4" fill="#25537b"/>
    <text x="10" y="19" font-family="system-ui, sans-serif" font-size="11" fill="rgba(255,255,255,0.7)">2:</text>
    <text x="26" y="19" font-family="system-ui, sans-serif" font-size="11" font-weight="600" fill="white">filterAndTrim</text>
    <text x="100" y="52" text-anchor="middle" font-family="system-ui, sans-serif" font-size="10" fill="#495057">Trim and filter reads</text>
    <text x="100" y="66" text-anchor="middle" font-family="system-ui, sans-serif" font-size="9" fill="#868e96">Quality + length filtering</text>
    <circle cx="0" cy="45" r="6" fill="white" stroke="#25537b" stroke-width="2"/>
    <circle cx="200" cy="45" r="6" fill="white" stroke="#25537b" stroke-width="2"/>
  </g>

  <!-- learnErrors (grouped fwd+rev) -->
  <g class="node-card" transform="translate(500,70)">
    <rect width="200" height="90" rx="4" fill="white" stroke="#25537b" stroke-width="1"/>
    <rect width="200" height="28" rx="4" fill="#25537b"/>
    <rect x="0" y="24" width="200" height="4" fill="#25537b"/>
    <text x="10" y="19" font-family="system-ui, sans-serif" font-size="11" fill="rgba(255,255,255,0.7)">3:</text>
    <text x="26" y="19" font-family="system-ui, sans-serif" font-size="11" font-weight="600" fill="white">learnErrors</text>
    <text x="100" y="52" text-anchor="middle" font-family="system-ui, sans-serif" font-size="10" fill="#495057">Learn error rates</text>
    <text x="100" y="66" text-anchor="middle" font-family="system-ui, sans-serif" font-size="9" fill="#868e96">Fwd + Rev (separately)</text>
    <circle cx="0" cy="45" r="6" fill="white" stroke="#25537b" stroke-width="2"/>
    <circle cx="200" cy="45" r="6" fill="white" stroke="#25537b" stroke-width="2"/>
  </g>

  <!-- dada (denoise, grouped) -->
  <g class="node-card" transform="translate(750,70)">
    <rect width="200" height="90" rx="4" fill="white" stroke="#25537b" stroke-width="1"/>
    <rect width="200" height="28" rx="4" fill="#25537b"/>
    <rect x="0" y="24" width="200" height="4" fill="#25537b"/>
    <text x="10" y="19" font-family="system-ui, sans-serif" font-size="11" fill="rgba(255,255,255,0.7)">4:</text>
    <text x="26" y="19" font-family="system-ui, sans-serif" font-size="11" font-weight="600" fill="white">dada (Denoise)</text>
    <text x="100" y="52" text-anchor="middle" font-family="system-ui, sans-serif" font-size="10" fill="#495057">Sample inference</text>
    <text x="100" y="66" text-anchor="middle" font-family="system-ui, sans-serif" font-size="9" fill="#868e96">Fwd + Rev (separately)</text>
    <circle cx="0" cy="45" r="6" fill="white" stroke="#25537b" stroke-width="2"/>
    <circle cx="200" cy="45" r="6" fill="white" stroke="#25537b" stroke-width="2"/>
  </g>

  <!-- Row 2: mergePairs -> makeSequenceTable -> removeBimeraDenovo -> assignTaxonomy -->
  <!-- mergePairs -->
  <g class="node-card" transform="translate(20,220)">
    <rect width="200" height="90" rx="4" fill="white" stroke="#25537b" stroke-width="1"/>
    <rect width="200" height="28" rx="4" fill="#25537b"/>
    <rect x="0" y="24" width="200" height="4" fill="#25537b"/>
    <text x="10" y="19" font-family="system-ui, sans-serif" font-size="11" fill="rgba(255,255,255,0.7)">5:</text>
    <text x="26" y="19" font-family="system-ui, sans-serif" font-size="11" font-weight="600" fill="white">mergePairs</text>
    <text x="100" y="52" text-anchor="middle" font-family="system-ui, sans-serif" font-size="10" fill="#495057">Merge forward + reverse</text>
    <text x="100" y="66" text-anchor="middle" font-family="system-ui, sans-serif" font-size="9" fill="#868e96">Paired-end overlap</text>
    <circle cx="0" cy="45" r="6" fill="white" stroke="#25537b" stroke-width="2"/>
    <circle cx="200" cy="45" r="6" fill="white" stroke="#25537b" stroke-width="2"/>
  </g>

  <!-- makeSequenceTable -->
  <g class="node-card" transform="translate(270,220)">
    <rect width="200" height="90" rx="4" fill="white" stroke="#25537b" stroke-width="1"/>
    <rect width="200" height="28" rx="4" fill="#25537b"/>
    <rect x="0" y="24" width="200" height="4" fill="#25537b"/>
    <text x="10" y="19" font-family="system-ui, sans-serif" font-size="11" fill="rgba(255,255,255,0.7)">6:</text>
    <text x="26" y="19" font-family="system-ui, sans-serif" font-size="11" font-weight="600" fill="white">makeSequenceTable</text>
    <text x="100" y="52" text-anchor="middle" font-family="system-ui, sans-serif" font-size="10" fill="#495057">Build ASV table</text>
    <text x="100" y="66" text-anchor="middle" font-family="system-ui, sans-serif" font-size="9" fill="#868e96">Sample x sequence matrix</text>
    <circle cx="0" cy="45" r="6" fill="white" stroke="#25537b" stroke-width="2"/>
    <circle cx="200" cy="45" r="6" fill="white" stroke="#25537b" stroke-width="2"/>
  </g>

  <!-- removeBimeraDenovo -->
  <g class="node-card" transform="translate(520,220)">
    <rect width="200" height="90" rx="4" fill="white" stroke="#25537b" stroke-width="1"/>
    <rect width="200" height="28" rx="4" fill="#25537b"/>
    <rect x="0" y="24" width="200" height="4" fill="#25537b"/>
    <text x="10" y="19" font-family="system-ui, sans-serif" font-size="11" fill="rgba(255,255,255,0.7)">7:</text>
    <text x="26" y="19" font-family="system-ui, sans-serif" font-size="11" font-weight="600" fill="white">removeBimeraDenovo</text>
    <text x="100" y="52" text-anchor="middle" font-family="system-ui, sans-serif" font-size="10" fill="#495057">Remove chimeras</text>
    <text x="100" y="66" text-anchor="middle" font-family="system-ui, sans-serif" font-size="9" fill="#868e96">Consensus method</text>
    <circle cx="0" cy="45" r="6" fill="white" stroke="#25537b" stroke-width="2"/>
    <circle cx="200" cy="45" r="6" fill="white" stroke="#25537b" stroke-width="2"/>
  </g>

  <!-- assignTaxonomy -->
  <g class="node-card" transform="translate(770,220)">
    <rect width="200" height="90" rx="4" fill="white" stroke="#25537b" stroke-width="1"/>
    <rect width="200" height="28" rx="4" fill="#25537b"/>
    <rect x="0" y="24" width="200" height="4" fill="#25537b"/>
    <text x="10" y="19" font-family="system-ui, sans-serif" font-size="11" fill="rgba(255,255,255,0.7)">8:</text>
    <text x="26" y="19" font-family="system-ui, sans-serif" font-size="11" font-weight="600" fill="white">assignTaxonomy</text>
    <text x="100" y="52" text-anchor="middle" font-family="system-ui, sans-serif" font-size="10" fill="#495057">Classify ASVs</text>
    <text x="100" y="66" text-anchor="middle" font-family="system-ui, sans-serif" font-size="9" fill="#868e96">Reference database</text>
    <circle cx="0" cy="45" r="6" fill="white" stroke="#25537b" stroke-width="2"/>
    <circle cx="200" cy="45" r="6" fill="white" stroke="#25537b" stroke-width="2"/>
  </g>

  <!-- Connections -->
  <!-- Row 1 left-to-right -->
  <!-- Input(200,115) -> filterAndTrim(250,115) -->
  <line x1="200" y1="115" x2="250" y2="115" class="connection"/>
  <!-- filterAndTrim(450,115) -> learnErrors(500,115) — fwd + rev parallel -->
  <line x1="450" y1="112" x2="500" y2="112" class="connection"/>
  <line x1="450" y1="118" x2="500" y2="118" class="connection-secondary"/>
  <!-- learnErrors(700,115) -> dada(750,115) — fwd + rev parallel -->
  <line x1="700" y1="112" x2="750" y2="112" class="connection"/>
  <line x1="700" y1="118" x2="750" y2="118" class="connection-secondary"/>
  <!-- dada(950,115) curves down to mergePairs(20,265) — fwd + rev merge -->
  <path d="M 950 157 C 970 197, 30 197, 20 262" class="connection"/>
  <path d="M 950 163 C 970 203, 30 203, 20 268" class="connection-secondary"/>
  <!-- mergePairs(220,265) -> makeSeqTable(270,265) -->
  <line x1="220" y1="265" x2="270" y2="265" class="connection"/>
  <!-- makeSeqTable(470,265) -> removeBimera(520,265) -->
  <line x1="470" y1="265" x2="520" y2="265" class="connection"/>
  <!-- removeBimera(720,265) -> assignTaxonomy(770,265) -->
  <line x1="720" y1="265" x2="770" y2="265" class="connection"/>

  <!-- Outputs -->
  <!-- Sequence Table output -->
  <g class="node-card" transform="translate(540,365)">
    <rect width="140" height="50" rx="4" fill="white" stroke="#f97316" stroke-width="1.5"/>
    <rect width="140" height="20" rx="4" fill="#f97316"/>
    <rect x="0" y="16" width="140" height="4" fill="#f97316"/>
    <text x="70" y="14" text-anchor="middle" font-family="system-ui, sans-serif" font-size="10" font-weight="600" fill="white">Sequence Table</text>
    <text x="70" y="38" text-anchor="middle" font-family="system-ui, sans-serif" font-size="8" fill="#868e96">dada2_sequencetable</text>
    <circle cx="0" cy="25" r="5" fill="white" stroke="#f97316" stroke-width="2"/>
  </g>
  <!-- Taxonomy output -->
  <g class="node-card" transform="translate(790,365)">
    <rect width="140" height="50" rx="4" fill="white" stroke="#f97316" stroke-width="1.5"/>
    <rect width="140" height="20" rx="4" fill="#f97316"/>
    <rect x="0" y="16" width="140" height="4" fill="#f97316"/>
    <text x="70" y="14" text-anchor="middle" font-family="system-ui, sans-serif" font-size="10" font-weight="600" fill="white">Taxonomy</text>
    <text x="70" y="38" text-anchor="middle" font-family="system-ui, sans-serif" font-size="8" fill="#868e96">tabular</text>
    <circle cx="0" cy="25" r="5" fill="white" stroke="#f97316" stroke-width="2"/>
  </g>
  <!-- Counts output (report) -->
  <g class="node-card" transform="translate(290,365)">
    <rect width="140" height="50" rx="4" fill="white" stroke="#10b981" stroke-width="1.5"/>
    <rect width="140" height="20" rx="4" fill="#10b981"/>
    <rect x="0" y="16" width="140" height="4" fill="#10b981"/>
    <text x="70" y="14" text-anchor="middle" font-family="system-ui, sans-serif" font-size="10" font-weight="600" fill="white">Sequence Tracking</text>
    <text x="70" y="38" text-anchor="middle" font-family="system-ui, sans-serif" font-size="8" fill="#868e96">reads per step (QC)</text>
    <circle cx="0" cy="25" r="5" fill="white" stroke="#10b981" stroke-width="2"/>
  </g>

  <!-- Output connections -->
  <!-- removeBimera (620,310) → Sequence Table (540,390) -->
  <path d="M 620 310 C 620 345, 540 355, 540 390" class="connection-secondary"/>
  <!-- assignTaxonomy (870,310) → Taxonomy (790,390) -->
  <path d="M 870 310 C 870 345, 790 355, 790 390" class="connection"/>
  <!-- makeSeqTable (370,310) → Sequence Tracking (290,390) -->
  <path d="M 370 310 C 370 345, 290 355, 290 390" class="connection-qc"/>

  <!-- Legend -->
  <g transform="translate(20,490)">
    <text x="0" y="0" font-family="system-ui, sans-serif" font-size="10" font-weight="600" fill="#495057">Legend:</text>
    <rect x="60" y="-10" width="14" height="14" rx="2" fill="white" stroke="#ffd700" stroke-width="1.5"/>
    <text x="80" y="0" font-family="system-ui, sans-serif" font-size="9" fill="#6c757d">Input</text>
    <line x1="120" y1="-4" x2="160" y2="-4" stroke="#25537b" stroke-width="4" stroke-linecap="round"/>
    <text x="168" y="0" font-family="system-ui, sans-serif" font-size="9" fill="#6c757d">Fwd reads</text>
    <line x1="240" y1="-4" x2="280" y2="-4" stroke="#25537b" stroke-width="3" stroke-linecap="round"/>
    <text x="288" y="0" font-family="system-ui, sans-serif" font-size="9" fill="#6c757d">Rev reads</text>
    <line x1="360" y1="-4" x2="400" y2="-4" stroke="#25537b" stroke-width="3" stroke-linecap="round" stroke-dasharray="5 3"/>
    <text x="408" y="0" font-family="system-ui, sans-serif" font-size="9" fill="#6c757d">QC metrics</text>
    <rect x="480" y="-10" width="14" height="14" rx="2" fill="white" stroke="#f97316" stroke-width="1.5"/>
    <text x="500" y="0" font-family="system-ui, sans-serif" font-size="9" fill="#6c757d">Output</text>
    <rect x="550" y="-10" width="14" height="14" rx="2" fill="white" stroke="#10b981" stroke-width="1.5"/>
    <text x="570" y="0" font-family="system-ui, sans-serif" font-size="9" fill="#6c757d">Report</text>
  </g>
</svg>