<svg xmlns="http://www.w3.org/2000/svg" viewBox="0 0 1100 580" role="img" aria-label="Generic Variation Analysis on WGS PE Data workflow diagram">
  <title>Generic Variation Analysis on WGS PE Data</title>
  <desc>Variant analysis pipeline for whole-genome sequencing paired-end data: quality trimming with fastp, BWA-MEM alignment against a GenBank reference, filtering and deduplication, LoFreq variant calling, and SnpEff annotation.</desc>

  <defs>
    <pattern id="grid" width="20" height="20" patternUnits="userSpaceOnUse">
      <path d="M 20 0 L 0 0 0 20" fill="none" stroke="#c5d5e4" stroke-width="0.5"/>
    </pattern>
    <pattern id="grid-major" width="100" height="100" patternUnits="userSpaceOnUse">
      <rect width="100" height="100" fill="url(#grid)"/>
      <path d="M 100 0 L 0 0 0 100" fill="none" stroke="#b0c4d8" stroke-width="1"/>
    </pattern>
    <style>
      .connection { stroke: #25537b; stroke-width: 4; fill: none; stroke-linecap: round; }
      .connection-qc { stroke: #25537b; stroke-width: 3; fill: none; stroke-linecap: round; stroke-dasharray: 5 3; }
      .connection-secondary { stroke: #25537b; stroke-width: 3; fill: none; stroke-linecap: round; }
      .node-card { filter: drop-shadow(1px 2px 3px rgba(0,0,0,0.15)); }
    </style>
  </defs>

  <!-- Background -->
  <rect width="1100" height="580" fill="#f8f9fa"/>
  <rect width="1100" height="580" fill="url(#grid-major)"/>

  <!-- Title bar -->
  <rect x="0" y="0" width="1100" height="45" fill="#25537b"/>
  <text x="20" y="28" font-family="system-ui, sans-serif" font-size="16" font-weight="600" fill="white">Generic Variation Analysis on WGS PE Data</text>

  <!-- CONNECTIONS -->

  <!-- PE Collection -> fastp -->
  <path class="connection" d="M 180 125 C 225 125, 230 135, 270 135"/>
  <!-- GenBank -> SnpEff build -->
  <path class="connection" d="M 180 255 C 225 255, 230 275, 270 275"/>
  <!-- fastp -> BWA-MEM -->
  <path class="connection" d="M 430 135 C 470 135, 465 175, 500 175"/>
  <!-- SnpEff build -> BWA-MEM (reference fasta) -->
  <path class="connection" d="M 430 265 C 470 265, 465 195, 500 195"/>
  <!-- BWA-MEM -> Samtools view -->
  <path class="connection" d="M 660 185 C 695 185, 690 185, 720 185"/>
  <!-- Samtools view -> MarkDuplicates -->
  <path class="connection" d="M 860 185 C 895 185, 890 135, 920 135"/>
  <!-- MarkDuplicates -> Realign (Viterbi) -->
  <path class="connection" d="M 270 395 C 300 395, 295 395, 330 395"/>
  <!-- Realign -> Indel Quals -->
  <path class="connection" d="M 490 395 C 530 395, 525 395, 560 395"/>
  <!-- Indel Quals -> LoFreq Call -->
  <path class="connection" d="M 720 395 C 760 395, 755 395, 790 395"/>
  <!-- LoFreq Call -> SnpEff annotate -->
  <path class="connection" d="M 950 395 C 985 395, 975 365, 1000 365"/>

  <!-- SnpEff build -> SnpEff annotate (database) - long curve -->
  <path class="connection-secondary" d="M 350 310 C 350 340, 1000 340, 1000 345"/>

  <!-- Samtools view -> MarkDuplicates connection is above -->
  <!-- MarkDuplicates down to Realign row -->
  <path class="connection" d="M 1000 175 C 1030 175, 300 360, 330 380"/>

  <!-- QC connections (dashed) -->
  <!-- fastp -> MultiQC -->
  <path class="connection-qc" d="M 350 180 C 350 310, 500 460, 560 470"/>
  <!-- Samtools stats -> MultiQC -->
  <path class="connection-qc" d="M 790 230 C 790 350, 630 440, 610 470"/>
  <!-- MarkDuplicates -> MultiQC -->
  <path class="connection-qc" d="M 960 175 C 960 350, 680 440, 650 470"/>

  <!-- Output connections -->
  <!-- SnpEff annotate -> SnpEff variants output -->
  <path class="connection" d="M 1060 340 C 1080 340, 1070 290, 1040 290"/>
  <!-- SnpEff annotate -> SnpEff stats output -->
  <path class="connection" d="M 1060 390 C 1080 390, 1070 430, 1040 430"/>

  <!-- NODES -->

  <!-- INPUT: PE Collection -->
  <g class="node-card" transform="translate(30, 80)">
    <rect width="150" height="90" rx="4" fill="white" stroke="#ffd700" stroke-width="1.5"/>
    <rect width="150" height="28" rx="4" fill="#ffd700"/>
    <rect x="0" y="24" width="150" height="4" fill="#ffd700"/>
    <text x="10" y="19" font-family="system-ui, sans-serif" font-size="11" fill="rgba(44,49,67,0.6)">1:</text>
    <text x="26" y="19" font-family="system-ui, sans-serif" font-size="11" font-weight="600" fill="#2C3143">PE Collection</text>
    <text x="75" y="55" text-anchor="middle" font-family="system-ui, sans-serif" font-size="10" fill="#495057">Paired-end reads</text>
    <text x="75" y="72" text-anchor="middle" font-family="system-ui, sans-serif" font-size="9" fill="#868e96">list:paired collection</text>
    <circle cx="150" cy="45" r="6" fill="white" stroke="#ffd700" stroke-width="2"/>
  </g>

  <!-- INPUT: GenBank genome -->
  <g class="node-card" transform="translate(30, 210)">
    <rect width="150" height="90" rx="4" fill="white" stroke="#ffd700" stroke-width="1.5"/>
    <rect width="150" height="28" rx="4" fill="#ffd700"/>
    <rect x="0" y="24" width="150" height="4" fill="#ffd700"/>
    <text x="10" y="19" font-family="system-ui, sans-serif" font-size="11" fill="rgba(44,49,67,0.6)">2:</text>
    <text x="26" y="19" font-family="system-ui, sans-serif" font-size="11" font-weight="600" fill="#2C3143">GenBank Genome</text>
    <text x="75" y="55" text-anchor="middle" font-family="system-ui, sans-serif" font-size="10" fill="#495057">Reference genome</text>
    <text x="75" y="72" text-anchor="middle" font-family="system-ui, sans-serif" font-size="9" fill="#868e96">GenBank format</text>
    <circle cx="150" cy="45" r="6" fill="white" stroke="#ffd700" stroke-width="2"/>
  </g>

  <!-- PROCESSING: fastp -->
  <g class="node-card" transform="translate(270, 90)">
    <rect width="160" height="90" rx="4" fill="white" stroke="#25537b" stroke-width="1"/>
    <rect width="160" height="28" rx="4" fill="#25537b"/>
    <rect x="0" y="24" width="160" height="4" fill="#25537b"/>
    <text x="10" y="19" font-family="system-ui, sans-serif" font-size="11" fill="rgba(255,255,255,0.7)">3:</text>
    <text x="26" y="19" font-family="system-ui, sans-serif" font-size="11" font-weight="600" fill="white">fastp</text>
    <text x="80" y="55" text-anchor="middle" font-family="system-ui, sans-serif" font-size="10" fill="#495057">Quality trimming</text>
    <text x="80" y="72" text-anchor="middle" font-family="system-ui, sans-serif" font-size="9" fill="#868e96">Adapter removal</text>
    <circle cx="0" cy="45" r="6" fill="white" stroke="#25537b" stroke-width="2"/>
    <circle cx="160" cy="45" r="6" fill="white" stroke="#25537b" stroke-width="2"/>
    <circle cx="80" cy="90" r="5" fill="white" stroke="#25537b" stroke-width="1.5"/>
  </g>

  <!-- PROCESSING: SnpEff build -->
  <g class="node-card" transform="translate(270, 220)">
    <rect width="160" height="90" rx="4" fill="white" stroke="#25537b" stroke-width="1"/>
    <rect width="160" height="28" rx="4" fill="#25537b"/>
    <rect x="0" y="24" width="160" height="4" fill="#25537b"/>
    <text x="10" y="19" font-family="system-ui, sans-serif" font-size="11" fill="rgba(255,255,255,0.7)">4:</text>
    <text x="26" y="19" font-family="system-ui, sans-serif" font-size="11" font-weight="600" fill="white">SnpEff Build</text>
    <text x="80" y="55" text-anchor="middle" font-family="system-ui, sans-serif" font-size="10" fill="#495057">Build database</text>
    <text x="80" y="72" text-anchor="middle" font-family="system-ui, sans-serif" font-size="9" fill="#868e96">+ extract FASTA</text>
    <circle cx="0" cy="45" r="6" fill="white" stroke="#25537b" stroke-width="2"/>
    <circle cx="160" cy="45" r="6" fill="white" stroke="#25537b" stroke-width="2"/>
  </g>

  <!-- PROCESSING: BWA-MEM -->
  <g class="node-card" transform="translate(500, 140)">
    <rect width="160" height="90" rx="4" fill="white" stroke="#25537b" stroke-width="1"/>
    <rect width="160" height="28" rx="4" fill="#25537b"/>
    <rect x="0" y="24" width="160" height="4" fill="#25537b"/>
    <text x="10" y="19" font-family="system-ui, sans-serif" font-size="11" fill="rgba(255,255,255,0.7)">5:</text>
    <text x="26" y="19" font-family="system-ui, sans-serif" font-size="11" font-weight="600" fill="white">BWA-MEM</text>
    <text x="80" y="55" text-anchor="middle" font-family="system-ui, sans-serif" font-size="10" fill="#495057">Read alignment</text>
    <text x="80" y="72" text-anchor="middle" font-family="system-ui, sans-serif" font-size="9" fill="#868e96">To reference</text>
    <circle cx="0" cy="35" r="6" fill="white" stroke="#25537b" stroke-width="2"/>
    <circle cx="0" cy="55" r="6" fill="white" stroke="#25537b" stroke-width="2"/>
    <circle cx="160" cy="45" r="6" fill="white" stroke="#25537b" stroke-width="2"/>
  </g>

  <!-- PROCESSING: Samtools view + stats -->
  <g class="node-card" transform="translate(720, 140)">
    <rect width="140" height="90" rx="4" fill="white" stroke="#25537b" stroke-width="1"/>
    <rect width="140" height="28" rx="4" fill="#25537b"/>
    <rect x="0" y="24" width="140" height="4" fill="#25537b"/>
    <text x="10" y="19" font-family="system-ui, sans-serif" font-size="11" fill="rgba(255,255,255,0.7)">6:</text>
    <text x="26" y="19" font-family="system-ui, sans-serif" font-size="11" font-weight="600" fill="white">Filter + Stats</text>
    <text x="70" y="55" text-anchor="middle" font-family="system-ui, sans-serif" font-size="10" fill="#495057">Samtools view</text>
    <text x="70" y="72" text-anchor="middle" font-family="system-ui, sans-serif" font-size="9" fill="#868e96">Proper pairs only</text>
    <circle cx="0" cy="45" r="6" fill="white" stroke="#25537b" stroke-width="2"/>
    <circle cx="140" cy="45" r="6" fill="white" stroke="#25537b" stroke-width="2"/>
    <circle cx="70" cy="90" r="5" fill="white" stroke="#25537b" stroke-width="1.5"/>
  </g>

  <!-- PROCESSING: MarkDuplicates -->
  <g class="node-card" transform="translate(920, 90)">
    <rect width="160" height="90" rx="4" fill="white" stroke="#25537b" stroke-width="1"/>
    <rect width="160" height="28" rx="4" fill="#25537b"/>
    <rect x="0" y="24" width="160" height="4" fill="#25537b"/>
    <text x="10" y="19" font-family="system-ui, sans-serif" font-size="11" fill="rgba(255,255,255,0.7)">7:</text>
    <text x="26" y="19" font-family="system-ui, sans-serif" font-size="11" font-weight="600" fill="white">MarkDuplicates</text>
    <text x="80" y="55" text-anchor="middle" font-family="system-ui, sans-serif" font-size="10" fill="#495057">PCR deduplication</text>
    <text x="80" y="72" text-anchor="middle" font-family="system-ui, sans-serif" font-size="9" fill="#868e96">Picard</text>
    <circle cx="0" cy="45" r="6" fill="white" stroke="#25537b" stroke-width="2"/>
    <circle cx="80" cy="90" r="5" fill="white" stroke="#25537b" stroke-width="1.5"/>
  </g>

  <!-- PROCESSING ROW 2: Realign reads -->
  <g class="node-card" transform="translate(330, 350)">
    <rect width="160" height="90" rx="4" fill="white" stroke="#25537b" stroke-width="1"/>
    <rect width="160" height="28" rx="4" fill="#25537b"/>
    <rect x="0" y="24" width="160" height="4" fill="#25537b"/>
    <text x="10" y="19" font-family="system-ui, sans-serif" font-size="11" fill="rgba(255,255,255,0.7)">8:</text>
    <text x="26" y="19" font-family="system-ui, sans-serif" font-size="11" font-weight="600" fill="white">Realign Reads</text>
    <text x="80" y="55" text-anchor="middle" font-family="system-ui, sans-serif" font-size="10" fill="#495057">LoFreq Viterbi</text>
    <text x="80" y="72" text-anchor="middle" font-family="system-ui, sans-serif" font-size="9" fill="#868e96">Indel realignment</text>
    <circle cx="0" cy="45" r="6" fill="white" stroke="#25537b" stroke-width="2"/>
    <circle cx="160" cy="45" r="6" fill="white" stroke="#25537b" stroke-width="2"/>
  </g>

  <!-- Indel Quals -->
  <g class="node-card" transform="translate(560, 350)">
    <rect width="160" height="90" rx="4" fill="white" stroke="#25537b" stroke-width="1"/>
    <rect width="160" height="28" rx="4" fill="#25537b"/>
    <rect x="0" y="24" width="160" height="4" fill="#25537b"/>
    <text x="10" y="19" font-family="system-ui, sans-serif" font-size="11" fill="rgba(255,255,255,0.7)">9:</text>
    <text x="26" y="19" font-family="system-ui, sans-serif" font-size="11" font-weight="600" fill="white">Indel Quals</text>
    <text x="80" y="55" text-anchor="middle" font-family="system-ui, sans-serif" font-size="10" fill="#495057">Insert qualities</text>
    <text x="80" y="72" text-anchor="middle" font-family="system-ui, sans-serif" font-size="9" fill="#868e96">LoFreq indelqual</text>
    <circle cx="0" cy="45" r="6" fill="white" stroke="#25537b" stroke-width="2"/>
    <circle cx="160" cy="45" r="6" fill="white" stroke="#25537b" stroke-width="2"/>
  </g>

  <!-- LoFreq Call -->
  <g class="node-card" transform="translate(790, 350)">
    <rect width="160" height="90" rx="4" fill="white" stroke="#25537b" stroke-width="1"/>
    <rect width="160" height="28" rx="4" fill="#25537b"/>
    <rect x="0" y="24" width="160" height="4" fill="#25537b"/>
    <text x="10" y="19" font-family="system-ui, sans-serif" font-size="11" fill="rgba(255,255,255,0.7)">10:</text>
    <text x="30" y="19" font-family="system-ui, sans-serif" font-size="11" font-weight="600" fill="white">LoFreq Call</text>
    <text x="80" y="55" text-anchor="middle" font-family="system-ui, sans-serif" font-size="10" fill="#495057">Variant calling</text>
    <text x="80" y="72" text-anchor="middle" font-family="system-ui, sans-serif" font-size="9" fill="#868e96">+ quality filter</text>
    <circle cx="0" cy="45" r="6" fill="white" stroke="#25537b" stroke-width="2"/>
    <circle cx="160" cy="45" r="6" fill="white" stroke="#25537b" stroke-width="2"/>
  </g>

  <!-- OUTPUTS -->

  <!-- SnpEff annotate -->
  <g class="node-card" transform="translate(930, 320)">
    <rect width="140" height="90" rx="4" fill="white" stroke="#25537b" stroke-width="1"/>
    <rect width="140" height="28" rx="4" fill="#25537b"/>
    <rect x="0" y="24" width="140" height="4" fill="#25537b"/>
    <text x="10" y="19" font-family="system-ui, sans-serif" font-size="11" fill="rgba(255,255,255,0.7)">11:</text>
    <text x="30" y="19" font-family="system-ui, sans-serif" font-size="11" font-weight="600" fill="white">SnpEff Annotate</text>
    <text x="70" y="55" text-anchor="middle" font-family="system-ui, sans-serif" font-size="10" fill="#495057">Functional effects</text>
    <text x="70" y="72" text-anchor="middle" font-family="system-ui, sans-serif" font-size="9" fill="#868e96">Gene annotation</text>
    <circle cx="0" cy="45" r="6" fill="white" stroke="#25537b" stroke-width="2"/>
    <circle cx="140" cy="20" r="5" fill="white" stroke="#25537b" stroke-width="1.5"/>
    <circle cx="140" cy="70" r="5" fill="white" stroke="#25537b" stroke-width="1.5"/>
  </g>

  <!-- OUTPUT: SnpEff Variants -->
  <g class="node-card" transform="translate(960, 250)">
    <rect width="120" height="50" rx="4" fill="white" stroke="#f97316" stroke-width="1.5"/>
    <rect width="120" height="22" rx="4" fill="#f97316"/>
    <rect x="0" y="18" width="120" height="4" fill="#f97316"/>
    <text x="60" y="15" text-anchor="middle" font-family="system-ui, sans-serif" font-size="10" font-weight="600" fill="white">SnpEff Variants</text>
    <text x="60" y="38" text-anchor="middle" font-family="system-ui, sans-serif" font-size="9" fill="#868e96">Annotated VCF</text>
    <circle cx="0" cy="25" r="5" fill="white" stroke="#f97316" stroke-width="2"/>
  </g>

  <!-- OUTPUT: SnpEff Stats -->
  <g class="node-card" transform="translate(960, 420)">
    <rect width="120" height="50" rx="4" fill="white" stroke="#f97316" stroke-width="1.5"/>
    <rect width="120" height="22" rx="4" fill="#f97316"/>
    <rect x="0" y="18" width="120" height="4" fill="#f97316"/>
    <text x="60" y="15" text-anchor="middle" font-family="system-ui, sans-serif" font-size="10" font-weight="600" fill="white">SnpEff Stats</text>
    <text x="60" y="38" text-anchor="middle" font-family="system-ui, sans-serif" font-size="9" fill="#868e96">Effect statistics</text>
    <circle cx="0" cy="25" r="5" fill="white" stroke="#f97316" stroke-width="2"/>
  </g>

  <!-- REPORT: MultiQC -->
  <g class="node-card" transform="translate(530, 460)">
    <rect width="160" height="80" rx="4" fill="white" stroke="#10b981" stroke-width="1.5"/>
    <rect width="160" height="28" rx="4" fill="#10b981"/>
    <rect x="0" y="24" width="160" height="4" fill="#10b981"/>
    <text x="80" y="19" text-anchor="middle" font-family="system-ui, sans-serif" font-size="11" font-weight="600" fill="white">MultiQC Report</text>
    <text x="80" y="52" text-anchor="middle" font-family="system-ui, sans-serif" font-size="10" fill="#495057">Quality metrics</text>
    <text x="80" y="68" text-anchor="middle" font-family="system-ui, sans-serif" font-size="9" fill="#868e96">fastp, mapping, dedup</text>
    <circle cx="30" cy="0" r="5" fill="white" stroke="#10b981" stroke-width="1.5"/>
    <circle cx="80" cy="0" r="5" fill="white" stroke="#10b981" stroke-width="1.5"/>
    <circle cx="120" cy="0" r="5" fill="white" stroke="#10b981" stroke-width="1.5"/>
  </g>

  <!-- Legend -->
  <g transform="translate(30, 545)">
    <text x="0" y="0" font-family="system-ui, sans-serif" font-size="10" font-weight="600" fill="#495057">Legend:</text>
    <rect x="60" y="-10" width="14" height="14" rx="2" fill="white" stroke="#ffd700" stroke-width="1.5"/>
    <text x="80" y="0" font-family="system-ui, sans-serif" font-size="9" fill="#6c757d">Input</text>
    <rect x="130" y="-10" width="14" height="14" rx="2" fill="white" stroke="#25537b" stroke-width="1.5"/>
    <text x="150" y="0" font-family="system-ui, sans-serif" font-size="9" fill="#6c757d">Processing</text>
    <line x1="230" y1="-4" x2="270" y2="-4" stroke="#25537b" stroke-width="4" stroke-linecap="round"/>
    <text x="278" y="0" font-family="system-ui, sans-serif" font-size="9" fill="#6c757d">Data flow</text>
    <line x1="350" y1="-4" x2="390" y2="-4" stroke="#25537b" stroke-width="3" stroke-linecap="round" stroke-dasharray="5 3"/>
    <text x="398" y="0" font-family="system-ui, sans-serif" font-size="9" fill="#6c757d">QC metrics</text>
    <rect x="480" y="-10" width="14" height="14" rx="2" fill="white" stroke="#f97316" stroke-width="1.5"/>
    <text x="500" y="0" font-family="system-ui, sans-serif" font-size="9" fill="#6c757d">Output</text>
    <rect x="560" y="-10" width="14" height="14" rx="2" fill="white" stroke="#10b981" stroke-width="1.5"/>
    <text x="580" y="0" font-family="system-ui, sans-serif" font-size="9" fill="#6c757d">Report</text>
  </g>

</svg>