<svg xmlns="http://www.w3.org/2000/svg" viewBox="0 0 1200 620" role="img" aria-label="MGnify rRNA Prediction workflow diagram">
  <title>MGnify Amplicon Pipeline v5.0 - rRNA Prediction</title>
  <desc>Classification and visualization of SSU and LSU ribosomal RNA sequences using Infernal for rRNA detection, MAPseq for SILVA-based taxonomy, and Krona for visualization</desc>

  <defs>
    <pattern id="grid" width="20" height="20" patternUnits="userSpaceOnUse">
      <path d="M 20 0 L 0 0 0 20" fill="none" stroke="#c5d5e4" stroke-width="0.5"/>
    </pattern>
    <pattern id="grid-major" width="100" height="100" patternUnits="userSpaceOnUse">
      <rect width="100" height="100" fill="url(#grid)"/>
      <path d="M 100 0 L 0 0 0 100" fill="none" stroke="#b0c4d8" stroke-width="1"/>
    </pattern>

    <style>
      .connection { stroke: #25537b; stroke-width: 4; fill: none; stroke-linecap: round; }
      .connection-qc { stroke: #25537b; stroke-width: 3; fill: none; stroke-linecap: round; stroke-dasharray: 5 3; }
      .connection-secondary { stroke: #25537b; stroke-width: 3; fill: none; stroke-linecap: round; }
      .node-card { filter: drop-shadow(1px 2px 3px rgba(0,0,0,0.15)); }
    </style>
  </defs>

  <!-- Background -->
  <rect width="1200" height="620" fill="#f8f9fa"/>
  <rect width="1200" height="620" fill="url(#grid-major)"/>

  <!-- Title bar -->
  <rect x="0" y="0" width="1200" height="45" fill="#25537b"/>
  <text x="20" y="28" font-family="system-ui, sans-serif" font-size="16" font-weight="600" fill="white">MGnify Amplicon Pipeline v5.0 - rRNA Prediction</text>

  <!-- SSU/LSU track labels -->
  <text x="630" y="90" font-family="system-ui, sans-serif" font-size="11" font-weight="600" fill="#25537b" text-anchor="middle">SSU Track</text>
  <line x1="530" y1="95" x2="730" y2="95" stroke="#25537b" stroke-width="0.5" stroke-dasharray="3 3"/>

  <text x="630" y="310" font-family="system-ui, sans-serif" font-size="11" font-weight="600" fill="#25537b" text-anchor="middle">LSU Track</text>
  <line x1="530" y1="315" x2="730" y2="315" stroke="#25537b" stroke-width="0.5" stroke-dasharray="3 3"/>

  <!-- CONNECTIONS -->

  <!-- Input sequences to Infernal -->
  <path class="connection" d="M 200 165 C 260 165, 280 200, 340 200"/>
  <!-- Clan file to Infernal -->
  <path class="connection-secondary" d="M 200 275 C 260 275, 280 230, 340 230"/>

  <!-- Infernal to SSU extraction -->
  <path class="connection" d="M 540 200 C 580 200, 560 140, 600 140"/>
  <!-- Infernal to LSU extraction -->
  <path class="connection" d="M 540 230 C 580 230, 560 360, 600 360"/>

  <!-- SSU extraction to MAPseq SSU -->
  <path class="connection" d="M 770 140 C 810 140, 830 140, 870 140"/>
  <!-- LSU extraction to MAPseq LSU -->
  <path class="connection" d="M 770 360 C 810 360, 830 360, 870 360"/>

  <!-- MAPseq SSU to Krona SSU -->
  <path class="connection" d="M 1070 140 C 1100 140, 1090 190, 1120 190"/>
  <!-- MAPseq LSU to Krona LSU -->
  <path class="connection" d="M 1070 360 C 1100 360, 1090 410, 1120 410"/>

  <!-- MAPseq SSU to SSU outputs -->
  <path class="connection-qc" d="M 1070 140 C 1100 140, 320 510, 360 510"/>
  <path class="connection-qc" d="M 1070 140 C 1110 140, 480 510, 520 510"/>

  <!-- MAPseq LSU to LSU outputs -->
  <path class="connection-qc" d="M 1070 360 C 1100 360, 640 510, 680 510"/>
  <path class="connection-qc" d="M 1070 360 C 1110 360, 800 510, 840 510"/>

  <!-- Krona to outputs -->
  <path class="connection-qc" d="M 1120 220 C 1120 240, 960 510, 1000 510"/>
  <path class="connection-qc" d="M 1120 440 C 1120 460, 1090 510, 1100 510"/>

  <!-- Infernal to BED regions output -->
  <path class="connection-qc" d="M 540 215 C 580 215, 150 510, 190 510"/>

  <!-- INPUT NODES -->

  <!-- Processed sequences -->
  <g class="node-card" transform="translate(20, 120)">
    <rect width="180" height="90" rx="4" fill="white" stroke="#ffd700" stroke-width="1.5"/>
    <rect width="180" height="28" rx="4" fill="#ffd700"/>
    <rect x="0" y="24" width="180" height="4" fill="#ffd700"/>
    <text x="10" y="19" font-family="system-ui, sans-serif" font-size="11" fill="rgba(44,49,67,0.6)">1:</text>
    <text x="26" y="19" font-family="system-ui, sans-serif" font-size="11" font-weight="600" fill="#2C3143">Processed Sequences</text>
    <text x="90" y="52" text-anchor="middle" font-family="system-ui, sans-serif" font-size="10" fill="#495057">FASTA collection</text>
    <text x="90" y="68" text-anchor="middle" font-family="system-ui, sans-serif" font-size="9" fill="#868e96">Pre-processed amplicon</text>
    <text x="90" y="80" text-anchor="middle" font-family="system-ui, sans-serif" font-size="9" fill="#868e96">sequence reads</text>
    <circle cx="180" cy="45" r="6" fill="white" stroke="#ffd700" stroke-width="2"/>
  </g>

  <!-- Clan information file -->
  <g class="node-card" transform="translate(20, 240)">
    <rect width="180" height="75" rx="4" fill="white" stroke="#ffd700" stroke-width="1.5"/>
    <rect width="180" height="28" rx="4" fill="#ffd700"/>
    <rect x="0" y="24" width="180" height="4" fill="#ffd700"/>
    <text x="10" y="19" font-family="system-ui, sans-serif" font-size="11" fill="rgba(44,49,67,0.6)">2:</text>
    <text x="26" y="19" font-family="system-ui, sans-serif" font-size="11" font-weight="600" fill="#2C3143">Clan Info File</text>
    <text x="90" y="52" text-anchor="middle" font-family="system-ui, sans-serif" font-size="10" fill="#495057">Rfam clan data</text>
    <text x="90" y="66" text-anchor="middle" font-family="system-ui, sans-serif" font-size="9" fill="#868e96">For overlap resolution</text>
    <circle cx="180" cy="35" r="6" fill="white" stroke="#ffd700" stroke-width="2"/>
  </g>

  <!-- PROCESSING NODES -->

  <!-- Infernal + Deoverlap -->
  <g class="node-card" transform="translate(340, 155)">
    <rect width="200" height="110" rx="4" fill="white" stroke="#25537b" stroke-width="1"/>
    <rect width="200" height="28" rx="4" fill="#25537b"/>
    <rect x="0" y="24" width="200" height="4" fill="#25537b"/>
    <text x="10" y="19" font-family="system-ui, sans-serif" font-size="11" fill="rgba(255,255,255,0.7)">3:</text>
    <text x="26" y="19" font-family="system-ui, sans-serif" font-size="11" font-weight="600" fill="white">Infernal cmsearch</text>
    <text x="100" y="50" text-anchor="middle" font-family="system-ui, sans-serif" font-size="10" fill="#495057">rRNA Prediction</text>
    <text x="100" y="66" text-anchor="middle" font-family="system-ui, sans-serif" font-size="9" fill="#868e96">Covariance model search</text>
    <text x="100" y="78" text-anchor="middle" font-family="system-ui, sans-serif" font-size="9" fill="#868e96">+ deoverlap resolution</text>
    <text x="100" y="98" text-anchor="middle" font-family="system-ui, sans-serif" font-size="8" fill="#10b981">SSU + LSU BED regions</text>
    <circle cx="0" cy="45" r="6" fill="white" stroke="#25537b" stroke-width="2"/>
    <circle cx="0" cy="75" r="6" fill="white" stroke="#25537b" stroke-width="2"/>
    <circle cx="200" cy="45" r="6" fill="white" stroke="#25537b" stroke-width="2"/>
    <circle cx="200" cy="75" r="6" fill="white" stroke="#25537b" stroke-width="2"/>
  </g>

  <!-- SSU Extraction -->
  <g class="node-card" transform="translate(600, 100)">
    <rect width="170" height="90" rx="4" fill="white" stroke="#25537b" stroke-width="1"/>
    <rect width="170" height="28" rx="4" fill="#25537b"/>
    <rect x="0" y="24" width="170" height="4" fill="#25537b"/>
    <text x="10" y="19" font-family="system-ui, sans-serif" font-size="11" fill="rgba(255,255,255,0.7)">4:</text>
    <text x="26" y="19" font-family="system-ui, sans-serif" font-size="11" font-weight="600" fill="white">SSU Extraction</text>
    <text x="85" y="50" text-anchor="middle" font-family="system-ui, sans-serif" font-size="10" fill="#495057">Sequence Retrieval</text>
    <text x="85" y="66" text-anchor="middle" font-family="system-ui, sans-serif" font-size="9" fill="#868e96">BEDtools + FASTA</text>
    <text x="85" y="78" text-anchor="middle" font-family="system-ui, sans-serif" font-size="9" fill="#868e96">formatting</text>
    <circle cx="0" cy="40" r="6" fill="white" stroke="#25537b" stroke-width="2"/>
    <circle cx="170" cy="40" r="6" fill="white" stroke="#25537b" stroke-width="2"/>
  </g>

  <!-- LSU Extraction -->
  <g class="node-card" transform="translate(600, 320)">
    <rect width="170" height="90" rx="4" fill="white" stroke="#25537b" stroke-width="1"/>
    <rect width="170" height="28" rx="4" fill="#25537b"/>
    <rect x="0" y="24" width="170" height="4" fill="#25537b"/>
    <text x="10" y="19" font-family="system-ui, sans-serif" font-size="11" fill="rgba(255,255,255,0.7)">5:</text>
    <text x="26" y="19" font-family="system-ui, sans-serif" font-size="11" font-weight="600" fill="white">LSU Extraction</text>
    <text x="85" y="50" text-anchor="middle" font-family="system-ui, sans-serif" font-size="10" fill="#495057">Sequence Retrieval</text>
    <text x="85" y="66" text-anchor="middle" font-family="system-ui, sans-serif" font-size="9" fill="#868e96">BEDtools + FASTA</text>
    <text x="85" y="78" text-anchor="middle" font-family="system-ui, sans-serif" font-size="9" fill="#868e96">formatting</text>
    <circle cx="0" cy="40" r="6" fill="white" stroke="#25537b" stroke-width="2"/>
    <circle cx="170" cy="40" r="6" fill="white" stroke="#25537b" stroke-width="2"/>
  </g>

  <!-- MAPseq SSU -->
  <g class="node-card" transform="translate(870, 95)">
    <rect width="200" height="110" rx="4" fill="white" stroke="#25537b" stroke-width="1"/>
    <rect width="200" height="28" rx="4" fill="#25537b"/>
    <rect x="0" y="24" width="200" height="4" fill="#25537b"/>
    <text x="10" y="19" font-family="system-ui, sans-serif" font-size="11" fill="rgba(255,255,255,0.7)">6:</text>
    <text x="26" y="19" font-family="system-ui, sans-serif" font-size="11" font-weight="600" fill="white">MAPseq SSU</text>
    <text x="100" y="50" text-anchor="middle" font-family="system-ui, sans-serif" font-size="10" fill="#495057">Taxonomy (SILVA)</text>
    <text x="100" y="66" text-anchor="middle" font-family="system-ui, sans-serif" font-size="9" fill="#868e96">SSU rRNA classification</text>
    <text x="100" y="78" text-anchor="middle" font-family="system-ui, sans-serif" font-size="9" fill="#868e96">against SILVA database</text>
    <text x="100" y="98" text-anchor="middle" font-family="system-ui, sans-serif" font-size="8" fill="#10b981">OTU tables + classifications</text>
    <circle cx="0" cy="45" r="6" fill="white" stroke="#25537b" stroke-width="2"/>
    <circle cx="200" cy="45" r="6" fill="white" stroke="#25537b" stroke-width="2"/>
  </g>

  <!-- MAPseq LSU -->
  <g class="node-card" transform="translate(870, 315)">
    <rect width="200" height="110" rx="4" fill="white" stroke="#25537b" stroke-width="1"/>
    <rect width="200" height="28" rx="4" fill="#25537b"/>
    <rect x="0" y="24" width="200" height="4" fill="#25537b"/>
    <text x="10" y="19" font-family="system-ui, sans-serif" font-size="11" fill="rgba(255,255,255,0.7)">7:</text>
    <text x="26" y="19" font-family="system-ui, sans-serif" font-size="11" font-weight="600" fill="white">MAPseq LSU</text>
    <text x="100" y="50" text-anchor="middle" font-family="system-ui, sans-serif" font-size="10" fill="#495057">Taxonomy (SILVA)</text>
    <text x="100" y="66" text-anchor="middle" font-family="system-ui, sans-serif" font-size="9" fill="#868e96">LSU rRNA classification</text>
    <text x="100" y="78" text-anchor="middle" font-family="system-ui, sans-serif" font-size="9" fill="#868e96">against SILVA database</text>
    <text x="100" y="98" text-anchor="middle" font-family="system-ui, sans-serif" font-size="8" fill="#10b981">OTU tables + classifications</text>
    <circle cx="0" cy="45" r="6" fill="white" stroke="#25537b" stroke-width="2"/>
    <circle cx="200" cy="45" r="6" fill="white" stroke="#25537b" stroke-width="2"/>
  </g>

  <!-- Krona SSU (Green report) -->
  <g class="node-card" transform="translate(1090, 160)">
    <rect width="95" height="75" rx="4" fill="white" stroke="#10b981" stroke-width="1.5"/>
    <rect width="95" height="28" rx="4" fill="#10b981"/>
    <rect x="0" y="24" width="95" height="4" fill="#10b981"/>
    <text x="10" y="19" font-family="system-ui, sans-serif" font-size="11" fill="rgba(255,255,255,0.7)">8:</text>
    <text x="26" y="19" font-family="system-ui, sans-serif" font-size="11" font-weight="600" fill="white">Krona</text>
    <text x="48" y="50" text-anchor="middle" font-family="system-ui, sans-serif" font-size="10" fill="#495057">SSU Viz</text>
    <text x="48" y="66" text-anchor="middle" font-family="system-ui, sans-serif" font-size="9" fill="#868e96">Pie charts</text>
    <circle cx="0" cy="30" r="5" fill="white" stroke="#10b981" stroke-width="2"/>
    <circle cx="30" cy="75" r="5" fill="white" stroke="#10b981" stroke-width="2"/>
  </g>

  <!-- Krona LSU (Green report) -->
  <g class="node-card" transform="translate(1090, 380)">
    <rect width="95" height="75" rx="4" fill="white" stroke="#10b981" stroke-width="1.5"/>
    <rect width="95" height="28" rx="4" fill="#10b981"/>
    <rect x="0" y="24" width="95" height="4" fill="#10b981"/>
    <text x="10" y="19" font-family="system-ui, sans-serif" font-size="11" fill="rgba(255,255,255,0.7)">9:</text>
    <text x="26" y="19" font-family="system-ui, sans-serif" font-size="11" font-weight="600" fill="white">Krona</text>
    <text x="48" y="50" text-anchor="middle" font-family="system-ui, sans-serif" font-size="10" fill="#495057">LSU Viz</text>
    <text x="48" y="66" text-anchor="middle" font-family="system-ui, sans-serif" font-size="9" fill="#868e96">Pie charts</text>
    <circle cx="0" cy="30" r="5" fill="white" stroke="#10b981" stroke-width="2"/>
    <circle cx="30" cy="75" r="5" fill="white" stroke="#10b981" stroke-width="2"/>
  </g>

  <!-- OUTPUT NODES -->

  <!-- BED Regions -->
  <g class="node-card" transform="translate(140, 490)">
    <rect width="130" height="50" rx="4" fill="white" stroke="#f97316" stroke-width="1.5"/>
    <rect width="130" height="20" rx="4" fill="#f97316"/>
    <rect x="0" y="16" width="130" height="4" fill="#f97316"/>
    <text x="65" y="14" text-anchor="middle" font-family="system-ui, sans-serif" font-size="9" font-weight="600" fill="white">BED Regions</text>
    <text x="65" y="38" text-anchor="middle" font-family="system-ui, sans-serif" font-size="8" fill="#868e96">SSU + LSU coordinates</text>
    <circle cx="50" cy="0" r="5" fill="white" stroke="#f97316" stroke-width="2"/>
  </g>

  <!-- SSU Classifications -->
  <g class="node-card" transform="translate(310, 490)">
    <rect width="130" height="50" rx="4" fill="white" stroke="#f97316" stroke-width="1.5"/>
    <rect width="130" height="20" rx="4" fill="#f97316"/>
    <rect x="0" y="16" width="130" height="4" fill="#f97316"/>
    <text x="65" y="14" text-anchor="middle" font-family="system-ui, sans-serif" font-size="9" font-weight="600" fill="white">SSU Taxonomy</text>
    <text x="65" y="38" text-anchor="middle" font-family="system-ui, sans-serif" font-size="8" fill="#868e96">SILVA classifications</text>
    <circle cx="50" cy="0" r="5" fill="white" stroke="#f97316" stroke-width="2"/>
  </g>

  <!-- SSU OTU Tables -->
  <g class="node-card" transform="translate(480, 490)">
    <rect width="120" height="50" rx="4" fill="white" stroke="#f97316" stroke-width="1.5"/>
    <rect width="120" height="20" rx="4" fill="#f97316"/>
    <rect x="0" y="16" width="120" height="4" fill="#f97316"/>
    <text x="60" y="14" text-anchor="middle" font-family="system-ui, sans-serif" font-size="9" font-weight="600" fill="white">SSU OTU Tables</text>
    <text x="60" y="38" text-anchor="middle" font-family="system-ui, sans-serif" font-size="8" fill="#868e96">HDF5 + JSON</text>
    <circle cx="50" cy="0" r="5" fill="white" stroke="#f97316" stroke-width="2"/>
  </g>

  <!-- LSU Classifications -->
  <g class="node-card" transform="translate(640, 490)">
    <rect width="130" height="50" rx="4" fill="white" stroke="#f97316" stroke-width="1.5"/>
    <rect width="130" height="20" rx="4" fill="#f97316"/>
    <rect x="0" y="16" width="130" height="4" fill="#f97316"/>
    <text x="65" y="14" text-anchor="middle" font-family="system-ui, sans-serif" font-size="9" font-weight="600" fill="white">LSU Taxonomy</text>
    <text x="65" y="38" text-anchor="middle" font-family="system-ui, sans-serif" font-size="8" fill="#868e96">SILVA classifications</text>
    <circle cx="50" cy="0" r="5" fill="white" stroke="#f97316" stroke-width="2"/>
  </g>

  <!-- LSU OTU Tables -->
  <g class="node-card" transform="translate(800, 490)">
    <rect width="120" height="50" rx="4" fill="white" stroke="#f97316" stroke-width="1.5"/>
    <rect width="120" height="20" rx="4" fill="#f97316"/>
    <rect x="0" y="16" width="120" height="4" fill="#f97316"/>
    <text x="60" y="14" text-anchor="middle" font-family="system-ui, sans-serif" font-size="9" font-weight="600" fill="white">LSU OTU Tables</text>
    <text x="60" y="38" text-anchor="middle" font-family="system-ui, sans-serif" font-size="8" fill="#868e96">HDF5 + JSON</text>
    <circle cx="50" cy="0" r="5" fill="white" stroke="#f97316" stroke-width="2"/>
  </g>

  <!-- SSU Krona Charts -->
  <g class="node-card" transform="translate(950, 490)">
    <rect width="130" height="50" rx="4" fill="white" stroke="#f97316" stroke-width="1.5"/>
    <rect width="130" height="20" rx="4" fill="#f97316"/>
    <rect x="0" y="16" width="130" height="4" fill="#f97316"/>
    <text x="65" y="14" text-anchor="middle" font-family="system-ui, sans-serif" font-size="9" font-weight="600" fill="white">Krona Charts</text>
    <text x="65" y="38" text-anchor="middle" font-family="system-ui, sans-serif" font-size="8" fill="#868e96">SSU + LSU HTML</text>
    <circle cx="50" cy="0" r="5" fill="white" stroke="#f97316" stroke-width="2"/>
  </g>

  <!-- SSU FASTA output -->
  <g class="node-card" transform="translate(1090, 490)">
    <rect width="100" height="50" rx="4" fill="white" stroke="#f97316" stroke-width="1.5"/>
    <rect width="100" height="20" rx="4" fill="#f97316"/>
    <rect x="0" y="16" width="100" height="4" fill="#f97316"/>
    <text x="50" y="14" text-anchor="middle" font-family="system-ui, sans-serif" font-size="9" font-weight="600" fill="white">rRNA FASTA</text>
    <text x="50" y="38" text-anchor="middle" font-family="system-ui, sans-serif" font-size="8" fill="#868e96">SSU + LSU</text>
    <circle cx="50" cy="0" r="5" fill="white" stroke="#f97316" stroke-width="2"/>
  </g>

  <!-- Legend -->
  <g transform="translate(20, 595)">
    <text x="0" y="0" font-family="system-ui, sans-serif" font-size="10" font-weight="600" fill="#495057">Legend:</text>
    <rect x="60" y="-10" width="14" height="14" rx="2" fill="white" stroke="#ffd700" stroke-width="1.5"/>
    <text x="80" y="0" font-family="system-ui, sans-serif" font-size="9" fill="#6c757d">Input</text>
    <rect x="120" y="-10" width="14" height="14" rx="2" fill="white" stroke="#25537b" stroke-width="1"/>
    <text x="140" y="0" font-family="system-ui, sans-serif" font-size="9" fill="#6c757d">Analysis</text>
    <line x1="200" y1="-4" x2="240" y2="-4" stroke="#25537b" stroke-width="4" stroke-linecap="round"/>
    <text x="248" y="0" font-family="system-ui, sans-serif" font-size="9" fill="#6c757d">Data flow</text>
    <line x1="310" y1="-4" x2="350" y2="-4" stroke="#25537b" stroke-width="3" stroke-linecap="round" stroke-dasharray="5 3"/>
    <text x="358" y="0" font-family="system-ui, sans-serif" font-size="9" fill="#6c757d">QC metrics</text>
    <rect x="430" y="-10" width="14" height="14" rx="2" fill="white" stroke="#f97316" stroke-width="1.5"/>
    <text x="450" y="0" font-family="system-ui, sans-serif" font-size="9" fill="#6c757d">Output</text>
    <rect x="500" y="-10" width="14" height="14" rx="2" fill="white" stroke="#10b981" stroke-width="1.5"/>
    <text x="520" y="0" font-family="system-ui, sans-serif" font-size="9" fill="#6c757d">Report</text>
  </g>

</svg>