<svg viewBox="0 0 1598 611" aria-label="Genome Annotation with Helixer" role="img" xmlns="http://www.w3.org/2000/svg">
  <title>Genome Annotation with Helixer</title>
  <defs>
    <pattern id="wd-grid" width="20" height="20" patternUnits="userSpaceOnUse">
      <path d="M 20 0 L 0 0 0 20" fill="none" stroke="#c5d5e4" stroke-width="0.5"/>
    </pattern>
    <pattern id="wd-grid-major" width="100" height="100" patternUnits="userSpaceOnUse">
      <rect width="100" height="100" fill="url(#wd-grid)"/>
      <path d="M 100 0 L 0 0 0 100" fill="none" stroke="#b0c4d8" stroke-width="1"/>
    </pattern>
    <filter id="wd-shadow" x="-5%" y="-5%" width="115%" height="115%">
      <feDropShadow dx="1" dy="2" stdDeviation="1.5" flood-opacity="0.15"/>
    </filter>
  </defs>
  <rect width="1598" height="611" fill="#f8f9fa"/>
  <rect width="1598" height="611" fill="url(#wd-grid-major)"/>
  <rect x="0" y="0" width="1598" height="45" fill="#25537b"/>
  <text x="20" y="28" font-family="system-ui, sans-serif" font-size="16" font-weight="600" fill="white">Genome Annotation with Helixer</text>
  <path d="M 231.0 237.0 C 271.4 237.0, 291.6 111.7, 332.0 111.7" stroke="white" fill="none" stroke-linecap="round" stroke-width="8"/>
  <path d="M 262.0 121.0 C 292.0 121.0, 302.0 130.3, 332.0 130.3" stroke="white" fill="none" stroke-linecap="round" stroke-width="7"/>
  <path d="M 538.0 100.0 C 890.0 100.0, 1066.0 117.5, 1418.0 117.5" stroke="white" fill="none" stroke-linecap="round" stroke-width="8"/>
  <path d="M 538.0 114.0 C 568.0 114.0, 578.0 111.7, 608.0 111.7" stroke="white" fill="none" stroke-linecap="round" stroke-width="8"/>
  <path d="M 231.0 251.0 C 381.8 251.0, 457.2 130.3, 608.0 130.3" stroke="white" fill="none" stroke-linecap="round" stroke-width="7"/>
  <path d="M 231.0 265.0 C 381.8 265.0, 457.2 399.7, 608.0 399.7" stroke="white" fill="none" stroke-linecap="round" stroke-width="7"/>
  <path d="M 247.0 399.7 C 391.4 399.7, 463.6 418.3, 608.0 418.3" stroke="white" fill="none" stroke-linecap="round" stroke-width="7"/>
  <path d="M 538.0 128.0 C 674.0 128.0, 742.0 111.7, 878.0 111.7" stroke="white" fill="none" stroke-linecap="round" stroke-width="8"/>
  <path d="M 231.0 279.0 C 489.8 279.0, 619.2 130.3, 878.0 130.3" stroke="white" fill="none" stroke-linecap="round" stroke-width="7"/>
  <path d="M 1078.0 107.0 C 1214.0 107.0, 1282.0 261.5, 1418.0 261.5" stroke="white" fill="none" stroke-linecap="round" stroke-width="8"/>
  <path d="M 1078.0 121.0 C 1108.0 121.0, 1118.0 111.7, 1148.0 111.7" stroke="white" fill="none" stroke-linecap="round" stroke-width="7"/>
  <path d="M 247.0 418.3 C 607.4 418.3, 787.6 130.3, 1148.0 130.3" stroke="white" fill="none" stroke-linecap="round" stroke-width="7"/>
  <path d="M 1078.0 135.0 C 1108.0 135.0, 1118.0 265.0, 1148.0 265.0" stroke="white" fill="none" stroke-linecap="round" stroke-width="7"/>
  <path d="M 538.0 142.0 C 568.0 142.0, 578.0 534.0, 608.0 534.0" stroke="white" fill="none" stroke-linecap="round" stroke-width="7"/>
  <path d="M 231.0 293.0 C 381.8 293.0, 457.2 548.0, 608.0 548.0" stroke="white" fill="none" stroke-linecap="round" stroke-width="7"/>
  <path d="M 231.0 237.0 C 271.4 237.0, 291.6 111.7, 332.0 111.7" stroke="#25537b" fill="none" stroke-linecap="round" stroke-width="4"/>
  <path d="M 262.0 121.0 C 292.0 121.0, 302.0 130.3, 332.0 130.3" stroke="#25537b" fill="none" stroke-linecap="round" stroke-width="3"/>
  <path d="M 538.0 100.0 C 890.0 100.0, 1066.0 117.5, 1418.0 117.5" stroke="#25537b" fill="none" stroke-linecap="round" stroke-width="4"/>
  <path d="M 538.0 114.0 C 568.0 114.0, 578.0 111.7, 608.0 111.7" stroke="#25537b" fill="none" stroke-linecap="round" stroke-width="4"/>
  <path d="M 231.0 251.0 C 381.8 251.0, 457.2 130.3, 608.0 130.3" stroke="#25537b" fill="none" stroke-linecap="round" stroke-width="3"/>
  <path d="M 231.0 265.0 C 381.8 265.0, 457.2 399.7, 608.0 399.7" stroke="#25537b" fill="none" stroke-linecap="round" stroke-width="3"/>
  <path d="M 247.0 399.7 C 391.4 399.7, 463.6 418.3, 608.0 418.3" stroke="#25537b" fill="none" stroke-linecap="round" stroke-width="3"/>
  <path d="M 538.0 128.0 C 674.0 128.0, 742.0 111.7, 878.0 111.7" stroke="#25537b" fill="none" stroke-linecap="round" stroke-width="4"/>
  <path d="M 231.0 279.0 C 489.8 279.0, 619.2 130.3, 878.0 130.3" stroke="#25537b" fill="none" stroke-linecap="round" stroke-width="3"/>
  <path d="M 1078.0 107.0 C 1214.0 107.0, 1282.0 261.5, 1418.0 261.5" stroke="#25537b" fill="none" stroke-linecap="round" stroke-width="4"/>
  <path d="M 1078.0 121.0 C 1108.0 121.0, 1118.0 111.7, 1148.0 111.7" stroke="#25537b" fill="none" stroke-linecap="round" stroke-width="3" stroke-dasharray="5 3"/>
  <path d="M 247.0 418.3 C 607.4 418.3, 787.6 130.3, 1148.0 130.3" stroke="#25537b" fill="none" stroke-linecap="round" stroke-width="3"/>
  <path d="M 1078.0 135.0 C 1108.0 135.0, 1118.0 265.0, 1148.0 265.0" stroke="#25537b" fill="none" stroke-linecap="round" stroke-width="3" stroke-dasharray="5 3"/>
  <path d="M 538.0 142.0 C 568.0 142.0, 578.0 534.0, 608.0 534.0" stroke="#25537b" fill="none" stroke-linecap="round" stroke-width="3"/>
  <path d="M 231.0 293.0 C 381.8 293.0, 457.2 548.0, 608.0 548.0" stroke="#25537b" fill="none" stroke-linecap="round" stroke-width="3"/>
  <g filter="url(#wd-shadow)" transform="translate(51.0, 209.0)">
    <rect width="180.0" height="84.0" rx="4" fill="white" stroke="#ffd700" stroke-width="1.5"/>
    <rect width="180.0" height="28" rx="4" fill="#ffd700"/>
    <rect x="0" y="24" width="180.0" height="4" fill="#ffd700"/>
    <text x="10" y="19" font-family="system-ui, sans-serif" font-size="11" font-weight="600" fill="#2C3143">Masked Genome</text>
    <text x="90.0" y="52" text-anchor="middle" font-family="system-ui, sans-serif" font-size="10" fill="#495057">Soft-masked FASTA</text>
    <circle cx="180.0" cy="28.0" r="6" fill="white" stroke="#ffd700" stroke-width="2"/>
    <circle cx="180.0" cy="42.0" r="6" fill="white" stroke="#ffd700" stroke-width="2"/>
    <circle cx="180.0" cy="56.0" r="6" fill="white" stroke="#ffd700" stroke-width="2"/>
    <circle cx="180.0" cy="70.0" r="6" fill="white" stroke="#ffd700" stroke-width="2"/>
    <circle cx="180.0" cy="84.0" r="6" fill="white" stroke="#ffd700" stroke-width="2"/>
  </g>
  <g filter="url(#wd-shadow)" transform="translate(20.0, 65.0)">
    <rect width="242.0" height="84.0" rx="4" fill="white" stroke="#ffd700" stroke-width="1.5"/>
    <rect width="242.0" height="28" rx="4" fill="#ffd700"/>
    <rect x="0" y="24" width="242.0" height="4" fill="#ffd700"/>
    <text x="10" y="19" font-family="system-ui, sans-serif" font-size="11" font-weight="600" fill="#2C3143">Helixer Lineage</text>
    <text x="121.0" y="52" text-anchor="middle" font-family="system-ui, sans-serif" font-size="10" fill="#495057">fungi/invertebrate/vertebrate/plant</text>
    <circle cx="242.0" cy="56.0" r="6" fill="white" stroke="#ffd700" stroke-width="2"/>
  </g>
  <g filter="url(#wd-shadow)" transform="translate(35.0, 353.0)">
    <rect width="212.0" height="84.0" rx="4" fill="white" stroke="#ffd700" stroke-width="1.5"/>
    <rect width="212.0" height="28" rx="4" fill="#ffd700"/>
    <rect x="0" y="24" width="212.0" height="4" fill="#ffd700"/>
    <text x="10" y="19" font-family="system-ui, sans-serif" font-size="11" font-weight="600" fill="#2C3143">BUSCO Lineage</text>
    <text x="106.0" y="52" text-anchor="middle" font-family="system-ui, sans-serif" font-size="10" fill="#495057">Lineage dataset for assessment</text>
    <circle cx="212.0" cy="46.7" r="6" fill="white" stroke="#ffd700" stroke-width="2"/>
    <circle cx="212.0" cy="65.3" r="6" fill="white" stroke="#ffd700" stroke-width="2"/>
  </g>
  <g filter="url(#wd-shadow)" transform="translate(332.0, 65.0)">
    <rect width="206.0" height="84.0" rx="4" fill="white" stroke="#25537b" stroke-width="1"/>
    <rect width="206.0" height="28" rx="4" fill="#25537b"/>
    <rect x="0" y="24" width="206.0" height="4" fill="#25537b"/>
    <text x="10" y="19" font-family="system-ui, sans-serif" font-size="11" font-weight="500" fill="rgba(255,255,255,0.85)">1:</text>
    <text x="26" y="19" font-family="system-ui, sans-serif" font-size="11" font-weight="600" fill="white">Helixer</text>
    <text x="103.0" y="52" text-anchor="middle" font-family="system-ui, sans-serif" font-size="10" fill="#495057">Deep learning gene prediction</text>
    <circle cx="0.0" cy="46.7" r="6" fill="white" stroke="#25537b" stroke-width="2"/>
    <circle cx="0.0" cy="65.3" r="6" fill="white" stroke="#25537b" stroke-width="2"/>
    <circle cx="206.0" cy="35.0" r="6" fill="white" stroke="#25537b" stroke-width="2"/>
    <circle cx="206.0" cy="49.0" r="6" fill="white" stroke="#25537b" stroke-width="2"/>
    <circle cx="206.0" cy="63.0" r="6" fill="white" stroke="#25537b" stroke-width="2"/>
    <circle cx="206.0" cy="77.0" r="6" fill="white" stroke="#25537b" stroke-width="2"/>
  </g>
  <g filter="url(#wd-shadow)" transform="translate(608.0, 353.0)">
    <rect width="200.0" height="84.0" rx="4" fill="white" stroke="#25537b" stroke-width="1"/>
    <rect width="200.0" height="28" rx="4" fill="#25537b"/>
    <rect x="0" y="24" width="200.0" height="4" fill="#25537b"/>
    <text x="10" y="19" font-family="system-ui, sans-serif" font-size="11" font-weight="500" fill="rgba(255,255,255,0.85)">2:</text>
    <text x="26" y="19" font-family="system-ui, sans-serif" font-size="11" font-weight="600" fill="white">BUSCO (Genome)</text>
    <text x="100.0" y="52" text-anchor="middle" font-family="system-ui, sans-serif" font-size="10" fill="#495057">Genome completeness check</text>
    <circle cx="0.0" cy="46.7" r="6" fill="white" stroke="#25537b" stroke-width="2"/>
    <circle cx="0.0" cy="65.3" r="6" fill="white" stroke="#25537b" stroke-width="2"/>
  </g>
  <g filter="url(#wd-shadow)" transform="translate(608.0, 65.0)">
    <rect width="200.0" height="84.0" rx="4" fill="white" stroke="#25537b" stroke-width="1"/>
    <rect width="200.0" height="28" rx="4" fill="#25537b"/>
    <rect x="0" y="24" width="200.0" height="4" fill="#25537b"/>
    <text x="10" y="19" font-family="system-ui, sans-serif" font-size="11" font-weight="500" fill="rgba(255,255,255,0.85)">3:</text>
    <text x="26" y="19" font-family="system-ui, sans-serif" font-size="11" font-weight="600" fill="white">Annotation Stats</text>
    <text x="100.0" y="52" text-anchor="middle" font-family="system-ui, sans-serif" font-size="10" fill="#495057">Gene structure statistics</text>
    <circle cx="0.0" cy="46.7" r="6" fill="white" stroke="#25537b" stroke-width="2"/>
    <circle cx="0.0" cy="65.3" r="6" fill="white" stroke="#25537b" stroke-width="2"/>
  </g>
  <g filter="url(#wd-shadow)" transform="translate(878.0, 65.0)">
    <rect width="200.0" height="84.0" rx="4" fill="white" stroke="#25537b" stroke-width="1"/>
    <rect width="200.0" height="28" rx="4" fill="#25537b"/>
    <rect x="0" y="24" width="200.0" height="4" fill="#25537b"/>
    <text x="10" y="19" font-family="system-ui, sans-serif" font-size="11" font-weight="500" fill="rgba(255,255,255,0.85)">4:</text>
    <text x="26" y="19" font-family="system-ui, sans-serif" font-size="11" font-weight="600" fill="white">gffread</text>
    <text x="100.0" y="52" text-anchor="middle" font-family="system-ui, sans-serif" font-size="10" fill="#495057">Extract protein sequences</text>
    <circle cx="0.0" cy="46.7" r="6" fill="white" stroke="#25537b" stroke-width="2"/>
    <circle cx="0.0" cy="65.3" r="6" fill="white" stroke="#25537b" stroke-width="2"/>
    <circle cx="200.0" cy="42.0" r="6" fill="white" stroke="#25537b" stroke-width="2"/>
    <circle cx="200.0" cy="56.0" r="6" fill="white" stroke="#25537b" stroke-width="2"/>
    <circle cx="200.0" cy="70.0" r="6" fill="white" stroke="#25537b" stroke-width="2"/>
  </g>
  <g filter="url(#wd-shadow)" transform="translate(1148.0, 65.0)">
    <rect width="200.0" height="84.0" rx="4" fill="white" stroke="#25537b" stroke-width="1"/>
    <rect width="200.0" height="28" rx="4" fill="#25537b"/>
    <rect x="0" y="24" width="200.0" height="4" fill="#25537b"/>
    <text x="10" y="19" font-family="system-ui, sans-serif" font-size="11" font-weight="500" fill="rgba(255,255,255,0.85)">5:</text>
    <text x="26" y="19" font-family="system-ui, sans-serif" font-size="11" font-weight="600" fill="white">BUSCO (Proteins)</text>
    <text x="100.0" y="52" text-anchor="middle" font-family="system-ui, sans-serif" font-size="10" fill="#495057">Proteome completeness check</text>
    <circle cx="0.0" cy="46.7" r="6" fill="white" stroke="#25537b" stroke-width="2"/>
    <circle cx="0.0" cy="65.3" r="6" fill="white" stroke="#25537b" stroke-width="2"/>
  </g>
  <g filter="url(#wd-shadow)" transform="translate(1148.0, 209.0)">
    <rect width="200.0" height="84.0" rx="4" fill="white" stroke="#25537b" stroke-width="1"/>
    <rect width="200.0" height="28" rx="4" fill="#25537b"/>
    <rect x="0" y="24" width="200.0" height="4" fill="#25537b"/>
    <text x="10" y="19" font-family="system-ui, sans-serif" font-size="11" font-weight="500" fill="rgba(255,255,255,0.85)">6:</text>
    <text x="26" y="19" font-family="system-ui, sans-serif" font-size="11" font-weight="600" fill="white">OMArk</text>
    <text x="100.0" y="52" text-anchor="middle" font-family="system-ui, sans-serif" font-size="10" fill="#495057">Proteome quality assessment</text>
    <circle cx="0.0" cy="56.0" r="6" fill="white" stroke="#25537b" stroke-width="2"/>
  </g>
  <g filter="url(#wd-shadow)" transform="translate(608.0, 497.0)">
    <rect width="200.0" height="64.0" rx="4" fill="white" stroke="#5bc0de" stroke-width="1.5" stroke-dasharray="4 2"/>
    <rect width="200.0" height="24" rx="4" fill="#5bc0de"/>
    <rect x="0" y="20" width="200.0" height="4" fill="#5bc0de"/>
    <text x="10" y="15" font-family="system-ui, sans-serif" font-size="11" font-weight="600" fill="white">JBrowse</text>
    <text x="100.0" y="48" text-anchor="middle" font-family="system-ui, sans-serif" font-size="10" fill="#495057">Genome browser visualization</text>
    <circle cx="0.0" cy="37.0" r="5" fill="white" stroke="#5bc0de" stroke-width="2"/>
    <circle cx="0.0" cy="51.0" r="5" fill="white" stroke="#5bc0de" stroke-width="2"/>
  </g>
  <g filter="url(#wd-shadow)" transform="translate(1418.0, 65.0)">
    <rect width="160.0" height="77.0" rx="4" fill="white" stroke="#10b981" stroke-width="1.5"/>
    <rect width="160.0" height="28" rx="4" fill="#10b981"/>
    <rect x="0" y="24" width="160.0" height="4" fill="#10b981"/>
    <text x="10" y="19" font-family="system-ui, sans-serif" font-size="11" font-weight="600" fill="white">Helixer GFF3</text>
    <text x="80.0" y="52" text-anchor="middle" font-family="system-ui, sans-serif" font-size="10" fill="#495057">Gene annotations</text>
    <circle cx="0.0" cy="52.5" r="5" fill="white" stroke="#10b981" stroke-width="2"/>
  </g>
  <g filter="url(#wd-shadow)" transform="translate(1418.0, 209.0)">
    <rect width="160.0" height="77.0" rx="4" fill="white" stroke="#10b981" stroke-width="1.5"/>
    <rect width="160.0" height="28" rx="4" fill="#10b981"/>
    <rect x="0" y="24" width="160.0" height="4" fill="#10b981"/>
    <text x="10" y="19" font-family="system-ui, sans-serif" font-size="11" font-weight="600" fill="white">Predicted Proteins</text>
    <text x="80.0" y="52" text-anchor="middle" font-family="system-ui, sans-serif" font-size="10" fill="#495057">Protein FASTA</text>
    <circle cx="0.0" cy="52.5" r="5" fill="white" stroke="#10b981" stroke-width="2"/>
  </g>
  <g transform="translate(20, 596)">
    <text x="0" y="0" font-family="system-ui, sans-serif" font-size="10" font-weight="600" fill="#495057">Legend:</text>
    <rect x="60" y="-10" width="14" height="14" rx="2" fill="white" stroke="#ffd700" stroke-width="1.5"/>
    <text x="80" y="0" font-family="system-ui, sans-serif" font-size="9" fill="#6c757d">Input</text>
    <line x1="123.0" y1="-4" x2="163.0" y2="-4" stroke="#25537b" stroke-width="4" stroke-linecap="round"/>
    <text x="171.0" y="0" font-family="system-ui, sans-serif" font-size="9" fill="#6c757d">Data flow</text>
    <line x1="235.6" y1="-4" x2="275.6" y2="-4" stroke="#25537b" stroke-width="3" stroke-linecap="round"/>
    <text x="283.6" y="0" font-family="system-ui, sans-serif" font-size="9" fill="#6c757d">Secondary</text>
    <line x1="348.2" y1="-4" x2="388.2" y2="-4" stroke="#25537b" stroke-width="3" stroke-linecap="round" stroke-dasharray="5 3"/>
    <text x="396.2" y="0" font-family="system-ui, sans-serif" font-size="9" fill="#6c757d">QC metrics</text>
    <rect x="466.2" y="-10" width="14" height="14" rx="2" fill="white" stroke="#10b981" stroke-width="1.5"/>
    <text x="486.2" y="0" font-family="system-ui, sans-serif" font-size="9" fill="#6c757d">Output</text>
    <rect x="534.6" y="-10" width="14" height="14" rx="2" fill="white" stroke="#5bc0de" stroke-width="1.5"/>
    <text x="554.6" y="0" font-family="system-ui, sans-serif" font-size="9" fill="#6c757d">Report</text>
  </g>
</svg>