<svg xmlns="http://www.w3.org/2000/svg" viewBox="0 0 1000 560" role="img" aria-label="baredSC 2D Log-Normalized workflow diagram">
  <title>Single-Cell Mixture Analysis: baredSC 2D Log-Normalized Models</title>
  <desc>Fits two-dimensional Gaussian mixture models (1 to N components) on log-normalized single-cell co-expression data for two genes using baredSC, then combines models for subpopulation identification.</desc>

  <defs>
    <pattern id="grid" width="20" height="20" patternUnits="userSpaceOnUse">
      <path d="M 20 0 L 0 0 0 20" fill="none" stroke="#c5d5e4" stroke-width="0.5"/>
    </pattern>
    <pattern id="grid-major" width="100" height="100" patternUnits="userSpaceOnUse">
      <rect width="100" height="100" fill="url(#grid)"/>
      <path d="M 100 0 L 0 0 0 100" fill="none" stroke="#b0c4d8" stroke-width="1"/>
    </pattern>
    <style>
      .connection { stroke: #25537b; stroke-width: 4; fill: none; stroke-linecap: round; }
      .connection-qc { stroke: #25537b; stroke-width: 3; fill: none; stroke-linecap: round; stroke-dasharray: 5 3; }
      .connection-secondary { stroke: #25537b; stroke-width: 3; fill: none; stroke-linecap: round; }
      .node-card { filter: drop-shadow(1px 2px 3px rgba(0,0,0,0.15)); }
    </style>
  </defs>

  <rect width="1000" height="560" fill="#f8f9fa"/>
  <rect width="1000" height="560" fill="url(#grid-major)"/>
  <rect x="0" y="0" width="1000" height="45" fill="#25537b"/>
  <text x="20" y="28" font-family="system-ui, sans-serif" font-size="16" font-weight="600" fill="white">baredSC 2D: Log-Normalized Gaussian Mixture Models</text>

  <!-- CONNECTIONS -->
  <!-- Expression data -> baredSC 2d -->
  <path class="connection" d="M 180 115 C 280 115, 350 140, 430 140"/>
  <!-- Expression data -> Combine 2d -->
  <path class="connection-secondary" d="M 180 115 C 300 115, 500 120, 680 120"/>
  <!-- Gene X -> baredSC 2d -->
  <path class="connection-secondary" d="M 180 205 C 280 205, 350 160, 430 160"/>
  <!-- Gene X -> Combine 2d -->
  <path class="connection-secondary" d="M 180 205 C 350 205, 500 140, 680 140"/>
  <!-- Gene Y -> baredSC 2d -->
  <path class="connection-secondary" d="M 180 295 C 300 295, 370 180, 430 180"/>
  <!-- Gene Y -> Combine 2d -->
  <path class="connection-secondary" d="M 180 295 C 400 295, 530 160, 680 160"/>
  <!-- Max X -> baredSC 2d -->
  <path class="connection-secondary" d="M 180 385 C 330 385, 380 200, 430 200"/>
  <!-- Max Y -> baredSC 2d -->
  <path class="connection-secondary" d="M 180 435 C 340 435, 390 210, 430 210"/>
  <!-- baredSC 2d -> Combine 2d -->
  <path class="connection" d="M 630 175 C 650 175, 660 165, 680 165"/>
  <!-- Combine 2d -> Plot -->
  <path class="connection" d="M 880 145 C 900 145, 900 140, 920 140"/>
  <!-- Combine 2d -> PDF 2D -->
  <path class="connection" d="M 880 165 C 900 165, 900 220, 920 220"/>
  <!-- baredSC 2d -> QC Plots -->
  <path class="connection-qc" d="M 630 195 C 660 195, 700 325, 920 325"/>

  <!-- INPUT NODES -->
  <!-- Expression data -->
  <g class="node-card" transform="translate(0,75)">
    <rect width="180" height="90" rx="4" fill="white" stroke="#e9ecef" stroke-width="1"/>
    <rect width="180" height="28" rx="4" fill="#ffd700"/>
    <rect x="0" y="14" width="180" height="14" fill="#ffd700"/>
    <text x="90" y="18" font-family="system-ui, sans-serif" font-size="10" font-weight="600" fill="#2C3143" text-anchor="middle">Expression Data</text>
    <text x="90" y="55" font-family="system-ui, sans-serif" font-size="9" fill="#868e96" text-anchor="middle">Tabular with raw</text>
    <text x="90" y="67" font-family="system-ui, sans-serif" font-size="9" fill="#868e96" text-anchor="middle">expression values</text>
    <circle cx="180" cy="45" r="6" fill="#ffd700" stroke="white" stroke-width="2"/>
  </g>

  <!-- Gene name X -->
  <g class="node-card" transform="translate(0,165)">
    <rect width="180" height="90" rx="4" fill="white" stroke="#e9ecef" stroke-width="1"/>
    <rect width="180" height="28" rx="4" fill="#ffd700"/>
    <rect x="0" y="14" width="180" height="14" fill="#ffd700"/>
    <text x="90" y="18" font-family="system-ui, sans-serif" font-size="10" font-weight="600" fill="#2C3143" text-anchor="middle">Gene Name (X axis)</text>
    <text x="90" y="55" font-family="system-ui, sans-serif" font-size="9" fill="#868e96" text-anchor="middle">First gene for</text>
    <text x="90" y="67" font-family="system-ui, sans-serif" font-size="9" fill="#868e96" text-anchor="middle">2D co-expression</text>
    <circle cx="180" cy="45" r="6" fill="#ffd700" stroke="white" stroke-width="2"/>
  </g>

  <!-- Gene name Y -->
  <g class="node-card" transform="translate(0,255)">
    <rect width="180" height="90" rx="4" fill="white" stroke="#e9ecef" stroke-width="1"/>
    <rect width="180" height="28" rx="4" fill="#ffd700"/>
    <rect x="0" y="14" width="180" height="14" fill="#ffd700"/>
    <text x="90" y="18" font-family="system-ui, sans-serif" font-size="10" font-weight="600" fill="#2C3143" text-anchor="middle">Gene Name (Y axis)</text>
    <text x="90" y="55" font-family="system-ui, sans-serif" font-size="9" fill="#868e96" text-anchor="middle">Second gene for</text>
    <text x="90" y="67" font-family="system-ui, sans-serif" font-size="9" fill="#868e96" text-anchor="middle">2D co-expression</text>
    <circle cx="180" cy="45" r="6" fill="#ffd700" stroke="white" stroke-width="2"/>
  </g>

  <!-- Max logNorm X -->
  <g class="node-card" transform="translate(0,355)">
    <rect width="180" height="60" rx="4" fill="white" stroke="#e9ecef" stroke-width="1"/>
    <rect width="180" height="28" rx="4" fill="#ffd700"/>
    <rect x="0" y="14" width="180" height="14" fill="#ffd700"/>
    <text x="90" y="18" font-family="system-ui, sans-serif" font-size="10" font-weight="600" fill="#2C3143" text-anchor="middle">Max logNorm (X)</text>
    <text x="90" y="48" font-family="system-ui, sans-serif" font-size="9" fill="#868e96" text-anchor="middle">X-axis range limit</text>
    <circle cx="180" cy="30" r="6" fill="#ffd700" stroke="white" stroke-width="2"/>
  </g>

  <!-- Max logNorm Y -->
  <g class="node-card" transform="translate(0,420)">
    <rect width="180" height="60" rx="4" fill="white" stroke="#e9ecef" stroke-width="1"/>
    <rect width="180" height="28" rx="4" fill="#ffd700"/>
    <rect x="0" y="14" width="180" height="14" fill="#ffd700"/>
    <text x="90" y="18" font-family="system-ui, sans-serif" font-size="10" font-weight="600" fill="#2C3143" text-anchor="middle">Max logNorm (Y)</text>
    <text x="90" y="48" font-family="system-ui, sans-serif" font-size="9" fill="#868e96" text-anchor="middle">Y-axis range limit</text>
    <circle cx="180" cy="30" r="6" fill="#ffd700" stroke="white" stroke-width="2"/>
  </g>

  <!-- PROCESSING NODES -->
  <!-- baredSC 2d -->
  <g class="node-card" transform="translate(430,110)">
    <rect width="200" height="90" rx="4" fill="white" stroke="#e9ecef" stroke-width="1"/>
    <rect width="200" height="28" rx="4" fill="#25537b"/>
    <rect x="0" y="14" width="200" height="14" fill="#25537b"/>
    <text x="100" y="18" font-family="system-ui, sans-serif" font-size="10" font-weight="600" fill="white" text-anchor="middle">baredSC 2d (1..N Gauss)</text>
    <text x="100" y="55" font-family="system-ui, sans-serif" font-size="9" fill="#868e96" text-anchor="middle">2D MCMC fitting for each</text>
    <text x="100" y="67" font-family="system-ui, sans-serif" font-size="9" fill="#868e96" text-anchor="middle">number of Gaussian components</text>
    <circle cx="0" cy="45" r="6" fill="#25537b" stroke="white" stroke-width="2"/>
    <circle cx="200" cy="45" r="6" fill="#25537b" stroke="white" stroke-width="2"/>
  </g>

  <!-- Combine 2d -->
  <g class="node-card" transform="translate(680,110)">
    <rect width="200" height="90" rx="4" fill="white" stroke="#e9ecef" stroke-width="1"/>
    <rect width="200" height="28" rx="4" fill="#25537b"/>
    <rect x="0" y="14" width="200" height="14" fill="#25537b"/>
    <text x="100" y="18" font-family="system-ui, sans-serif" font-size="10" font-weight="600" fill="white" text-anchor="middle">Combine 2D Models</text>
    <text x="100" y="55" font-family="system-ui, sans-serif" font-size="9" fill="#868e96" text-anchor="middle">Combine results across</text>
    <text x="100" y="67" font-family="system-ui, sans-serif" font-size="9" fill="#868e96" text-anchor="middle">all N model fits</text>
    <circle cx="0" cy="45" r="6" fill="#25537b" stroke="white" stroke-width="2"/>
    <circle cx="200" cy="45" r="6" fill="#25537b" stroke="white" stroke-width="2"/>
  </g>

  <!-- OUTPUT NODES -->
  <!-- Combined Plot -->
  <g class="node-card" transform="translate(920,120)">
    <rect width="60" height="50" rx="4" fill="white" stroke="#e9ecef" stroke-width="1"/>
    <rect width="60" height="22" rx="4" fill="#f97316"/>
    <rect x="0" y="11" width="60" height="11" fill="#f97316"/>
    <text x="30" y="15" font-family="system-ui, sans-serif" font-size="8" font-weight="600" fill="white" text-anchor="middle">Plot</text>
    <text x="30" y="40" font-family="system-ui, sans-serif" font-size="7" fill="#868e96" text-anchor="middle">2D Density</text>
    <circle cx="0" cy="25" r="6" fill="#f97316" stroke="white" stroke-width="2"/>
  </g>

  <!-- Combined PDF 2D -->
  <g class="node-card" transform="translate(920,200)">
    <rect width="60" height="50" rx="4" fill="white" stroke="#e9ecef" stroke-width="1"/>
    <rect width="60" height="22" rx="4" fill="#f97316"/>
    <rect x="0" y="11" width="60" height="11" fill="#f97316"/>
    <text x="30" y="15" font-family="system-ui, sans-serif" font-size="8" font-weight="600" fill="white" text-anchor="middle">PDF</text>
    <text x="30" y="40" font-family="system-ui, sans-serif" font-size="7" fill="#868e96" text-anchor="middle">2D PDF</text>
    <circle cx="0" cy="25" r="6" fill="#f97316" stroke="white" stroke-width="2"/>
  </g>

  <!-- QC Plots -->
  <g class="node-card" transform="translate(920,305)">
    <rect width="60" height="50" rx="4" fill="white" stroke="#e9ecef" stroke-width="1"/>
    <rect width="60" height="22" rx="4" fill="#10b981"/>
    <rect x="0" y="11" width="60" height="11" fill="#10b981"/>
    <text x="30" y="15" font-family="system-ui, sans-serif" font-size="8" font-weight="600" fill="white" text-anchor="middle">QC</text>
    <text x="30" y="40" font-family="system-ui, sans-serif" font-size="7" fill="#868e96" text-anchor="middle">MCMC QC</text>
    <circle cx="0" cy="25" r="6" fill="#10b981" stroke="white" stroke-width="2"/>
  </g>

  <!-- LEGEND -->
  <g transform="translate(20,520)">
    <rect x="0" y="0" width="8" height="8" rx="2" fill="#ffd700"/>
    <text x="14" y="8" font-family="system-ui, sans-serif" font-size="9" fill="#495057">Input</text>
    <line x1="65" y1="4" x2="105" y2="4" stroke="#25537b" stroke-width="3" stroke-linecap="round"/>
    <text x="112" y="8" font-family="system-ui, sans-serif" font-size="9" fill="#495057">Data flow</text>
    <line x1="180" y1="4" x2="220" y2="4" stroke="#25537b" stroke-width="2" stroke-linecap="round" stroke-dasharray="5 3"/>
    <text x="227" y="8" font-family="system-ui, sans-serif" font-size="9" fill="#495057">QC / plot</text>
    <rect x="290" y="0" width="8" height="8" rx="2" fill="#f97316"/>
    <text x="304" y="8" font-family="system-ui, sans-serif" font-size="9" fill="#495057">Output</text>
    <rect x="355" y="0" width="8" height="8" rx="2" fill="#10b981"/>
    <text x="369" y="8" font-family="system-ui, sans-serif" font-size="9" fill="#495057">Report / QC</text>
  </g>
</svg>