<?xml version="1.0" encoding="UTF-8" standalone="no"?>
<!DOCTYPE svg PUBLIC "-//W3C//DTD SVG 1.1//EN" "http://www.w3.org/Graphics/SVG/1.1/DTD/svg11.dtd">
<svg xmlns="http://www.w3.org/2000/svg" version="1.1" viewBox="0.00 0.00 2490.00 737.00">
<path fill="#3b4250" d="
  M 354.29 242.00
  L 65.55 242.00
  A 0.55 0.55 0.0 0 1 65.00 241.45
  L 65.00 160.65
  A 0.65 0.65 0.0 0 1 65.65 160.00
  L 354.41 160.00
  A 0.59 0.59 0.0 0 1 355.00 160.59
  L 355.00 198.03
  A 1.09 1.09 0.0 0 0 356.63 198.97
  L 363.62 194.94
  A 0.92 0.92 0.0 0 1 365.00 195.74
  L 365.00 199.07
  A 0.75 0.74 -88.8 0 0 365.71 199.82
  C 382.43 200.69 400.25 205.14 416.55 210.73
  Q 450.61 222.41 484.86 236.16
  Q 486.84 236.96 494.25 236.97
  Q 560.44 237.04 644.66 236.98
  A 1.48 1.47 11.4 0 0 646.02 236.08
  Q 648.12 231.14 651.79 226.48
  A 0.70 0.70 0.0 0 1 652.98 226.64
  Q 653.56 228.00 653.96 228.57
  Q 655.26 230.38 657.20 228.98
  C 692.15 203.82 718.64 184.91 748.37 166.88
  Q 760.26 159.68 774.00 152.78
  C 791.60 143.94 809.44 137.75 828.77 135.66
  C 836.89 134.78 844.36 135.03 853.75 134.99
  A 1.24 1.22 12.5 0 0 854.84 134.31
  L 868.33 107.30
  A 2.36 2.35 13.2 0 1 870.44 106.00
  L 1195.28 106.00
  A 0.77 0.77 0.0 0 1 1195.97 107.12
  L 1167.80 163.53
  A 2.66 2.65 13.1 0 1 1165.42 165.00
  L 840.35 165.00
  A 0.52 0.51 13.1 0 1 839.88 164.26
  L 852.94 138.11
  A 0.68 0.67 -75.5 0 0 852.37 137.13
  Q 818.38 135.66 787.55 148.76
  Q 776.70 153.37 767.06 158.56
  C 751.24 167.08 734.41 178.11 720.97 186.73
  Q 708.76 194.55 657.37 231.39
  A 0.92 0.92 0.0 0 0 657.11 232.60
  L 659.20 236.22
  A 1.56 1.56 0.0 0 0 660.55 237.00
  L 753.04 237.00
  A 0.97 0.96 -90.0 0 1 754.00 237.97
  L 754.00 266.46
  A 0.42 0.42 0.0 0 0 754.63 266.82
  L 762.60 262.22
  A 0.95 0.94 -21.9 0 1 763.99 262.81
  C 764.45 264.68 764.14 267.10 767.26 267.02
  C 779.56 266.69 792.03 265.99 806.26 265.99
  Q 863.42 266.01 868.91 266.04
  C 873.42 266.06 877.24 267.17 881.47 267.00
  A 1.77 1.74 11.9 0 0 882.98 266.03
  L 897.08 237.81
  A 1.45 1.45 0.0 0 1 898.38 237.00
  L 1167.57 237.00
  A 0.89 0.89 0.0 0 1 1168.36 238.29
  L 1139.57 295.93
  A 1.88 1.88 0.0 0 1 1137.89 296.97
  L 868.33 296.97
  A 0.50 0.49 -76.6 0 1 867.89 296.25
  L 880.84 270.31
  A 1.09 0.94 -34.3 0 0 880.95 269.90
  Q 880.96 269.63 880.94 269.54
  A 0.61 0.60 -3.8 0 0 880.34 269.02
  Q 857.56 268.89 852.26 268.95
  Q 848.32 268.99 845.30 268.58
  Q 841.17 268.03 838.36 268.02
  Q 827.06 267.97 805.25 268.00
  C 800.70 268.01 795.73 268.54 791.94 268.69
  Q 777.52 269.27 765.64 268.93
  A 0.68 0.68 0.0 0 0 764.94 269.61
  L 764.94 274.56
  A 0.78 0.78 0.0 0 1 763.81 275.26
  L 755.33 271.03
  A 0.92 0.92 0.0 0 0 754.00 271.85
  L 754.00 318.10
  A 0.91 0.90 -0.0 0 1 753.09 319.00
  L 657.26 319.00
  A 0.75 0.75 0.0 0 0 656.51 319.84
  Q 656.53 320.00 656.55 320.15
  A 0.66 0.64 -34.3 0 1 656.47 320.53
  L 654.42 324.08
  A 0.39 0.38 -56.8 0 0 654.52 324.57
  Q 676.31 341.19 706.00 363.01
  Q 740.71 388.51 769.27 406.49
  Q 782.02 414.52 796.21 420.54
  C 805.21 424.36 814.54 426.82 824.14 425.85
  A 0.94 0.93 -3.1 0 0 824.98 424.92
  L 824.98 368.89
  A 0.89 0.89 0.0 0 1 825.87 368.00
  L 1208.03 368.00
  A 3.55 3.54 22.3 0 0 1210.55 366.95
  C 1213.56 363.90 1215.30 361.50 1218.29 360.36
  A 0.44 0.43 -21.6 0 1 1218.86 360.60
  L 1220.47 364.51
  A 0.50 0.49 70.5 0 0 1221.07 364.80
  Q 1232.81 361.46 1244.43 359.88
  Q 1253.23 358.69 1269.53 358.16
  Q 1279.26 357.84 1295.43 358.10
  A 1.65 1.65 0.0 0 0 1296.92 357.19
  L 1310.34 330.31
  A 2.39 2.38 13.3 0 1 1312.47 329.00
  L 1396.52 329.00
  A 1.71 1.70 -78.5 0 0 1398.09 327.95
  Q 1400.10 323.16 1403.80 318.48
  A 0.67 0.67 0.0 0 1 1404.95 318.63
  Q 1405.74 320.51 1406.59 321.22
  A 1.73 1.72 46.8 0 0 1408.70 321.29
  C 1441.79 297.56 1474.74 273.42 1510.66 252.93
  Q 1523.88 245.38 1537.95 239.22
  C 1555.28 231.64 1573.66 227.25 1592.35 227.00
  Q 1597.94 226.92 1605.57 227.03
  A 1.47 1.45 -76.3 0 0 1606.89 226.22
  L 1620.35 199.26
  A 2.28 2.28 0.0 0 1 1622.39 198.00
  L 1947.25 198.00
  A 0.80 0.79 -76.8 0 1 1947.96 199.15
  L 1919.66 255.80
  A 2.17 2.15 -76.6 0 1 1917.73 257.00
  L 1592.26 257.00
  A 0.47 0.46 13.1 0 1 1591.84 256.33
  L 1604.94 230.10
  A 0.66 0.66 0.0 0 0 1604.38 229.14
  Q 1570.35 227.65 1539.54 240.77
  Q 1527.72 245.81 1518.57 250.84
  Q 1496.63 262.90 1469.10 281.35
  Q 1450.09 294.08 1409.32 323.46
  A 0.82 0.81 -33.3 0 0 1409.09 324.54
  L 1410.96 327.78
  A 2.44 2.43 -14.9 0 0 1413.07 329.00
  L 1572.57 329.00
  A 0.29 0.28 -76.4 0 1 1572.82 329.42
  L 1543.66 387.82
  A 2.14 2.13 13.3 0 1 1541.75 389.00
  L 1282.84 389.00
  A 1.13 1.13 0.0 0 1 1281.83 387.37
  L 1294.71 361.58
  A 0.35 0.34 -74.4 0 0 1294.43 361.08
  C 1291.53 360.86 1289.02 361.02 1285.51 360.54
  Q 1282.09 360.08 1276.75 360.19
  Q 1270.73 360.31 1253.01 361.38
  Q 1237.21 362.34 1221.63 366.94
  A 1.04 1.03 -23.5 0 0 1221.03 368.45
  L 1221.92 370.00
  A 1.63 1.63 0.0 0 1 1220.22 372.42
  L 1212.39 371.01
  A 1.18 1.18 0.0 0 0 1211.00 372.17
  L 1211.00 424.01
  A 0.91 0.91 0.0 0 0 1212.31 424.83
  L 1220.44 420.84
  A 1.02 1.01 66.5 0 1 1221.83 421.39
  Q 1222.21 422.37 1221.86 424.87
  A 0.94 0.93 -86.3 0 0 1222.80 425.95
  C 1234.82 425.80 1249.06 427.65 1262.34 430.32
  Q 1280.42 433.96 1299.99 439.00
  Q 1308.01 441.06 1318.25 441.04
  Q 1378.84 440.92 1646.75 441.03
  Q 1652.01 441.03 1653.12 441.10
  A 0.93 0.93 0.0 0 1 1653.99 442.03
  L 1653.99 450.27
  A 0.48 0.48 0.0 0 0 1654.75 450.66
  L 1662.35 445.05
  A 1.08 1.08 0.0 0 1 1664.06 446.04
  Q 1663.70 449.35 1664.32 449.78
  A 1.38 1.37 -26.0 0 0 1665.03 450.02
  C 1667.22 450.15 1669.28 449.27 1671.34 449.09
  Q 1694.75 447.03 1703.51 447.02
  Q 1758.64 446.98 1775.00 447.06
  Q 1777.00 447.07 1777.88 445.38
  Q 1778.00 445.15 1791.05 418.80
  Q 1791.95 416.98 1794.00 416.98
  Q 1853.34 417.03 2066.50 417.00
  Q 2069.89 417.00 2073.70 417.12
  A 0.53 0.53 0.0 0 1 2074.16 417.89
  L 2045.94 474.04
  A 0.55 0.49 56.9 0 0 2045.89 474.37
  Q 2046.04 475.40 2046.97 474.47
  Q 2068.55 452.82 2074.60 447.10
  Q 2076.96 444.86 2079.37 442.62
  Q 2098.10 425.20 2115.56 410.56
  C 2126.94 401.02 2139.39 392.08 2151.51 385.06
  Q 2163.00 378.40 2175.63 374.65
  C 2180.69 373.15 2186.32 371.92 2191.90 371.96
  Q 2196.49 372.00 2206.98 372.01
  A 1.02 1.02 0.0 0 0 2208.00 370.99
  L 2208.00 304.97
  A 0.97 0.97 0.0 0 1 2208.97 304.00
  L 2432.54 304.00
  A 0.46 0.46 0.0 0 1 2433.00 304.46
  L 2433.00 310.43
  A 0.58 0.57 0.0 0 0 2433.58 311.00
  L 2440.38 311.00
  A 0.63 0.63 0.0 0 1 2441.01 311.63
  L 2441.01 318.35
  A 0.65 0.65 0.0 0 0 2441.66 319.00
  L 2447.33 319.00
  A 0.67 0.67 0.0 0 1 2448.00 319.67
  Q 2448.00 344.10 2448.00 418.24
  Q 2448.00 420.36 2446.11 421.17
  Q 2437.98 424.65 2430.36 427.91
  Q 2412.81 435.42 2395.24 438.72
  Q 2386.32 440.40 2372.75 440.08
  C 2356.72 439.71 2340.34 434.95 2325.69 428.55
  Q 2309.40 421.42 2287.21 411.82
  Q 2268.91 403.90 2250.49 401.55
  Q 2244.36 400.76 2224.85 401.02
  A 1.35 1.31 -67.1 0 0 2223.95 401.40
  L 2223.54 401.81
  A 0.32 0.32 0.0 0 1 2223.00 401.58
  L 2223.00 394.79
  A 0.80 0.80 0.0 0 0 2222.20 393.99
  L 2215.63 393.99
  A 0.63 0.63 0.0 0 1 2215.00 393.36
  L 2215.00 387.71
  A 0.71 0.71 0.0 0 0 2214.29 387.00
  L 2208.64 387.00
  A 0.65 0.64 -90.0 0 1 2208.00 386.35
  L 2208.00 375.07
  A 1.11 1.11 0.0 0 0 2206.89 373.96
  C 2201.07 373.97 2192.42 373.65 2186.06 374.57
  Q 2171.55 376.68 2157.95 383.97
  Q 2139.64 393.79 2123.56 406.81
  Q 2104.55 422.19 2089.39 436.39
  Q 2082.37 442.97 2080.32 444.83
  Q 2073.67 450.85 2071.25 453.26
  Q 2054.97 469.52 2009.11 515.36
  Q 2003.38 521.09 1999.40 525.57
  C 1993.75 531.94 1989.00 536.48 1984.46 541.09
  A 1.36 1.35 45.2 0 0 1984.46 543.00
  L 1986.74 545.27
  A 0.59 0.58 -37.2 0 1 1986.61 546.19
  Q 1983.96 547.67 1981.45 548.04
  A 0.32 0.32 0.0 0 0 1981.45 548.67
  Q 1983.38 548.97 1983.76 548.97
  Q 1991.89 549.00 2109.00 549.00
  Q 2109.84 549.00 2111.50 549.39
  A 0.94 0.92 -59.6 0 0 2112.36 549.16
  C 2113.90 547.65 2116.30 544.73 2119.35 543.24
  A 0.53 0.52 68.7 0 1 2120.08 543.57
  L 2121.25 547.67
  A 0.42 0.41 1.5 0 0 2121.52 547.95
  Q 2122.15 548.17 2122.75 547.64
  Q 2123.02 547.40 2123.66 547.24
  Q 2141.03 542.93 2152.36 542.16
  Q 2157.39 541.82 2166.29 541.31
  C 2176.52 540.73 2187.24 541.22 2196.69 540.97
  A 1.42 1.42 0.0 0 0 2197.91 540.19
  L 2211.39 513.20
  A 2.17 2.17 0.0 0 1 2213.33 512.00
  L 2473.51 512.00
  A 0.33 0.33 0.0 0 1 2473.80 512.48
  L 2444.79 570.58
  A 2.57 2.57 0.0 0 1 2442.49 572.00
  L 2183.25 572.00
  A 0.77 0.77 0.0 0 1 2182.56 570.89
  L 2195.61 544.77
  A 0.51 0.51 0.0 0 0 2195.16 544.03
  C 2189.57 543.99 2184.50 543.03 2179.26 543.21
  Q 2156.50 544.02 2150.55 544.59
  Q 2136.84 545.92 2122.67 549.85
  A 1.09 1.09 0.0 0 0 2122.02 551.45
  L 2122.98 553.12
  A 1.58 1.58 0.0 0 1 2121.33 555.46
  L 2112.60 553.89
  A 1.36 1.35 5.2 0 0 2111.00 555.22
  L 2111.00 659.36
  A 1.60 1.59 -3.5 0 0 2112.79 660.94
  L 2121.86 659.82
  A 1.14 1.14 0.0 0 1 2123.12 661.16
  L 2122.54 664.41
  A 0.79 0.79 0.0 0 0 2123.11 665.31
  C 2137.75 669.31 2152.94 671.25 2169.72 672.02
  Q 2188.29 672.87 2198.12 673.09
  A 2.20 2.19 -76.1 0 0 2200.13 671.87
  Q 2206.59 658.72 2213.05 645.81
  Q 2214.46 643.00 2217.25 643.00
  Q 2404.10 642.99 2470.41 643.02
  A 0.70 0.70 0.0 0 1 2471.04 644.03
  L 2442.16 701.84
  A 2.10 2.09 -76.6 0 1 2440.29 703.00
  L 2185.91 703.00
  A 0.88 0.88 0.0 0 1 2185.12 701.72
  Q 2189.91 692.19 2197.88 676.31
  Q 2198.23 675.62 2197.54 675.16
  Q 2197.34 675.04 2196.98 675.04
  Q 2180.11 675.05 2160.78 673.81
  Q 2140.70 672.53 2122.00 667.18
  A 0.83 0.82 4.8 0 0 2120.95 668.06
  Q 2121.30 671.13 2119.32 672.07
  A 0.82 0.81 54.6 0 1 2118.39 671.91
  L 2112.36 665.89
  A 0.97 0.95 -25.2 0 0 2111.55 665.61
  Q 2108.63 666.00 2107.25 666.00
  Q 1931.67 666.00 1725.64 666.00
  A 0.63 0.63 0.0 0 1 1725.01 665.37
  L 1725.01 621.89
  A 1.03 1.03 0.0 0 0 1723.92 620.86
  C 1719.70 621.09 1714.52 621.98 1709.05 621.94
  C 1697.62 621.84 1687.22 622.95 1674.75 622.95
  Q 639.63 623.15 443.26 622.91
  C 432.30 622.89 422.64 622.10 410.93 622.02
  Q 400.34 621.94 389.60 621.57
  Q 351.44 620.25 316.06 617.30
  Q 311.69 616.94 308.18 616.86
  A 0.98 0.97 -84.1 0 0 307.20 617.66
  L 306.60 620.99
  A 0.89 0.89 0.0 0 1 305.28 621.60
  L 297.89 617.34
  A 0.59 0.59 0.0 0 0 297.00 617.85
  L 297.00 646.77
  A 2.23 2.23 0.0 0 1 294.77 649.00
  L 123.49 649.00
  A 0.49 0.49 0.0 0 1 123.00 648.51
  L 123.00 566.74
  A 0.74 0.74 0.0 0 1 123.74 566.00
  L 280.32 566.00
  A 2.48 2.47 18.1 0 0 282.31 565.00
  L 288.03 557.25
  A 1.17 1.17 0.0 0 1 289.98 557.36
  L 291.86 560.61
  A 0.42 0.42 0.0 0 0 292.47 560.74
  C 293.57 559.97 294.17 559.40 295.44 558.74
  Q 342.79 534.26 383.18 499.67
  C 390.49 493.40 401.16 484.34 409.51 475.99
  Q 432.93 452.56 445.64 439.82
  Q 448.29 437.16 454.19 430.54
  C 457.63 426.68 461.44 423.09 465.76 418.32
  Q 501.65 378.72 534.47 340.72
  Q 545.57 327.86 546.23 327.24
  C 548.62 324.96 550.03 322.04 552.73 319.81
  A 0.45 0.45 0.0 0 0 552.44 319.01
  Q 519.86 318.94 500.00 319.03
  Q 494.07 319.05 490.98 319.44
  Q 489.86 319.58 485.74 321.26
  Q 464.31 329.98 437.88 340.14
  Q 417.45 347.99 400.84 353.09
  Q 388.51 356.89 376.38 358.64
  Q 371.79 359.30 366.82 358.95
  A 0.79 0.79 0.0 0 0 365.97 359.74
  L 365.97 362.92
  A 1.27 1.26 13.2 0 1 364.14 364.05
  L 356.69 360.33
  A 0.48 0.48 0.0 0 0 355.99 360.76
  L 355.99 398.25
  A 0.75 0.75 0.0 0 1 355.24 399.00
  L 64.53 399.00
  A 0.53 0.53 0.0 0 1 64.00 398.47
  L 64.00 317.99
  A 0.99 0.99 0.0 0 1 64.99 317.00
  L 355.22 317.00
  A 0.77 0.77 0.0 0 1 355.99 317.77
  L 355.99 355.58
  A 0.75 0.75 0.0 0 0 357.11 356.23
  L 364.75 351.82
  A 0.85 0.85 0.0 0 1 366.02 352.56
  L 366.02 355.90
  A 1.22 1.21 -88.5 0 0 367.17 357.12
  Q 368.85 357.21 370.50 357.03
  Q 386.60 355.29 400.32 351.05
  C 408.42 348.54 421.15 344.23 432.17 340.06
  Q 459.34 329.79 483.44 319.88
  A 0.44 0.43 -56.0 0 0 483.28 319.04
  L 428.10 319.04
  A 1.10 1.10 0.0 0 1 427.00 317.94
  L 427.00 237.70
  A 0.72 0.71 90.0 0 1 427.71 236.98
  L 479.62 236.98
  A 0.25 0.25 0.0 0 0 479.71 236.49
  Q 476.41 235.25 454.43 226.85
  Q 426.08 216.02 400.76 208.29
  Q 387.65 204.28 373.17 202.88
  C 370.46 202.61 368.00 201.92 365.72 201.94
  A 0.72 0.71 -0.4 0 0 365.01 202.65
  L 365.01 205.83
  A 1.34 1.33 13.3 0 1 363.08 207.02
  L 355.82 203.39
  A 0.57 0.57 0.0 0 0 355.00 203.90
  L 355.00 241.29
  A 0.71 0.71 0.0 0 1 354.29 242.00
  Z
  M 1349.68 523.05
  L 1284.09 523.05
  A 1.10 1.09 90.0 0 1 1283.00 521.95
  L 1283.00 441.98
  A 0.97 0.96 0.0 0 1 1283.97 441.02
  L 1296.48 441.02
  A 0.33 0.33 0.0 0 0 1296.55 440.36
  Q 1288.34 438.62 1276.18 435.60
  Q 1254.70 430.27 1229.01 428.19
  Q 1224.61 427.84 1222.63 428.01
  A 0.69 0.68 -2.3 0 0 1221.99 428.69
  L 1221.99 431.78
  A 1.35 1.35 0.0 0 1 1220.03 432.99
  L 1212.29 429.13
  A 0.89 0.89 0.0 0 0 1211.00 429.92
  L 1211.00 485.46
  A 0.54 0.54 0.0 0 1 1210.46 486.00
  L 825.82 486.00
  A 0.78 0.78 0.0 0 1 825.04 485.22
  L 825.04 428.97
  A 1.00 1.00 0.0 0 0 824.00 427.97
  Q 817.47 428.28 812.81 427.75
  Q 807.20 427.11 799.31 424.17
  C 785.67 419.08 776.68 413.66 761.48 404.25
  Q 749.18 396.63 720.98 376.49
  Q 690.54 354.75 653.58 326.56
  A 0.96 0.96 0.0 0 0 652.23 326.75
  L 650.37 329.27
  A 1.13 1.13 0.0 0 1 648.48 329.16
  L 643.30 320.20
  A 2.39 2.38 75.0 0 0 641.23 319.00
  Q 565.12 318.99 561.99 319.00
  C 558.22 319.02 556.51 318.49 553.86 321.61
  Q 536.46 342.10 490.26 394.52
  Q 485.46 399.97 477.64 408.38
  Q 471.64 414.84 464.93 422.19
  Q 460.55 426.99 451.70 436.46
  C 438.46 450.62 430.38 458.10 409.93 478.56
  C 402.00 486.50 390.84 495.92 384.97 500.96
  Q 358.35 523.85 327.65 542.92
  C 316.61 549.78 305.48 555.63 293.46 562.35
  A 0.74 0.73 -24.1 0 0 293.12 563.23
  Q 293.76 565.12 295.41 566.14
  Q 297.10 567.20 297.09 568.99
  Q 296.99 580.37 297.02 582.10
  A 0.36 0.36 0.0 0 0 297.59 582.39
  L 304.77 577.10
  A 0.82 0.82 0.0 0 1 306.06 577.91
  Q 305.68 579.86 306.46 581.26
  A 0.73 0.73 0.0 0 0 307.27 581.61
  Q 325.62 577.20 335.04 575.10
  C 368.60 567.65 404.04 564.15 439.29 562.64
  Q 452.76 562.06 455.72 562.03
  Q 466.63 561.93 472.17 561.63
  Q 483.50 561.00 496.84 561.00
  Q 750.65 561.00 1068.75 561.00
  C 1073.63 561.00 1079.55 560.06 1084.58 560.04
  Q 1102.59 559.98 1127.66 560.02
  C 1136.37 560.04 1147.02 559.15 1155.99 558.91
  Q 1184.60 558.13 1217.49 554.94
  C 1258.67 550.95 1300.67 541.80 1339.60 527.01
  C 1342.91 525.75 1347.01 524.77 1349.80 523.68
  A 0.33 0.33 0.0 0 0 1349.68 523.05
  Z
  M 2043.29 477.00
  L 1762.52 477.00
  A 0.31 0.30 13.0 0 1 1762.24 476.56
  L 1775.59 449.83
  A 0.60 0.59 -76.8 0 0 1775.06 448.96
  Q 1726.56 449.05 1712.84 448.96
  Q 1704.78 448.90 1696.17 449.47
  C 1682.06 450.39 1677.54 450.70 1665.63 451.99
  A 0.75 0.74 86.5 0 0 1664.98 452.73
  L 1664.98 456.97
  A 0.72 0.72 0.0 0 1 1664.06 457.66
  L 1655.36 455.12
  A 1.07 1.06 8.2 0 0 1653.99 456.14
  L 1653.99 521.96
  A 0.95 0.94 89.7 0 1 1653.06 522.91
  Q 1617.66 523.40 1594.75 522.86
  Q 1592.61 522.81 1590.50 523.57
  A 0.61 0.60 37.8 0 0 1590.65 524.74
  Q 1590.72 524.75 1593.91 525.93
  Q 1607.07 530.83 1658.56 548.93
  Q 1679.19 556.19 1699.04 561.70
  Q 1712.91 565.55 1724.42 567.49
  A 0.49 0.49 0.0 0 0 1724.99 567.01
  L 1724.99 549.94
  A 0.94 0.94 0.0 0 1 1725.93 549.00
  L 1972.71 549.00
  A 1.27 1.27 0.0 0 0 1973.93 548.09
  L 1976.69 538.61
  A 1.67 1.67 0.0 0 1 1979.47 537.90
  L 1981.15 539.58
  A 1.24 1.24 0.0 0 0 1982.90 539.58
  Q 1988.91 533.68 1993.01 529.08
  C 2004.04 516.69 2017.47 503.99 2043.64 477.84
  A 0.49 0.49 0.0 0 0 2043.29 477.00
  Z
  M 297.53 612.63
  L 306.79 608.83
  A 0.85 0.85 0.0 0 1 307.97 609.62
  L 307.97 612.23
  A 2.48 2.47 1.9 0 0 310.29 614.70
  Q 323.42 615.54 337.22 616.54
  C 359.74 618.17 370.75 618.46 396.20 619.58
  C 410.70 620.23 424.77 619.97 439.40 620.16
  A 3.07 2.98 57.8 0 1 440.77 620.49
  L 441.57 620.89
  A 1.07 1.03 -30.8 0 0 442.04 621.00
  Q 528.19 621.00 1659.11 621.00
  Q 1670.75 621.00 1680.36 620.43
  Q 1691.79 619.75 1701.65 620.02
  C 1709.20 620.23 1716.98 618.89 1723.96 618.99
  A 1.01 1.01 0.0 0 0 1724.99 617.98
  L 1724.99 570.79
  A 1.16 1.15 -85.3 0 0 1724.03 569.65
  Q 1711.42 567.50 1697.21 563.49
  Q 1675.52 557.37 1650.43 548.58
  Q 1630.98 541.75 1594.49 528.61
  C 1592.90 528.04 1591.82 527.20 1590.32 526.84
  A 0.81 0.81 0.0 0 0 1589.40 527.26
  L 1587.66 530.74
  A 0.74 0.74 0.0 0 1 1586.47 530.94
  L 1579.92 524.38
  A 4.64 4.63 67.5 0 0 1576.64 523.02
  Q 1540.38 523.00 1369.76 522.99
  C 1364.49 522.99 1357.38 522.69 1351.82 524.80
  Q 1313.87 539.26 1286.66 545.62
  Q 1254.01 553.24 1222.96 556.60
  Q 1198.79 559.21 1182.75 559.89
  Q 1172.38 560.33 1171.08 560.48
  C 1162.98 561.45 1155.68 560.86 1146.31 561.49
  C 1134.06 562.31 1116.88 562.04 1109.25 562.01
  C 1105.13 561.99 1101.35 562.73 1097.57 562.79
  Q 1085.11 562.99 1068.50 562.99
  Q 1007.38 563.00 489.68 563.00
  C 487.50 563.00 485.16 563.26 482.00 563.60
  Q 478.64 563.95 461.22 563.99
  Q 454.33 564.01 446.24 564.59
  Q 442.55 564.86 431.26 565.30
  Q 410.22 566.13 382.76 569.39
  Q 345.06 573.85 307.32 583.99
  A 0.33 0.33 0.0 0 0 307.15 584.50
  Q 308.44 586.21 307.98 588.38
  A 1.17 1.17 0.0 0 1 306.64 589.28
  L 297.44 587.62
  A 0.39 0.38 -85.0 0 0 296.99 588.00
  L 296.99 612.27
  A 0.39 0.39 0.0 0 0 297.53 612.63
  Z"
/>
</svg>
