<svg xmlns="http://www.w3.org/2000/svg" viewBox="0 0 980 500" role="img" aria-label="Genome annotation with Braker3 workflow diagram">
  <title>Genome annotation with Braker3</title>
  <desc>Genome annotation using Braker3 with quality evaluation via BUSCO, OMArk, and JBrowse visualization</desc>
  <defs>
    <pattern id="grid" width="20" height="20" patternUnits="userSpaceOnUse">
      <path d="M 20 0 L 0 0 0 20" fill="none" stroke="#c5d5e4" stroke-width="0.5"/>
    </pattern>
    <pattern id="grid-major" width="100" height="100" patternUnits="userSpaceOnUse">
      <rect width="100" height="100" fill="url(#grid)"/>
      <path d="M 100 0 L 0 0 0 100" fill="none" stroke="#b0c4d8" stroke-width="1"/>
    </pattern>
    <style>
      .connection { stroke: #25537b; stroke-width: 4; fill: none; stroke-linecap: round; }
      .connection-qc { stroke: #25537b; stroke-width: 3; fill: none; stroke-linecap: round; stroke-dasharray: 5 3; }
      .connection-secondary { stroke: #25537b; stroke-width: 3; fill: none; stroke-linecap: round; }
      .node-card { filter: drop-shadow(1px 2px 3px rgba(0,0,0,0.15)); }
    </style>
  </defs>
  <rect width="980" height="500" fill="#f8f9fa"/>
  <rect width="980" height="500" fill="url(#grid-major)"/>
  <rect x="0" y="0" width="980" height="45" fill="#25537b"/>
  <text x="20" y="28" font-family="system-ui, sans-serif" font-size="16" font-weight="600" fill="white">Genome Annotation with Braker3</text>

  <!-- Connections -->
  <!-- Genome to BUSCO (genome) -->
  <path class="connection-qc" d="M 200 115 C 260 115, 270 105, 350 105"/>
  <!-- Genome to Braker3 -->
  <path class="connection" d="M 200 125 C 255 125, 265 245, 310 245"/>
  <!-- RNA-seq to Braker3 -->
  <path class="connection" d="M 200 215 C 250 215, 265 260, 310 260"/>
  <!-- Proteins to Braker3 -->
  <path class="connection" d="M 200 305 C 250 305, 265 275, 310 275"/>
  <!-- Braker3 to GFFRead -->
  <path class="connection" d="M 510 260 C 560 260, 570 260, 600 260"/>
  <!-- Braker3 to JBrowse -->
  <path class="connection" d="M 510 275 C 555 275, 565 370, 600 370"/>
  <!-- Braker3 to Annotation Stats -->
  <path class="connection-qc" d="M 510 245 C 555 245, 565 175, 600 175"/>
  <!-- GFFRead to BUSCO (proteins) -->
  <path class="connection-qc" d="M 800 260 C 835 260, 835 110, 850 110"/>
  <!-- GFFRead to OMArk -->
  <path class="connection-qc" d="M 800 275 C 835 275, 835 370, 850 370"/>

  <!-- Input Node: Genome -->
  <g class="node-card" transform="translate(20, 70)">
    <rect width="180" height="90" rx="4" fill="white" stroke="#e0e0e0" stroke-width="1"/>
    <rect width="180" height="28" rx="4" fill="#ffd700"/>
    <rect x="0" y="24" width="180" height="4" fill="#ffd700"/>
    <text x="12" y="19" font-family="system-ui, sans-serif" font-size="11" font-weight="600" fill="#2C3143">Genome sequence</text>
    <text x="12" y="52" font-family="system-ui, sans-serif" font-size="10" fill="#868e96">Soft masked</text>
    <text x="12" y="68" font-family="system-ui, sans-serif" font-size="10" fill="#868e96">FASTA</text>
    <circle cx="180" cy="45" r="6" fill="#ffd700" stroke="white" stroke-width="2"/>
  </g>

  <!-- Input Node: RNA-seq -->
  <g class="node-card" transform="translate(20, 170)">
    <rect width="180" height="90" rx="4" fill="white" stroke="#e0e0e0" stroke-width="1"/>
    <rect width="180" height="28" rx="4" fill="#ffd700"/>
    <rect x="0" y="24" width="180" height="4" fill="#ffd700"/>
    <text x="12" y="19" font-family="system-ui, sans-serif" font-size="11" font-weight="600" fill="#2C3143">RNA-seq alignments</text>
    <text x="12" y="52" font-family="system-ui, sans-serif" font-size="10" fill="#868e96">Transcriptomic evidence</text>
    <text x="12" y="68" font-family="system-ui, sans-serif" font-size="10" fill="#868e96">BAM</text>
    <circle cx="180" cy="45" r="6" fill="#ffd700" stroke="white" stroke-width="2"/>
  </g>

  <!-- Input Node: Proteins -->
  <g class="node-card" transform="translate(20, 270)">
    <rect width="180" height="90" rx="4" fill="white" stroke="#e0e0e0" stroke-width="1"/>
    <rect width="180" height="28" rx="4" fill="#ffd700"/>
    <rect x="0" y="24" width="180" height="4" fill="#ffd700"/>
    <text x="12" y="19" font-family="system-ui, sans-serif" font-size="11" font-weight="600" fill="#2C3143">Protein sequences</text>
    <text x="12" y="52" font-family="system-ui, sans-serif" font-size="10" fill="#868e96">Protein evidence</text>
    <text x="12" y="68" font-family="system-ui, sans-serif" font-size="10" fill="#868e96">FASTA</text>
    <circle cx="180" cy="45" r="6" fill="#ffd700" stroke="white" stroke-width="2"/>
  </g>

  <!-- QC Node: BUSCO (genome) -->
  <g class="node-card" transform="translate(350, 60)">
    <rect width="200" height="90" rx="4" fill="white" stroke="#e0e0e0" stroke-width="1"/>
    <rect width="200" height="28" rx="4" fill="#10b981"/>
    <rect x="0" y="24" width="200" height="4" fill="#10b981"/>
    <text x="12" y="19" font-family="system-ui, sans-serif" font-size="11" font-weight="600" fill="white">BUSCO (Genome)</text>
    <text x="12" y="52" font-family="system-ui, sans-serif" font-size="10" fill="#868e96">Genome completeness</text>
    <text x="12" y="68" font-family="system-ui, sans-serif" font-size="10" fill="#868e96">assessment</text>
    <circle cx="0" cy="45" r="6" fill="#10b981" stroke="white" stroke-width="2"/>
  </g>

  <!-- Processing Node: Braker3 -->
  <g class="node-card" transform="translate(310, 210)">
    <rect width="200" height="90" rx="4" fill="white" stroke="#e0e0e0" stroke-width="1"/>
    <rect width="200" height="28" rx="4" fill="#25537b"/>
    <rect x="0" y="24" width="200" height="4" fill="#25537b"/>
    <text x="12" y="19" font-family="system-ui, sans-serif" font-size="11" font-weight="600" fill="white">BRAKER3</text>
    <text x="12" y="52" font-family="system-ui, sans-serif" font-size="10" fill="#868e96">Gene prediction</text>
    <text x="12" y="68" font-family="system-ui, sans-serif" font-size="10" fill="#868e96">RNA + protein evidence</text>
    <circle cx="0" cy="45" r="6" fill="#25537b" stroke="white" stroke-width="2"/>
    <circle cx="200" cy="45" r="6" fill="#25537b" stroke="white" stroke-width="2"/>
  </g>

  <!-- QC Node: Annotation Stats -->
  <g class="node-card" transform="translate(600, 130)">
    <rect width="200" height="90" rx="4" fill="white" stroke="#e0e0e0" stroke-width="1"/>
    <rect width="200" height="28" rx="4" fill="#10b981"/>
    <rect x="0" y="24" width="200" height="4" fill="#10b981"/>
    <text x="12" y="19" font-family="system-ui, sans-serif" font-size="11" font-weight="600" fill="white">Annotation Statistics</text>
    <text x="12" y="52" font-family="system-ui, sans-serif" font-size="10" fill="#868e96">Gene model metrics</text>
    <text x="12" y="68" font-family="system-ui, sans-serif" font-size="10" fill="#868e96">Summary + graphs</text>
    <circle cx="0" cy="45" r="6" fill="#10b981" stroke="white" stroke-width="2"/>
  </g>

  <!-- Processing Node: GFFRead -->
  <g class="node-card" transform="translate(600, 230)">
    <rect width="200" height="90" rx="4" fill="white" stroke="#e0e0e0" stroke-width="1"/>
    <rect width="200" height="28" rx="4" fill="#25537b"/>
    <rect x="0" y="24" width="200" height="4" fill="#25537b"/>
    <text x="12" y="19" font-family="system-ui, sans-serif" font-size="11" font-weight="600" fill="white">GFFRead</text>
    <text x="12" y="52" font-family="system-ui, sans-serif" font-size="10" fill="#868e96">Extract predicted</text>
    <text x="12" y="68" font-family="system-ui, sans-serif" font-size="10" fill="#868e96">protein sequences</text>
    <circle cx="0" cy="45" r="6" fill="#25537b" stroke="white" stroke-width="2"/>
    <circle cx="200" cy="45" r="6" fill="#25537b" stroke="white" stroke-width="2"/>
  </g>

  <!-- Processing Node: JBrowse -->
  <g class="node-card" transform="translate(600, 335)">
    <rect width="200" height="90" rx="4" fill="white" stroke="#e0e0e0" stroke-width="1"/>
    <rect width="200" height="28" rx="4" fill="#25537b"/>
    <rect x="0" y="24" width="200" height="4" fill="#25537b"/>
    <text x="12" y="19" font-family="system-ui, sans-serif" font-size="11" font-weight="600" fill="white">JBrowse</text>
    <text x="12" y="52" font-family="system-ui, sans-serif" font-size="10" fill="#868e96">Genome browser</text>
    <text x="12" y="68" font-family="system-ui, sans-serif" font-size="10" fill="#868e96">Annotation visualization</text>
    <circle cx="0" cy="45" r="6" fill="#25537b" stroke="white" stroke-width="2"/>
  </g>

  <!-- QC Node: BUSCO (proteins) -->
  <g class="node-card" transform="translate(850, 65)">
    <rect width="120" height="90" rx="4" fill="white" stroke="#e0e0e0" stroke-width="1"/>
    <rect width="120" height="28" rx="4" fill="#10b981"/>
    <rect x="0" y="24" width="120" height="4" fill="#10b981"/>
    <text x="8" y="19" font-family="system-ui, sans-serif" font-size="10" font-weight="600" fill="white">BUSCO (Proteins)</text>
    <text x="8" y="52" font-family="system-ui, sans-serif" font-size="9" fill="#868e96">Proteome</text>
    <text x="8" y="66" font-family="system-ui, sans-serif" font-size="9" fill="#868e96">completeness</text>
    <circle cx="0" cy="45" r="6" fill="#10b981" stroke="white" stroke-width="2"/>
  </g>

  <!-- QC Node: OMArk -->
  <g class="node-card" transform="translate(850, 335)">
    <rect width="120" height="90" rx="4" fill="white" stroke="#e0e0e0" stroke-width="1"/>
    <rect width="120" height="28" rx="4" fill="#10b981"/>
    <rect x="0" y="24" width="120" height="4" fill="#10b981"/>
    <text x="8" y="19" font-family="system-ui, sans-serif" font-size="10" font-weight="600" fill="white">OMArk</text>
    <text x="8" y="52" font-family="system-ui, sans-serif" font-size="9" fill="#868e96">Ortholog quality</text>
    <text x="8" y="66" font-family="system-ui, sans-serif" font-size="9" fill="#868e96">assessment</text>
    <circle cx="0" cy="45" r="6" fill="#10b981" stroke="white" stroke-width="2"/>
  </g>

  <!-- Legend -->
  <g transform="translate(20, 475)">
    <rect x="0" y="-4" width="12" height="12" rx="2" fill="#ffd700"/>
    <text x="16" y="6" font-family="system-ui, sans-serif" font-size="9" fill="#495057">Input</text>
    <line x1="60" y1="2" x2="90" y2="2" stroke="#25537b" stroke-width="3"/>
    <text x="95" y="6" font-family="system-ui, sans-serif" font-size="9" fill="#495057">Data flow</text>
    <line x1="160" y1="2" x2="190" y2="2" stroke="#25537b" stroke-width="2" stroke-dasharray="5 3"/>
    <text x="195" y="6" font-family="system-ui, sans-serif" font-size="9" fill="#495057">QC</text>
    <rect x="225" y="-4" width="12" height="12" rx="2" fill="#10b981"/>
    <text x="241" y="6" font-family="system-ui, sans-serif" font-size="9" fill="#495057">Report/QC</text>
  </g>
</svg>
