<svg viewBox="0 0 1026 631" aria-label="Clinical Metaproteomics Data Interpretation" role="img" xmlns="http://www.w3.org/2000/svg">
  <title>Clinical Metaproteomics Data Interpretation</title>
  <defs>
    <pattern id="wd-grid" width="20" height="20" patternUnits="userSpaceOnUse">
      <path d="M 20 0 L 0 0 0 20" fill="none" stroke="#c5d5e4" stroke-width="0.5"/>
    </pattern>
    <pattern id="wd-grid-major" width="100" height="100" patternUnits="userSpaceOnUse">
      <rect width="100" height="100" fill="url(#wd-grid)"/>
      <path d="M 100 0 L 0 0 0 100" fill="none" stroke="#b0c4d8" stroke-width="1"/>
    </pattern>
    <filter id="wd-shadow" x="-5%" y="-5%" width="115%" height="115%">
      <feDropShadow dx="1" dy="2" stdDeviation="1.5" flood-opacity="0.15"/>
    </filter>
  </defs>
  <rect width="1026" height="631" fill="#f8f9fa"/>
  <rect width="1026" height="631" fill="url(#wd-grid-major)"/>
  <rect x="0" y="0" width="1026" height="45" fill="#25537b"/>
  <text x="20" y="28" font-family="system-ui, sans-serif" font-size="16" font-weight="600" fill="white">Clinical Metaproteomics Data Interpretation</text>
  <text x="20" y="40" font-family="system-ui, sans-serif" font-size="10" fill="rgba(255,255,255,0.7)">Taxonomic/functional annotation and statistical analysis</text>
  <path d="M 208.0 121.0 C 238.0 121.0, 228.0 121.0, 258.0 121.0" stroke="#25537b" fill="none" stroke-linecap="round" stroke-width="4"/>
  <path d="M 204.0 265.0 C 234.0 265.0, 243.0 409.0, 273.0 409.0" stroke="#25537b" fill="none" stroke-linecap="round" stroke-width="4"/>
  <path d="M 473.0 399.7 C 503.0 399.7, 508.0 251.0, 538.0 251.0" stroke="#25537b" fill="none" stroke-linecap="round" stroke-width="4"/>
  <path d="M 473.0 418.3 C 503.0 418.3, 508.0 539.0, 538.0 539.0" stroke="#25537b" fill="none" stroke-linecap="round" stroke-width="4"/>
  <path d="M 204.0 399.7 C 337.6 399.7, 404.4 265.0, 538.0 265.0" stroke="#25537b" fill="none" stroke-linecap="round" stroke-width="3"/>
  <path d="M 204.0 543.7 C 337.6 543.7, 404.4 279.0, 538.0 279.0" stroke="#25537b" fill="none" stroke-linecap="round" stroke-width="3"/>
  <path d="M 204.0 418.3 C 337.6 418.3, 404.4 553.0, 538.0 553.0" stroke="#25537b" fill="none" stroke-linecap="round" stroke-width="3"/>
  <path d="M 204.0 562.3 C 337.6 562.3, 404.4 567.0, 538.0 567.0" stroke="#25537b" fill="none" stroke-linecap="round" stroke-width="3"/>
  <path d="M 488.0 121.0 C 615.2 121.0, 678.8 109.0, 806.0 109.0" stroke="#25537b" fill="none" stroke-linecap="round" stroke-width="4"/>
  <path d="M 756.0 265.0 C 786.0 265.0, 782.0 390.3, 812.0 390.3" stroke="#25537b" fill="none" stroke-linecap="round" stroke-width="4"/>
  <path d="M 756.0 553.0 C 786.0 553.0, 782.0 403.7, 812.0 403.7" stroke="#25537b" fill="none" stroke-linecap="round" stroke-width="4"/>
  <g filter="url(#wd-shadow)" transform="translate(20.0, 65.0)">
    <rect width="188.0" height="84.0" rx="4" fill="white" stroke="#ffd700" stroke-width="1.5"/>
    <rect width="188.0" height="28" rx="4" fill="#ffd700"/>
    <rect x="0" y="24" width="188.0" height="4" fill="#ffd700"/>
    <text x="10" y="19" font-family="system-ui, sans-serif" font-size="11" font-weight="600" fill="#2C3143">Quantified Peptides</text>
    <text x="94.0" y="52" text-anchor="middle" font-family="system-ui, sans-serif" font-size="10" fill="#495057">From MaxQuant quantitation</text>
    <circle cx="188.0" cy="56.0" r="6" fill="white" stroke="#ffd700" stroke-width="2"/>
  </g>
  <g filter="url(#wd-shadow)" transform="translate(24.0, 209.0)">
    <rect width="180.0" height="84.0" rx="4" fill="white" stroke="#ffd700" stroke-width="1.5"/>
    <rect width="180.0" height="28" rx="4" fill="#ffd700"/>
    <rect x="0" y="24" width="180.0" height="4" fill="#ffd700"/>
    <text x="10" y="19" font-family="system-ui, sans-serif" font-size="11" font-weight="600" fill="#2C3143">Protein Groups</text>
    <text x="90.0" y="52" text-anchor="middle" font-family="system-ui, sans-serif" font-size="10" fill="#495057">MaxQuant protein groups</text>
    <circle cx="180.0" cy="56.0" r="6" fill="white" stroke="#ffd700" stroke-width="2"/>
  </g>
  <g filter="url(#wd-shadow)" transform="translate(24.0, 353.0)">
    <rect width="180.0" height="84.0" rx="4" fill="white" stroke="#ffd700" stroke-width="1.5"/>
    <rect width="180.0" height="28" rx="4" fill="#ffd700"/>
    <rect x="0" y="24" width="180.0" height="4" fill="#ffd700"/>
    <text x="10" y="19" font-family="system-ui, sans-serif" font-size="11" font-weight="600" fill="#2C3143">Evidence File</text>
    <text x="90.0" y="52" text-anchor="middle" font-family="system-ui, sans-serif" font-size="10" fill="#495057">MaxQuant evidence</text>
    <circle cx="180.0" cy="46.7" r="6" fill="white" stroke="#ffd700" stroke-width="2"/>
    <circle cx="180.0" cy="65.3" r="6" fill="white" stroke="#ffd700" stroke-width="2"/>
  </g>
  <g filter="url(#wd-shadow)" transform="translate(24.0, 497.0)">
    <rect width="180.0" height="84.0" rx="4" fill="white" stroke="#ffd700" stroke-width="1.5"/>
    <rect width="180.0" height="28" rx="4" fill="#ffd700"/>
    <rect x="0" y="24" width="180.0" height="4" fill="#ffd700"/>
    <text x="10" y="19" font-family="system-ui, sans-serif" font-size="11" font-weight="600" fill="#2C3143">Annotation / Matrix</text>
    <text x="90.0" y="52" text-anchor="middle" font-family="system-ui, sans-serif" font-size="10" fill="#495057">MSstatsTMT config files</text>
    <circle cx="180.0" cy="46.7" r="6" fill="white" stroke="#ffd700" stroke-width="2"/>
    <circle cx="180.0" cy="65.3" r="6" fill="white" stroke="#ffd700" stroke-width="2"/>
  </g>
  <g filter="url(#wd-shadow)" transform="translate(258.0, 65.0)">
    <rect width="230.0" height="84.0" rx="4" fill="white" stroke="#25537b" stroke-width="1"/>
    <rect width="230.0" height="28" rx="4" fill="#25537b"/>
    <rect x="0" y="24" width="230.0" height="4" fill="#25537b"/>
    <text x="10" y="19" font-family="system-ui, sans-serif" font-size="11" fill="rgba(255,255,255,0.7)">1:</text>
    <text x="26" y="19" font-family="system-ui, sans-serif" font-size="11" font-weight="600" fill="white">Unipept</text>
    <text x="115.0" y="52" text-anchor="middle" font-family="system-ui, sans-serif" font-size="10" fill="#495057">Taxonomic &amp; functional annotation</text>
    <circle cx="0.0" cy="56.0" r="6" fill="white" stroke="#25537b" stroke-width="2"/>
    <circle cx="230.0" cy="56.0" r="6" fill="white" stroke="#25537b" stroke-width="2"/>
  </g>
  <g filter="url(#wd-shadow)" transform="translate(273.0, 353.0)">
    <rect width="200.0" height="84.0" rx="4" fill="white" stroke="#25537b" stroke-width="1"/>
    <rect width="200.0" height="28" rx="4" fill="#25537b"/>
    <rect x="0" y="24" width="200.0" height="4" fill="#25537b"/>
    <text x="10" y="19" font-family="system-ui, sans-serif" font-size="11" fill="rgba(255,255,255,0.7)">2:</text>
    <text x="26" y="19" font-family="system-ui, sans-serif" font-size="11" font-weight="600" fill="white">Filter Proteins</text>
    <text x="100.0" y="52" text-anchor="middle" font-family="system-ui, sans-serif" font-size="10" fill="#495057">Split microbial vs human</text>
    <circle cx="0.0" cy="56.0" r="6" fill="white" stroke="#25537b" stroke-width="2"/>
    <circle cx="200.0" cy="46.7" r="6" fill="white" stroke="#25537b" stroke-width="2"/>
    <circle cx="200.0" cy="65.3" r="6" fill="white" stroke="#25537b" stroke-width="2"/>
  </g>
  <g filter="url(#wd-shadow)" transform="translate(538.0, 209.0)">
    <rect width="218.0" height="84.0" rx="4" fill="white" stroke="#25537b" stroke-width="1"/>
    <rect width="218.0" height="28" rx="4" fill="#25537b"/>
    <rect x="0" y="24" width="218.0" height="4" fill="#25537b"/>
    <text x="10" y="19" font-family="system-ui, sans-serif" font-size="11" fill="rgba(255,255,255,0.7)">3:</text>
    <text x="26" y="19" font-family="system-ui, sans-serif" font-size="11" font-weight="600" fill="white">MSstatsTMT (Microbial)</text>
    <text x="109.0" y="52" text-anchor="middle" font-family="system-ui, sans-serif" font-size="10" fill="#495057">Differential abundance analysis</text>
    <circle cx="0.0" cy="42.0" r="6" fill="white" stroke="#25537b" stroke-width="2"/>
    <circle cx="0.0" cy="56.0" r="6" fill="white" stroke="#25537b" stroke-width="2"/>
    <circle cx="0.0" cy="70.0" r="6" fill="white" stroke="#25537b" stroke-width="2"/>
    <circle cx="218.0" cy="56.0" r="6" fill="white" stroke="#25537b" stroke-width="2"/>
  </g>
  <g filter="url(#wd-shadow)" transform="translate(538.0, 497.0)">
    <rect width="218.0" height="84.0" rx="4" fill="white" stroke="#25537b" stroke-width="1"/>
    <rect width="218.0" height="28" rx="4" fill="#25537b"/>
    <rect x="0" y="24" width="218.0" height="4" fill="#25537b"/>
    <text x="10" y="19" font-family="system-ui, sans-serif" font-size="11" fill="rgba(255,255,255,0.7)">4:</text>
    <text x="26" y="19" font-family="system-ui, sans-serif" font-size="11" font-weight="600" fill="white">MSstatsTMT (Human)</text>
    <text x="109.0" y="52" text-anchor="middle" font-family="system-ui, sans-serif" font-size="10" fill="#495057">Differential abundance analysis</text>
    <circle cx="0.0" cy="42.0" r="6" fill="white" stroke="#25537b" stroke-width="2"/>
    <circle cx="0.0" cy="56.0" r="6" fill="white" stroke="#25537b" stroke-width="2"/>
    <circle cx="0.0" cy="70.0" r="6" fill="white" stroke="#25537b" stroke-width="2"/>
    <circle cx="218.0" cy="56.0" r="6" fill="white" stroke="#25537b" stroke-width="2"/>
  </g>
  <g filter="url(#wd-shadow)" transform="translate(806.0, 65.0)">
    <rect width="200.0" height="64.0" rx="4" fill="white" stroke="#f97316" stroke-width="1.5"/>
    <rect width="200.0" height="24" rx="4" fill="#f97316"/>
    <rect x="0" y="20" width="200.0" height="4" fill="#f97316"/>
    <text x="10" y="15" font-family="system-ui, sans-serif" font-size="11" font-weight="600" fill="white">Taxonomy &amp; Function</text>
    <text x="100.0" y="48" text-anchor="middle" font-family="system-ui, sans-serif" font-size="10" fill="#495057">GO, EC, InterPro annotations</text>
    <circle cx="0.0" cy="44.0" r="5" fill="white" stroke="#f97316" stroke-width="2"/>
  </g>
  <g filter="url(#wd-shadow)" transform="translate(812.0, 353.0)">
    <rect width="188.0" height="64.0" rx="4" fill="white" stroke="#f97316" stroke-width="1.5"/>
    <rect width="188.0" height="24" rx="4" fill="#f97316"/>
    <rect x="0" y="20" width="188.0" height="4" fill="#f97316"/>
    <text x="10" y="15" font-family="system-ui, sans-serif" font-size="11" font-weight="600" fill="white">Comparison Plots</text>
    <text x="94.0" y="48" text-anchor="middle" font-family="system-ui, sans-serif" font-size="10" fill="#495057">Volcano &amp; comparison plots</text>
    <circle cx="0.0" cy="37.3" r="5" fill="white" stroke="#f97316" stroke-width="2"/>
    <circle cx="0.0" cy="50.7" r="5" fill="white" stroke="#f97316" stroke-width="2"/>
  </g>
  <g transform="translate(20, 616)">
    <text x="0" y="0" font-family="system-ui, sans-serif" font-size="10" font-weight="600" fill="#495057">Legend:</text>
    <rect x="60" y="-10" width="14" height="14" rx="2" fill="white" stroke="#ffd700" stroke-width="1.5"/>
    <text x="80" y="0" font-family="system-ui, sans-serif" font-size="9" fill="#6c757d">Input</text>
    <line x1="180" y1="-4" x2="220" y2="-4" stroke="#25537b" stroke-width="4" stroke-linecap="round"/>
    <text x="228" y="0" font-family="system-ui, sans-serif" font-size="9" fill="#6c757d">Data flow</text>
    <line x1="300" y1="-4" x2="340" y2="-4" stroke="#25537b" stroke-width="3" stroke-linecap="round"/>
    <text x="348" y="0" font-family="system-ui, sans-serif" font-size="9" fill="#6c757d">Secondary</text>
    <rect x="420" y="-10" width="14" height="14" rx="2" fill="white" stroke="#f97316" stroke-width="1.5"/>
    <text x="440" y="0" font-family="system-ui, sans-serif" font-size="9" fill="#6c757d">Output</text>
  </g>
</svg>