<svg viewBox="0 0 1550 529" aria-label="LC-MS Preprocessing with XCMS" role="img" xmlns="http://www.w3.org/2000/svg">
  <title>LC-MS Preprocessing with XCMS</title>
  <defs>
    <pattern id="wd-grid" width="20" height="20" patternUnits="userSpaceOnUse">
      <path d="M 20 0 L 0 0 0 20" fill="none" stroke="#c5d5e4" stroke-width="0.5"/>
    </pattern>
    <pattern id="wd-grid-major" width="100" height="100" patternUnits="userSpaceOnUse">
      <rect width="100" height="100" fill="url(#wd-grid)"/>
      <path d="M 100 0 L 0 0 0 100" fill="none" stroke="#b0c4d8" stroke-width="1"/>
    </pattern>
    <filter id="wd-shadow" x="-5%" y="-5%" width="115%" height="115%">
      <feDropShadow dx="1" dy="2" stdDeviation="1.5" flood-opacity="0.15"/>
    </filter>
  </defs>
  <rect width="1550" height="529" fill="#f8f9fa"/>
  <rect width="1550" height="529" fill="url(#wd-grid-major)"/>
  <rect x="0" y="0" width="1550" height="45" fill="#25537b"/>
  <text x="20" y="28" font-family="system-ui, sans-serif" font-size="16" font-weight="600" fill="white">LC-MS Preprocessing with XCMS</text>
  <path d="M 210.0 444.0 C 242.0 444.0, 258.0 121.0, 290.0 121.0" stroke="white" fill="none" stroke-linecap="round" stroke-width="8"/>
  <path d="M 490.0 111.7 C 520.0 111.7, 530.0 128.0, 560.0 128.0" stroke="white" fill="none" stroke-linecap="round" stroke-width="8"/>
  <path d="M 760.0 128.0 C 790.0 128.0, 800.0 116.3, 830.0 116.3" stroke="white" fill="none" stroke-linecap="round" stroke-width="8"/>
  <path d="M 210.0 128.0 C 458.0 128.0, 582.0 139.7, 830.0 139.7" stroke="white" fill="none" stroke-linecap="round" stroke-width="7"/>
  <path d="M 1030.0 128.0 C 1060.0 128.0, 1070.0 128.0, 1100.0 128.0" stroke="white" fill="none" stroke-linecap="round" stroke-width="8"/>
  <path d="M 1166.7 163.0 C 1166.7 193.0, 120.0 193.0, 120.0 223.0" stroke="white" fill="none" stroke-linecap="round" stroke-width="8"/>
  <path d="M 220.0 268.5 C 250.0 268.5, 260.0 286.0, 290.0 286.0" stroke="white" fill="none" stroke-linecap="round" stroke-width="8"/>
  <path d="M 490.0 286.0 C 520.0 286.0, 530.0 286.0, 560.0 286.0" stroke="white" fill="none" stroke-linecap="round" stroke-width="8"/>
  <path d="M 760.0 274.3 C 790.0 274.3, 800.0 286.0, 830.0 286.0" stroke="white" fill="none" stroke-linecap="round" stroke-width="8"/>
  <path d="M 490.0 130.3 C 530.4 130.3, 550.5 425.0, 590.9 425.0" stroke="white" fill="none" stroke-linecap="round" stroke-width="7"/>
  <path d="M 220.0 286.0 C 256.4 286.0, 274.6 425.0, 311.0 425.0" stroke="white" fill="none" stroke-linecap="round" stroke-width="7"/>
  <path d="M 220.0 303.5 C 469.8 303.5, 594.6 425.0, 844.4 425.0" stroke="white" fill="none" stroke-linecap="round" stroke-width="7"/>
  <path d="M 1233.3 163.0 C 1233.3 193.0, 1100.0 425.0, 1130.0 425.0" stroke="white" fill="none" stroke-linecap="round" stroke-width="7"/>
  <path d="M 760.0 297.7 C 1004.0 297.7, 1126.0 117.5, 1370.0 117.5" stroke="white" fill="none" stroke-linecap="round" stroke-width="8"/>
  <path d="M 1030.0 286.0 C 1166.0 286.0, 1234.0 275.5, 1370.0 275.5" stroke="white" fill="none" stroke-linecap="round" stroke-width="8"/>
  <path d="M 210.0 444.0 C 242.0 444.0, 258.0 121.0, 290.0 121.0" stroke="#25537b" fill="none" stroke-linecap="round" stroke-width="4"/>
  <path d="M 490.0 111.7 C 520.0 111.7, 530.0 128.0, 560.0 128.0" stroke="#25537b" fill="none" stroke-linecap="round" stroke-width="4"/>
  <path d="M 760.0 128.0 C 790.0 128.0, 800.0 116.3, 830.0 116.3" stroke="#25537b" fill="none" stroke-linecap="round" stroke-width="4"/>
  <path d="M 210.0 128.0 C 458.0 128.0, 582.0 139.7, 830.0 139.7" stroke="#25537b" fill="none" stroke-linecap="round" stroke-width="3"/>
  <path d="M 1030.0 128.0 C 1060.0 128.0, 1070.0 128.0, 1100.0 128.0" stroke="#25537b" fill="none" stroke-linecap="round" stroke-width="4"/>
  <path d="M 1166.7 163.0 C 1166.7 193.0, 120.0 193.0, 120.0 223.0" stroke="#25537b" fill="none" stroke-linecap="round" stroke-width="4"/>
  <path d="M 220.0 268.5 C 250.0 268.5, 260.0 286.0, 290.0 286.0" stroke="#25537b" fill="none" stroke-linecap="round" stroke-width="4"/>
  <path d="M 490.0 286.0 C 520.0 286.0, 530.0 286.0, 560.0 286.0" stroke="#25537b" fill="none" stroke-linecap="round" stroke-width="4"/>
  <path d="M 760.0 274.3 C 790.0 274.3, 800.0 286.0, 830.0 286.0" stroke="#25537b" fill="none" stroke-linecap="round" stroke-width="4"/>
  <path d="M 490.0 130.3 C 530.4 130.3, 550.5 425.0, 590.9 425.0" stroke="#25537b" fill="none" stroke-linecap="round" stroke-width="3" stroke-dasharray="5 3"/>
  <path d="M 220.0 286.0 C 256.4 286.0, 274.6 425.0, 311.0 425.0" stroke="#25537b" fill="none" stroke-linecap="round" stroke-width="3" stroke-dasharray="5 3"/>
  <path d="M 220.0 303.5 C 469.8 303.5, 594.6 425.0, 844.4 425.0" stroke="#25537b" fill="none" stroke-linecap="round" stroke-width="3" stroke-dasharray="5 3"/>
  <path d="M 1233.3 163.0 C 1233.3 193.0, 1100.0 425.0, 1130.0 425.0" stroke="#25537b" fill="none" stroke-linecap="round" stroke-width="3" stroke-dasharray="5 3"/>
  <path d="M 760.0 297.7 C 1004.0 297.7, 1126.0 117.5, 1370.0 117.5" stroke="#25537b" fill="none" stroke-linecap="round" stroke-width="4"/>
  <path d="M 1030.0 286.0 C 1166.0 286.0, 1234.0 275.5, 1370.0 275.5" stroke="#25537b" fill="none" stroke-linecap="round" stroke-width="4"/>
  <g filter="url(#wd-shadow)" transform="translate(30.0, 65.0)">
    <rect width="180.0" height="98.0" rx="4" fill="white" stroke="#ffd700" stroke-width="1.5"/>
    <rect width="180.0" height="28" rx="4" fill="#ffd700"/>
    <rect x="0" y="24" width="180.0" height="4" fill="#ffd700"/>
    <text x="10" y="19" font-family="system-ui, sans-serif" font-size="11" font-weight="600" fill="#2C3143">Sample Metadata</text>
    <text x="90.0" y="52" text-anchor="middle" font-family="system-ui, sans-serif" font-size="10" fill="#495057">Sample class assignments</text>
    <text x="90.0" y="66" text-anchor="middle" font-family="system-ui, sans-serif" font-size="9" fill="#868e96">tabular</text>
    <circle cx="180.0" cy="63.0" r="6" fill="white" stroke="#ffd700" stroke-width="2"/>
  </g>
  <g filter="url(#wd-shadow)" transform="translate(30.0, 381.0)">
    <rect width="180.0" height="98.0" rx="4" fill="white" stroke="#ffd700" stroke-width="1.5"/>
    <rect width="180.0" height="28" rx="4" fill="#ffd700"/>
    <rect x="0" y="24" width="180.0" height="4" fill="#ffd700"/>
    <text x="10" y="19" font-family="system-ui, sans-serif" font-size="11" font-weight="600" fill="#2C3143">MS Dataset Collection</text>
    <text x="90.0" y="52" text-anchor="middle" font-family="system-ui, sans-serif" font-size="10" fill="#495057">Raw mass-spec files</text>
    <text x="90.0" y="66" text-anchor="middle" font-family="system-ui, sans-serif" font-size="9" fill="#868e96">mzML / mzXML / netCDF</text>
    <circle cx="180.0" cy="63.0" r="6" fill="white" stroke="#ffd700" stroke-width="2"/>
  </g>
  <g filter="url(#wd-shadow)" transform="translate(290.0, 65.0)">
    <rect width="200.0" height="84.0" rx="4" fill="white" stroke="#25537b" stroke-width="1"/>
    <rect width="200.0" height="28" rx="4" fill="#25537b"/>
    <rect x="0" y="24" width="200.0" height="4" fill="#25537b"/>
    <text x="10" y="19" font-family="system-ui, sans-serif" font-size="11" font-weight="500" fill="rgba(255,255,255,0.85)">1:</text>
    <text x="26" y="19" font-family="system-ui, sans-serif" font-size="11" font-weight="600" fill="white">MSnbase readMSData</text>
    <text x="100.0" y="52" text-anchor="middle" font-family="system-ui, sans-serif" font-size="10" fill="#495057">Import raw spectra</text>
    <circle cx="0.0" cy="56.0" r="6" fill="white" stroke="#25537b" stroke-width="2"/>
    <circle cx="200.0" cy="46.7" r="6" fill="white" stroke="#25537b" stroke-width="2"/>
    <circle cx="200.0" cy="65.3" r="6" fill="white" stroke="#25537b" stroke-width="2"/>
  </g>
  <g filter="url(#wd-shadow)" transform="translate(560.0, 65.0)">
    <rect width="200.0" height="98.0" rx="4" fill="white" stroke="#25537b" stroke-width="1"/>
    <rect width="200.0" height="28" rx="4" fill="#25537b"/>
    <rect x="0" y="24" width="200.0" height="4" fill="#25537b"/>
    <text x="10" y="19" font-family="system-ui, sans-serif" font-size="11" font-weight="500" fill="rgba(255,255,255,0.85)">2:</text>
    <text x="26" y="19" font-family="system-ui, sans-serif" font-size="11" font-weight="600" fill="white">findChromPeaks</text>
    <text x="100.0" y="52" text-anchor="middle" font-family="system-ui, sans-serif" font-size="10" fill="#495057">Peak detection</text>
    <text x="100.0" y="66" text-anchor="middle" font-family="system-ui, sans-serif" font-size="9" fill="#868e96">CentWave algorithm</text>
    <circle cx="0.0" cy="63.0" r="6" fill="white" stroke="#25537b" stroke-width="2"/>
    <circle cx="200.0" cy="63.0" r="6" fill="white" stroke="#25537b" stroke-width="2"/>
  </g>
  <g filter="url(#wd-shadow)" transform="translate(830.0, 65.0)">
    <rect width="200.0" height="98.0" rx="4" fill="white" stroke="#25537b" stroke-width="1"/>
    <rect width="200.0" height="28" rx="4" fill="#25537b"/>
    <rect x="0" y="24" width="200.0" height="4" fill="#25537b"/>
    <text x="10" y="19" font-family="system-ui, sans-serif" font-size="11" font-weight="500" fill="rgba(255,255,255,0.85)">3:</text>
    <text x="26" y="19" font-family="system-ui, sans-serif" font-size="11" font-weight="600" fill="white">Peak Merger</text>
    <text x="100.0" y="52" text-anchor="middle" font-family="system-ui, sans-serif" font-size="10" fill="#495057">Combine samples</text>
    <text x="100.0" y="66" text-anchor="middle" font-family="system-ui, sans-serif" font-size="9" fill="#868e96">Attach sample metadata</text>
    <circle cx="0.0" cy="51.3" r="6" fill="white" stroke="#25537b" stroke-width="2"/>
    <circle cx="0.0" cy="74.7" r="6" fill="white" stroke="#25537b" stroke-width="2"/>
    <circle cx="200.0" cy="63.0" r="6" fill="white" stroke="#25537b" stroke-width="2"/>
  </g>
  <g filter="url(#wd-shadow)" transform="translate(1100.0, 65.0)">
    <rect width="200.0" height="98.0" rx="4" fill="white" stroke="#25537b" stroke-width="1"/>
    <rect width="200.0" height="28" rx="4" fill="#25537b"/>
    <rect x="0" y="24" width="200.0" height="4" fill="#25537b"/>
    <text x="10" y="19" font-family="system-ui, sans-serif" font-size="11" font-weight="500" fill="rgba(255,255,255,0.85)">4:</text>
    <text x="26" y="19" font-family="system-ui, sans-serif" font-size="11" font-weight="600" fill="white">groupChromPeaks</text>
    <text x="100.0" y="52" text-anchor="middle" font-family="system-ui, sans-serif" font-size="10" fill="#495057">Correspondence (1st)</text>
    <text x="100.0" y="66" text-anchor="middle" font-family="system-ui, sans-serif" font-size="9" fill="#868e96">PeakDensity grouping</text>
    <circle cx="0.0" cy="63.0" r="6" fill="white" stroke="#25537b" stroke-width="2"/>
    <circle cx="66.7" cy="98.0" r="6" fill="white" stroke="#25537b" stroke-width="2"/>
    <circle cx="133.3" cy="98.0" r="6" fill="white" stroke="#25537b" stroke-width="2"/>
  </g>
  <g filter="url(#wd-shadow)" transform="translate(20.0, 223.0)">
    <rect width="200.0" height="98.0" rx="4" fill="white" stroke="#25537b" stroke-width="1"/>
    <rect width="200.0" height="28" rx="4" fill="#25537b"/>
    <rect x="0" y="24" width="200.0" height="4" fill="#25537b"/>
    <text x="10" y="19" font-family="system-ui, sans-serif" font-size="11" font-weight="500" fill="rgba(255,255,255,0.85)">5:</text>
    <text x="26" y="19" font-family="system-ui, sans-serif" font-size="11" font-weight="600" fill="white">adjustRtime</text>
    <text x="100.0" y="52" text-anchor="middle" font-family="system-ui, sans-serif" font-size="10" fill="#495057">RT correction</text>
    <text x="100.0" y="66" text-anchor="middle" font-family="system-ui, sans-serif" font-size="9" fill="#868e96">PeakGroups / loess</text>
    <circle cx="100.0" cy="0.0" r="6" fill="white" stroke="#25537b" stroke-width="2"/>
    <circle cx="200.0" cy="45.5" r="6" fill="white" stroke="#25537b" stroke-width="2"/>
    <circle cx="200.0" cy="63.0" r="6" fill="white" stroke="#25537b" stroke-width="2"/>
    <circle cx="200.0" cy="80.5" r="6" fill="white" stroke="#25537b" stroke-width="2"/>
  </g>
  <g filter="url(#wd-shadow)" transform="translate(290.0, 223.0)">
    <rect width="200.0" height="98.0" rx="4" fill="white" stroke="#25537b" stroke-width="1"/>
    <rect width="200.0" height="28" rx="4" fill="#25537b"/>
    <rect x="0" y="24" width="200.0" height="4" fill="#25537b"/>
    <text x="10" y="19" font-family="system-ui, sans-serif" font-size="11" font-weight="500" fill="rgba(255,255,255,0.85)">6:</text>
    <text x="26" y="19" font-family="system-ui, sans-serif" font-size="11" font-weight="600" fill="white">groupChromPeaks</text>
    <text x="100.0" y="52" text-anchor="middle" font-family="system-ui, sans-serif" font-size="10" fill="#495057">Correspondence (2nd)</text>
    <text x="100.0" y="66" text-anchor="middle" font-family="system-ui, sans-serif" font-size="9" fill="#868e96">Re-group after alignment</text>
    <circle cx="0.0" cy="63.0" r="6" fill="white" stroke="#25537b" stroke-width="2"/>
    <circle cx="200.0" cy="63.0" r="6" fill="white" stroke="#25537b" stroke-width="2"/>
  </g>
  <g filter="url(#wd-shadow)" transform="translate(560.0, 223.0)">
    <rect width="200.0" height="98.0" rx="4" fill="white" stroke="#25537b" stroke-width="1"/>
    <rect width="200.0" height="28" rx="4" fill="#25537b"/>
    <rect x="0" y="24" width="200.0" height="4" fill="#25537b"/>
    <text x="10" y="19" font-family="system-ui, sans-serif" font-size="11" font-weight="500" fill="rgba(255,255,255,0.85)">7:</text>
    <text x="26" y="19" font-family="system-ui, sans-serif" font-size="11" font-weight="600" fill="white">fillChromPeaks</text>
    <text x="100.0" y="52" text-anchor="middle" font-family="system-ui, sans-serif" font-size="10" fill="#495057">Gap-filling</text>
    <text x="100.0" y="66" text-anchor="middle" font-family="system-ui, sans-serif" font-size="9" fill="#868e96">Integrate missing peaks</text>
    <circle cx="0.0" cy="63.0" r="6" fill="white" stroke="#25537b" stroke-width="2"/>
    <circle cx="200.0" cy="51.3" r="6" fill="white" stroke="#25537b" stroke-width="2"/>
    <circle cx="200.0" cy="74.7" r="6" fill="white" stroke="#25537b" stroke-width="2"/>
  </g>
  <g filter="url(#wd-shadow)" transform="translate(830.0, 223.0)">
    <rect width="200.0" height="98.0" rx="4" fill="white" stroke="#25537b" stroke-width="1"/>
    <rect width="200.0" height="28" rx="4" fill="#25537b"/>
    <rect x="0" y="24" width="200.0" height="4" fill="#25537b"/>
    <text x="10" y="19" font-family="system-ui, sans-serif" font-size="11" font-weight="500" fill="rgba(255,255,255,0.85)">8:</text>
    <text x="26" y="19" font-family="system-ui, sans-serif" font-size="11" font-weight="600" fill="white">CAMERA.annotate</text>
    <text x="100.0" y="52" text-anchor="middle" font-family="system-ui, sans-serif" font-size="10" fill="#495057">Annotate features</text>
    <text x="100.0" y="66" text-anchor="middle" font-family="system-ui, sans-serif" font-size="9" fill="#868e96">Isotopes &amp; adducts</text>
    <circle cx="0.0" cy="63.0" r="6" fill="white" stroke="#25537b" stroke-width="2"/>
    <circle cx="200.0" cy="63.0" r="6" fill="white" stroke="#25537b" stroke-width="2"/>
  </g>
  <g filter="url(#wd-shadow)" transform="translate(590.9, 381.0)">
    <rect width="138.2" height="64.0" rx="4" fill="white" stroke="#5bc0de" stroke-width="1.5" stroke-dasharray="4 2"/>
    <rect width="138.2" height="24" rx="4" fill="#5bc0de"/>
    <rect x="0" y="20" width="138.2" height="4" fill="#5bc0de"/>
    <text x="10" y="15" font-family="system-ui, sans-serif" font-size="11" font-weight="600" fill="white">Raw Chromatograms</text>
    <text x="69.1" y="48" text-anchor="middle" font-family="system-ui, sans-serif" font-size="10" fill="#495057">TIC + BPI (PDF)</text>
    <circle cx="0.0" cy="44.0" r="5" fill="white" stroke="#5bc0de" stroke-width="2"/>
  </g>
  <g filter="url(#wd-shadow)" transform="translate(311.0, 381.0)">
    <rect width="158.0" height="64.0" rx="4" fill="white" stroke="#5bc0de" stroke-width="1.5" stroke-dasharray="4 2"/>
    <rect width="158.0" height="24" rx="4" fill="#5bc0de"/>
    <rect x="0" y="20" width="158.0" height="4" fill="#5bc0de"/>
    <text x="10" y="15" font-family="system-ui, sans-serif" font-size="11" font-weight="600" fill="white">RT Correction Plot</text>
    <text x="79.0" y="48" text-anchor="middle" font-family="system-ui, sans-serif" font-size="10" fill="#495057">Raw vs adjusted (PDF)</text>
    <circle cx="0.0" cy="44.0" r="5" fill="white" stroke="#5bc0de" stroke-width="2"/>
  </g>
  <g filter="url(#wd-shadow)" transform="translate(844.4, 381.0)">
    <rect width="171.2" height="64.0" rx="4" fill="white" stroke="#5bc0de" stroke-width="1.5" stroke-dasharray="4 2"/>
    <rect width="171.2" height="24" rx="4" fill="#5bc0de"/>
    <rect x="0" y="20" width="171.2" height="4" fill="#5bc0de"/>
    <text x="10" y="15" font-family="system-ui, sans-serif" font-size="11" font-weight="600" fill="white">Adjusted Chromatograms</text>
    <text x="85.6" y="48" text-anchor="middle" font-family="system-ui, sans-serif" font-size="10" fill="#495057">TIC + BPI (PDF)</text>
    <circle cx="0.0" cy="44.0" r="5" fill="white" stroke="#5bc0de" stroke-width="2"/>
  </g>
  <g filter="url(#wd-shadow)" transform="translate(1130.0, 381.0)">
    <rect width="140.0" height="64.0" rx="4" fill="white" stroke="#5bc0de" stroke-width="1.5" stroke-dasharray="4 2"/>
    <rect width="140.0" height="24" rx="4" fill="#5bc0de"/>
    <rect x="0" y="20" width="140.0" height="4" fill="#5bc0de"/>
    <text x="10" y="15" font-family="system-ui, sans-serif" font-size="11" font-weight="600" fill="white">Intensity Check</text>
    <text x="70.0" y="48" text-anchor="middle" font-family="system-ui, sans-serif" font-size="10" fill="#495057">QC per class (PDF)</text>
    <circle cx="0.0" cy="44.0" r="5" fill="white" stroke="#5bc0de" stroke-width="2"/>
  </g>
  <g filter="url(#wd-shadow)" transform="translate(1370.0, 65.0)">
    <rect width="160.0" height="77.0" rx="4" fill="white" stroke="#10b981" stroke-width="1.5"/>
    <rect width="160.0" height="28" rx="4" fill="#10b981"/>
    <rect x="0" y="24" width="160.0" height="4" fill="#10b981"/>
    <text x="10" y="19" font-family="system-ui, sans-serif" font-size="11" font-weight="600" fill="white">Data Matrix</text>
    <text x="80.0" y="52" text-anchor="middle" font-family="system-ui, sans-serif" font-size="10" fill="#495057">Peak intensity table</text>
    <circle cx="0.0" cy="52.5" r="5" fill="white" stroke="#10b981" stroke-width="2"/>
  </g>
  <g filter="url(#wd-shadow)" transform="translate(1370.0, 223.0)">
    <rect width="160.0" height="77.0" rx="4" fill="white" stroke="#10b981" stroke-width="1.5"/>
    <rect width="160.0" height="28" rx="4" fill="#10b981"/>
    <rect x="0" y="24" width="160.0" height="4" fill="#10b981"/>
    <text x="10" y="19" font-family="system-ui, sans-serif" font-size="11" font-weight="600" fill="white">Variable Metadata</text>
    <text x="80.0" y="52" text-anchor="middle" font-family="system-ui, sans-serif" font-size="10" fill="#495057">Annotated features</text>
    <circle cx="0.0" cy="52.5" r="5" fill="white" stroke="#10b981" stroke-width="2"/>
  </g>
  <g transform="translate(20, 514)">
    <text x="0" y="0" font-family="system-ui, sans-serif" font-size="10" font-weight="600" fill="#495057">Legend:</text>
    <rect x="60" y="-10" width="14" height="14" rx="2" fill="white" stroke="#ffd700" stroke-width="1.5"/>
    <text x="80" y="0" font-family="system-ui, sans-serif" font-size="9" fill="#6c757d">Input</text>
    <line x1="123.0" y1="-4" x2="163.0" y2="-4" stroke="#25537b" stroke-width="4" stroke-linecap="round"/>
    <text x="171.0" y="0" font-family="system-ui, sans-serif" font-size="9" fill="#6c757d">Data flow</text>
    <line x1="235.6" y1="-4" x2="275.6" y2="-4" stroke="#25537b" stroke-width="3" stroke-linecap="round"/>
    <text x="283.6" y="0" font-family="system-ui, sans-serif" font-size="9" fill="#6c757d">Secondary</text>
    <line x1="348.2" y1="-4" x2="388.2" y2="-4" stroke="#25537b" stroke-width="3" stroke-linecap="round" stroke-dasharray="5 3"/>
    <text x="396.2" y="0" font-family="system-ui, sans-serif" font-size="9" fill="#6c757d">QC metrics</text>
    <rect x="466.2" y="-10" width="14" height="14" rx="2" fill="white" stroke="#10b981" stroke-width="1.5"/>
    <text x="486.2" y="0" font-family="system-ui, sans-serif" font-size="9" fill="#6c757d">Output</text>
    <rect x="534.6" y="-10" width="14" height="14" rx="2" fill="white" stroke="#5bc0de" stroke-width="1.5"/>
    <text x="554.6" y="0" font-family="system-ui, sans-serif" font-size="9" fill="#6c757d">Report</text>
  </g>
</svg>