<svg viewBox="0 0 1240 619" aria-label="LC-MS Preprocessing with XCMS" role="img" xmlns="http://www.w3.org/2000/svg">
  <title>LC-MS Preprocessing with XCMS</title>
  <defs>
    <pattern id="wd-grid" width="20" height="20" patternUnits="userSpaceOnUse">
      <path d="M 20 0 L 0 0 0 20" fill="none" stroke="#c5d5e4" stroke-width="0.5"/>
    </pattern>
    <pattern id="wd-grid-major" width="100" height="100" patternUnits="userSpaceOnUse">
      <rect width="100" height="100" fill="url(#wd-grid)"/>
      <path d="M 100 0 L 0 0 0 100" fill="none" stroke="#b0c4d8" stroke-width="1"/>
    </pattern>
    <filter id="wd-shadow" x="-5%" y="-5%" width="115%" height="115%">
      <feDropShadow dx="1" dy="2" stdDeviation="1.5" flood-opacity="0.15"/>
    </filter>
  </defs>
  <rect width="1240" height="619" fill="#f8f9fa"/>
  <rect width="1240" height="619" fill="url(#wd-grid-major)"/>
  <rect x="0" y="0" width="1240" height="45" fill="#25537b"/>
  <text x="20" y="28" font-family="system-ui, sans-serif" font-size="16" font-weight="600" fill="white">LC-MS Preprocessing with XCMS</text>
  <path d="M 210.0 286.0 C 240.0 286.0, 240.0 121.0, 270.0 121.0" stroke="#25537b" fill="none" stroke-linecap="round" stroke-width="4"/>
  <path d="M 470.0 121.0 C 500.0 121.0, 490.0 128.0, 520.0 128.0" stroke="#25537b" fill="none" stroke-linecap="round" stroke-width="4"/>
  <path d="M 720.0 128.0 C 750.0 128.0, 740.0 116.3, 770.0 116.3" stroke="#25537b" fill="none" stroke-linecap="round" stroke-width="4"/>
  <path d="M 210.0 128.0 C 434.0 128.0, 546.0 139.7, 770.0 139.7" stroke="#25537b" fill="none" stroke-linecap="round" stroke-width="3"/>
  <path d="M 970.0 128.0 C 1000.0 128.0, 990.0 128.0, 1020.0 128.0" stroke="#25537b" fill="none" stroke-linecap="round" stroke-width="4"/>
  <path d="M 1086.7 163.0 C 1086.7 193.0, 120.0 193.0, 120.0 223.0" stroke="#25537b" fill="none" stroke-linecap="round" stroke-width="4"/>
  <path d="M 220.0 274.3 C 250.0 274.3, 240.0 286.0, 270.0 286.0" stroke="#25537b" fill="none" stroke-linecap="round" stroke-width="4"/>
  <path d="M 470.0 286.0 C 500.0 286.0, 490.0 286.0, 520.0 286.0" stroke="#25537b" fill="none" stroke-linecap="round" stroke-width="4"/>
  <path d="M 720.0 286.0 C 750.0 286.0, 740.0 286.0, 770.0 286.0" stroke="#25537b" fill="none" stroke-linecap="round" stroke-width="4"/>
  <path d="M 370.0 149.0 C 370.0 179.0, 270.5 425.0, 300.5 425.0" stroke="#25537b" fill="none" stroke-linecap="round" stroke-width="3" stroke-dasharray="5 3"/>
  <path d="M 120.0 321.0 C 120.0 351.0, 17.0 425.0, 47.0 425.0" stroke="#25537b" fill="none" stroke-linecap="round" stroke-width="3" stroke-dasharray="5 3"/>
  <path d="M 220.0 297.7 C 250.0 297.7, 253.0 549.0, 283.0 549.0" stroke="#25537b" fill="none" stroke-linecap="round" stroke-width="3" stroke-dasharray="5 3"/>
  <path d="M 1153.3 163.0 C 1153.3 193.0, 1027.5 425.0, 1057.5 425.0" stroke="#25537b" fill="none" stroke-linecap="round" stroke-width="3" stroke-dasharray="5 3"/>
  <path d="M 620.0 321.0 C 620.0 351.0, 520.0 425.0, 550.0 425.0" stroke="#25537b" fill="none" stroke-linecap="round" stroke-width="4"/>
  <path d="M 870.0 321.0 C 870.0 351.0, 762.0 425.0, 792.0 425.0" stroke="#25537b" fill="none" stroke-linecap="round" stroke-width="4"/>
  <g filter="url(#wd-shadow)" transform="translate(30.0, 65.0)">
    <rect width="180.0" height="98.0" rx="4" fill="white" stroke="#ffd700" stroke-width="1.5"/>
    <rect width="180.0" height="28" rx="4" fill="#ffd700"/>
    <rect x="0" y="24" width="180.0" height="4" fill="#ffd700"/>
    <text x="10" y="19" font-family="system-ui, sans-serif" font-size="11" font-weight="600" fill="#2C3143">Sample Metadata</text>
    <text x="90.0" y="52" text-anchor="middle" font-family="system-ui, sans-serif" font-size="10" fill="#495057">Sample class assignments</text>
    <text x="90.0" y="66" text-anchor="middle" font-family="system-ui, sans-serif" font-size="9" fill="#868e96">tabular</text>
    <circle cx="180.0" cy="63.0" r="6" fill="white" stroke="#ffd700" stroke-width="2"/>
  </g>
  <g filter="url(#wd-shadow)" transform="translate(30.0, 223.0)">
    <rect width="180.0" height="98.0" rx="4" fill="white" stroke="#ffd700" stroke-width="1.5"/>
    <rect width="180.0" height="28" rx="4" fill="#ffd700"/>
    <rect x="0" y="24" width="180.0" height="4" fill="#ffd700"/>
    <text x="10" y="19" font-family="system-ui, sans-serif" font-size="11" font-weight="600" fill="#2C3143">MS Dataset Collection</text>
    <text x="90.0" y="52" text-anchor="middle" font-family="system-ui, sans-serif" font-size="10" fill="#495057">Raw mass-spec files</text>
    <text x="90.0" y="66" text-anchor="middle" font-family="system-ui, sans-serif" font-size="9" fill="#868e96">mzML / mzXML / netCDF</text>
    <circle cx="180.0" cy="63.0" r="6" fill="white" stroke="#ffd700" stroke-width="2"/>
  </g>
  <g filter="url(#wd-shadow)" transform="translate(270.0, 65.0)">
    <rect width="200.0" height="84.0" rx="4" fill="white" stroke="#25537b" stroke-width="1"/>
    <rect width="200.0" height="28" rx="4" fill="#25537b"/>
    <rect x="0" y="24" width="200.0" height="4" fill="#25537b"/>
    <text x="10" y="19" font-family="system-ui, sans-serif" font-size="11" fill="rgba(255,255,255,0.7)">1:</text>
    <text x="26" y="19" font-family="system-ui, sans-serif" font-size="11" font-weight="600" fill="white">MSnbase readMSData</text>
    <text x="100.0" y="52" text-anchor="middle" font-family="system-ui, sans-serif" font-size="10" fill="#495057">Import raw spectra</text>
    <circle cx="0.0" cy="56.0" r="6" fill="white" stroke="#25537b" stroke-width="2"/>
    <circle cx="200.0" cy="56.0" r="6" fill="white" stroke="#25537b" stroke-width="2"/>
    <circle cx="100.0" cy="84.0" r="6" fill="white" stroke="#25537b" stroke-width="2"/>
  </g>
  <g filter="url(#wd-shadow)" transform="translate(520.0, 65.0)">
    <rect width="200.0" height="98.0" rx="4" fill="white" stroke="#25537b" stroke-width="1"/>
    <rect width="200.0" height="28" rx="4" fill="#25537b"/>
    <rect x="0" y="24" width="200.0" height="4" fill="#25537b"/>
    <text x="10" y="19" font-family="system-ui, sans-serif" font-size="11" fill="rgba(255,255,255,0.7)">2:</text>
    <text x="26" y="19" font-family="system-ui, sans-serif" font-size="11" font-weight="600" fill="white">findChromPeaks</text>
    <text x="100.0" y="52" text-anchor="middle" font-family="system-ui, sans-serif" font-size="10" fill="#495057">Peak detection</text>
    <text x="100.0" y="66" text-anchor="middle" font-family="system-ui, sans-serif" font-size="9" fill="#868e96">CentWave algorithm</text>
    <circle cx="0.0" cy="63.0" r="6" fill="white" stroke="#25537b" stroke-width="2"/>
    <circle cx="200.0" cy="63.0" r="6" fill="white" stroke="#25537b" stroke-width="2"/>
  </g>
  <g filter="url(#wd-shadow)" transform="translate(770.0, 65.0)">
    <rect width="200.0" height="98.0" rx="4" fill="white" stroke="#25537b" stroke-width="1"/>
    <rect width="200.0" height="28" rx="4" fill="#25537b"/>
    <rect x="0" y="24" width="200.0" height="4" fill="#25537b"/>
    <text x="10" y="19" font-family="system-ui, sans-serif" font-size="11" fill="rgba(255,255,255,0.7)">3:</text>
    <text x="26" y="19" font-family="system-ui, sans-serif" font-size="11" font-weight="600" fill="white">Peak Merger</text>
    <text x="100.0" y="52" text-anchor="middle" font-family="system-ui, sans-serif" font-size="10" fill="#495057">Combine samples</text>
    <text x="100.0" y="66" text-anchor="middle" font-family="system-ui, sans-serif" font-size="9" fill="#868e96">Attach sample metadata</text>
    <circle cx="0.0" cy="51.3" r="6" fill="white" stroke="#25537b" stroke-width="2"/>
    <circle cx="0.0" cy="74.7" r="6" fill="white" stroke="#25537b" stroke-width="2"/>
    <circle cx="200.0" cy="63.0" r="6" fill="white" stroke="#25537b" stroke-width="2"/>
  </g>
  <g filter="url(#wd-shadow)" transform="translate(1020.0, 65.0)">
    <rect width="200.0" height="98.0" rx="4" fill="white" stroke="#25537b" stroke-width="1"/>
    <rect width="200.0" height="28" rx="4" fill="#25537b"/>
    <rect x="0" y="24" width="200.0" height="4" fill="#25537b"/>
    <text x="10" y="19" font-family="system-ui, sans-serif" font-size="11" fill="rgba(255,255,255,0.7)">4:</text>
    <text x="26" y="19" font-family="system-ui, sans-serif" font-size="11" font-weight="600" fill="white">groupChromPeaks</text>
    <text x="100.0" y="52" text-anchor="middle" font-family="system-ui, sans-serif" font-size="10" fill="#495057">Correspondence (1st)</text>
    <text x="100.0" y="66" text-anchor="middle" font-family="system-ui, sans-serif" font-size="9" fill="#868e96">PeakDensity grouping</text>
    <circle cx="0.0" cy="63.0" r="6" fill="white" stroke="#25537b" stroke-width="2"/>
    <circle cx="66.7" cy="98.0" r="6" fill="white" stroke="#25537b" stroke-width="2"/>
    <circle cx="133.3" cy="98.0" r="6" fill="white" stroke="#25537b" stroke-width="2"/>
  </g>
  <g filter="url(#wd-shadow)" transform="translate(20.0, 223.0)">
    <rect width="200.0" height="98.0" rx="4" fill="white" stroke="#25537b" stroke-width="1"/>
    <rect width="200.0" height="28" rx="4" fill="#25537b"/>
    <rect x="0" y="24" width="200.0" height="4" fill="#25537b"/>
    <text x="10" y="19" font-family="system-ui, sans-serif" font-size="11" fill="rgba(255,255,255,0.7)">5:</text>
    <text x="26" y="19" font-family="system-ui, sans-serif" font-size="11" font-weight="600" fill="white">adjustRtime</text>
    <text x="100.0" y="52" text-anchor="middle" font-family="system-ui, sans-serif" font-size="10" fill="#495057">RT correction</text>
    <text x="100.0" y="66" text-anchor="middle" font-family="system-ui, sans-serif" font-size="9" fill="#868e96">PeakGroups / loess</text>
    <circle cx="100.0" cy="0.0" r="6" fill="white" stroke="#25537b" stroke-width="2"/>
    <circle cx="200.0" cy="51.3" r="6" fill="white" stroke="#25537b" stroke-width="2"/>
    <circle cx="100.0" cy="98.0" r="6" fill="white" stroke="#25537b" stroke-width="2"/>
    <circle cx="200.0" cy="74.7" r="6" fill="white" stroke="#25537b" stroke-width="2"/>
  </g>
  <g filter="url(#wd-shadow)" transform="translate(270.0, 223.0)">
    <rect width="200.0" height="98.0" rx="4" fill="white" stroke="#25537b" stroke-width="1"/>
    <rect width="200.0" height="28" rx="4" fill="#25537b"/>
    <rect x="0" y="24" width="200.0" height="4" fill="#25537b"/>
    <text x="10" y="19" font-family="system-ui, sans-serif" font-size="11" fill="rgba(255,255,255,0.7)">6:</text>
    <text x="26" y="19" font-family="system-ui, sans-serif" font-size="11" font-weight="600" fill="white">groupChromPeaks</text>
    <text x="100.0" y="52" text-anchor="middle" font-family="system-ui, sans-serif" font-size="10" fill="#495057">Correspondence (2nd)</text>
    <text x="100.0" y="66" text-anchor="middle" font-family="system-ui, sans-serif" font-size="9" fill="#868e96">Re-group after alignment</text>
    <circle cx="0.0" cy="63.0" r="6" fill="white" stroke="#25537b" stroke-width="2"/>
    <circle cx="200.0" cy="63.0" r="6" fill="white" stroke="#25537b" stroke-width="2"/>
  </g>
  <g filter="url(#wd-shadow)" transform="translate(520.0, 223.0)">
    <rect width="200.0" height="98.0" rx="4" fill="white" stroke="#25537b" stroke-width="1"/>
    <rect width="200.0" height="28" rx="4" fill="#25537b"/>
    <rect x="0" y="24" width="200.0" height="4" fill="#25537b"/>
    <text x="10" y="19" font-family="system-ui, sans-serif" font-size="11" fill="rgba(255,255,255,0.7)">7:</text>
    <text x="26" y="19" font-family="system-ui, sans-serif" font-size="11" font-weight="600" fill="white">fillChromPeaks</text>
    <text x="100.0" y="52" text-anchor="middle" font-family="system-ui, sans-serif" font-size="10" fill="#495057">Gap-filling</text>
    <text x="100.0" y="66" text-anchor="middle" font-family="system-ui, sans-serif" font-size="9" fill="#868e96">Integrate missing peaks</text>
    <circle cx="0.0" cy="63.0" r="6" fill="white" stroke="#25537b" stroke-width="2"/>
    <circle cx="200.0" cy="63.0" r="6" fill="white" stroke="#25537b" stroke-width="2"/>
    <circle cx="100.0" cy="98.0" r="6" fill="white" stroke="#25537b" stroke-width="2"/>
  </g>
  <g filter="url(#wd-shadow)" transform="translate(770.0, 223.0)">
    <rect width="200.0" height="98.0" rx="4" fill="white" stroke="#25537b" stroke-width="1"/>
    <rect width="200.0" height="28" rx="4" fill="#25537b"/>
    <rect x="0" y="24" width="200.0" height="4" fill="#25537b"/>
    <text x="10" y="19" font-family="system-ui, sans-serif" font-size="11" fill="rgba(255,255,255,0.7)">8:</text>
    <text x="26" y="19" font-family="system-ui, sans-serif" font-size="11" font-weight="600" fill="white">CAMERA.annotate</text>
    <text x="100.0" y="52" text-anchor="middle" font-family="system-ui, sans-serif" font-size="10" fill="#495057">Annotate features</text>
    <text x="100.0" y="66" text-anchor="middle" font-family="system-ui, sans-serif" font-size="9" fill="#868e96">Isotopes &amp; adducts</text>
    <circle cx="0.0" cy="63.0" r="6" fill="white" stroke="#25537b" stroke-width="2"/>
    <circle cx="100.0" cy="98.0" r="6" fill="white" stroke="#25537b" stroke-width="2"/>
  </g>
  <g filter="url(#wd-shadow)" transform="translate(300.5, 381.0)">
    <rect width="139.0" height="64.0" rx="4" fill="white" stroke="#10b981" stroke-width="1.5"/>
    <rect width="139.0" height="24" rx="4" fill="#10b981"/>
    <rect x="0" y="20" width="139.0" height="4" fill="#10b981"/>
    <text x="10" y="15" font-family="system-ui, sans-serif" font-size="11" font-weight="600" fill="white">Raw Chromatograms</text>
    <text x="69.5" y="48" text-anchor="middle" font-family="system-ui, sans-serif" font-size="10" fill="#495057">TIC + BPI (PDF)</text>
    <circle cx="0.0" cy="44.0" r="5" fill="white" stroke="#10b981" stroke-width="2"/>
  </g>
  <g filter="url(#wd-shadow)" transform="translate(47.0, 381.0)">
    <rect width="146.0" height="64.0" rx="4" fill="white" stroke="#10b981" stroke-width="1.5"/>
    <rect width="146.0" height="24" rx="4" fill="#10b981"/>
    <rect x="0" y="20" width="146.0" height="4" fill="#10b981"/>
    <text x="10" y="15" font-family="system-ui, sans-serif" font-size="11" font-weight="600" fill="white">RT Correction Plot</text>
    <text x="73.0" y="48" text-anchor="middle" font-family="system-ui, sans-serif" font-size="10" fill="#495057">Raw vs adjusted (PDF)</text>
    <circle cx="0.0" cy="44.0" r="5" fill="white" stroke="#10b981" stroke-width="2"/>
  </g>
  <g filter="url(#wd-shadow)" transform="translate(283.0, 505.0)">
    <rect width="174.0" height="64.0" rx="4" fill="white" stroke="#10b981" stroke-width="1.5"/>
    <rect width="174.0" height="24" rx="4" fill="#10b981"/>
    <rect x="0" y="20" width="174.0" height="4" fill="#10b981"/>
    <text x="10" y="15" font-family="system-ui, sans-serif" font-size="11" font-weight="600" fill="white">Adjusted Chromatograms</text>
    <text x="87.0" y="48" text-anchor="middle" font-family="system-ui, sans-serif" font-size="10" fill="#495057">TIC + BPI (PDF)</text>
    <circle cx="0.0" cy="44.0" r="5" fill="white" stroke="#10b981" stroke-width="2"/>
  </g>
  <g filter="url(#wd-shadow)" transform="translate(1057.5, 381.0)">
    <rect width="125.0" height="64.0" rx="4" fill="white" stroke="#10b981" stroke-width="1.5"/>
    <rect width="125.0" height="24" rx="4" fill="#10b981"/>
    <rect x="0" y="20" width="125.0" height="4" fill="#10b981"/>
    <text x="10" y="15" font-family="system-ui, sans-serif" font-size="11" font-weight="600" fill="white">Intensity Check</text>
    <text x="62.5" y="48" text-anchor="middle" font-family="system-ui, sans-serif" font-size="10" fill="#495057">QC per class (PDF)</text>
    <circle cx="0.0" cy="44.0" r="5" fill="white" stroke="#10b981" stroke-width="2"/>
  </g>
  <g filter="url(#wd-shadow)" transform="translate(550.0, 381.0)">
    <rect width="140.0" height="64.0" rx="4" fill="white" stroke="#f97316" stroke-width="1.5"/>
    <rect width="140.0" height="24" rx="4" fill="#f97316"/>
    <rect x="0" y="20" width="140.0" height="4" fill="#f97316"/>
    <text x="10" y="15" font-family="system-ui, sans-serif" font-size="11" font-weight="600" fill="white">Data Matrix</text>
    <text x="70.0" y="48" text-anchor="middle" font-family="system-ui, sans-serif" font-size="10" fill="#495057">Peak intensity table</text>
    <circle cx="0.0" cy="44.0" r="5" fill="white" stroke="#f97316" stroke-width="2"/>
  </g>
  <g filter="url(#wd-shadow)" transform="translate(792.0, 381.0)">
    <rect width="156.0" height="64.0" rx="4" fill="white" stroke="#f97316" stroke-width="1.5"/>
    <rect width="156.0" height="24" rx="4" fill="#f97316"/>
    <rect x="0" y="20" width="156.0" height="4" fill="#f97316"/>
    <text x="10" y="15" font-family="system-ui, sans-serif" font-size="11" font-weight="600" fill="white">Variable Metadata</text>
    <text x="78.0" y="48" text-anchor="middle" font-family="system-ui, sans-serif" font-size="10" fill="#495057">Annotated features</text>
    <circle cx="0.0" cy="44.0" r="5" fill="white" stroke="#f97316" stroke-width="2"/>
  </g>
  <g transform="translate(20, 604)">
    <text x="0" y="0" font-family="system-ui, sans-serif" font-size="10" font-weight="600" fill="#495057">Legend:</text>
    <rect x="60" y="-10" width="14" height="14" rx="2" fill="white" stroke="#ffd700" stroke-width="1.5"/>
    <text x="80" y="0" font-family="system-ui, sans-serif" font-size="9" fill="#6c757d">Input</text>
    <line x1="180" y1="-4" x2="220" y2="-4" stroke="#25537b" stroke-width="4" stroke-linecap="round"/>
    <text x="228" y="0" font-family="system-ui, sans-serif" font-size="9" fill="#6c757d">Data flow</text>
    <line x1="300" y1="-4" x2="340" y2="-4" stroke="#25537b" stroke-width="3" stroke-linecap="round"/>
    <text x="348" y="0" font-family="system-ui, sans-serif" font-size="9" fill="#6c757d">Secondary</text>
    <line x1="420" y1="-4" x2="460" y2="-4" stroke="#25537b" stroke-width="3" stroke-linecap="round" stroke-dasharray="5 3"/>
    <text x="468" y="0" font-family="system-ui, sans-serif" font-size="9" fill="#6c757d">QC metrics</text>
    <rect x="540" y="-10" width="14" height="14" rx="2" fill="white" stroke="#f97316" stroke-width="1.5"/>
    <text x="560" y="0" font-family="system-ui, sans-serif" font-size="9" fill="#6c757d">Output</text>
    <rect x="660" y="-10" width="14" height="14" rx="2" fill="white" stroke="#10b981" stroke-width="1.5"/>
    <text x="680" y="0" font-family="system-ui, sans-serif" font-size="9" fill="#6c757d">Report</text>
  </g>
</svg>