<svg xmlns="http://www.w3.org/2000/svg" viewBox="0 0 1100 460" role="img" aria-label="MGnify amplicon pipeline v5 quality control paired-end workflow diagram">
  <title>MGnify Amplicon Pipeline v5.0 - Quality Control PE</title>
  <desc>Quality control subworkflow for paired-end reads: fastp preprocessing, SeqPrep merging, Trimmomatic trimming, length filtering, PRINSEQ ambiguity filtering, and MultiQC reporting.</desc>
  <defs>
    <pattern id="grid" width="20" height="20" patternUnits="userSpaceOnUse">
      <path d="M 20 0 L 0 0 0 20" fill="none" stroke="#c5d5e4" stroke-width="0.5"/>
    </pattern>
    <pattern id="grid-major" width="100" height="100" patternUnits="userSpaceOnUse">
      <rect width="100" height="100" fill="url(#grid)"/>
      <path d="M 100 0 L 0 0 0 100" fill="none" stroke="#b0c4d8" stroke-width="1"/>
    </pattern>
    <style>
      .connection { stroke: #25537b; stroke-width: 4; fill: none; stroke-linecap: round; }
      .connection-qc { stroke: #25537b; stroke-width: 3; fill: none; stroke-linecap: round; stroke-dasharray: 5 3; }
      .connection-secondary { stroke: #25537b; stroke-width: 3; fill: none; stroke-linecap: round; }
      .node-card { filter: drop-shadow(1px 2px 3px rgba(0,0,0,0.15)); }
    </style>
  </defs>
  <rect width="1100" height="460" fill="#f8f9fa"/>
  <rect width="1100" height="460" fill="url(#grid-major)"/>
  <rect x="0" y="0" width="1100" height="45" fill="#25537b"/>
  <text x="20" y="28" font-family="system-ui, sans-serif" font-size="16" font-weight="600" fill="white">MGnify Amplicon Pipeline v5.0 - Quality Control (Paired-End)</text>

  <!-- CONNECTIONS -->
  <!-- Input -> fastp -->
  <path d="M 180 115 C 215 115, 215 115, 240 115" class="connection"/>
  <!-- fastp -> SeqPrep -->
  <path d="M 440 115 C 470 115, 470 115, 490 115" class="connection"/>
  <!-- SeqPrep -> Trimmomatic -->
  <path d="M 690 115 C 720 115, 720 115, 740 115" class="connection"/>
  <!-- Trimmomatic -> Length Filtering -->
  <path d="M 940 115 C 965 115, 965 115, 740 115" class="connection" style="opacity:0"/>

  <!-- Row 2 connections -->
  <!-- Trimmomatic -> Length Filtering (wraps to row 2) -->
  <path d="M 940 155 C 960 200, 50 200, 30 235" class="connection"/>
  <!-- Length Filtering -> PRINSEQ -->
  <path d="M 230 265 C 260 265, 260 265, 280 265" class="connection"/>
  <!-- PRINSEQ -> FASTA output -->
  <path d="M 480 265 C 520 265, 520 340, 430 350" class="connection"/>

  <!-- QC: FastQC at each stage -> MultiQC -->
  <path d="M 180 130 C 210 180, 210 290, 280 290" class="connection-qc" style="opacity:0"/>

  <!-- NODES -->
  <!-- Input: Paired-end reads -->
  <g class="node-card" transform="translate(20,80)">
    <rect width="180" height="70" rx="4" fill="white" stroke="#ffd700" stroke-width="1.5"/>
    <rect width="180" height="28" rx="4" fill="#ffd700"/>
    <rect x="0" y="24" width="180" height="4" fill="#ffd700"/>
    <text x="10" y="19" font-family="system-ui, sans-serif" font-size="11" fill="rgba(44,49,67,0.6)">1:</text>
    <text x="24" y="19" font-family="system-ui, sans-serif" font-size="11" font-weight="600" fill="#2C3143">Paired-end Reads</text>
    <text x="90" y="52" text-anchor="middle" font-family="system-ui, sans-serif" font-size="10" fill="#495057">list:paired collection</text>
    <circle cx="180" cy="35" r="6" fill="white" stroke="#ffd700" stroke-width="2"/>
  </g>

  <!-- fastp -->
  <g class="node-card" transform="translate(240,80)">
    <rect width="200" height="90" rx="4" fill="white" stroke="#25537b" stroke-width="1"/>
    <rect width="200" height="28" rx="4" fill="#25537b"/>
    <rect x="0" y="24" width="200" height="4" fill="#25537b"/>
    <text x="10" y="19" font-family="system-ui, sans-serif" font-size="11" fill="rgba(255,255,255,0.7)">2:</text>
    <text x="26" y="19" font-family="system-ui, sans-serif" font-size="11" font-weight="600" fill="white">fastp</text>
    <text x="100" y="52" text-anchor="middle" font-family="system-ui, sans-serif" font-size="10" fill="#495057">Quality filtering + trimming</text>
    <text x="100" y="66" text-anchor="middle" font-family="system-ui, sans-serif" font-size="9" fill="#868e96">Adapter removal, base correction</text>
    <circle cx="0" cy="45" r="6" fill="white" stroke="#25537b" stroke-width="2"/>
    <circle cx="200" cy="45" r="6" fill="white" stroke="#25537b" stroke-width="2"/>
  </g>

  <!-- SeqPrep (merge pairs) -->
  <g class="node-card" transform="translate(490,80)">
    <rect width="200" height="90" rx="4" fill="white" stroke="#25537b" stroke-width="1"/>
    <rect width="200" height="28" rx="4" fill="#25537b"/>
    <rect x="0" y="24" width="200" height="4" fill="#25537b"/>
    <text x="10" y="19" font-family="system-ui, sans-serif" font-size="11" fill="rgba(255,255,255,0.7)">3:</text>
    <text x="26" y="19" font-family="system-ui, sans-serif" font-size="11" font-weight="600" fill="white">SeqPrep (Merge)</text>
    <text x="100" y="52" text-anchor="middle" font-family="system-ui, sans-serif" font-size="10" fill="#495057">Merge overlapping pairs</text>
    <text x="100" y="66" text-anchor="middle" font-family="system-ui, sans-serif" font-size="9" fill="#868e96">MGnify-modified SeqPrep</text>
    <circle cx="0" cy="45" r="6" fill="white" stroke="#25537b" stroke-width="2"/>
    <circle cx="200" cy="45" r="6" fill="white" stroke="#25537b" stroke-width="2"/>
  </g>

  <!-- Trimmomatic -->
  <g class="node-card" transform="translate(740,80)">
    <rect width="200" height="90" rx="4" fill="white" stroke="#25537b" stroke-width="1"/>
    <rect width="200" height="28" rx="4" fill="#25537b"/>
    <rect x="0" y="24" width="200" height="4" fill="#25537b"/>
    <text x="10" y="19" font-family="system-ui, sans-serif" font-size="11" fill="rgba(255,255,255,0.7)">4:</text>
    <text x="26" y="19" font-family="system-ui, sans-serif" font-size="11" font-weight="600" fill="white">Trimmomatic</text>
    <text x="100" y="52" text-anchor="middle" font-family="system-ui, sans-serif" font-size="10" fill="#495057">Quality trimming (merged)</text>
    <text x="100" y="66" text-anchor="middle" font-family="system-ui, sans-serif" font-size="9" fill="#868e96">Sliding window + LEADING/TRAILING</text>
    <circle cx="0" cy="45" r="6" fill="white" stroke="#25537b" stroke-width="2"/>
    <circle cx="200" cy="45" r="6" fill="white" stroke="#25537b" stroke-width="2"/>
  </g>

  <!-- Row 2 -->
  <!-- Length Filtering -->
  <g class="node-card" transform="translate(30,230)">
    <rect width="200" height="90" rx="4" fill="white" stroke="#25537b" stroke-width="1"/>
    <rect width="200" height="28" rx="4" fill="#25537b"/>
    <rect x="0" y="24" width="200" height="4" fill="#25537b"/>
    <text x="10" y="19" font-family="system-ui, sans-serif" font-size="11" fill="rgba(255,255,255,0.7)">5:</text>
    <text x="26" y="19" font-family="system-ui, sans-serif" font-size="11" font-weight="600" fill="white">Length Filtering</text>
    <text x="100" y="52" text-anchor="middle" font-family="system-ui, sans-serif" font-size="10" fill="#495057">Filter FASTQ by size</text>
    <text x="100" y="66" text-anchor="middle" font-family="system-ui, sans-serif" font-size="9" fill="#868e96">Min length threshold</text>
    <circle cx="0" cy="45" r="6" fill="white" stroke="#25537b" stroke-width="2"/>
    <circle cx="200" cy="45" r="6" fill="white" stroke="#25537b" stroke-width="2"/>
  </g>

  <!-- PRINSEQ -->
  <g class="node-card" transform="translate(280,230)">
    <rect width="200" height="90" rx="4" fill="white" stroke="#25537b" stroke-width="1"/>
    <rect width="200" height="28" rx="4" fill="#25537b"/>
    <rect x="0" y="24" width="200" height="4" fill="#25537b"/>
    <text x="10" y="19" font-family="system-ui, sans-serif" font-size="11" fill="rgba(255,255,255,0.7)">6:</text>
    <text x="26" y="19" font-family="system-ui, sans-serif" font-size="11" font-weight="600" fill="white">PRINSEQ</text>
    <text x="100" y="52" text-anchor="middle" font-family="system-ui, sans-serif" font-size="10" fill="#495057">Ambiguity filtering</text>
    <text x="100" y="66" text-anchor="middle" font-family="system-ui, sans-serif" font-size="9" fill="#868e96">N-base percentage filter</text>
    <circle cx="0" cy="45" r="6" fill="white" stroke="#25537b" stroke-width="2"/>
    <circle cx="200" cy="45" r="6" fill="white" stroke="#25537b" stroke-width="2"/>
  </g>

  <!-- FastQC (grouped) -->
  <g class="node-card" transform="translate(580,230)">
    <rect width="200" height="60" rx="4" fill="white" stroke="#10b981" stroke-width="1"/>
    <rect width="200" height="28" rx="4" fill="#10b981"/>
    <rect x="0" y="24" width="200" height="4" fill="#10b981"/>
    <text x="10" y="19" font-family="system-ui, sans-serif" font-size="11" fill="rgba(255,255,255,0.7)">7:</text>
    <text x="26" y="19" font-family="system-ui, sans-serif" font-size="11" font-weight="600" fill="white">FastQC (x4 stages)</text>
    <text x="100" y="48" text-anchor="middle" font-family="system-ui, sans-serif" font-size="10" fill="#495057">Quality assessment at each step</text>
    <circle cx="0" cy="30" r="6" fill="white" stroke="#10b981" stroke-width="2"/>
    <circle cx="200" cy="30" r="6" fill="white" stroke="#10b981" stroke-width="2"/>
  </g>

  <!-- Outputs -->
  <g class="node-card" transform="translate(250,345)">
    <rect width="200" height="50" rx="4" fill="white" stroke="#f97316" stroke-width="1.5"/>
    <rect width="200" height="20" rx="4" fill="#f97316"/>
    <rect x="0" y="16" width="200" height="4" fill="#f97316"/>
    <text x="100" y="14" text-anchor="middle" font-family="system-ui, sans-serif" font-size="10" font-weight="600" fill="white">PE QC FASTA Files</text>
    <text x="100" y="38" text-anchor="middle" font-family="system-ui, sans-serif" font-size="8" fill="#868e96">fasta</text>
    <circle cx="0" cy="25" r="5" fill="white" stroke="#f97316" stroke-width="2"/>
  </g>

  <g class="node-card" transform="translate(560,345)">
    <rect width="200" height="50" rx="4" fill="white" stroke="#10b981" stroke-width="1.5"/>
    <rect width="200" height="20" rx="4" fill="#10b981"/>
    <rect x="0" y="16" width="200" height="4" fill="#10b981"/>
    <text x="100" y="14" text-anchor="middle" font-family="system-ui, sans-serif" font-size="10" font-weight="600" fill="white">MultiQC Report</text>
    <text x="100" y="38" text-anchor="middle" font-family="system-ui, sans-serif" font-size="8" fill="#868e96">html + statistics</text>
    <circle cx="0" cy="25" r="5" fill="white" stroke="#10b981" stroke-width="2"/>
  </g>

  <!-- Output connections -->
  <path d="M 680 290 C 680 320, 660 345, 660 345" class="connection-qc"/>

  <!-- Legend -->
  <g transform="translate(20,435)">
    <text x="0" y="0" font-family="system-ui, sans-serif" font-size="10" font-weight="600" fill="#495057">Legend:</text>
    <rect x="60" y="-10" width="14" height="14" rx="2" fill="white" stroke="#ffd700" stroke-width="1.5"/>
    <text x="80" y="0" font-family="system-ui, sans-serif" font-size="9" fill="#6c757d">Input</text>
    <line x1="120" y1="-4" x2="160" y2="-4" stroke="#25537b" stroke-width="4" stroke-linecap="round"/>
    <text x="168" y="0" font-family="system-ui, sans-serif" font-size="9" fill="#6c757d">Data flow</text>
    <line x1="240" y1="-4" x2="280" y2="-4" stroke="#25537b" stroke-width="3" stroke-linecap="round" stroke-dasharray="5 3"/>
    <text x="288" y="0" font-family="system-ui, sans-serif" font-size="9" fill="#6c757d">QC metrics</text>
    <rect x="360" y="-10" width="14" height="14" rx="2" fill="white" stroke="#f97316" stroke-width="1.5"/>
    <text x="380" y="0" font-family="system-ui, sans-serif" font-size="9" fill="#6c757d">Output</text>
    <rect x="430" y="-10" width="14" height="14" rx="2" fill="white" stroke="#10b981" stroke-width="1.5"/>
    <text x="450" y="0" font-family="system-ui, sans-serif" font-size="9" fill="#6c757d">Report</text>
  </g>
</svg>