<svg viewBox="0 0 1770 487" aria-label="dcTMD with GROMACS" role="img" xmlns="http://www.w3.org/2000/svg">
  <title>dcTMD with GROMACS</title>
  <defs>
    <pattern id="wd-grid" width="20" height="20" patternUnits="userSpaceOnUse">
      <path d="M 20 0 L 0 0 0 20" fill="none" stroke="#c5d5e4" stroke-width="0.5"/>
    </pattern>
    <pattern id="wd-grid-major" width="100" height="100" patternUnits="userSpaceOnUse">
      <rect width="100" height="100" fill="url(#wd-grid)"/>
      <path d="M 100 0 L 0 0 0 100" fill="none" stroke="#b0c4d8" stroke-width="1"/>
    </pattern>
    <filter id="wd-shadow" x="-5%" y="-5%" width="115%" height="115%">
      <feDropShadow dx="1" dy="2" stdDeviation="1.5" flood-opacity="0.15"/>
    </filter>
  </defs>
  <rect width="1770" height="487" fill="#f8f9fa"/>
  <rect width="1770" height="487" fill="url(#wd-grid-major)"/>
  <rect x="0" y="0" width="1770" height="45" fill="#25537b"/>
  <text x="20" y="28" font-family="system-ui, sans-serif" font-size="16" font-weight="600" fill="white">dcTMD with GROMACS</text>
  <text x="20" y="40" font-family="system-ui, sans-serif" font-size="10" fill="rgba(255,255,255,0.7)">Dissipation-corrected targeted MD free energy calculations</text>
  <path d="M 219.0 121.0 C 249.0 121.0, 258.0 107.0, 288.0 107.0" stroke="#25537b" fill="none" stroke-linecap="round" stroke-width="4"/>
  <path d="M 219.0 265.0 C 249.0 265.0, 258.0 121.0, 288.0 121.0" stroke="#25537b" fill="none" stroke-linecap="round" stroke-width="4"/>
  <path d="M 238.0 409.0 C 268.0 409.0, 258.0 135.0, 288.0 135.0" stroke="#25537b" fill="none" stroke-linecap="round" stroke-width="3"/>
  <path d="M 494.0 121.0 C 524.0 121.0, 514.0 121.0, 544.0 121.0" stroke="#25537b" fill="none" stroke-linecap="round" stroke-width="4"/>
  <path d="M 744.0 121.0 C 774.0 121.0, 764.0 121.0, 794.0 121.0" stroke="#25537b" fill="none" stroke-linecap="round" stroke-width="4"/>
  <path d="M 1000.0 121.0 C 1030.0 121.0, 1020.0 121.0, 1050.0 121.0" stroke="#25537b" fill="none" stroke-linecap="round" stroke-width="4"/>
  <path d="M 1250.0 111.7 C 1280.0 111.7, 1270.0 121.0, 1300.0 121.0" stroke="#25537b" fill="none" stroke-linecap="round" stroke-width="4"/>
  <path d="M 1250.0 130.3 C 1372.4 130.3, 1433.6 109.0, 1556.0 109.0" stroke="#25537b" fill="none" stroke-linecap="round" stroke-width="4"/>
  <path d="M 1506.0 121.0 C 1536.0 121.0, 1532.0 253.0, 1562.0 253.0" stroke="#25537b" fill="none" stroke-linecap="round" stroke-width="4"/>
  <g filter="url(#wd-shadow)" transform="translate(39.0, 65.0)">
    <rect width="180.0" height="84.0" rx="4" fill="white" stroke="#ffd700" stroke-width="1.5"/>
    <rect width="180.0" height="28" rx="4" fill="#ffd700"/>
    <rect x="0" y="24" width="180.0" height="4" fill="#ffd700"/>
    <text x="10" y="19" font-family="system-ui, sans-serif" font-size="11" font-weight="600" fill="#2C3143">Ligand SDF</text>
    <text x="90.0" y="52" text-anchor="middle" font-family="system-ui, sans-serif" font-size="10" fill="#495057">Small molecule structure</text>
    <circle cx="180.0" cy="56.0" r="6" fill="white" stroke="#ffd700" stroke-width="2"/>
  </g>
  <g filter="url(#wd-shadow)" transform="translate(39.0, 209.0)">
    <rect width="180.0" height="84.0" rx="4" fill="white" stroke="#ffd700" stroke-width="1.5"/>
    <rect width="180.0" height="28" rx="4" fill="#ffd700"/>
    <rect x="0" y="24" width="180.0" height="4" fill="#ffd700"/>
    <text x="10" y="19" font-family="system-ui, sans-serif" font-size="11" font-weight="600" fill="#2C3143">Protein PDB</text>
    <text x="90.0" y="52" text-anchor="middle" font-family="system-ui, sans-serif" font-size="10" fill="#495057">Apoprotein structure</text>
    <circle cx="180.0" cy="56.0" r="6" fill="white" stroke="#ffd700" stroke-width="2"/>
  </g>
  <g filter="url(#wd-shadow)" transform="translate(20.0, 353.0)">
    <rect width="218.0" height="84.0" rx="4" fill="white" stroke="#ffd700" stroke-width="1.5"/>
    <rect width="218.0" height="28" rx="4" fill="#ffd700"/>
    <rect x="0" y="24" width="218.0" height="4" fill="#ffd700"/>
    <text x="10" y="19" font-family="system-ui, sans-serif" font-size="11" font-weight="600" fill="#2C3143">Simulation Parameters</text>
    <text x="109.0" y="52" text-anchor="middle" font-family="system-ui, sans-serif" font-size="10" fill="#495057">Force field, water, temperature</text>
    <circle cx="218.0" cy="56.0" r="6" fill="white" stroke="#ffd700" stroke-width="2"/>
  </g>
  <g filter="url(#wd-shadow)" transform="translate(288.0, 65.0)">
    <rect width="206.0" height="84.0" rx="4" fill="white" stroke="#25537b" stroke-width="1"/>
    <rect width="206.0" height="28" rx="4" fill="#25537b"/>
    <rect x="0" y="24" width="206.0" height="4" fill="#25537b"/>
    <text x="10" y="19" font-family="system-ui, sans-serif" font-size="11" fill="rgba(255,255,255,0.7)">1:</text>
    <text x="26" y="19" font-family="system-ui, sans-serif" font-size="11" font-weight="600" fill="white">Parameterize Complex</text>
    <text x="103.0" y="52" text-anchor="middle" font-family="system-ui, sans-serif" font-size="10" fill="#495057">GRO/TOP from ligand + protein</text>
    <circle cx="0.0" cy="42.0" r="6" fill="white" stroke="#25537b" stroke-width="2"/>
    <circle cx="0.0" cy="56.0" r="6" fill="white" stroke="#25537b" stroke-width="2"/>
    <circle cx="0.0" cy="70.0" r="6" fill="white" stroke="#25537b" stroke-width="2"/>
    <circle cx="206.0" cy="56.0" r="6" fill="white" stroke="#25537b" stroke-width="2"/>
  </g>
  <g filter="url(#wd-shadow)" transform="translate(544.0, 65.0)">
    <rect width="200.0" height="84.0" rx="4" fill="white" stroke="#25537b" stroke-width="1"/>
    <rect width="200.0" height="28" rx="4" fill="#25537b"/>
    <rect x="0" y="24" width="200.0" height="4" fill="#25537b"/>
    <text x="10" y="19" font-family="system-ui, sans-serif" font-size="11" fill="rgba(255,255,255,0.7)">2:</text>
    <text x="26" y="19" font-family="system-ui, sans-serif" font-size="11" font-weight="600" fill="white">Solvate &amp; Ionize</text>
    <text x="100.0" y="52" text-anchor="middle" font-family="system-ui, sans-serif" font-size="10" fill="#495057">Add water box and ions</text>
    <circle cx="0.0" cy="56.0" r="6" fill="white" stroke="#25537b" stroke-width="2"/>
    <circle cx="200.0" cy="56.0" r="6" fill="white" stroke="#25537b" stroke-width="2"/>
  </g>
  <g filter="url(#wd-shadow)" transform="translate(794.0, 65.0)">
    <rect width="206.0" height="84.0" rx="4" fill="white" stroke="#25537b" stroke-width="1"/>
    <rect width="206.0" height="28" rx="4" fill="#25537b"/>
    <rect x="0" y="24" width="206.0" height="4" fill="#25537b"/>
    <text x="10" y="19" font-family="system-ui, sans-serif" font-size="11" fill="rgba(255,255,255,0.7)">3:</text>
    <text x="26" y="19" font-family="system-ui, sans-serif" font-size="11" font-weight="600" fill="white">Equilibration</text>
    <text x="103.0" y="52" text-anchor="middle" font-family="system-ui, sans-serif" font-size="10" fill="#495057">Energy minimization + NVT/NPT</text>
    <circle cx="0.0" cy="56.0" r="6" fill="white" stroke="#25537b" stroke-width="2"/>
    <circle cx="206.0" cy="56.0" r="6" fill="white" stroke="#25537b" stroke-width="2"/>
  </g>
  <g filter="url(#wd-shadow)" transform="translate(1050.0, 65.0)">
    <rect width="200.0" height="84.0" rx="4" fill="white" stroke="#25537b" stroke-width="1"/>
    <rect width="200.0" height="28" rx="4" fill="#25537b"/>
    <rect x="0" y="24" width="200.0" height="4" fill="#25537b"/>
    <text x="10" y="19" font-family="system-ui, sans-serif" font-size="11" fill="rgba(255,255,255,0.7)">4:</text>
    <text x="26" y="19" font-family="system-ui, sans-serif" font-size="11" font-weight="600" fill="white">TMD Ensemble</text>
    <text x="100.0" y="52" text-anchor="middle" font-family="system-ui, sans-serif" font-size="10" fill="#495057">Targeted MD production runs</text>
    <circle cx="0.0" cy="56.0" r="6" fill="white" stroke="#25537b" stroke-width="2"/>
    <circle cx="200.0" cy="46.7" r="6" fill="white" stroke="#25537b" stroke-width="2"/>
    <circle cx="200.0" cy="65.3" r="6" fill="white" stroke="#25537b" stroke-width="2"/>
  </g>
  <g filter="url(#wd-shadow)" transform="translate(1300.0, 65.0)">
    <rect width="206.0" height="84.0" rx="4" fill="white" stroke="#25537b" stroke-width="1"/>
    <rect width="206.0" height="28" rx="4" fill="#25537b"/>
    <rect x="0" y="24" width="206.0" height="4" fill="#25537b"/>
    <text x="10" y="19" font-family="system-ui, sans-serif" font-size="11" fill="rgba(255,255,255,0.7)">5:</text>
    <text x="26" y="19" font-family="system-ui, sans-serif" font-size="11" font-weight="600" fill="white">dcTMD Analysis</text>
    <text x="103.0" y="52" text-anchor="middle" font-family="system-ui, sans-serif" font-size="10" fill="#495057">Friction and free energy calc</text>
    <circle cx="0.0" cy="56.0" r="6" fill="white" stroke="#25537b" stroke-width="2"/>
    <circle cx="206.0" cy="56.0" r="6" fill="white" stroke="#25537b" stroke-width="2"/>
  </g>
  <g filter="url(#wd-shadow)" transform="translate(1556.0, 65.0)">
    <rect width="194.0" height="64.0" rx="4" fill="white" stroke="#f97316" stroke-width="1.5"/>
    <rect width="194.0" height="24" rx="4" fill="#f97316"/>
    <rect x="0" y="20" width="194.0" height="4" fill="#f97316"/>
    <text x="10" y="15" font-family="system-ui, sans-serif" font-size="11" font-weight="600" fill="white">XVG Files</text>
    <text x="97.0" y="48" text-anchor="middle" font-family="system-ui, sans-serif" font-size="10" fill="#495057">Force/distance trajectories</text>
    <circle cx="0.0" cy="44.0" r="5" fill="white" stroke="#f97316" stroke-width="2"/>
  </g>
  <g filter="url(#wd-shadow)" transform="translate(1562.0, 209.0)">
    <rect width="182.0" height="64.0" rx="4" fill="white" stroke="#f97316" stroke-width="1.5"/>
    <rect width="182.0" height="24" rx="4" fill="#f97316"/>
    <rect x="0" y="20" width="182.0" height="4" fill="#f97316"/>
    <text x="10" y="15" font-family="system-ui, sans-serif" font-size="11" font-weight="600" fill="white">Friction Data</text>
    <text x="91.0" y="48" text-anchor="middle" font-family="system-ui, sans-serif" font-size="10" fill="#495057">dcTMD free energy results</text>
    <circle cx="0.0" cy="44.0" r="5" fill="white" stroke="#f97316" stroke-width="2"/>
  </g>
  <g transform="translate(20, 472)">
    <text x="0" y="0" font-family="system-ui, sans-serif" font-size="10" font-weight="600" fill="#495057">Legend:</text>
    <rect x="60" y="-10" width="14" height="14" rx="2" fill="white" stroke="#ffd700" stroke-width="1.5"/>
    <text x="80" y="0" font-family="system-ui, sans-serif" font-size="9" fill="#6c757d">Input</text>
    <line x1="180" y1="-4" x2="220" y2="-4" stroke="#25537b" stroke-width="4" stroke-linecap="round"/>
    <text x="228" y="0" font-family="system-ui, sans-serif" font-size="9" fill="#6c757d">Data flow</text>
    <line x1="300" y1="-4" x2="340" y2="-4" stroke="#25537b" stroke-width="3" stroke-linecap="round"/>
    <text x="348" y="0" font-family="system-ui, sans-serif" font-size="9" fill="#6c757d">Secondary</text>
    <rect x="420" y="-10" width="14" height="14" rx="2" fill="white" stroke="#f97316" stroke-width="1.5"/>
    <text x="440" y="0" font-family="system-ui, sans-serif" font-size="9" fill="#6c757d">Output</text>
  </g>
</svg>