<svg viewBox="0 0 1234 501" aria-label="COVID-19: Variation Analysis Reporting" role="img" xmlns="http://www.w3.org/2000/svg">
  <title>COVID-19: Variation Analysis Reporting</title>
  <defs>
    <pattern id="wd-grid" width="20" height="20" patternUnits="userSpaceOnUse">
      <path d="M 20 0 L 0 0 0 20" fill="none" stroke="#c5d5e4" stroke-width="0.5"/>
    </pattern>
    <pattern id="wd-grid-major" width="100" height="100" patternUnits="userSpaceOnUse">
      <rect width="100" height="100" fill="url(#wd-grid)"/>
      <path d="M 100 0 L 0 0 0 100" fill="none" stroke="#b0c4d8" stroke-width="1"/>
    </pattern>
    <filter id="wd-shadow" x="-5%" y="-5%" width="115%" height="115%">
      <feDropShadow dx="1" dy="2" stdDeviation="1.5" flood-opacity="0.15"/>
    </filter>
  </defs>
  <rect width="1234" height="501" fill="#f8f9fa"/>
  <rect width="1234" height="501" fill="url(#wd-grid-major)"/>
  <rect x="0" y="0" width="1234" height="45" fill="#25537b"/>
  <text x="20" y="28" font-family="system-ui, sans-serif" font-size="16" font-weight="600" fill="white">COVID-19: Variation Analysis Reporting</text>
  <path d="M 201.0 128.0 C 231.0 128.0, 222.0 111.7, 252.0 111.7" stroke="#25537b" fill="none" stroke-linecap="round" stroke-width="4"/>
  <path d="M 202.0 279.0 C 232.0 279.0, 222.0 130.3, 252.0 130.3" stroke="#25537b" fill="none" stroke-linecap="round" stroke-width="3"/>
  <path d="M 452.0 121.0 C 482.0 121.0, 472.0 111.7, 502.0 111.7" stroke="#25537b" fill="none" stroke-linecap="round" stroke-width="4"/>
  <path d="M 201.0 423.0 C 321.4 423.0, 381.6 130.3, 502.0 130.3" stroke="#25537b" fill="none" stroke-linecap="round" stroke-width="3"/>
  <path d="M 714.0 121.0 C 744.0 121.0, 734.0 121.0, 764.0 121.0" stroke="#25537b" fill="none" stroke-linecap="round" stroke-width="4"/>
  <path d="M 970.0 107.0 C 1000.0 107.0, 1014.0 109.0, 1044.0 109.0" stroke="#25537b" fill="none" stroke-linecap="round" stroke-width="4"/>
  <path d="M 970.0 121.0 C 1000.0 121.0, 1014.0 267.0, 1044.0 267.0" stroke="#25537b" fill="none" stroke-linecap="round" stroke-width="4"/>
  <path d="M 970.0 135.0 C 1000.0 135.0, 990.0 411.0, 1020.0 411.0" stroke="#25537b" fill="none" stroke-linecap="round" stroke-width="3" stroke-dasharray="5 3"/>
  <g filter="url(#wd-shadow)" transform="translate(21.0, 65.0)">
    <rect width="180.0" height="98.0" rx="4" fill="white" stroke="#ffd700" stroke-width="1.5"/>
    <rect width="180.0" height="28" rx="4" fill="#ffd700"/>
    <rect x="0" y="24" width="180.0" height="4" fill="#ffd700"/>
    <text x="10" y="19" font-family="system-ui, sans-serif" font-size="11" font-weight="600" fill="#2C3143">Variant VCF Data</text>
    <text x="90.0" y="52" text-anchor="middle" font-family="system-ui, sans-serif" font-size="10" fill="#495057">list collection</text>
    <text x="90.0" y="66" text-anchor="middle" font-family="system-ui, sans-serif" font-size="9" fill="#868e96">From variant calling</text>
    <circle cx="180.0" cy="63.0" r="6" fill="white" stroke="#ffd700" stroke-width="2"/>
  </g>
  <g filter="url(#wd-shadow)" transform="translate(20.0, 223.0)">
    <rect width="182.0" height="84.0" rx="4" fill="white" stroke="#ffd700" stroke-width="1.5"/>
    <rect width="182.0" height="28" rx="4" fill="#ffd700"/>
    <rect x="0" y="24" width="182.0" height="4" fill="#ffd700"/>
    <text x="10" y="19" font-family="system-ui, sans-serif" font-size="11" font-weight="600" fill="#2C3143">Filter Parameters</text>
    <text x="91.0" y="52" text-anchor="middle" font-family="system-ui, sans-serif" font-size="10" fill="#495057">AF, DP, DP_ALT thresholds</text>
    <circle cx="182.0" cy="56.0" r="6" fill="white" stroke="#ffd700" stroke-width="2"/>
  </g>
  <g filter="url(#wd-shadow)" transform="translate(21.0, 367.0)">
    <rect width="180.0" height="84.0" rx="4" fill="white" stroke="#ffd700" stroke-width="1.5"/>
    <rect width="180.0" height="28" rx="4" fill="#ffd700"/>
    <rect x="0" y="24" width="180.0" height="4" fill="#ffd700"/>
    <text x="10" y="19" font-family="system-ui, sans-serif" font-size="11" font-weight="600" fill="#2C3143">Gene Products Map</text>
    <text x="90.0" y="52" text-anchor="middle" font-family="system-ui, sans-serif" font-size="10" fill="#495057">RefSeq to common names</text>
    <circle cx="180.0" cy="56.0" r="6" fill="white" stroke="#ffd700" stroke-width="2"/>
  </g>
  <g filter="url(#wd-shadow)" transform="translate(252.0, 65.0)">
    <rect width="200.0" height="84.0" rx="4" fill="white" stroke="#25537b" stroke-width="1"/>
    <rect width="200.0" height="28" rx="4" fill="#25537b"/>
    <rect x="0" y="24" width="200.0" height="4" fill="#25537b"/>
    <text x="10" y="19" font-family="system-ui, sans-serif" font-size="11" fill="rgba(255,255,255,0.7)">1:</text>
    <text x="26" y="19" font-family="system-ui, sans-serif" font-size="11" font-weight="600" fill="white">SnpSift Filter</text>
    <text x="100.0" y="52" text-anchor="middle" font-family="system-ui, sans-serif" font-size="10" fill="#495057">Apply AF/DP thresholds</text>
    <circle cx="0.0" cy="46.7" r="6" fill="white" stroke="#25537b" stroke-width="2"/>
    <circle cx="0.0" cy="65.3" r="6" fill="white" stroke="#25537b" stroke-width="2"/>
    <circle cx="200.0" cy="56.0" r="6" fill="white" stroke="#25537b" stroke-width="2"/>
  </g>
  <g filter="url(#wd-shadow)" transform="translate(502.0, 65.0)">
    <rect width="212.0" height="84.0" rx="4" fill="white" stroke="#25537b" stroke-width="1"/>
    <rect width="212.0" height="28" rx="4" fill="#25537b"/>
    <rect x="0" y="24" width="212.0" height="4" fill="#25537b"/>
    <text x="10" y="19" font-family="system-ui, sans-serif" font-size="11" fill="rgba(255,255,255,0.7)">2:</text>
    <text x="26" y="19" font-family="system-ui, sans-serif" font-size="11" font-weight="600" fill="white">Extract &amp;amp; Annotate</text>
    <text x="106.0" y="52" text-anchor="middle" font-family="system-ui, sans-serif" font-size="10" fill="#495057">Extract fields, rename effects</text>
    <circle cx="0.0" cy="46.7" r="6" fill="white" stroke="#25537b" stroke-width="2"/>
    <circle cx="0.0" cy="65.3" r="6" fill="white" stroke="#25537b" stroke-width="2"/>
    <circle cx="212.0" cy="56.0" r="6" fill="white" stroke="#25537b" stroke-width="2"/>
  </g>
  <g filter="url(#wd-shadow)" transform="translate(764.0, 65.0)">
    <rect width="206.0" height="84.0" rx="4" fill="white" stroke="#25537b" stroke-width="1"/>
    <rect width="206.0" height="28" rx="4" fill="#25537b"/>
    <rect x="0" y="24" width="206.0" height="4" fill="#25537b"/>
    <text x="10" y="19" font-family="system-ui, sans-serif" font-size="11" fill="rgba(255,255,255,0.7)">3:</text>
    <text x="26" y="19" font-family="system-ui, sans-serif" font-size="11" font-weight="600" fill="white">Build Reports</text>
    <text x="103.0" y="52" text-anchor="middle" font-family="system-ui, sans-serif" font-size="10" fill="#495057">Collapse, join, sort variants</text>
    <circle cx="0.0" cy="56.0" r="6" fill="white" stroke="#25537b" stroke-width="2"/>
    <circle cx="206.0" cy="42.0" r="6" fill="white" stroke="#25537b" stroke-width="2"/>
    <circle cx="206.0" cy="56.0" r="6" fill="white" stroke="#25537b" stroke-width="2"/>
    <circle cx="206.0" cy="70.0" r="6" fill="white" stroke="#25537b" stroke-width="2"/>
  </g>
  <g filter="url(#wd-shadow)" transform="translate(1044.0, 65.0)">
    <rect width="146.0" height="64.0" rx="4" fill="white" stroke="#f97316" stroke-width="1.5"/>
    <rect width="146.0" height="24" rx="4" fill="#f97316"/>
    <rect x="0" y="20" width="146.0" height="4" fill="#f97316"/>
    <text x="10" y="15" font-family="system-ui, sans-serif" font-size="11" font-weight="600" fill="white">Report by Sample</text>
    <text x="73.0" y="48" text-anchor="middle" font-family="system-ui, sans-serif" font-size="10" fill="#495057">Variants per sample</text>
    <circle cx="0.0" cy="44.0" r="5" fill="white" stroke="#f97316" stroke-width="2"/>
  </g>
  <g filter="url(#wd-shadow)" transform="translate(1044.0, 223.0)">
    <rect width="146.0" height="64.0" rx="4" fill="white" stroke="#f97316" stroke-width="1.5"/>
    <rect width="146.0" height="24" rx="4" fill="#f97316"/>
    <rect x="0" y="20" width="146.0" height="4" fill="#f97316"/>
    <text x="10" y="15" font-family="system-ui, sans-serif" font-size="11" font-weight="600" fill="white">Report by Variant</text>
    <text x="73.0" y="48" text-anchor="middle" font-family="system-ui, sans-serif" font-size="10" fill="#495057">Samples per variant</text>
    <circle cx="0.0" cy="44.0" r="5" fill="white" stroke="#f97316" stroke-width="2"/>
  </g>
  <g filter="url(#wd-shadow)" transform="translate(1020.0, 367.0)">
    <rect width="194.0" height="64.0" rx="4" fill="white" stroke="#10b981" stroke-width="1.5"/>
    <rect width="194.0" height="24" rx="4" fill="#10b981"/>
    <rect x="0" y="20" width="194.0" height="4" fill="#10b981"/>
    <text x="10" y="15" font-family="system-ui, sans-serif" font-size="11" font-weight="600" fill="white">Variant Frequency Plot</text>
    <text x="97.0" y="48" text-anchor="middle" font-family="system-ui, sans-serif" font-size="10" fill="#495057">AF overview with clustering</text>
    <circle cx="0.0" cy="44.0" r="5" fill="white" stroke="#10b981" stroke-width="2"/>
  </g>
  <g transform="translate(20, 486)">
    <text x="0" y="0" font-family="system-ui, sans-serif" font-size="10" font-weight="600" fill="#495057">Legend:</text>
    <rect x="60" y="-10" width="14" height="14" rx="2" fill="white" stroke="#ffd700" stroke-width="1.5"/>
    <text x="80" y="0" font-family="system-ui, sans-serif" font-size="9" fill="#6c757d">Input</text>
    <line x1="180" y1="-4" x2="220" y2="-4" stroke="#25537b" stroke-width="4" stroke-linecap="round"/>
    <text x="228" y="0" font-family="system-ui, sans-serif" font-size="9" fill="#6c757d">Data flow</text>
    <line x1="300" y1="-4" x2="340" y2="-4" stroke="#25537b" stroke-width="3" stroke-linecap="round"/>
    <text x="348" y="0" font-family="system-ui, sans-serif" font-size="9" fill="#6c757d">Secondary</text>
    <rect x="420" y="-10" width="14" height="14" rx="2" fill="white" stroke="#f97316" stroke-width="1.5"/>
    <text x="440" y="0" font-family="system-ui, sans-serif" font-size="9" fill="#6c757d">Output</text>
    <rect x="540" y="-10" width="14" height="14" rx="2" fill="white" stroke="#10b981" stroke-width="1.5"/>
    <text x="560" y="0" font-family="system-ui, sans-serif" font-size="9" fill="#6c757d">Report</text>
  </g>
</svg>