<svg viewBox="0 0 1544 488" aria-label="CUT&amp;RUN/CUT&amp;TAG: Protein-DNA Interaction Mapping" role="img" xmlns="http://www.w3.org/2000/svg">
  <title>CUT&amp;RUN/CUT&amp;TAG: Protein-DNA Interaction Mapping</title>
  <defs>
    <pattern id="wd-grid" width="20" height="20" patternUnits="userSpaceOnUse">
      <path d="M 20 0 L 0 0 0 20" fill="none" stroke="#c5d5e4" stroke-width="0.5"/>
    </pattern>
    <pattern id="wd-grid-major" width="100" height="100" patternUnits="userSpaceOnUse">
      <rect width="100" height="100" fill="url(#wd-grid)"/>
      <path d="M 100 0 L 0 0 0 100" fill="none" stroke="#b0c4d8" stroke-width="1"/>
    </pattern>
    <filter id="wd-shadow" x="-5%" y="-5%" width="115%" height="115%">
      <feDropShadow dx="1" dy="2" stdDeviation="1.5" flood-opacity="0.15"/>
    </filter>
  </defs>
  <rect width="1544" height="488" fill="#f8f9fa"/>
  <rect width="1544" height="488" fill="url(#wd-grid-major)"/>
  <rect x="0" y="0" width="1544" height="45" fill="#25537b"/>
  <text x="20" y="28" font-family="system-ui, sans-serif" font-size="16" font-weight="600" fill="white">CUT&amp;RUN/CUT&amp;TAG: Protein-DNA Interaction Mapping</text>
  <path d="M 200.0 128.0 C 230.0 128.0, 240.0 128.0, 270.0 128.0" stroke="white" fill="none" stroke-linecap="round" stroke-width="8"/>
  <path d="M 470.0 128.0 C 500.0 128.0, 512.4 128.0, 542.4 128.0" stroke="white" fill="none" stroke-linecap="round" stroke-width="8"/>
  <path d="M 742.4 116.3 C 772.4 116.3, 784.8 128.0, 814.8 128.0" stroke="white" fill="none" stroke-linecap="round" stroke-width="8"/>
  <path d="M 1014.8 116.3 C 1044.8 116.3, 1054.8 128.0, 1084.8 128.0" stroke="white" fill="none" stroke-linecap="round" stroke-width="8"/>
  <path d="M 1014.8 139.7 C 1150.8 139.7, 1218.8 117.5, 1354.8 117.5" stroke="white" fill="none" stroke-linecap="round" stroke-width="7"/>
  <path d="M 1284.8 116.3 C 1314.8 116.3, 1327.8 275.5, 1357.8 275.5" stroke="white" fill="none" stroke-linecap="round" stroke-width="8"/>
  <path d="M 1284.8 139.7 C 1314.8 139.7, 1329.8 413.5, 1359.8 413.5" stroke="white" fill="none" stroke-linecap="round" stroke-width="7"/>
  <path d="M 1151.5 163.0 C 1151.5 193.0, 1078.8 267.0, 1108.8 267.0" stroke="white" fill="none" stroke-linecap="round" stroke-width="7"/>
  <path d="M 742.4 139.7 C 777.4 139.7, 794.8 267.0, 829.8 267.0" stroke="white" fill="none" stroke-linecap="round" stroke-width="7"/>
  <path d="M 1218.1 163.0 C 1218.1 193.0, 642.4 193.0, 642.4 223.0" stroke="white" fill="none" stroke-linecap="round" stroke-width="7"/>
  <path d="M 200.0 128.0 C 230.0 128.0, 240.0 128.0, 270.0 128.0" stroke="#25537b" fill="none" stroke-linecap="round" stroke-width="4"/>
  <path d="M 470.0 128.0 C 500.0 128.0, 512.4 128.0, 542.4 128.0" stroke="#25537b" fill="none" stroke-linecap="round" stroke-width="4"/>
  <path d="M 742.4 116.3 C 772.4 116.3, 784.8 128.0, 814.8 128.0" stroke="#25537b" fill="none" stroke-linecap="round" stroke-width="4"/>
  <path d="M 1014.8 116.3 C 1044.8 116.3, 1054.8 128.0, 1084.8 128.0" stroke="#25537b" fill="none" stroke-linecap="round" stroke-width="4"/>
  <path d="M 1014.8 139.7 C 1150.8 139.7, 1218.8 117.5, 1354.8 117.5" stroke="#25537b" fill="none" stroke-linecap="round" stroke-width="3"/>
  <path d="M 1284.8 116.3 C 1314.8 116.3, 1327.8 275.5, 1357.8 275.5" stroke="#25537b" fill="none" stroke-linecap="round" stroke-width="4"/>
  <path d="M 1284.8 139.7 C 1314.8 139.7, 1329.8 413.5, 1359.8 413.5" stroke="#25537b" fill="none" stroke-linecap="round" stroke-width="3"/>
  <path d="M 1151.5 163.0 C 1151.5 193.0, 1078.8 267.0, 1108.8 267.0" stroke="#25537b" fill="none" stroke-linecap="round" stroke-width="3" stroke-dasharray="5 3"/>
  <path d="M 742.4 139.7 C 777.4 139.7, 794.8 267.0, 829.8 267.0" stroke="#25537b" fill="none" stroke-linecap="round" stroke-width="3" stroke-dasharray="5 3"/>
  <path d="M 1218.1 163.0 C 1218.1 193.0, 642.4 193.0, 642.4 223.0" stroke="#25537b" fill="none" stroke-linecap="round" stroke-width="3" stroke-dasharray="5 3"/>
  <g filter="url(#wd-shadow)" transform="translate(20.0, 65.0)">
    <rect width="180.0" height="98.0" rx="4" fill="white" stroke="#ffd700" stroke-width="1.5"/>
    <rect width="180.0" height="28" rx="4" fill="#ffd700"/>
    <rect x="0" y="24" width="180.0" height="4" fill="#ffd700"/>
    <text x="10" y="19" font-family="system-ui, sans-serif" font-size="11" font-weight="500" fill="rgba(44,49,67,0.75)">1:</text>
    <text x="26" y="19" font-family="system-ui, sans-serif" font-size="11" font-weight="600" fill="#2C3143">PE FASTQ Input</text>
    <text x="90.0" y="52" text-anchor="middle" font-family="system-ui, sans-serif" font-size="10" fill="#495057">list:paired collection</text>
    <text x="90.0" y="66" text-anchor="middle" font-family="system-ui, sans-serif" font-size="9" fill="#868e96">CUT&amp;RUN/CUT&amp;TAG reads</text>
    <circle cx="180.0" cy="63.0" r="6" fill="white" stroke="#ffd700" stroke-width="2"/>
  </g>
  <g filter="url(#wd-shadow)" transform="translate(270.0, 65.0)">
    <rect width="200.0" height="98.0" rx="4" fill="white" stroke="#25537b" stroke-width="1"/>
    <rect width="200.0" height="28" rx="4" fill="#25537b"/>
    <rect x="0" y="24" width="200.0" height="4" fill="#25537b"/>
    <text x="10" y="19" font-family="system-ui, sans-serif" font-size="11" font-weight="500" fill="rgba(255,255,255,0.85)">2:</text>
    <text x="26" y="19" font-family="system-ui, sans-serif" font-size="11" font-weight="600" fill="white">Cutadapt</text>
    <text x="100.0" y="52" text-anchor="middle" font-family="system-ui, sans-serif" font-size="10" fill="#495057">Adapter + quality trimming</text>
    <text x="100.0" y="66" text-anchor="middle" font-family="system-ui, sans-serif" font-size="9" fill="#868e96">Q &gt;= 30, min length 15</text>
    <circle cx="0.0" cy="63.0" r="6" fill="white" stroke="#25537b" stroke-width="2"/>
    <circle cx="200.0" cy="63.0" r="6" fill="white" stroke="#25537b" stroke-width="2"/>
  </g>
  <g filter="url(#wd-shadow)" transform="translate(542.4, 65.0)">
    <rect width="200.0" height="98.0" rx="4" fill="white" stroke="#25537b" stroke-width="1"/>
    <rect width="200.0" height="28" rx="4" fill="#25537b"/>
    <rect x="0" y="24" width="200.0" height="4" fill="#25537b"/>
    <text x="10" y="19" font-family="system-ui, sans-serif" font-size="11" font-weight="500" fill="rgba(255,255,255,0.85)">3:</text>
    <text x="26" y="19" font-family="system-ui, sans-serif" font-size="11" font-weight="600" fill="white">Bowtie2</text>
    <text x="100.0" y="52" text-anchor="middle" font-family="system-ui, sans-serif" font-size="10" fill="#495057">Align to reference</text>
    <text x="100.0" y="66" text-anchor="middle" font-family="system-ui, sans-serif" font-size="9" fill="#868e96">Very-sensitive, dovetail</text>
    <circle cx="0.0" cy="63.0" r="6" fill="white" stroke="#25537b" stroke-width="2"/>
    <circle cx="200.0" cy="51.3" r="6" fill="white" stroke="#25537b" stroke-width="2"/>
    <circle cx="200.0" cy="74.7" r="6" fill="white" stroke="#25537b" stroke-width="2"/>
  </g>
  <g filter="url(#wd-shadow)" transform="translate(814.8, 65.0)">
    <rect width="200.0" height="98.0" rx="4" fill="white" stroke="#25537b" stroke-width="1"/>
    <rect width="200.0" height="28" rx="4" fill="#25537b"/>
    <rect x="0" y="24" width="200.0" height="4" fill="#25537b"/>
    <text x="10" y="19" font-family="system-ui, sans-serif" font-size="11" font-weight="500" fill="rgba(255,255,255,0.85)">4:</text>
    <text x="26" y="19" font-family="system-ui, sans-serif" font-size="11" font-weight="600" fill="white">Filter &amp; Dedup</text>
    <text x="100.0" y="52" text-anchor="middle" font-family="system-ui, sans-serif" font-size="10" fill="#495057">MAPQ &gt;= 30, remove PCR dups</text>
    <text x="100.0" y="66" text-anchor="middle" font-family="system-ui, sans-serif" font-size="9" fill="#868e96">SAMtools filter + Picard</text>
    <circle cx="0.0" cy="63.0" r="6" fill="white" stroke="#25537b" stroke-width="2"/>
    <circle cx="200.0" cy="51.3" r="6" fill="white" stroke="#25537b" stroke-width="2"/>
    <circle cx="200.0" cy="74.7" r="6" fill="white" stroke="#25537b" stroke-width="2"/>
  </g>
  <g filter="url(#wd-shadow)" transform="translate(1084.8, 65.0)">
    <rect width="200.0" height="98.0" rx="4" fill="white" stroke="#25537b" stroke-width="1"/>
    <rect width="200.0" height="28" rx="4" fill="#25537b"/>
    <rect x="0" y="24" width="200.0" height="4" fill="#25537b"/>
    <text x="10" y="19" font-family="system-ui, sans-serif" font-size="11" font-weight="500" fill="rgba(255,255,255,0.85)">5:</text>
    <text x="26" y="19" font-family="system-ui, sans-serif" font-size="11" font-weight="600" fill="white">MACS2 callpeak</text>
    <text x="100.0" y="52" text-anchor="middle" font-family="system-ui, sans-serif" font-size="10" fill="#495057">Peak calling</text>
    <text x="100.0" y="66" text-anchor="middle" font-family="system-ui, sans-serif" font-size="9" fill="#868e96">Narrow peaks, no control</text>
    <circle cx="0.0" cy="63.0" r="6" fill="white" stroke="#25537b" stroke-width="2"/>
    <circle cx="200.0" cy="51.3" r="6" fill="white" stroke="#25537b" stroke-width="2"/>
    <circle cx="200.0" cy="74.7" r="6" fill="white" stroke="#25537b" stroke-width="2"/>
    <circle cx="66.7" cy="98.0" r="6" fill="white" stroke="#25537b" stroke-width="2"/>
    <circle cx="133.3" cy="98.0" r="6" fill="white" stroke="#25537b" stroke-width="2"/>
  </g>
  <g filter="url(#wd-shadow)" transform="translate(1354.8, 65.0)">
    <rect width="170.0" height="77.0" rx="4" fill="white" stroke="#10b981" stroke-width="1.5"/>
    <rect width="170.0" height="28" rx="4" fill="#10b981"/>
    <rect x="0" y="24" width="170.0" height="4" fill="#10b981"/>
    <text x="10" y="19" font-family="system-ui, sans-serif" font-size="11" font-weight="600" fill="white">Filtered BAM</text>
    <text x="85.0" y="52" text-anchor="middle" font-family="system-ui, sans-serif" font-size="10" fill="#495057">Deduplicated alignments</text>
    <circle cx="0.0" cy="52.5" r="5" fill="white" stroke="#10b981" stroke-width="2"/>
  </g>
  <g filter="url(#wd-shadow)" transform="translate(1357.8, 223.0)">
    <rect width="164.0" height="77.0" rx="4" fill="white" stroke="#10b981" stroke-width="1.5"/>
    <rect width="164.0" height="28" rx="4" fill="#10b981"/>
    <rect x="0" y="24" width="164.0" height="4" fill="#10b981"/>
    <text x="10" y="19" font-family="system-ui, sans-serif" font-size="11" font-weight="600" fill="white">Narrow Peaks</text>
    <text x="82.0" y="52" text-anchor="middle" font-family="system-ui, sans-serif" font-size="10" fill="#495057">MACS2 narrowPeak (BED)</text>
    <circle cx="0.0" cy="52.5" r="5" fill="white" stroke="#10b981" stroke-width="2"/>
  </g>
  <g filter="url(#wd-shadow)" transform="translate(1359.8, 361.0)">
    <rect width="160.0" height="77.0" rx="4" fill="white" stroke="#10b981" stroke-width="1.5"/>
    <rect width="160.0" height="28" rx="4" fill="#10b981"/>
    <rect x="0" y="24" width="160.0" height="4" fill="#10b981"/>
    <text x="10" y="19" font-family="system-ui, sans-serif" font-size="11" font-weight="600" fill="white">Coverage</text>
    <text x="80.0" y="52" text-anchor="middle" font-family="system-ui, sans-serif" font-size="10" fill="#495057">bigWig signal track</text>
    <circle cx="0.0" cy="52.5" r="5" fill="white" stroke="#10b981" stroke-width="2"/>
  </g>
  <g filter="url(#wd-shadow)" transform="translate(540.0, 223.0)">
    <rect width="204.8" height="78.0" rx="4" fill="white" stroke="#5bc0de" stroke-width="1.5" stroke-dasharray="4 2"/>
    <rect width="204.8" height="24" rx="4" fill="#5bc0de"/>
    <rect x="0" y="20" width="204.8" height="4" fill="#5bc0de"/>
    <text x="10" y="15" font-family="system-ui, sans-serif" font-size="11" font-weight="600" fill="white">MultiQC</text>
    <text x="102.4" y="48" text-anchor="middle" font-family="system-ui, sans-serif" font-size="10" fill="#495057">Aggregated QC report</text>
    <text x="102.4" y="62" text-anchor="middle" font-family="system-ui, sans-serif" font-size="9" fill="#868e96">Cutadapt, Bowtie2, Picard, MACS2</text>
    <circle cx="102.4" cy="0.0" r="5" fill="white" stroke="#5bc0de" stroke-width="2"/>
  </g>
  <g filter="url(#wd-shadow)" transform="translate(829.8, 223.0)">
    <rect width="170.0" height="64.0" rx="4" fill="white" stroke="#5bc0de" stroke-width="1.5" stroke-dasharray="4 2"/>
    <rect width="170.0" height="24" rx="4" fill="#5bc0de"/>
    <rect x="0" y="20" width="170.0" height="4" fill="#5bc0de"/>
    <text x="10" y="15" font-family="system-ui, sans-serif" font-size="11" font-weight="600" fill="white">Mapping Stats</text>
    <text x="85.0" y="48" text-anchor="middle" font-family="system-ui, sans-serif" font-size="10" fill="#495057">Bowtie2 alignment rates</text>
    <circle cx="0.0" cy="44.0" r="5" fill="white" stroke="#5bc0de" stroke-width="2"/>
  </g>
  <g filter="url(#wd-shadow)" transform="translate(1108.8, 223.0)">
    <rect width="152.0" height="64.0" rx="4" fill="white" stroke="#5bc0de" stroke-width="1.5" stroke-dasharray="4 2"/>
    <rect width="152.0" height="24" rx="4" fill="#5bc0de"/>
    <rect x="0" y="20" width="152.0" height="4" fill="#5bc0de"/>
    <text x="10" y="15" font-family="system-ui, sans-serif" font-size="11" font-weight="600" fill="white">MACS2 Report</text>
    <text x="76.0" y="48" text-anchor="middle" font-family="system-ui, sans-serif" font-size="10" fill="#495057">Peak calling summary</text>
    <circle cx="0.0" cy="44.0" r="5" fill="white" stroke="#5bc0de" stroke-width="2"/>
  </g>
  <g transform="translate(20, 473)">
    <text x="0" y="0" font-family="system-ui, sans-serif" font-size="10" font-weight="600" fill="#495057">Legend:</text>
    <rect x="60" y="-10" width="14" height="14" rx="2" fill="white" stroke="#ffd700" stroke-width="1.5"/>
    <text x="80" y="0" font-family="system-ui, sans-serif" font-size="9" fill="#6c757d">Input</text>
    <line x1="123.0" y1="-4" x2="163.0" y2="-4" stroke="#25537b" stroke-width="4" stroke-linecap="round"/>
    <text x="171.0" y="0" font-family="system-ui, sans-serif" font-size="9" fill="#6c757d">Data flow</text>
    <line x1="235.6" y1="-4" x2="275.6" y2="-4" stroke="#25537b" stroke-width="3" stroke-linecap="round" stroke-dasharray="5 3"/>
    <text x="283.6" y="0" font-family="system-ui, sans-serif" font-size="9" fill="#6c757d">QC metrics</text>
    <rect x="353.6" y="-10" width="14" height="14" rx="2" fill="white" stroke="#10b981" stroke-width="1.5"/>
    <text x="373.6" y="0" font-family="system-ui, sans-serif" font-size="9" fill="#6c757d">Output</text>
    <rect x="422.0" y="-10" width="14" height="14" rx="2" fill="white" stroke="#5bc0de" stroke-width="1.5"/>
    <text x="442.0" y="0" font-family="system-ui, sans-serif" font-size="9" fill="#6c757d">Report</text>
  </g>
</svg>