<svg viewBox="0 0 1626 659" aria-label="COVID-19: Consensus Construction from Variation" role="img" xmlns="http://www.w3.org/2000/svg">
  <title>COVID-19: Consensus Construction from Variation</title>
  <defs>
    <pattern id="wd-grid" width="20" height="20" patternUnits="userSpaceOnUse">
      <path d="M 20 0 L 0 0 0 20" fill="none" stroke="#c5d5e4" stroke-width="0.5"/>
    </pattern>
    <pattern id="wd-grid-major" width="100" height="100" patternUnits="userSpaceOnUse">
      <rect width="100" height="100" fill="url(#wd-grid)"/>
      <path d="M 100 0 L 0 0 0 100" fill="none" stroke="#b0c4d8" stroke-width="1"/>
    </pattern>
    <filter id="wd-shadow" x="-5%" y="-5%" width="115%" height="115%">
      <feDropShadow dx="1" dy="2" stdDeviation="1.5" flood-opacity="0.15"/>
    </filter>
  </defs>
  <rect width="1626" height="659" fill="#f8f9fa"/>
  <rect width="1626" height="659" fill="url(#wd-grid-major)"/>
  <rect x="0" y="0" width="1626" height="45" fill="#25537b"/>
  <text x="20" y="28" font-family="system-ui, sans-serif" font-size="16" font-weight="600" fill="white">COVID-19: Consensus Construction from Variation</text>
  <path d="M 225.0 260.3 C 263.0 260.3, 282.0 111.7, 320.0 111.7" stroke="white" fill="none" stroke-linecap="round" stroke-width="8"/>
  <path d="M 225.0 283.7 C 263.0 283.7, 282.0 255.7, 320.0 255.7" stroke="white" fill="none" stroke-linecap="round" stroke-width="8"/>
  <path d="M 250.0 413.7 C 280.0 413.7, 290.0 130.3, 320.0 130.3" stroke="white" fill="none" stroke-linecap="round" stroke-width="7"/>
  <path d="M 250.0 432.3 C 280.0 432.3, 290.0 274.3, 320.0 274.3" stroke="white" fill="none" stroke-linecap="round" stroke-width="7"/>
  <path d="M 225.0 574.0 C 371.0 574.0, 444.0 423.0, 590.0 423.0" stroke="white" fill="none" stroke-linecap="round" stroke-width="8"/>
  <path d="M 790.0 423.0 C 820.0 423.0, 830.0 255.7, 860.0 255.7" stroke="white" fill="none" stroke-linecap="round" stroke-width="8"/>
  <path d="M 520.0 265.0 C 656.0 265.0, 724.0 274.3, 860.0 274.3" stroke="white" fill="none" stroke-linecap="round" stroke-width="8"/>
  <path d="M 520.0 121.0 C 773.6 121.0, 900.4 107.0, 1154.0 107.0" stroke="white" fill="none" stroke-linecap="round" stroke-width="8"/>
  <path d="M 1084.0 265.0 C 1114.0 265.0, 1124.0 121.0, 1154.0 121.0" stroke="white" fill="none" stroke-linecap="round" stroke-width="8"/>
  <path d="M 225.0 121.0 C 596.6 121.0, 782.4 135.0, 1154.0 135.0" stroke="white" fill="none" stroke-linecap="round" stroke-width="7"/>
  <path d="M 1354.0 111.7 C 1384.0 111.7, 1394.0 117.5, 1424.0 117.5" stroke="white" fill="none" stroke-linecap="round" stroke-width="8"/>
  <path d="M 1354.0 130.3 C 1386.4 130.3, 1402.6 261.5, 1435.0 261.5" stroke="white" fill="none" stroke-linecap="round" stroke-width="7"/>
  <path d="M 225.0 260.3 C 263.0 260.3, 282.0 111.7, 320.0 111.7" stroke="#25537b" fill="none" stroke-linecap="round" stroke-width="4"/>
  <path d="M 225.0 283.7 C 263.0 283.7, 282.0 255.7, 320.0 255.7" stroke="#25537b" fill="none" stroke-linecap="round" stroke-width="4"/>
  <path d="M 250.0 413.7 C 280.0 413.7, 290.0 130.3, 320.0 130.3" stroke="#25537b" fill="none" stroke-linecap="round" stroke-width="3"/>
  <path d="M 250.0 432.3 C 280.0 432.3, 290.0 274.3, 320.0 274.3" stroke="#25537b" fill="none" stroke-linecap="round" stroke-width="3"/>
  <path d="M 225.0 574.0 C 371.0 574.0, 444.0 423.0, 590.0 423.0" stroke="#25537b" fill="none" stroke-linecap="round" stroke-width="4"/>
  <path d="M 790.0 423.0 C 820.0 423.0, 830.0 255.7, 860.0 255.7" stroke="#25537b" fill="none" stroke-linecap="round" stroke-width="4"/>
  <path d="M 520.0 265.0 C 656.0 265.0, 724.0 274.3, 860.0 274.3" stroke="#25537b" fill="none" stroke-linecap="round" stroke-width="4"/>
  <path d="M 520.0 121.0 C 773.6 121.0, 900.4 107.0, 1154.0 107.0" stroke="#25537b" fill="none" stroke-linecap="round" stroke-width="4"/>
  <path d="M 1084.0 265.0 C 1114.0 265.0, 1124.0 121.0, 1154.0 121.0" stroke="#25537b" fill="none" stroke-linecap="round" stroke-width="4"/>
  <path d="M 225.0 121.0 C 596.6 121.0, 782.4 135.0, 1154.0 135.0" stroke="#25537b" fill="none" stroke-linecap="round" stroke-width="3"/>
  <path d="M 1354.0 111.7 C 1384.0 111.7, 1394.0 117.5, 1424.0 117.5" stroke="#25537b" fill="none" stroke-linecap="round" stroke-width="4"/>
  <path d="M 1354.0 130.3 C 1386.4 130.3, 1402.6 261.5, 1435.0 261.5" stroke="#25537b" fill="none" stroke-linecap="round" stroke-width="3"/>
  <g filter="url(#wd-shadow)" transform="translate(45.0, 209.0)">
    <rect width="180.0" height="98.0" rx="4" fill="white" stroke="#ffd700" stroke-width="1.5"/>
    <rect width="180.0" height="28" rx="4" fill="#ffd700"/>
    <rect x="0" y="24" width="180.0" height="4" fill="#ffd700"/>
    <text x="10" y="19" font-family="system-ui, sans-serif" font-size="11" font-weight="600" fill="#2C3143">Variant Calls</text>
    <text x="90.0" y="52" text-anchor="middle" font-family="system-ui, sans-serif" font-size="10" fill="#495057">VCF collection</text>
    <text x="90.0" y="66" text-anchor="middle" font-family="system-ui, sans-serif" font-size="9" fill="#868e96">From upstream workflow</text>
    <circle cx="180.0" cy="51.3" r="6" fill="white" stroke="#ffd700" stroke-width="2"/>
    <circle cx="180.0" cy="74.7" r="6" fill="white" stroke="#ffd700" stroke-width="2"/>
  </g>
  <g filter="url(#wd-shadow)" transform="translate(45.0, 511.0)">
    <rect width="180.0" height="98.0" rx="4" fill="white" stroke="#ffd700" stroke-width="1.5"/>
    <rect width="180.0" height="28" rx="4" fill="#ffd700"/>
    <rect x="0" y="24" width="180.0" height="4" fill="#ffd700"/>
    <text x="10" y="19" font-family="system-ui, sans-serif" font-size="11" font-weight="600" fill="#2C3143">Aligned Reads</text>
    <text x="90.0" y="52" text-anchor="middle" font-family="system-ui, sans-serif" font-size="10" fill="#495057">BAM collection</text>
    <text x="90.0" y="66" text-anchor="middle" font-family="system-ui, sans-serif" font-size="9" fill="#868e96">For depth calculation</text>
    <circle cx="180.0" cy="63.0" r="6" fill="white" stroke="#ffd700" stroke-width="2"/>
  </g>
  <g filter="url(#wd-shadow)" transform="translate(20.0, 367.0)">
    <rect width="230.0" height="84.0" rx="4" fill="white" stroke="#ffd700" stroke-width="1.5"/>
    <rect width="230.0" height="28" rx="4" fill="#ffd700"/>
    <rect x="0" y="24" width="230.0" height="4" fill="#ffd700"/>
    <text x="10" y="19" font-family="system-ui, sans-serif" font-size="11" font-weight="600" fill="#2C3143">AF Parameters</text>
    <text x="115.0" y="52" text-anchor="middle" font-family="system-ui, sans-serif" font-size="10" fill="#495057">Consensus &amp;amp; failed thresholds</text>
    <circle cx="230.0" cy="46.7" r="6" fill="white" stroke="#ffd700" stroke-width="2"/>
    <circle cx="230.0" cy="65.3" r="6" fill="white" stroke="#ffd700" stroke-width="2"/>
  </g>
  <g filter="url(#wd-shadow)" transform="translate(45.0, 65.0)">
    <rect width="180.0" height="84.0" rx="4" fill="white" stroke="#ffd700" stroke-width="1.5"/>
    <rect width="180.0" height="28" rx="4" fill="#ffd700"/>
    <rect x="0" y="24" width="180.0" height="4" fill="#ffd700"/>
    <text x="10" y="19" font-family="system-ui, sans-serif" font-size="11" font-weight="600" fill="#2C3143">Reference Genome</text>
    <text x="90.0" y="52" text-anchor="middle" font-family="system-ui, sans-serif" font-size="10" fill="#495057">SARS-CoV-2 FASTA</text>
    <circle cx="180.0" cy="56.0" r="6" fill="white" stroke="#ffd700" stroke-width="2"/>
  </g>
  <g filter="url(#wd-shadow)" transform="translate(320.0, 65.0)">
    <rect width="200.0" height="84.0" rx="4" fill="white" stroke="#25537b" stroke-width="1"/>
    <rect width="200.0" height="28" rx="4" fill="#25537b"/>
    <rect x="0" y="24" width="200.0" height="4" fill="#25537b"/>
    <text x="10" y="19" font-family="system-ui, sans-serif" font-size="11" font-weight="500" fill="rgba(255,255,255,0.85)">1:</text>
    <text x="26" y="19" font-family="system-ui, sans-serif" font-size="11" font-weight="600" fill="white">SnpSift Filter</text>
    <text x="100.0" y="52" text-anchor="middle" font-family="system-ui, sans-serif" font-size="10" fill="#495057">Select consensus variants</text>
    <circle cx="0.0" cy="46.7" r="6" fill="white" stroke="#25537b" stroke-width="2"/>
    <circle cx="0.0" cy="65.3" r="6" fill="white" stroke="#25537b" stroke-width="2"/>
    <circle cx="200.0" cy="56.0" r="6" fill="white" stroke="#25537b" stroke-width="2"/>
  </g>
  <g filter="url(#wd-shadow)" transform="translate(320.0, 209.0)">
    <rect width="200.0" height="84.0" rx="4" fill="white" stroke="#25537b" stroke-width="1"/>
    <rect width="200.0" height="28" rx="4" fill="#25537b"/>
    <rect x="0" y="24" width="200.0" height="4" fill="#25537b"/>
    <text x="10" y="19" font-family="system-ui, sans-serif" font-size="11" font-weight="500" fill="rgba(255,255,255,0.85)">2:</text>
    <text x="26" y="19" font-family="system-ui, sans-serif" font-size="11" font-weight="600" fill="white">SnpSift Filter</text>
    <text x="100.0" y="52" text-anchor="middle" font-family="system-ui, sans-serif" font-size="10" fill="#495057">Identify ambiguous variants</text>
    <circle cx="0.0" cy="46.7" r="6" fill="white" stroke="#25537b" stroke-width="2"/>
    <circle cx="0.0" cy="65.3" r="6" fill="white" stroke="#25537b" stroke-width="2"/>
    <circle cx="200.0" cy="56.0" r="6" fill="white" stroke="#25537b" stroke-width="2"/>
  </g>
  <g filter="url(#wd-shadow)" transform="translate(590.0, 367.0)">
    <rect width="200.0" height="84.0" rx="4" fill="white" stroke="#25537b" stroke-width="1"/>
    <rect width="200.0" height="28" rx="4" fill="#25537b"/>
    <rect x="0" y="24" width="200.0" height="4" fill="#25537b"/>
    <text x="10" y="19" font-family="system-ui, sans-serif" font-size="11" font-weight="500" fill="rgba(255,255,255,0.85)">3:</text>
    <text x="26" y="19" font-family="system-ui, sans-serif" font-size="11" font-weight="600" fill="white">Genome Coverage</text>
    <text x="100.0" y="52" text-anchor="middle" font-family="system-ui, sans-serif" font-size="10" fill="#495057">Compute per-base depth</text>
    <circle cx="0.0" cy="56.0" r="6" fill="white" stroke="#25537b" stroke-width="2"/>
    <circle cx="200.0" cy="56.0" r="6" fill="white" stroke="#25537b" stroke-width="2"/>
  </g>
  <g filter="url(#wd-shadow)" transform="translate(860.0, 209.0)">
    <rect width="224.0" height="84.0" rx="4" fill="white" stroke="#25537b" stroke-width="1"/>
    <rect width="224.0" height="28" rx="4" fill="#25537b"/>
    <rect x="0" y="24" width="224.0" height="4" fill="#25537b"/>
    <text x="10" y="19" font-family="system-ui, sans-serif" font-size="11" font-weight="500" fill="rgba(255,255,255,0.85)">4:</text>
    <text x="26" y="19" font-family="system-ui, sans-serif" font-size="11" font-weight="600" fill="white">Build Mask Regions</text>
    <text x="112.0" y="52" text-anchor="middle" font-family="system-ui, sans-serif" font-size="10" fill="#495057">Merge low-cov &amp;amp; failed sites</text>
    <circle cx="0.0" cy="46.7" r="6" fill="white" stroke="#25537b" stroke-width="2"/>
    <circle cx="0.0" cy="65.3" r="6" fill="white" stroke="#25537b" stroke-width="2"/>
    <circle cx="224.0" cy="56.0" r="6" fill="white" stroke="#25537b" stroke-width="2"/>
  </g>
  <g filter="url(#wd-shadow)" transform="translate(1154.0, 65.0)">
    <rect width="200.0" height="84.0" rx="4" fill="white" stroke="#25537b" stroke-width="1"/>
    <rect width="200.0" height="28" rx="4" fill="#25537b"/>
    <rect x="0" y="24" width="200.0" height="4" fill="#25537b"/>
    <text x="10" y="19" font-family="system-ui, sans-serif" font-size="11" font-weight="500" fill="rgba(255,255,255,0.85)">5:</text>
    <text x="26" y="19" font-family="system-ui, sans-serif" font-size="11" font-weight="600" fill="white">bcftools consensus</text>
    <text x="100.0" y="52" text-anchor="middle" font-family="system-ui, sans-serif" font-size="10" fill="#495057">Apply variants &amp;amp; mask</text>
    <circle cx="0.0" cy="42.0" r="6" fill="white" stroke="#25537b" stroke-width="2"/>
    <circle cx="0.0" cy="56.0" r="6" fill="white" stroke="#25537b" stroke-width="2"/>
    <circle cx="0.0" cy="70.0" r="6" fill="white" stroke="#25537b" stroke-width="2"/>
    <circle cx="200.0" cy="46.7" r="6" fill="white" stroke="#25537b" stroke-width="2"/>
    <circle cx="200.0" cy="65.3" r="6" fill="white" stroke="#25537b" stroke-width="2"/>
  </g>
  <g filter="url(#wd-shadow)" transform="translate(1424.0, 65.0)">
    <rect width="182.0" height="77.0" rx="4" fill="white" stroke="#10b981" stroke-width="1.5"/>
    <rect width="182.0" height="28" rx="4" fill="#10b981"/>
    <rect x="0" y="24" width="182.0" height="4" fill="#10b981"/>
    <text x="10" y="19" font-family="system-ui, sans-serif" font-size="11" font-weight="600" fill="white">Consensus FASTA</text>
    <text x="91.0" y="52" text-anchor="middle" font-family="system-ui, sans-serif" font-size="10" fill="#495057">Masked consensus sequence</text>
    <circle cx="0.0" cy="52.5" r="5" fill="white" stroke="#10b981" stroke-width="2"/>
  </g>
  <g filter="url(#wd-shadow)" transform="translate(1435.0, 209.0)">
    <rect width="160.0" height="77.0" rx="4" fill="white" stroke="#10b981" stroke-width="1.5"/>
    <rect width="160.0" height="28" rx="4" fill="#10b981"/>
    <rect x="0" y="24" width="160.0" height="4" fill="#10b981"/>
    <text x="10" y="19" font-family="system-ui, sans-serif" font-size="11" font-weight="600" fill="white">Multisample FASTA</text>
    <text x="80.0" y="52" text-anchor="middle" font-family="system-ui, sans-serif" font-size="10" fill="#495057">All samples combined</text>
    <circle cx="0.0" cy="52.5" r="5" fill="white" stroke="#10b981" stroke-width="2"/>
  </g>
  <g transform="translate(20, 644)">
    <text x="0" y="0" font-family="system-ui, sans-serif" font-size="10" font-weight="600" fill="#495057">Legend:</text>
    <rect x="60" y="-10" width="14" height="14" rx="2" fill="white" stroke="#ffd700" stroke-width="1.5"/>
    <text x="80" y="0" font-family="system-ui, sans-serif" font-size="9" fill="#6c757d">Input</text>
    <line x1="123.0" y1="-4" x2="163.0" y2="-4" stroke="#25537b" stroke-width="4" stroke-linecap="round"/>
    <text x="171.0" y="0" font-family="system-ui, sans-serif" font-size="9" fill="#6c757d">Data flow</text>
    <line x1="235.6" y1="-4" x2="275.6" y2="-4" stroke="#25537b" stroke-width="3" stroke-linecap="round"/>
    <text x="283.6" y="0" font-family="system-ui, sans-serif" font-size="9" fill="#6c757d">Secondary</text>
    <rect x="348.2" y="-10" width="14" height="14" rx="2" fill="white" stroke="#10b981" stroke-width="1.5"/>
    <text x="368.2" y="0" font-family="system-ui, sans-serif" font-size="9" fill="#6c757d">Output</text>
  </g>
</svg>