<svg xmlns="http://www.w3.org/2000/svg" viewBox="0 0 920 350" role="img" aria-label="QIIME2 Ic: Demultiplexed data single-end import workflow diagram">
  <title>QIIME2 Ic: Demultiplexed Data (Single-End)</title>
  <desc>Workflow that imports demultiplexed single-end sequences into QIIME2 format by relabeling to Casava laneless format, importing as QIIME2 artifact, and summarizing the result.</desc>

  <defs>
    <pattern id="grid" width="20" height="20" patternUnits="userSpaceOnUse">
      <path d="M 20 0 L 0 0 0 20" fill="none" stroke="#c5d5e4" stroke-width="0.5"/>
    </pattern>
    <pattern id="grid-major" width="100" height="100" patternUnits="userSpaceOnUse">
      <rect width="100" height="100" fill="url(#grid)"/>
      <path d="M 100 0 L 0 0 0 100" fill="none" stroke="#b0c4d8" stroke-width="1"/>
    </pattern>
    <style>
      .connection { stroke: #25537b; stroke-width: 4; fill: none; stroke-linecap: round; }
      .connection-qc { stroke: #25537b; stroke-width: 3; fill: none; stroke-linecap: round; stroke-dasharray: 5 3; }
      .node-card { filter: drop-shadow(1px 2px 3px rgba(0,0,0,0.15)); }
    </style>
  </defs>

  <!-- Background -->
  <rect width="920" height="350" fill="#f8f9fa"/>
  <rect width="920" height="350" fill="url(#grid-major)"/>

  <!-- Title bar -->
  <rect x="0" y="0" width="920" height="45" fill="#25537b"/>
  <text x="20" y="28" font-family="system-ui, sans-serif" font-size="16" font-weight="600" fill="white">QIIME2 Ic: Demultiplexed Data Import (Single-End)</text>

  <!-- CONNECTIONS -->
  <!-- Sequence collection to Relabel -->
  <path class="connection" d="M 200 130 C 250 130, 270 130, 310 130"/>
  <!-- Relabel to QIIME2 Import -->
  <path class="connection" d="M 510 130 C 545 130, 555 130, 580 130"/>
  <!-- QIIME2 Import to Output -->
  <path class="connection" d="M 780 115 C 810 115, 810 105, 820 105"/>
  <!-- QIIME2 Import to Summary -->
  <path class="connection-qc" d="M 780 145 C 810 145, 810 195, 820 195"/>

  <!-- NODE: Sequence Collection Input (Gold) -->
  <g class="node-card" transform="translate(20, 85)">
    <rect width="180" height="90" rx="4" fill="white" stroke="#ffd700" stroke-width="1.5"/>
    <rect width="180" height="28" rx="4" fill="#ffd700"/>
    <rect x="0" y="24" width="180" height="4" fill="#ffd700"/>
    <text x="10" y="19" font-family="system-ui, sans-serif" font-size="11" fill="rgba(44,49,67,0.6)">1:</text>
    <text x="26" y="19" font-family="system-ui, sans-serif" font-size="11" font-weight="600" fill="#2C3143">Sequence Collection</text>
    <text x="90" y="55" text-anchor="middle" font-family="system-ui, sans-serif" font-size="10" fill="#495057">Demultiplexed SE reads</text>
    <text x="90" y="69" text-anchor="middle" font-family="system-ui, sans-serif" font-size="10" fill="#495057">(list collection)</text>
    <text x="90" y="83" text-anchor="middle" font-family="system-ui, sans-serif" font-size="9" fill="#868e96">fastqsanger.gz</text>
    <circle cx="180" cy="45" r="6" fill="white" stroke="#ffd700" stroke-width="2"/>
  </g>

  <!-- NODE: Relabel Identifiers (Blue) -->
  <g class="node-card" transform="translate(310, 85)">
    <rect width="200" height="90" rx="4" fill="white" stroke="#25537b" stroke-width="1"/>
    <rect width="200" height="28" rx="4" fill="#25537b"/>
    <rect x="0" y="24" width="200" height="4" fill="#25537b"/>
    <text x="10" y="19" font-family="system-ui, sans-serif" font-size="11" fill="rgba(255,255,255,0.7)">2:</text>
    <text x="26" y="19" font-family="system-ui, sans-serif" font-size="11" font-weight="600" fill="white">Relabel Identifiers</text>
    <text x="100" y="55" text-anchor="middle" font-family="system-ui, sans-serif" font-size="10" fill="#495057">Strip lane info, rename</text>
    <text x="100" y="69" text-anchor="middle" font-family="system-ui, sans-serif" font-size="10" fill="#495057">to Casava laneless format</text>
    <text x="100" y="83" text-anchor="middle" font-family="system-ui, sans-serif" font-size="9" fill="#868e96">Regex + Relabel</text>
    <circle cx="0" cy="45" r="6" fill="white" stroke="#25537b" stroke-width="2"/>
    <circle cx="200" cy="45" r="6" fill="white" stroke="#25537b" stroke-width="2"/>
  </g>

  <!-- NODE: QIIME2 Import (Blue) -->
  <g class="node-card" transform="translate(580, 85)">
    <rect width="200" height="90" rx="4" fill="white" stroke="#25537b" stroke-width="1"/>
    <rect width="200" height="28" rx="4" fill="#25537b"/>
    <rect x="0" y="24" width="200" height="4" fill="#25537b"/>
    <text x="10" y="19" font-family="system-ui, sans-serif" font-size="11" fill="rgba(255,255,255,0.7)">3:</text>
    <text x="26" y="19" font-family="system-ui, sans-serif" font-size="11" font-weight="600" fill="white">QIIME2 Import</text>
    <text x="100" y="55" text-anchor="middle" font-family="system-ui, sans-serif" font-size="10" fill="#495057">Import as QIIME2 artifact</text>
    <text x="100" y="69" text-anchor="middle" font-family="system-ui, sans-serif" font-size="10" fill="#495057">SequencesWithQuality</text>
    <text x="100" y="83" text-anchor="middle" font-family="system-ui, sans-serif" font-size="9" fill="#868e96">qiime2 tools import</text>
    <circle cx="0" cy="45" r="6" fill="white" stroke="#25537b" stroke-width="2"/>
    <circle cx="200" cy="30" r="6" fill="white" stroke="#25537b" stroke-width="2"/>
    <circle cx="200" cy="60" r="6" fill="white" stroke="#25537b" stroke-width="2"/>
  </g>

  <!-- NODE: Demux Output (Orange) -->
  <g class="node-card" transform="translate(820, 75)">
    <rect width="80" height="60" rx="4" fill="white" stroke="#f97316" stroke-width="1.5"/>
    <rect width="80" height="24" rx="4" fill="#f97316"/>
    <rect x="0" y="20" width="80" height="4" fill="#f97316"/>
    <text x="40" y="16" text-anchor="middle" font-family="system-ui, sans-serif" font-size="10" font-weight="600" fill="white">Output</text>
    <text x="40" y="40" text-anchor="middle" font-family="system-ui, sans-serif" font-size="9" fill="#495057">Imported data</text>
    <text x="40" y="52" text-anchor="middle" font-family="system-ui, sans-serif" font-size="8" fill="#868e96">qza</text>
    <circle cx="0" cy="30" r="5" fill="white" stroke="#f97316" stroke-width="2"/>
  </g>

  <!-- NODE: Demux Summarize (Green/Report) -->
  <g class="node-card" transform="translate(820, 170)">
    <rect width="80" height="60" rx="4" fill="white" stroke="#10b981" stroke-width="1.5"/>
    <rect width="80" height="24" rx="4" fill="#10b981"/>
    <rect x="0" y="20" width="80" height="4" fill="#10b981"/>
    <text x="40" y="16" text-anchor="middle" font-family="system-ui, sans-serif" font-size="10" font-weight="600" fill="white">Summary</text>
    <text x="40" y="40" text-anchor="middle" font-family="system-ui, sans-serif" font-size="9" fill="#495057">Demux stats</text>
    <text x="40" y="52" text-anchor="middle" font-family="system-ui, sans-serif" font-size="8" fill="#868e96">qzv</text>
    <circle cx="0" cy="25" r="5" fill="white" stroke="#10b981" stroke-width="2"/>
  </g>

  <!-- Legend -->
  <g transform="translate(20, 325)">
    <text x="0" y="0" font-family="system-ui, sans-serif" font-size="10" font-weight="600" fill="#495057">Legend:</text>
    <rect x="60" y="-10" width="14" height="14" rx="2" fill="white" stroke="#ffd700" stroke-width="1.5"/>
    <text x="80" y="0" font-family="system-ui, sans-serif" font-size="9" fill="#6c757d">Input</text>
    <line x1="120" y1="-4" x2="160" y2="-4" stroke="#25537b" stroke-width="4" stroke-linecap="round"/>
    <text x="168" y="0" font-family="system-ui, sans-serif" font-size="9" fill="#6c757d">Data flow</text>
    <line x1="240" y1="-4" x2="280" y2="-4" stroke="#25537b" stroke-width="3" stroke-linecap="round" stroke-dasharray="5 3"/>
    <text x="288" y="0" font-family="system-ui, sans-serif" font-size="9" fill="#6c757d">QC metrics</text>
    <rect x="360" y="-10" width="14" height="14" rx="2" fill="white" stroke="#f97316" stroke-width="1.5"/>
    <text x="380" y="0" font-family="system-ui, sans-serif" font-size="9" fill="#6c757d">Output</text>
    <rect x="430" y="-10" width="14" height="14" rx="2" fill="white" stroke="#10b981" stroke-width="1.5"/>
    <text x="450" y="0" font-family="system-ui, sans-serif" font-size="9" fill="#6c757d">Report</text>
  </g>

</svg>