<svg viewBox="0 0 1787 1222" aria-label="Metagenomic Genes Catalogue Analysis" role="img" xmlns="http://www.w3.org/2000/svg">
  <title>Metagenomic Genes Catalogue Analysis</title>
  <defs>
    <pattern id="wd-grid" width="20" height="20" patternUnits="userSpaceOnUse">
      <path d="M 20 0 L 0 0 0 20" fill="none" stroke="#c5d5e4" stroke-width="0.5"/>
    </pattern>
    <pattern id="wd-grid-major" width="100" height="100" patternUnits="userSpaceOnUse">
      <rect width="100" height="100" fill="url(#wd-grid)"/>
      <path d="M 100 0 L 0 0 0 100" fill="none" stroke="#b0c4d8" stroke-width="1"/>
    </pattern>
    <filter id="wd-shadow" x="-5%" y="-5%" width="115%" height="115%">
      <feDropShadow dx="1" dy="2" stdDeviation="1.5" flood-opacity="0.15"/>
    </filter>
  </defs>
  <rect width="1787" height="1222" fill="#f8f9fa"/>
  <rect width="1787" height="1222" fill="url(#wd-grid-major)"/>
  <rect x="0" y="0" width="1787" height="45" fill="#25537b"/>
  <text x="20" y="28" font-family="system-ui, sans-serif" font-size="16" font-weight="600" fill="white">Metagenomic Genes Catalogue Analysis</text>
  <path d="M 200.0 549.5 C 230.0 549.5, 225.0 128.0, 255.0 128.0" stroke="white" fill="none" stroke-linecap="round" stroke-width="8"/>
  <path d="M 455.0 116.3 C 485.0 116.3, 480.0 128.0, 510.0 128.0" stroke="white" fill="none" stroke-linecap="round" stroke-width="8"/>
  <path d="M 710.0 86.0 C 740.0 86.0, 753.6 128.0, 783.6 128.0" stroke="white" fill="none" stroke-linecap="round" stroke-width="8"/>
  <path d="M 983.6 116.3 C 1013.6 116.3, 1027.2 116.3, 1057.2 116.3" stroke="white" fill="none" stroke-linecap="round" stroke-width="8"/>
  <path d="M 200.0 567.0 C 542.9 567.0, 714.3 139.7, 1057.2 139.7" stroke="white" fill="none" stroke-linecap="round" stroke-width="7"/>
  <path d="M 355.0 163.0 C 355.0 193.0, 258.0 260.0, 288.0 260.0" stroke="white" fill="none" stroke-linecap="round" stroke-width="7"/>
  <path d="M 200.0 584.5 C 235.2 584.5, 252.8 274.0, 288.0 274.0" stroke="white" fill="none" stroke-linecap="round" stroke-width="7"/>
  <path d="M 455.0 139.7 C 907.9 139.7, 1134.3 117.5, 1587.2 117.5" stroke="white" fill="none" stroke-linecap="round" stroke-width="8"/>
  <path d="M 710.0 100.0 C 1060.1 100.0, 1235.1 275.5, 1585.2 275.5" stroke="white" fill="none" stroke-linecap="round" stroke-width="8"/>
  <path d="M 983.6 139.7 C 1225.0 139.7, 1345.8 412.5, 1587.2 412.5" stroke="white" fill="none" stroke-linecap="round" stroke-width="8"/>
  <path d="M 1257.2 128.0 C 1389.2 128.0, 1455.2 556.5, 1587.2 556.5" stroke="white" fill="none" stroke-linecap="round" stroke-width="8"/>
  <path d="M 710.0 114.0 C 740.0 114.0, 753.6 416.0, 783.6 416.0" stroke="white" fill="none" stroke-linecap="round" stroke-width="8"/>
  <path d="M 710.0 128.0 C 740.0 128.0, 753.6 560.0, 783.6 560.0" stroke="white" fill="none" stroke-linecap="round" stroke-width="8"/>
  <path d="M 710.0 142.0 C 740.0 142.0, 753.6 718.0, 783.6 718.0" stroke="white" fill="none" stroke-linecap="round" stroke-width="8"/>
  <path d="M 983.6 416.0 C 1013.6 416.0, 1027.2 416.0, 1057.2 416.0" stroke="white" fill="none" stroke-linecap="round" stroke-width="8"/>
  <path d="M 1257.2 416.0 C 1381.2 416.0, 1443.2 700.5, 1567.2 700.5" stroke="white" fill="none" stroke-linecap="round" stroke-width="8"/>
  <path d="M 983.6 560.0 C 1217.0 560.0, 1333.8 714.5, 1567.2 714.5" stroke="white" fill="none" stroke-linecap="round" stroke-width="7"/>
  <path d="M 983.6 718.0 C 1217.0 718.0, 1333.8 728.5, 1567.2 728.5" stroke="white" fill="none" stroke-linecap="round" stroke-width="7"/>
  <path d="M 710.0 156.0 C 848.9 156.0, 918.3 862.0, 1057.2 862.0" stroke="white" fill="none" stroke-linecap="round" stroke-width="8"/>
  <path d="M 710.0 170.0 C 848.9 170.0, 918.3 1006.0, 1057.2 1006.0" stroke="white" fill="none" stroke-linecap="round" stroke-width="8"/>
  <path d="M 1257.2 996.7 C 1287.2 996.7, 1282.2 1006.0, 1312.2 1006.0" stroke="white" fill="none" stroke-linecap="round" stroke-width="8"/>
  <path d="M 1257.2 862.0 C 1387.0 862.0, 1451.8 858.5, 1581.6 858.5" stroke="white" fill="none" stroke-linecap="round" stroke-width="8"/>
  <path d="M 1512.2 1006.0 C 1542.2 1006.0, 1557.2 994.3, 1587.2 994.3" stroke="white" fill="none" stroke-linecap="round" stroke-width="8"/>
  <path d="M 1257.2 1015.3 C 1389.2 1015.3, 1455.2 1010.7, 1587.2 1010.7" stroke="white" fill="none" stroke-linecap="round" stroke-width="7"/>
  <path d="M 422.0 267.0 C 559.2 267.0, 627.8 1131.0, 765.0 1131.0" stroke="white" fill="none" stroke-linecap="round" stroke-width="7"/>
  <path d="M 1157.2 444.0 C 1157.2 769.0, 812.4 769.0, 812.4 1094.0" stroke="white" fill="none" stroke-linecap="round" stroke-width="7"/>
  <path d="M 883.6 588.0 C 883.6 618.0, 735.0 1145.0, 765.0 1145.0" stroke="white" fill="none" stroke-linecap="round" stroke-width="7"/>
  <path d="M 883.6 746.0 C 883.6 776.0, 735.0 1159.0, 765.0 1159.0" stroke="white" fill="none" stroke-linecap="round" stroke-width="7"/>
  <path d="M 1157.2 163.0 C 1157.2 628.5, 859.9 628.5, 859.9 1094.0" stroke="white" fill="none" stroke-linecap="round" stroke-width="7"/>
  <path d="M 1157.2 890.0 C 1157.2 992.0, 907.3 992.0, 907.3 1094.0" stroke="white" fill="none" stroke-linecap="round" stroke-width="7"/>
  <path d="M 1157.2 1034.0 C 1157.2 1064.0, 954.8 1064.0, 954.8 1094.0" stroke="white" fill="none" stroke-linecap="round" stroke-width="7"/>
  <path d="M 200.0 549.5 C 230.0 549.5, 225.0 128.0, 255.0 128.0" stroke="#25537b" fill="none" stroke-linecap="round" stroke-width="4"/>
  <path d="M 455.0 116.3 C 485.0 116.3, 480.0 128.0, 510.0 128.0" stroke="#25537b" fill="none" stroke-linecap="round" stroke-width="4"/>
  <path d="M 710.0 86.0 C 740.0 86.0, 753.6 128.0, 783.6 128.0" stroke="#25537b" fill="none" stroke-linecap="round" stroke-width="4"/>
  <path d="M 983.6 116.3 C 1013.6 116.3, 1027.2 116.3, 1057.2 116.3" stroke="#25537b" fill="none" stroke-linecap="round" stroke-width="4"/>
  <path d="M 200.0 567.0 C 542.9 567.0, 714.3 139.7, 1057.2 139.7" stroke="#25537b" fill="none" stroke-linecap="round" stroke-width="3"/>
  <path d="M 355.0 163.0 C 355.0 193.0, 258.0 260.0, 288.0 260.0" stroke="#25537b" fill="none" stroke-linecap="round" stroke-width="3" stroke-dasharray="5 3"/>
  <path d="M 200.0 584.5 C 235.2 584.5, 252.8 274.0, 288.0 274.0" stroke="#25537b" fill="none" stroke-linecap="round" stroke-width="3"/>
  <path d="M 455.0 139.7 C 907.9 139.7, 1134.3 117.5, 1587.2 117.5" stroke="#25537b" fill="none" stroke-linecap="round" stroke-width="4"/>
  <path d="M 710.0 100.0 C 1060.1 100.0, 1235.1 275.5, 1585.2 275.5" stroke="#25537b" fill="none" stroke-linecap="round" stroke-width="4"/>
  <path d="M 983.6 139.7 C 1225.0 139.7, 1345.8 412.5, 1587.2 412.5" stroke="#25537b" fill="none" stroke-linecap="round" stroke-width="4"/>
  <path d="M 1257.2 128.0 C 1389.2 128.0, 1455.2 556.5, 1587.2 556.5" stroke="#25537b" fill="none" stroke-linecap="round" stroke-width="4"/>
  <path d="M 710.0 114.0 C 740.0 114.0, 753.6 416.0, 783.6 416.0" stroke="#25537b" fill="none" stroke-linecap="round" stroke-width="4"/>
  <path d="M 710.0 128.0 C 740.0 128.0, 753.6 560.0, 783.6 560.0" stroke="#25537b" fill="none" stroke-linecap="round" stroke-width="4"/>
  <path d="M 710.0 142.0 C 740.0 142.0, 753.6 718.0, 783.6 718.0" stroke="#25537b" fill="none" stroke-linecap="round" stroke-width="4"/>
  <path d="M 983.6 416.0 C 1013.6 416.0, 1027.2 416.0, 1057.2 416.0" stroke="#25537b" fill="none" stroke-linecap="round" stroke-width="4"/>
  <path d="M 1257.2 416.0 C 1381.2 416.0, 1443.2 700.5, 1567.2 700.5" stroke="#25537b" fill="none" stroke-linecap="round" stroke-width="4"/>
  <path d="M 983.6 560.0 C 1217.0 560.0, 1333.8 714.5, 1567.2 714.5" stroke="#25537b" fill="none" stroke-linecap="round" stroke-width="3"/>
  <path d="M 983.6 718.0 C 1217.0 718.0, 1333.8 728.5, 1567.2 728.5" stroke="#25537b" fill="none" stroke-linecap="round" stroke-width="3"/>
  <path d="M 710.0 156.0 C 848.9 156.0, 918.3 862.0, 1057.2 862.0" stroke="#25537b" fill="none" stroke-linecap="round" stroke-width="4"/>
  <path d="M 710.0 170.0 C 848.9 170.0, 918.3 1006.0, 1057.2 1006.0" stroke="#25537b" fill="none" stroke-linecap="round" stroke-width="4"/>
  <path d="M 1257.2 996.7 C 1287.2 996.7, 1282.2 1006.0, 1312.2 1006.0" stroke="#25537b" fill="none" stroke-linecap="round" stroke-width="4"/>
  <path d="M 1257.2 862.0 C 1387.0 862.0, 1451.8 858.5, 1581.6 858.5" stroke="#25537b" fill="none" stroke-linecap="round" stroke-width="4"/>
  <path d="M 1512.2 1006.0 C 1542.2 1006.0, 1557.2 994.3, 1587.2 994.3" stroke="#25537b" fill="none" stroke-linecap="round" stroke-width="4"/>
  <path d="M 1257.2 1015.3 C 1389.2 1015.3, 1455.2 1010.7, 1587.2 1010.7" stroke="#25537b" fill="none" stroke-linecap="round" stroke-width="3"/>
  <path d="M 422.0 267.0 C 559.2 267.0, 627.8 1131.0, 765.0 1131.0" stroke="#25537b" fill="none" stroke-linecap="round" stroke-width="3" stroke-dasharray="5 3"/>
  <path d="M 1157.2 444.0 C 1157.2 769.0, 812.4 769.0, 812.4 1094.0" stroke="#25537b" fill="none" stroke-linecap="round" stroke-width="3" stroke-dasharray="5 3"/>
  <path d="M 883.6 588.0 C 883.6 618.0, 735.0 1145.0, 765.0 1145.0" stroke="#25537b" fill="none" stroke-linecap="round" stroke-width="3" stroke-dasharray="5 3"/>
  <path d="M 883.6 746.0 C 883.6 776.0, 735.0 1159.0, 765.0 1159.0" stroke="#25537b" fill="none" stroke-linecap="round" stroke-width="3" stroke-dasharray="5 3"/>
  <path d="M 1157.2 163.0 C 1157.2 628.5, 859.9 628.5, 859.9 1094.0" stroke="#25537b" fill="none" stroke-linecap="round" stroke-width="3" stroke-dasharray="5 3"/>
  <path d="M 1157.2 890.0 C 1157.2 992.0, 907.3 992.0, 907.3 1094.0" stroke="#25537b" fill="none" stroke-linecap="round" stroke-width="3" stroke-dasharray="5 3"/>
  <path d="M 1157.2 1034.0 C 1157.2 1064.0, 954.8 1064.0, 954.8 1094.0" stroke="#25537b" fill="none" stroke-linecap="round" stroke-width="3" stroke-dasharray="5 3"/>
  <g filter="url(#wd-shadow)" transform="translate(20.0, 504.0)">
    <rect width="180.0" height="98.0" rx="4" fill="white" stroke="#ffd700" stroke-width="1.5"/>
    <rect width="180.0" height="28" rx="4" fill="#ffd700"/>
    <rect x="0" y="24" width="180.0" height="4" fill="#ffd700"/>
    <text x="10" y="19" font-family="system-ui, sans-serif" font-size="11" font-weight="600" fill="#2C3143">Trimmed Reads</text>
    <text x="90.0" y="52" text-anchor="middle" font-family="system-ui, sans-serif" font-size="10" fill="#495057">list:paired collection</text>
    <text x="90.0" y="66" text-anchor="middle" font-family="system-ui, sans-serif" font-size="9" fill="#868e96">Metagenomic paired reads</text>
    <circle cx="180.0" cy="45.5" r="6" fill="white" stroke="#ffd700" stroke-width="2"/>
    <circle cx="180.0" cy="63.0" r="6" fill="white" stroke="#ffd700" stroke-width="2"/>
    <circle cx="180.0" cy="80.5" r="6" fill="white" stroke="#ffd700" stroke-width="2"/>
  </g>
  <g filter="url(#wd-shadow)" transform="translate(255.0, 65.0)">
    <rect width="200.0" height="98.0" rx="4" fill="white" stroke="#25537b" stroke-width="1"/>
    <rect width="200.0" height="28" rx="4" fill="#25537b"/>
    <rect x="0" y="24" width="200.0" height="4" fill="#25537b"/>
    <text x="10" y="19" font-family="system-ui, sans-serif" font-size="11" font-weight="500" fill="rgba(255,255,255,0.85)">1:</text>
    <text x="26" y="19" font-family="system-ui, sans-serif" font-size="11" font-weight="600" fill="white">MEGAHIT</text>
    <text x="100.0" y="52" text-anchor="middle" font-family="system-ui, sans-serif" font-size="10" fill="#495057">Metagenome assembly</text>
    <text x="100.0" y="66" text-anchor="middle" font-family="system-ui, sans-serif" font-size="9" fill="#868e96">Per-sample contigs</text>
    <circle cx="0.0" cy="63.0" r="6" fill="white" stroke="#25537b" stroke-width="2"/>
    <circle cx="200.0" cy="51.3" r="6" fill="white" stroke="#25537b" stroke-width="2"/>
    <circle cx="100.0" cy="98.0" r="6" fill="white" stroke="#25537b" stroke-width="2"/>
    <circle cx="200.0" cy="74.7" r="6" fill="white" stroke="#25537b" stroke-width="2"/>
  </g>
  <g filter="url(#wd-shadow)" transform="translate(510.0, 65.0)">
    <rect width="200.0" height="98.0" rx="4" fill="white" stroke="#25537b" stroke-width="1"/>
    <rect width="200.0" height="28" rx="4" fill="#25537b"/>
    <rect x="0" y="24" width="200.0" height="4" fill="#25537b"/>
    <text x="10" y="19" font-family="system-ui, sans-serif" font-size="11" font-weight="500" fill="rgba(255,255,255,0.85)">2:</text>
    <text x="26" y="19" font-family="system-ui, sans-serif" font-size="11" font-weight="600" fill="white">Prodigal</text>
    <text x="100.0" y="52" text-anchor="middle" font-family="system-ui, sans-serif" font-size="10" fill="#495057">Gene prediction</text>
    <text x="100.0" y="66" text-anchor="middle" font-family="system-ui, sans-serif" font-size="9" fill="#868e96">CDS on concatenated contigs</text>
    <circle cx="0.0" cy="63.0" r="6" fill="white" stroke="#25537b" stroke-width="2"/>
    <circle cx="200.0" cy="21.0" r="6" fill="white" stroke="#25537b" stroke-width="2"/>
    <circle cx="200.0" cy="35.0" r="6" fill="white" stroke="#25537b" stroke-width="2"/>
    <circle cx="200.0" cy="49.0" r="6" fill="white" stroke="#25537b" stroke-width="2"/>
    <circle cx="200.0" cy="63.0" r="6" fill="white" stroke="#25537b" stroke-width="2"/>
    <circle cx="200.0" cy="77.0" r="6" fill="white" stroke="#25537b" stroke-width="2"/>
    <circle cx="200.0" cy="91.0" r="6" fill="white" stroke="#25537b" stroke-width="2"/>
    <circle cx="200.0" cy="105.0" r="6" fill="white" stroke="#25537b" stroke-width="2"/>
  </g>
  <g filter="url(#wd-shadow)" transform="translate(783.6, 65.0)">
    <rect width="200.0" height="98.0" rx="4" fill="white" stroke="#25537b" stroke-width="1"/>
    <rect width="200.0" height="28" rx="4" fill="#25537b"/>
    <rect x="0" y="24" width="200.0" height="4" fill="#25537b"/>
    <text x="10" y="19" font-family="system-ui, sans-serif" font-size="11" font-weight="500" fill="rgba(255,255,255,0.85)">3:</text>
    <text x="26" y="19" font-family="system-ui, sans-serif" font-size="11" font-weight="600" fill="white">MMseqs2</text>
    <text x="100.0" y="52" text-anchor="middle" font-family="system-ui, sans-serif" font-size="10" fill="#495057">Sequence clustering</text>
    <text x="100.0" y="66" text-anchor="middle" font-family="system-ui, sans-serif" font-size="9" fill="#868e96">95% identity linclust</text>
    <circle cx="0.0" cy="63.0" r="6" fill="white" stroke="#25537b" stroke-width="2"/>
    <circle cx="200.0" cy="51.3" r="6" fill="white" stroke="#25537b" stroke-width="2"/>
    <circle cx="200.0" cy="74.7" r="6" fill="white" stroke="#25537b" stroke-width="2"/>
  </g>
  <g filter="url(#wd-shadow)" transform="translate(1057.2, 65.0)">
    <rect width="200.0" height="98.0" rx="4" fill="white" stroke="#25537b" stroke-width="1"/>
    <rect width="200.0" height="28" rx="4" fill="#25537b"/>
    <rect x="0" y="24" width="200.0" height="4" fill="#25537b"/>
    <text x="10" y="19" font-family="system-ui, sans-serif" font-size="11" font-weight="500" fill="rgba(255,255,255,0.85)">4:</text>
    <text x="26" y="19" font-family="system-ui, sans-serif" font-size="11" font-weight="600" fill="white">CoverM</text>
    <text x="100.0" y="52" text-anchor="middle" font-family="system-ui, sans-serif" font-size="10" fill="#495057">Gene coverage</text>
    <text x="100.0" y="66" text-anchor="middle" font-family="system-ui, sans-serif" font-size="9" fill="#868e96">Per-sample abundance</text>
    <circle cx="0.0" cy="51.3" r="6" fill="white" stroke="#25537b" stroke-width="2"/>
    <circle cx="0.0" cy="74.7" r="6" fill="white" stroke="#25537b" stroke-width="2"/>
    <circle cx="200.0" cy="63.0" r="6" fill="white" stroke="#25537b" stroke-width="2"/>
    <circle cx="100.0" cy="98.0" r="6" fill="white" stroke="#25537b" stroke-width="2"/>
  </g>
  <g filter="url(#wd-shadow)" transform="translate(783.6, 360.0)">
    <rect width="200.0" height="84.0" rx="4" fill="white" stroke="#25537b" stroke-width="1"/>
    <rect width="200.0" height="28" rx="4" fill="#25537b"/>
    <rect x="0" y="24" width="200.0" height="4" fill="#25537b"/>
    <text x="10" y="19" font-family="system-ui, sans-serif" font-size="11" font-weight="500" fill="rgba(255,255,255,0.85)">5:</text>
    <text x="26" y="19" font-family="system-ui, sans-serif" font-size="11" font-weight="600" fill="white">AMRFinderPlus</text>
    <text x="100.0" y="52" text-anchor="middle" font-family="system-ui, sans-serif" font-size="10" fill="#495057">AMR gene detection</text>
    <circle cx="0.0" cy="56.0" r="6" fill="white" stroke="#25537b" stroke-width="2"/>
    <circle cx="200.0" cy="56.0" r="6" fill="white" stroke="#25537b" stroke-width="2"/>
  </g>
  <g filter="url(#wd-shadow)" transform="translate(783.6, 504.0)">
    <rect width="200.0" height="84.0" rx="4" fill="white" stroke="#25537b" stroke-width="1"/>
    <rect width="200.0" height="28" rx="4" fill="#25537b"/>
    <rect x="0" y="24" width="200.0" height="4" fill="#25537b"/>
    <text x="10" y="19" font-family="system-ui, sans-serif" font-size="11" font-weight="500" fill="rgba(255,255,255,0.85)">6:</text>
    <text x="26" y="19" font-family="system-ui, sans-serif" font-size="11" font-weight="600" fill="white">ABRicate</text>
    <text x="100.0" y="52" text-anchor="middle" font-family="system-ui, sans-serif" font-size="10" fill="#495057">Virulence detection</text>
    <circle cx="0.0" cy="56.0" r="6" fill="white" stroke="#25537b" stroke-width="2"/>
    <circle cx="200.0" cy="56.0" r="6" fill="white" stroke="#25537b" stroke-width="2"/>
    <circle cx="100.0" cy="84.0" r="6" fill="white" stroke="#25537b" stroke-width="2"/>
  </g>
  <g filter="url(#wd-shadow)" transform="translate(783.6, 662.0)">
    <rect width="200.0" height="84.0" rx="4" fill="white" stroke="#25537b" stroke-width="1"/>
    <rect width="200.0" height="28" rx="4" fill="#25537b"/>
    <rect x="0" y="24" width="200.0" height="4" fill="#25537b"/>
    <text x="10" y="19" font-family="system-ui, sans-serif" font-size="11" font-weight="500" fill="rgba(255,255,255,0.85)">7:</text>
    <text x="26" y="19" font-family="system-ui, sans-serif" font-size="11" font-weight="600" fill="white">staramr</text>
    <text x="100.0" y="52" text-anchor="middle" font-family="system-ui, sans-serif" font-size="10" fill="#495057">AMR element detection</text>
    <circle cx="0.0" cy="56.0" r="6" fill="white" stroke="#25537b" stroke-width="2"/>
    <circle cx="200.0" cy="56.0" r="6" fill="white" stroke="#25537b" stroke-width="2"/>
    <circle cx="100.0" cy="84.0" r="6" fill="white" stroke="#25537b" stroke-width="2"/>
  </g>
  <g filter="url(#wd-shadow)" transform="translate(1057.2, 360.0)">
    <rect width="200.0" height="84.0" rx="4" fill="white" stroke="#25537b" stroke-width="1"/>
    <rect width="200.0" height="28" rx="4" fill="#25537b"/>
    <rect x="0" y="24" width="200.0" height="4" fill="#25537b"/>
    <text x="10" y="19" font-family="system-ui, sans-serif" font-size="11" font-weight="500" fill="rgba(255,255,255,0.85)">8:</text>
    <text x="26" y="19" font-family="system-ui, sans-serif" font-size="11" font-weight="600" fill="white">argNorm</text>
    <text x="100.0" y="52" text-anchor="middle" font-family="system-ui, sans-serif" font-size="10" fill="#495057">Normalize AMR annotations</text>
    <circle cx="0.0" cy="56.0" r="6" fill="white" stroke="#25537b" stroke-width="2"/>
    <circle cx="200.0" cy="56.0" r="6" fill="white" stroke="#25537b" stroke-width="2"/>
    <circle cx="100.0" cy="84.0" r="6" fill="white" stroke="#25537b" stroke-width="2"/>
  </g>
  <g filter="url(#wd-shadow)" transform="translate(1057.2, 806.0)">
    <rect width="200.0" height="84.0" rx="4" fill="white" stroke="#25537b" stroke-width="1"/>
    <rect width="200.0" height="28" rx="4" fill="#25537b"/>
    <rect x="0" y="24" width="200.0" height="4" fill="#25537b"/>
    <text x="10" y="19" font-family="system-ui, sans-serif" font-size="11" font-weight="500" fill="rgba(255,255,255,0.85)">9:</text>
    <text x="26" y="19" font-family="system-ui, sans-serif" font-size="11" font-weight="600" fill="white">eggNOG Mapper</text>
    <text x="100.0" y="52" text-anchor="middle" font-family="system-ui, sans-serif" font-size="10" fill="#495057">Functional annotation</text>
    <circle cx="0.0" cy="56.0" r="6" fill="white" stroke="#25537b" stroke-width="2"/>
    <circle cx="200.0" cy="56.0" r="6" fill="white" stroke="#25537b" stroke-width="2"/>
    <circle cx="100.0" cy="84.0" r="6" fill="white" stroke="#25537b" stroke-width="2"/>
  </g>
  <g filter="url(#wd-shadow)" transform="translate(1057.2, 950.0)">
    <rect width="200.0" height="84.0" rx="4" fill="white" stroke="#25537b" stroke-width="1"/>
    <rect width="200.0" height="28" rx="4" fill="#25537b"/>
    <rect x="0" y="24" width="200.0" height="4" fill="#25537b"/>
    <text x="10" y="19" font-family="system-ui, sans-serif" font-size="11" font-weight="500" fill="rgba(255,255,255,0.85)">10:</text>
    <text x="26" y="19" font-family="system-ui, sans-serif" font-size="11" font-weight="600" fill="white">MMseqs2 Taxonomy</text>
    <text x="100.0" y="52" text-anchor="middle" font-family="system-ui, sans-serif" font-size="10" fill="#495057">Taxonomic assignment</text>
    <circle cx="0.0" cy="56.0" r="6" fill="white" stroke="#25537b" stroke-width="2"/>
    <circle cx="200.0" cy="46.7" r="6" fill="white" stroke="#25537b" stroke-width="2"/>
    <circle cx="200.0" cy="65.3" r="6" fill="white" stroke="#25537b" stroke-width="2"/>
    <circle cx="100.0" cy="84.0" r="6" fill="white" stroke="#25537b" stroke-width="2"/>
  </g>
  <g filter="url(#wd-shadow)" transform="translate(1312.2, 950.0)">
    <rect width="200.0" height="84.0" rx="4" fill="white" stroke="#25537b" stroke-width="1"/>
    <rect width="200.0" height="28" rx="4" fill="#25537b"/>
    <rect x="0" y="24" width="200.0" height="4" fill="#25537b"/>
    <text x="10" y="19" font-family="system-ui, sans-serif" font-size="11" font-weight="500" fill="rgba(255,255,255,0.85)">11:</text>
    <text x="26" y="19" font-family="system-ui, sans-serif" font-size="11" font-weight="600" fill="white">Krona</text>
    <text x="100.0" y="52" text-anchor="middle" font-family="system-ui, sans-serif" font-size="10" fill="#495057">Taxonomy visualization</text>
    <circle cx="0.0" cy="56.0" r="6" fill="white" stroke="#25537b" stroke-width="2"/>
    <circle cx="200.0" cy="56.0" r="6" fill="white" stroke="#25537b" stroke-width="2"/>
  </g>
  <g filter="url(#wd-shadow)" transform="translate(288.0, 223.0)">
    <rect width="134.0" height="64.0" rx="4" fill="white" stroke="#5bc0de" stroke-width="1.5" stroke-dasharray="4 2"/>
    <rect width="134.0" height="24" rx="4" fill="#5bc0de"/>
    <rect x="0" y="20" width="134.0" height="4" fill="#5bc0de"/>
    <text x="10" y="15" font-family="system-ui, sans-serif" font-size="11" font-weight="600" fill="white">QUAST</text>
    <text x="67.0" y="48" text-anchor="middle" font-family="system-ui, sans-serif" font-size="10" fill="#495057">Assembly QC stats</text>
    <circle cx="0.0" cy="37.0" r="5" fill="white" stroke="#5bc0de" stroke-width="2"/>
    <circle cx="0.0" cy="51.0" r="5" fill="white" stroke="#5bc0de" stroke-width="2"/>
    <circle cx="134.0" cy="44.0" r="5" fill="white" stroke="#5bc0de" stroke-width="2"/>
  </g>
  <g filter="url(#wd-shadow)" transform="translate(1587.2, 65.0)">
    <rect width="160.0" height="77.0" rx="4" fill="white" stroke="#10b981" stroke-width="1.5"/>
    <rect width="160.0" height="28" rx="4" fill="#10b981"/>
    <rect x="0" y="24" width="160.0" height="4" fill="#10b981"/>
    <text x="10" y="19" font-family="system-ui, sans-serif" font-size="11" font-weight="600" fill="white">Contigs</text>
    <text x="80.0" y="52" text-anchor="middle" font-family="system-ui, sans-serif" font-size="10" fill="#495057">Assembled contigs</text>
    <circle cx="0.0" cy="52.5" r="5" fill="white" stroke="#10b981" stroke-width="2"/>
  </g>
  <g filter="url(#wd-shadow)" transform="translate(1585.2, 223.0)">
    <rect width="164.0" height="77.0" rx="4" fill="white" stroke="#10b981" stroke-width="1.5"/>
    <rect width="164.0" height="28" rx="4" fill="#10b981"/>
    <rect x="0" y="24" width="164.0" height="4" fill="#10b981"/>
    <text x="10" y="19" font-family="system-ui, sans-serif" font-size="11" font-weight="600" fill="white">Gene Sequences</text>
    <text x="82.0" y="52" text-anchor="middle" font-family="system-ui, sans-serif" font-size="10" fill="#495057">Prodigal CDS (nt + aa)</text>
    <circle cx="0.0" cy="52.5" r="5" fill="white" stroke="#10b981" stroke-width="2"/>
  </g>
  <g filter="url(#wd-shadow)" transform="translate(1587.2, 360.0)">
    <rect width="160.0" height="77.0" rx="4" fill="white" stroke="#10b981" stroke-width="1.5"/>
    <rect width="160.0" height="28" rx="4" fill="#10b981"/>
    <rect x="0" y="24" width="160.0" height="4" fill="#10b981"/>
    <text x="10" y="19" font-family="system-ui, sans-serif" font-size="11" font-weight="600" fill="white">Representative Seqs</text>
    <text x="80.0" y="52" text-anchor="middle" font-family="system-ui, sans-serif" font-size="10" fill="#495057">MMseqs2 cluster reps</text>
    <circle cx="0.0" cy="52.5" r="5" fill="white" stroke="#10b981" stroke-width="2"/>
  </g>
  <g filter="url(#wd-shadow)" transform="translate(1587.2, 504.0)">
    <rect width="160.0" height="77.0" rx="4" fill="white" stroke="#10b981" stroke-width="1.5"/>
    <rect width="160.0" height="28" rx="4" fill="#10b981"/>
    <rect x="0" y="24" width="160.0" height="4" fill="#10b981"/>
    <text x="10" y="19" font-family="system-ui, sans-serif" font-size="11" font-weight="600" fill="white">Coverage Table</text>
    <text x="80.0" y="52" text-anchor="middle" font-family="system-ui, sans-serif" font-size="10" fill="#495057">Merged gene abundance</text>
    <circle cx="0.0" cy="52.5" r="5" fill="white" stroke="#10b981" stroke-width="2"/>
  </g>
  <g filter="url(#wd-shadow)" transform="translate(1567.2, 662.0)">
    <rect width="200.0" height="77.0" rx="4" fill="white" stroke="#10b981" stroke-width="1.5"/>
    <rect width="200.0" height="28" rx="4" fill="#10b981"/>
    <rect x="0" y="24" width="200.0" height="4" fill="#10b981"/>
    <text x="10" y="19" font-family="system-ui, sans-serif" font-size="11" font-weight="600" fill="white">AMR Reports</text>
    <text x="100.0" y="52" text-anchor="middle" font-family="system-ui, sans-serif" font-size="10" fill="#495057">AMRFinder, ABRicate, staramr</text>
    <circle cx="0.0" cy="38.5" r="5" fill="white" stroke="#10b981" stroke-width="2"/>
    <circle cx="0.0" cy="52.5" r="5" fill="white" stroke="#10b981" stroke-width="2"/>
    <circle cx="0.0" cy="66.5" r="5" fill="white" stroke="#10b981" stroke-width="2"/>
  </g>
  <g filter="url(#wd-shadow)" transform="translate(1581.6, 806.0)">
    <rect width="171.2" height="77.0" rx="4" fill="white" stroke="#10b981" stroke-width="1.5"/>
    <rect width="171.2" height="28" rx="4" fill="#10b981"/>
    <rect x="0" y="24" width="171.2" height="4" fill="#10b981"/>
    <text x="10" y="19" font-family="system-ui, sans-serif" font-size="11" font-weight="600" fill="white">Functional Annotations</text>
    <text x="85.6" y="52" text-anchor="middle" font-family="system-ui, sans-serif" font-size="10" fill="#495057">eggNOG annotations</text>
    <circle cx="0.0" cy="52.5" r="5" fill="white" stroke="#10b981" stroke-width="2"/>
  </g>
  <g filter="url(#wd-shadow)" transform="translate(1587.2, 950.0)">
    <rect width="160.0" height="77.0" rx="4" fill="white" stroke="#10b981" stroke-width="1.5"/>
    <rect width="160.0" height="28" rx="4" fill="#10b981"/>
    <rect x="0" y="24" width="160.0" height="4" fill="#10b981"/>
    <text x="10" y="19" font-family="system-ui, sans-serif" font-size="11" font-weight="600" fill="white">Taxonomy Results</text>
    <text x="80.0" y="52" text-anchor="middle" font-family="system-ui, sans-serif" font-size="10" fill="#495057">Tabular + Krona chart</text>
    <circle cx="0.0" cy="44.3" r="5" fill="white" stroke="#10b981" stroke-width="2"/>
    <circle cx="0.0" cy="60.7" r="5" fill="white" stroke="#10b981" stroke-width="2"/>
  </g>
  <g filter="url(#wd-shadow)" transform="translate(765.0, 1094.0)">
    <rect width="237.2" height="78.0" rx="4" fill="white" stroke="#5bc0de" stroke-width="1.5" stroke-dasharray="4 2"/>
    <rect width="237.2" height="24" rx="4" fill="#5bc0de"/>
    <rect x="0" y="20" width="237.2" height="4" fill="#5bc0de"/>
    <text x="10" y="15" font-family="system-ui, sans-serif" font-size="11" font-weight="600" fill="white">MultiQC Report</text>
    <text x="118.6" y="48" text-anchor="middle" font-family="system-ui, sans-serif" font-size="10" fill="#495057">Integrated summary</text>
    <text x="118.6" y="62" text-anchor="middle" font-family="system-ui, sans-serif" font-size="9" fill="#868e96">QUAST, AMR, coverage, eggNOG, taxonomy</text>
    <circle cx="0.0" cy="37.0" r="5" fill="white" stroke="#5bc0de" stroke-width="2"/>
    <circle cx="47.4" cy="0.0" r="5" fill="white" stroke="#5bc0de" stroke-width="2"/>
    <circle cx="0.0" cy="51.0" r="5" fill="white" stroke="#5bc0de" stroke-width="2"/>
    <circle cx="0.0" cy="65.0" r="5" fill="white" stroke="#5bc0de" stroke-width="2"/>
    <circle cx="94.9" cy="0.0" r="5" fill="white" stroke="#5bc0de" stroke-width="2"/>
    <circle cx="142.3" cy="0.0" r="5" fill="white" stroke="#5bc0de" stroke-width="2"/>
    <circle cx="189.8" cy="0.0" r="5" fill="white" stroke="#5bc0de" stroke-width="2"/>
  </g>
  <g transform="translate(20, 1207)">
    <text x="0" y="0" font-family="system-ui, sans-serif" font-size="10" font-weight="600" fill="#495057">Legend:</text>
    <rect x="60" y="-10" width="14" height="14" rx="2" fill="white" stroke="#ffd700" stroke-width="1.5"/>
    <text x="80" y="0" font-family="system-ui, sans-serif" font-size="9" fill="#6c757d">Input</text>
    <line x1="123.0" y1="-4" x2="163.0" y2="-4" stroke="#25537b" stroke-width="4" stroke-linecap="round"/>
    <text x="171.0" y="0" font-family="system-ui, sans-serif" font-size="9" fill="#6c757d">Data flow</text>
    <line x1="235.6" y1="-4" x2="275.6" y2="-4" stroke="#25537b" stroke-width="3" stroke-linecap="round"/>
    <text x="283.6" y="0" font-family="system-ui, sans-serif" font-size="9" fill="#6c757d">Secondary</text>
    <line x1="348.2" y1="-4" x2="388.2" y2="-4" stroke="#25537b" stroke-width="3" stroke-linecap="round" stroke-dasharray="5 3"/>
    <text x="396.2" y="0" font-family="system-ui, sans-serif" font-size="9" fill="#6c757d">QC metrics</text>
    <rect x="466.2" y="-10" width="14" height="14" rx="2" fill="white" stroke="#10b981" stroke-width="1.5"/>
    <text x="486.2" y="0" font-family="system-ui, sans-serif" font-size="9" fill="#6c757d">Output</text>
    <rect x="534.6" y="-10" width="14" height="14" rx="2" fill="white" stroke="#5bc0de" stroke-width="1.5"/>
    <text x="554.6" y="0" font-family="system-ui, sans-serif" font-size="9" fill="#6c757d">Report</text>
  </g>
</svg>