<svg xmlns="http://www.w3.org/2000/svg" viewBox="0 0 1050 570" role="img" aria-label="Metagenomic Genes Catalogue Analysis workflow diagram">
  <title>Metagenomic Genes Catalogue Analysis</title>
  <desc>Metagenomics pipeline from raw reads to gene catalogue: MEGAHIT assembly, Prodigal CDS prediction, MMseqs2 clustering, functional annotation with eggNOG, taxonomic classification, and AMR gene detection</desc>
  <defs>
    <pattern id="grid" width="20" height="20" patternUnits="userSpaceOnUse">
      <path d="M 20 0 L 0 0 0 20" fill="none" stroke="#c5d5e4" stroke-width="0.5"/>
    </pattern>
    <pattern id="grid-major" width="100" height="100" patternUnits="userSpaceOnUse">
      <rect width="100" height="100" fill="url(#grid)"/>
      <path d="M 100 0 L 0 0 0 100" fill="none" stroke="#b0c4d8" stroke-width="1"/>
    </pattern>
    <style>
      .connection { stroke: #25537b; stroke-width: 4; fill: none; stroke-linecap: round; }
      .connection-qc { stroke: #25537b; stroke-width: 3; fill: none; stroke-linecap: round; stroke-dasharray: 5 3; }
      .connection-secondary { stroke: #25537b; stroke-width: 3; fill: none; stroke-linecap: round; }
      .node-card { filter: drop-shadow(1px 2px 3px rgba(0,0,0,0.15)); }
    </style>
  </defs>
  <rect width="1050" height="570" fill="#f8f9fa"/>
  <rect width="1050" height="570" fill="url(#grid-major)"/>
  <rect x="0" y="0" width="1050" height="45" fill="#25537b"/>
  <text x="20" y="28" font-family="system-ui, sans-serif" font-size="16" font-weight="600" fill="white">Metagenomic Genes Catalogue Analysis</text>

  <!-- CONNECTIONS -->
  <!-- Reads -> MEGAHIT -->
  <path d="M 180 115 C 230 115, 230 110, 280 110" class="connection"/>
  <!-- MEGAHIT -> QUAST -->
  <path d="M 480 100 C 510 100, 500 65, 530 65" class="connection-qc"/>
  <!-- MEGAHIT -> Prodigal -->
  <path d="M 480 120 C 520 120, 510 190, 530 190" class="connection"/>
  <!-- Prodigal -> MMseqs2 -->
  <path d="M 730 190 C 760 190, 750 110, 780 110" class="connection"/>
  <!-- Prodigal -> AMRFinderPlus -->
  <path d="M 730 200 C 760 200, 750 310, 780 310" class="connection"/>
  <!-- MMseqs2 -> eggNOG -->
  <path d="M 980 110 C 1000 110, 840 395, 780 395" class="connection"/>
  <!-- MMseqs2 -> Taxonomy -->
  <path d="M 980 120 C 1010 120, 1010 200, 780 200" class="connection-secondary"/>
  <!-- AMRFinderPlus -> ARG Catalogue -->
  <path d="M 980 310 C 1010 310, 1000 310, 870 310" class="connection"/>

  <!-- INPUT NODE -->
  <g class="node-card" transform="translate(0,70)">
    <rect x="0" y="0" width="180" height="90" rx="4" fill="white" stroke="#e0e0e0" stroke-width="1"/>
    <rect x="0" y="0" width="180" height="28" rx="4" fill="#ffd700"/>
    <rect x="0" y="14" width="180" height="14" fill="#ffd700"/>
    <text x="10" y="19" font-family="system-ui, sans-serif" font-size="11" font-weight="600" fill="#2C3143">Trimmed Reads</text>
    <text x="10" y="52" font-family="system-ui, sans-serif" font-size="9" fill="#868e96">Paired metagenomics reads</text>
    <text x="10" y="66" font-family="system-ui, sans-serif" font-size="9" fill="#868e96">after QC</text>
    <circle cx="180" cy="45" r="6" fill="#ffd700" stroke="white" stroke-width="2"/>
  </g>

  <!-- PROCESSING NODES -->
  <!-- MEGAHIT -->
  <g class="node-card" transform="translate(280,70)">
    <rect x="0" y="0" width="200" height="90" rx="4" fill="white" stroke="#e0e0e0" stroke-width="1"/>
    <rect x="0" y="0" width="200" height="28" rx="4" fill="#25537b"/>
    <rect x="0" y="14" width="200" height="14" fill="#25537b"/>
    <text x="10" y="19" font-family="system-ui, sans-serif" font-size="11" font-weight="600" fill="white">MEGAHIT Assembly</text>
    <text x="10" y="52" font-family="system-ui, sans-serif" font-size="9" fill="#868e96">Assemble reads into</text>
    <text x="10" y="66" font-family="system-ui, sans-serif" font-size="9" fill="#868e96">metagenomic contigs</text>
    <circle cx="0" cy="45" r="6" fill="#25537b" stroke="white" stroke-width="2"/>
    <circle cx="200" cy="45" r="6" fill="#25537b" stroke="white" stroke-width="2"/>
  </g>

  <!-- QUAST -->
  <g class="node-card" transform="translate(530,55)">
    <rect x="0" y="0" width="130" height="50" rx="4" fill="white" stroke="#e0e0e0" stroke-width="1"/>
    <rect x="0" y="0" width="130" height="22" rx="4" fill="#10b981"/>
    <rect x="0" y="11" width="130" height="11" fill="#10b981"/>
    <text x="8" y="15" font-family="system-ui, sans-serif" font-size="9" font-weight="600" fill="white">QUAST</text>
    <text x="8" y="40" font-family="system-ui, sans-serif" font-size="8" fill="#868e96">Assembly quality metrics</text>
    <circle cx="0" cy="25" r="6" fill="#10b981" stroke="white" stroke-width="2"/>
  </g>

  <!-- Prodigal -->
  <g class="node-card" transform="translate(530,150)">
    <rect x="0" y="0" width="200" height="90" rx="4" fill="white" stroke="#e0e0e0" stroke-width="1"/>
    <rect x="0" y="0" width="200" height="28" rx="4" fill="#25537b"/>
    <rect x="0" y="14" width="200" height="14" fill="#25537b"/>
    <text x="10" y="19" font-family="system-ui, sans-serif" font-size="11" font-weight="600" fill="white">Prodigal</text>
    <text x="10" y="52" font-family="system-ui, sans-serif" font-size="9" fill="#868e96">Predict coding sequences</text>
    <text x="10" y="66" font-family="system-ui, sans-serif" font-size="9" fill="#868e96">(CDS) on contigs</text>
    <circle cx="0" cy="45" r="6" fill="#25537b" stroke="white" stroke-width="2"/>
    <circle cx="200" cy="45" r="6" fill="#25537b" stroke="white" stroke-width="2"/>
  </g>

  <!-- MMseqs2 -->
  <g class="node-card" transform="translate(780,70)">
    <rect x="0" y="0" width="200" height="90" rx="4" fill="white" stroke="#e0e0e0" stroke-width="1"/>
    <rect x="0" y="0" width="200" height="28" rx="4" fill="#25537b"/>
    <rect x="0" y="14" width="200" height="14" fill="#25537b"/>
    <text x="10" y="19" font-family="system-ui, sans-serif" font-size="11" font-weight="600" fill="white">MMseqs2 Clustering</text>
    <text x="10" y="52" font-family="system-ui, sans-serif" font-size="9" fill="#868e96">Cluster gene sequences</text>
    <text x="10" y="66" font-family="system-ui, sans-serif" font-size="9" fill="#868e96">into catalogue</text>
    <circle cx="0" cy="45" r="6" fill="#25537b" stroke="white" stroke-width="2"/>
    <circle cx="200" cy="45" r="6" fill="#25537b" stroke="white" stroke-width="2"/>
  </g>

  <!-- AMRFinderPlus -->
  <g class="node-card" transform="translate(780,270)">
    <rect x="0" y="0" width="200" height="90" rx="4" fill="white" stroke="#e0e0e0" stroke-width="1"/>
    <rect x="0" y="0" width="200" height="28" rx="4" fill="#25537b"/>
    <rect x="0" y="14" width="200" height="14" fill="#25537b"/>
    <text x="10" y="19" font-family="system-ui, sans-serif" font-size="11" font-weight="600" fill="white">AMRFinderPlus</text>
    <text x="10" y="52" font-family="system-ui, sans-serif" font-size="9" fill="#868e96">Detect antimicrobial</text>
    <text x="10" y="66" font-family="system-ui, sans-serif" font-size="9" fill="#868e96">resistance genes</text>
    <circle cx="0" cy="45" r="6" fill="#25537b" stroke="white" stroke-width="2"/>
    <circle cx="200" cy="45" r="6" fill="#25537b" stroke="white" stroke-width="2"/>
  </g>

  <!-- eggNOG -->
  <g class="node-card" transform="translate(780,355)">
    <rect x="0" y="0" width="200" height="90" rx="4" fill="white" stroke="#e0e0e0" stroke-width="1"/>
    <rect x="0" y="0" width="200" height="28" rx="4" fill="#25537b"/>
    <rect x="0" y="14" width="200" height="14" fill="#25537b"/>
    <text x="10" y="19" font-family="system-ui, sans-serif" font-size="11" font-weight="600" fill="white">eggNOG Annotation</text>
    <text x="10" y="52" font-family="system-ui, sans-serif" font-size="9" fill="#868e96">Functional annotation of</text>
    <text x="10" y="66" font-family="system-ui, sans-serif" font-size="9" fill="#868e96">representative sequences</text>
    <circle cx="0" cy="45" r="6" fill="#25537b" stroke="white" stroke-width="2"/>
  </g>

  <!-- MMseqs2 Taxonomy -->
  <g class="node-card" transform="translate(780,170)">
    <rect x="0" y="0" width="200" height="90" rx="4" fill="white" stroke="#e0e0e0" stroke-width="1"/>
    <rect x="0" y="0" width="200" height="28" rx="4" fill="#25537b"/>
    <rect x="0" y="14" width="200" height="14" fill="#25537b"/>
    <text x="10" y="19" font-family="system-ui, sans-serif" font-size="11" font-weight="600" fill="white">MMseqs2 Taxonomy</text>
    <text x="10" y="52" font-family="system-ui, sans-serif" font-size="9" fill="#868e96">Taxonomic classification</text>
    <text x="10" y="66" font-family="system-ui, sans-serif" font-size="9" fill="#868e96">of gene clusters</text>
    <circle cx="0" cy="45" r="6" fill="#25537b" stroke="white" stroke-width="2"/>
  </g>

  <!-- OUTPUT NODES -->
  <g transform="translate(530,260)">
    <rect x="0" y="0" width="150" height="50" rx="4" fill="white" stroke="#e0e0e0" stroke-width="1" class="node-card"/>
    <rect x="0" y="0" width="150" height="22" rx="4" fill="#f97316"/>
    <rect x="0" y="11" width="150" height="11" fill="#f97316"/>
    <text x="8" y="15" font-family="system-ui, sans-serif" font-size="9" font-weight="600" fill="white">Gene Catalogue</text>
    <text x="8" y="40" font-family="system-ui, sans-serif" font-size="8" fill="#868e96">Clustered CDS sequences</text>
    <circle cx="0" cy="25" r="6" fill="#f97316" stroke="white" stroke-width="2"/>
  </g>

  <g transform="translate(530,330)">
    <rect x="0" y="0" width="150" height="50" rx="4" fill="white" stroke="#e0e0e0" stroke-width="1" class="node-card"/>
    <rect x="0" y="0" width="150" height="22" rx="4" fill="#f97316"/>
    <rect x="0" y="11" width="150" height="11" fill="#f97316"/>
    <text x="8" y="15" font-family="system-ui, sans-serif" font-size="9" font-weight="600" fill="white">AMR Report</text>
    <text x="8" y="40" font-family="system-ui, sans-serif" font-size="8" fill="#868e96">Resistance gene annotations</text>
    <circle cx="0" cy="25" r="6" fill="#f97316" stroke="white" stroke-width="2"/>
  </g>

  <g transform="translate(530,400)">
    <rect x="0" y="0" width="150" height="50" rx="4" fill="white" stroke="#e0e0e0" stroke-width="1" class="node-card"/>
    <rect x="0" y="0" width="150" height="22" rx="4" fill="#f97316"/>
    <rect x="0" y="11" width="150" height="11" fill="#f97316"/>
    <text x="8" y="15" font-family="system-ui, sans-serif" font-size="9" font-weight="600" fill="white">Functional Annotations</text>
    <text x="8" y="40" font-family="system-ui, sans-serif" font-size="8" fill="#868e96">eggNOG orthologs</text>
    <circle cx="0" cy="25" r="6" fill="#f97316" stroke="white" stroke-width="2"/>
  </g>

  <!-- MultiQC -->
  <g class="node-card" transform="translate(280,460)">
    <rect x="0" y="0" width="200" height="70" rx="4" fill="white" stroke="#e0e0e0" stroke-width="1"/>
    <rect x="0" y="0" width="200" height="28" rx="4" fill="#10b981"/>
    <rect x="0" y="14" width="200" height="14" fill="#10b981"/>
    <text x="10" y="19" font-family="system-ui, sans-serif" font-size="11" font-weight="600" fill="white">MultiQC Report</text>
    <text x="10" y="52" font-family="system-ui, sans-serif" font-size="9" fill="#868e96">Aggregated quality metrics</text>
    <circle cx="0" cy="35" r="6" fill="#10b981" stroke="white" stroke-width="2"/>
  </g>

  <!-- Legend -->
  <g transform="translate(20,530)">
    <rect x="0" y="0" width="1010" height="35" rx="4" fill="white" stroke="#e0e0e0" stroke-width="1" opacity="0.9"/>
    <rect x="15" y="10" width="16" height="12" rx="2" fill="#ffd700"/>
    <text x="37" y="20" font-family="system-ui, sans-serif" font-size="10" fill="#495057">Input</text>
    <line x1="80" y1="16" x2="120" y2="16" stroke="#25537b" stroke-width="3"/>
    <text x="127" y="20" font-family="system-ui, sans-serif" font-size="10" fill="#495057">Data flow</text>
    <line x1="195" y1="16" x2="235" y2="16" stroke="#25537b" stroke-width="3" stroke-dasharray="5 3"/>
    <text x="242" y="20" font-family="system-ui, sans-serif" font-size="10" fill="#495057">QC/secondary</text>
    <rect x="335" y="10" width="16" height="12" rx="2" fill="#f97316"/>
    <text x="357" y="20" font-family="system-ui, sans-serif" font-size="10" fill="#495057">Output</text>
    <rect x="410" y="10" width="16" height="12" rx="2" fill="#10b981"/>
    <text x="432" y="20" font-family="system-ui, sans-serif" font-size="10" fill="#495057">Report/QC</text>
  </g>
</svg>