<svg viewBox="0 0 1578 811" aria-label="Consensus Peaks: ChIP-seq Single-End Replicates" role="img" xmlns="http://www.w3.org/2000/svg">
  <title>Consensus Peaks: ChIP-seq Single-End Replicates</title>
  <defs>
    <pattern id="wd-grid" width="20" height="20" patternUnits="userSpaceOnUse">
      <path d="M 20 0 L 0 0 0 20" fill="none" stroke="#c5d5e4" stroke-width="0.5"/>
    </pattern>
    <pattern id="wd-grid-major" width="100" height="100" patternUnits="userSpaceOnUse">
      <rect width="100" height="100" fill="url(#wd-grid)"/>
      <path d="M 100 0 L 0 0 0 100" fill="none" stroke="#b0c4d8" stroke-width="1"/>
    </pattern>
    <filter id="wd-shadow" x="-5%" y="-5%" width="115%" height="115%">
      <feDropShadow dx="1" dy="2" stdDeviation="1.5" flood-opacity="0.15"/>
    </filter>
  </defs>
  <rect width="1578" height="811" fill="#f8f9fa"/>
  <rect width="1578" height="811" fill="url(#wd-grid-major)"/>
  <rect x="0" y="0" width="1578" height="45" fill="#25537b"/>
  <text x="20" y="28" font-family="system-ui, sans-serif" font-size="16" font-weight="600" fill="white">Consensus Peaks: ChIP-seq Single-End Replicates</text>
  <path d="M 201.6 274.3 C 231.6 274.3, 243.2 274.3, 273.2 274.3" stroke="white" fill="none" stroke-linecap="round" stroke-width="8"/>
  <path d="M 201.6 427.7 C 231.6 427.7, 243.2 297.7, 273.2 297.7" stroke="white" fill="none" stroke-linecap="round" stroke-width="7"/>
  <path d="M 473.2 265.0 C 503.2 265.0, 513.2 116.3, 543.2 116.3" stroke="white" fill="none" stroke-linecap="round" stroke-width="8"/>
  <path d="M 473.2 279.0 C 830.7 279.0, 1009.5 275.5, 1367.0 275.5" stroke="white" fill="none" stroke-linecap="round" stroke-width="7"/>
  <path d="M 203.2 128.0 C 339.2 128.0, 407.2 139.7, 543.2 139.7" stroke="white" fill="none" stroke-linecap="round" stroke-width="7"/>
  <path d="M 201.6 297.7 C 338.2 297.7, 406.6 444.0, 543.2 444.0" stroke="white" fill="none" stroke-linecap="round" stroke-width="8"/>
  <path d="M 743.2 444.0 C 773.2 444.0, 785.6 432.3, 815.6 432.3" stroke="white" fill="none" stroke-linecap="round" stroke-width="8"/>
  <path d="M 201.6 446.3 C 447.2 446.3, 570.0 455.7, 815.6 455.7" stroke="white" fill="none" stroke-linecap="round" stroke-width="7"/>
  <path d="M 1015.6 432.3 C 1045.6 432.3, 1058.0 274.3, 1088.0 274.3" stroke="white" fill="none" stroke-linecap="round" stroke-width="8"/>
  <path d="M 743.2 128.0 C 881.1 128.0, 950.1 297.7, 1088.0 297.7" stroke="white" fill="none" stroke-linecap="round" stroke-width="8"/>
  <path d="M 1015.6 455.7 C 1152.6 455.7, 1221.0 433.5, 1358.0 433.5" stroke="white" fill="none" stroke-linecap="round" stroke-width="7"/>
  <path d="M 1288.0 286.0 C 1318.0 286.0, 1331.0 117.5, 1361.0 117.5" stroke="white" fill="none" stroke-linecap="round" stroke-width="8"/>
  <path d="M 473.2 293.0 C 609.2 293.0, 677.2 602.0, 813.2 602.0" stroke="white" fill="none" stroke-linecap="round" stroke-width="8"/>
  <path d="M 1018.0 602.0 C 1162.0 602.0, 1234.0 591.5, 1378.0 591.5" stroke="white" fill="none" stroke-linecap="round" stroke-width="8"/>
  <path d="M 473.2 307.0 C 503.6 307.0, 518.8 741.0, 549.2 741.0" stroke="white" fill="none" stroke-linecap="round" stroke-width="7"/>
  <path d="M 915.6 479.0 C 915.6 588.0, 643.2 588.0, 643.2 697.0" stroke="white" fill="none" stroke-linecap="round" stroke-width="7"/>
  <path d="M 201.6 274.3 C 231.6 274.3, 243.2 274.3, 273.2 274.3" stroke="#25537b" fill="none" stroke-linecap="round" stroke-width="4"/>
  <path d="M 201.6 427.7 C 231.6 427.7, 243.2 297.7, 273.2 297.7" stroke="#25537b" fill="none" stroke-linecap="round" stroke-width="3"/>
  <path d="M 473.2 265.0 C 503.2 265.0, 513.2 116.3, 543.2 116.3" stroke="#25537b" fill="none" stroke-linecap="round" stroke-width="4"/>
  <path d="M 473.2 279.0 C 830.7 279.0, 1009.5 275.5, 1367.0 275.5" stroke="#25537b" fill="none" stroke-linecap="round" stroke-width="3"/>
  <path d="M 203.2 128.0 C 339.2 128.0, 407.2 139.7, 543.2 139.7" stroke="#25537b" fill="none" stroke-linecap="round" stroke-width="3"/>
  <path d="M 201.6 297.7 C 338.2 297.7, 406.6 444.0, 543.2 444.0" stroke="#25537b" fill="none" stroke-linecap="round" stroke-width="4"/>
  <path d="M 743.2 444.0 C 773.2 444.0, 785.6 432.3, 815.6 432.3" stroke="#25537b" fill="none" stroke-linecap="round" stroke-width="4"/>
  <path d="M 201.6 446.3 C 447.2 446.3, 570.0 455.7, 815.6 455.7" stroke="#25537b" fill="none" stroke-linecap="round" stroke-width="3"/>
  <path d="M 1015.6 432.3 C 1045.6 432.3, 1058.0 274.3, 1088.0 274.3" stroke="#25537b" fill="none" stroke-linecap="round" stroke-width="4"/>
  <path d="M 743.2 128.0 C 881.1 128.0, 950.1 297.7, 1088.0 297.7" stroke="#25537b" fill="none" stroke-linecap="round" stroke-width="4"/>
  <path d="M 1015.6 455.7 C 1152.6 455.7, 1221.0 433.5, 1358.0 433.5" stroke="#25537b" fill="none" stroke-linecap="round" stroke-width="3"/>
  <path d="M 1288.0 286.0 C 1318.0 286.0, 1331.0 117.5, 1361.0 117.5" stroke="#25537b" fill="none" stroke-linecap="round" stroke-width="4"/>
  <path d="M 473.2 293.0 C 609.2 293.0, 677.2 602.0, 813.2 602.0" stroke="#25537b" fill="none" stroke-linecap="round" stroke-width="4"/>
  <path d="M 1018.0 602.0 C 1162.0 602.0, 1234.0 591.5, 1378.0 591.5" stroke="#25537b" fill="none" stroke-linecap="round" stroke-width="4"/>
  <path d="M 473.2 307.0 C 503.6 307.0, 518.8 741.0, 549.2 741.0" stroke="#25537b" fill="none" stroke-linecap="round" stroke-width="3" stroke-dasharray="5 3"/>
  <path d="M 915.6 479.0 C 915.6 588.0, 643.2 588.0, 643.2 697.0" stroke="#25537b" fill="none" stroke-linecap="round" stroke-width="3" stroke-dasharray="5 3"/>
  <g filter="url(#wd-shadow)" transform="translate(21.6, 223.0)">
    <rect width="180.0" height="98.0" rx="4" fill="white" stroke="#ffd700" stroke-width="1.5"/>
    <rect width="180.0" height="28" rx="4" fill="#ffd700"/>
    <rect x="0" y="24" width="180.0" height="4" fill="#ffd700"/>
    <text x="10" y="19" font-family="system-ui, sans-serif" font-size="11" font-weight="500" fill="rgba(44,49,67,0.75)">1:</text>
    <text x="26" y="19" font-family="system-ui, sans-serif" font-size="11" font-weight="600" fill="#2C3143">rmDup BAM SR</text>
    <text x="90.0" y="52" text-anchor="middle" font-family="system-ui, sans-serif" font-size="10" fill="#495057">list collection</text>
    <text x="90.0" y="66" text-anchor="middle" font-family="system-ui, sans-serif" font-size="9" fill="#868e96">n replicate SE BAM files</text>
    <circle cx="180.0" cy="51.3" r="6" fill="white" stroke="#ffd700" stroke-width="2"/>
    <circle cx="180.0" cy="74.7" r="6" fill="white" stroke="#ffd700" stroke-width="2"/>
  </g>
  <g filter="url(#wd-shadow)" transform="translate(20.0, 65.0)">
    <rect width="183.2" height="98.0" rx="4" fill="white" stroke="#ffd700" stroke-width="1.5"/>
    <rect width="183.2" height="28" rx="4" fill="#ffd700"/>
    <rect x="0" y="24" width="183.2" height="4" fill="#ffd700"/>
    <text x="10" y="19" font-family="system-ui, sans-serif" font-size="11" font-weight="600" fill="#2C3143">Min Overlap</text>
    <text x="91.6" y="52" text-anchor="middle" font-family="system-ui, sans-serif" font-size="10" fill="#495057">Integer parameter</text>
    <text x="91.6" y="66" text-anchor="middle" font-family="system-ui, sans-serif" font-size="9" fill="#868e96">Min replicates for consensus</text>
    <circle cx="183.2" cy="63.0" r="6" fill="white" stroke="#ffd700" stroke-width="2"/>
  </g>
  <g filter="url(#wd-shadow)" transform="translate(21.6, 381.0)">
    <rect width="180.0" height="84.0" rx="4" fill="white" stroke="#ffd700" stroke-width="1.5"/>
    <rect width="180.0" height="28" rx="4" fill="#ffd700"/>
    <rect x="0" y="24" width="180.0" height="4" fill="#ffd700"/>
    <text x="10" y="19" font-family="system-ui, sans-serif" font-size="11" font-weight="600" fill="#2C3143">Genome Size</text>
    <text x="90.0" y="52" text-anchor="middle" font-family="system-ui, sans-serif" font-size="10" fill="#495057">Effective genome size</text>
    <circle cx="180.0" cy="46.7" r="6" fill="white" stroke="#ffd700" stroke-width="2"/>
    <circle cx="180.0" cy="65.3" r="6" fill="white" stroke="#ffd700" stroke-width="2"/>
  </g>
  <g filter="url(#wd-shadow)" transform="translate(273.2, 223.0)">
    <rect width="200.0" height="98.0" rx="4" fill="white" stroke="#25537b" stroke-width="1"/>
    <rect width="200.0" height="28" rx="4" fill="#25537b"/>
    <rect x="0" y="24" width="200.0" height="4" fill="#25537b"/>
    <text x="10" y="19" font-family="system-ui, sans-serif" font-size="11" font-weight="500" fill="rgba(255,255,255,0.85)">2:</text>
    <text x="26" y="19" font-family="system-ui, sans-serif" font-size="11" font-weight="600" fill="white">MACS2 (individual)</text>
    <text x="100.0" y="52" text-anchor="middle" font-family="system-ui, sans-serif" font-size="10" fill="#495057">Call peaks per replicate</text>
    <text x="100.0" y="66" text-anchor="middle" font-family="system-ui, sans-serif" font-size="9" fill="#868e96">BAM mode, ext 200</text>
    <circle cx="0.0" cy="51.3" r="6" fill="white" stroke="#25537b" stroke-width="2"/>
    <circle cx="0.0" cy="74.7" r="6" fill="white" stroke="#25537b" stroke-width="2"/>
    <circle cx="200.0" cy="42.0" r="6" fill="white" stroke="#25537b" stroke-width="2"/>
    <circle cx="200.0" cy="56.0" r="6" fill="white" stroke="#25537b" stroke-width="2"/>
    <circle cx="200.0" cy="70.0" r="6" fill="white" stroke="#25537b" stroke-width="2"/>
    <circle cx="200.0" cy="84.0" r="6" fill="white" stroke="#25537b" stroke-width="2"/>
  </g>
  <g filter="url(#wd-shadow)" transform="translate(543.2, 65.0)">
    <rect width="200.0" height="98.0" rx="4" fill="white" stroke="#25537b" stroke-width="1"/>
    <rect width="200.0" height="28" rx="4" fill="#25537b"/>
    <rect x="0" y="24" width="200.0" height="4" fill="#25537b"/>
    <text x="10" y="19" font-family="system-ui, sans-serif" font-size="11" font-weight="500" fill="rgba(255,255,255,0.85)">3:</text>
    <text x="26" y="19" font-family="system-ui, sans-serif" font-size="11" font-weight="600" fill="white">Multi-Intersect</text>
    <text x="100.0" y="52" text-anchor="middle" font-family="system-ui, sans-serif" font-size="10" fill="#495057">Find shared peak regions</text>
    <text x="100.0" y="66" text-anchor="middle" font-family="system-ui, sans-serif" font-size="9" fill="#868e96">Filter by min replicate overlap</text>
    <circle cx="0.0" cy="51.3" r="6" fill="white" stroke="#25537b" stroke-width="2"/>
    <circle cx="0.0" cy="74.7" r="6" fill="white" stroke="#25537b" stroke-width="2"/>
    <circle cx="200.0" cy="63.0" r="6" fill="white" stroke="#25537b" stroke-width="2"/>
  </g>
  <g filter="url(#wd-shadow)" transform="translate(543.2, 381.0)">
    <rect width="200.0" height="98.0" rx="4" fill="white" stroke="#25537b" stroke-width="1"/>
    <rect width="200.0" height="28" rx="4" fill="#25537b"/>
    <rect x="0" y="24" width="200.0" height="4" fill="#25537b"/>
    <text x="10" y="19" font-family="system-ui, sans-serif" font-size="11" font-weight="500" fill="rgba(255,255,255,0.85)">4:</text>
    <text x="26" y="19" font-family="system-ui, sans-serif" font-size="11" font-weight="600" fill="white">Downsample BAM</text>
    <text x="100.0" y="52" text-anchor="middle" font-family="system-ui, sans-serif" font-size="10" fill="#495057">Equalize library sizes</text>
    <text x="100.0" y="66" text-anchor="middle" font-family="system-ui, sans-serif" font-size="9" fill="#868e96">Subsample to smallest replicate</text>
    <circle cx="0.0" cy="63.0" r="6" fill="white" stroke="#25537b" stroke-width="2"/>
    <circle cx="200.0" cy="63.0" r="6" fill="white" stroke="#25537b" stroke-width="2"/>
  </g>
  <g filter="url(#wd-shadow)" transform="translate(815.6, 381.0)">
    <rect width="200.0" height="98.0" rx="4" fill="white" stroke="#25537b" stroke-width="1"/>
    <rect width="200.0" height="28" rx="4" fill="#25537b"/>
    <rect x="0" y="24" width="200.0" height="4" fill="#25537b"/>
    <text x="10" y="19" font-family="system-ui, sans-serif" font-size="11" font-weight="500" fill="rgba(255,255,255,0.85)">5:</text>
    <text x="26" y="19" font-family="system-ui, sans-serif" font-size="11" font-weight="600" fill="white">MACS2 (merged)</text>
    <text x="100.0" y="52" text-anchor="middle" font-family="system-ui, sans-serif" font-size="10" fill="#495057">Call peaks on pooled reads</text>
    <text x="100.0" y="66" text-anchor="middle" font-family="system-ui, sans-serif" font-size="9" fill="#868e96">Combined subsampled replicates</text>
    <circle cx="0.0" cy="51.3" r="6" fill="white" stroke="#25537b" stroke-width="2"/>
    <circle cx="0.0" cy="74.7" r="6" fill="white" stroke="#25537b" stroke-width="2"/>
    <circle cx="200.0" cy="51.3" r="6" fill="white" stroke="#25537b" stroke-width="2"/>
    <circle cx="200.0" cy="74.7" r="6" fill="white" stroke="#25537b" stroke-width="2"/>
    <circle cx="100.0" cy="98.0" r="6" fill="white" stroke="#25537b" stroke-width="2"/>
  </g>
  <g filter="url(#wd-shadow)" transform="translate(1088.0, 223.0)">
    <rect width="200.0" height="98.0" rx="4" fill="white" stroke="#25537b" stroke-width="1"/>
    <rect width="200.0" height="28" rx="4" fill="#25537b"/>
    <rect x="0" y="24" width="200.0" height="4" fill="#25537b"/>
    <text x="10" y="19" font-family="system-ui, sans-serif" font-size="11" font-weight="500" fill="rgba(255,255,255,0.85)">6:</text>
    <text x="26" y="19" font-family="system-ui, sans-serif" font-size="11" font-weight="600" fill="white">Consensus Filter</text>
    <text x="100.0" y="52" text-anchor="middle" font-family="system-ui, sans-serif" font-size="10" fill="#495057">Intersect merged with shared</text>
    <text x="100.0" y="66" text-anchor="middle" font-family="system-ui, sans-serif" font-size="9" fill="#868e96">Keep summits in shared regions</text>
    <circle cx="0.0" cy="51.3" r="6" fill="white" stroke="#25537b" stroke-width="2"/>
    <circle cx="0.0" cy="74.7" r="6" fill="white" stroke="#25537b" stroke-width="2"/>
    <circle cx="200.0" cy="63.0" r="6" fill="white" stroke="#25537b" stroke-width="2"/>
  </g>
  <g filter="url(#wd-shadow)" transform="translate(813.2, 539.0)">
    <rect width="204.8" height="98.0" rx="4" fill="white" stroke="#25537b" stroke-width="1"/>
    <rect width="204.8" height="28" rx="4" fill="#25537b"/>
    <rect x="0" y="24" width="204.8" height="4" fill="#25537b"/>
    <text x="10" y="19" font-family="system-ui, sans-serif" font-size="11" font-weight="500" fill="rgba(255,255,255,0.85)">7:</text>
    <text x="26" y="19" font-family="system-ui, sans-serif" font-size="11" font-weight="600" fill="white">bigwigAverage</text>
    <text x="102.4" y="52" text-anchor="middle" font-family="system-ui, sans-serif" font-size="10" fill="#495057">Average normalized coverage</text>
    <text x="102.4" y="66" text-anchor="middle" font-family="system-ui, sans-serif" font-size="9" fill="#868e96">deepTools mean across replicates</text>
    <circle cx="0.0" cy="63.0" r="6" fill="white" stroke="#25537b" stroke-width="2"/>
    <circle cx="204.8" cy="63.0" r="6" fill="white" stroke="#25537b" stroke-width="2"/>
  </g>
  <g filter="url(#wd-shadow)" transform="translate(1361.0, 65.0)">
    <rect width="194.0" height="77.0" rx="4" fill="white" stroke="#10b981" stroke-width="1.5"/>
    <rect width="194.0" height="28" rx="4" fill="#10b981"/>
    <rect x="0" y="24" width="194.0" height="4" fill="#10b981"/>
    <text x="10" y="19" font-family="system-ui, sans-serif" font-size="11" font-weight="600" fill="white">Consensus Peaks</text>
    <text x="97.0" y="52" text-anchor="middle" font-family="system-ui, sans-serif" font-size="10" fill="#495057">narrowPeak shared by n reps</text>
    <circle cx="0.0" cy="52.5" r="5" fill="white" stroke="#10b981" stroke-width="2"/>
  </g>
  <g filter="url(#wd-shadow)" transform="translate(1367.0, 223.0)">
    <rect width="182.0" height="77.0" rx="4" fill="white" stroke="#10b981" stroke-width="1.5"/>
    <rect width="182.0" height="28" rx="4" fill="#10b981"/>
    <rect x="0" y="24" width="182.0" height="4" fill="#10b981"/>
    <text x="10" y="19" font-family="system-ui, sans-serif" font-size="11" font-weight="600" fill="white">Individual Peaks</text>
    <text x="91.0" y="52" text-anchor="middle" font-family="system-ui, sans-serif" font-size="10" fill="#495057">Per-replicate narrowPeaks</text>
    <circle cx="0.0" cy="52.5" r="5" fill="white" stroke="#10b981" stroke-width="2"/>
  </g>
  <g filter="url(#wd-shadow)" transform="translate(1358.0, 381.0)">
    <rect width="200.0" height="77.0" rx="4" fill="white" stroke="#10b981" stroke-width="1.5"/>
    <rect width="200.0" height="28" rx="4" fill="#10b981"/>
    <rect x="0" y="24" width="200.0" height="4" fill="#10b981"/>
    <text x="10" y="19" font-family="system-ui, sans-serif" font-size="11" font-weight="600" fill="white">Merged Peaks</text>
    <text x="100.0" y="52" text-anchor="middle" font-family="system-ui, sans-serif" font-size="10" fill="#495057">Pooled-replicate narrowPeaks</text>
    <circle cx="0.0" cy="52.5" r="5" fill="white" stroke="#10b981" stroke-width="2"/>
  </g>
  <g filter="url(#wd-shadow)" transform="translate(1378.0, 539.0)">
    <rect width="160.0" height="77.0" rx="4" fill="white" stroke="#10b981" stroke-width="1.5"/>
    <rect width="160.0" height="28" rx="4" fill="#10b981"/>
    <rect x="0" y="24" width="160.0" height="4" fill="#10b981"/>
    <text x="10" y="19" font-family="system-ui, sans-serif" font-size="11" font-weight="600" fill="white">Average Coverage</text>
    <text x="80.0" y="52" text-anchor="middle" font-family="system-ui, sans-serif" font-size="10" fill="#495057">Normalized BigWig</text>
    <circle cx="0.0" cy="52.5" r="5" fill="white" stroke="#10b981" stroke-width="2"/>
  </g>
  <g filter="url(#wd-shadow)" transform="translate(549.2, 697.0)">
    <rect width="188.0" height="64.0" rx="4" fill="white" stroke="#5bc0de" stroke-width="1.5" stroke-dasharray="4 2"/>
    <rect width="188.0" height="24" rx="4" fill="#5bc0de"/>
    <rect x="0" y="20" width="188.0" height="4" fill="#5bc0de"/>
    <text x="10" y="15" font-family="system-ui, sans-serif" font-size="11" font-weight="600" fill="white">MultiQC</text>
    <text x="94.0" y="48" text-anchor="middle" font-family="system-ui, sans-serif" font-size="10" fill="#495057">MACS2 peak calling summary</text>
    <circle cx="0.0" cy="44.0" r="5" fill="white" stroke="#5bc0de" stroke-width="2"/>
    <circle cx="94.0" cy="0.0" r="5" fill="white" stroke="#5bc0de" stroke-width="2"/>
  </g>
  <g transform="translate(20, 796)">
    <text x="0" y="0" font-family="system-ui, sans-serif" font-size="10" font-weight="600" fill="#495057">Legend:</text>
    <rect x="60" y="-10" width="14" height="14" rx="2" fill="white" stroke="#ffd700" stroke-width="1.5"/>
    <text x="80" y="0" font-family="system-ui, sans-serif" font-size="9" fill="#6c757d">Input</text>
    <line x1="123.0" y1="-4" x2="163.0" y2="-4" stroke="#25537b" stroke-width="4" stroke-linecap="round"/>
    <text x="171.0" y="0" font-family="system-ui, sans-serif" font-size="9" fill="#6c757d">Data flow</text>
    <line x1="235.6" y1="-4" x2="275.6" y2="-4" stroke="#25537b" stroke-width="3" stroke-linecap="round" stroke-dasharray="5 3"/>
    <text x="283.6" y="0" font-family="system-ui, sans-serif" font-size="9" fill="#6c757d">QC metrics</text>
    <rect x="353.6" y="-10" width="14" height="14" rx="2" fill="white" stroke="#10b981" stroke-width="1.5"/>
    <text x="373.6" y="0" font-family="system-ui, sans-serif" font-size="9" fill="#6c757d">Output</text>
    <rect x="422.0" y="-10" width="14" height="14" rx="2" fill="white" stroke="#5bc0de" stroke-width="1.5"/>
    <text x="442.0" y="0" font-family="system-ui, sans-serif" font-size="9" fill="#6c757d">Report</text>
  </g>
</svg>