<svg xmlns="http://www.w3.org/2000/svg" viewBox="0 0 900 380" role="img" aria-label="Taxonomic rank abundance summary table workflow diagram">
  <title>Taxonomic Rank Abundance Summary Table</title>
  <desc>Workflow that creates taxonomic abundance summary tables for a specified taxonomic rank from MAPseq OTU tables, aggregating counts and formatting cross-sample summaries.</desc>
  <defs>
    <pattern id="grid" width="20" height="20" patternUnits="userSpaceOnUse">
      <path d="M 20 0 L 0 0 0 20" fill="none" stroke="#c5d5e4" stroke-width="0.5"/>
    </pattern>
    <pattern id="grid-major" width="100" height="100" patternUnits="userSpaceOnUse">
      <rect width="100" height="100" fill="url(#grid)"/>
      <path d="M 100 0 L 0 0 0 100" fill="none" stroke="#b0c4d8" stroke-width="1"/>
    </pattern>
    <style>
      .connection { stroke: #25537b; stroke-width: 4; fill: none; stroke-linecap: round; }
      .connection-qc { stroke: #25537b; stroke-width: 3; fill: none; stroke-linecap: round; stroke-dasharray: 5 3; }
      .connection-secondary { stroke: #25537b; stroke-width: 3; fill: none; stroke-linecap: round; }
      .node-card { filter: drop-shadow(1px 2px 3px rgba(0,0,0,0.15)); }
    </style>
  </defs>
  <rect width="900" height="380" fill="#f8f9fa"/>
  <rect width="900" height="380" fill="url(#grid-major)"/>
  <rect x="0" y="0" width="900" height="45" fill="#25537b"/>
  <text x="20" y="28" font-family="system-ui, sans-serif" font-size="16" font-weight="600" fill="white">Taxonomic Rank Abundance Summary Table</text>

  <!-- CONNECTIONS -->
  <!-- OTU tables -> Extract at Rank -->
  <path d="M 180 105 C 230 105, 250 115, 290 115" class="connection"/>
  <!-- Extract at Rank -> Group + Aggregate -->
  <path d="M 490 115 C 520 115, 520 115, 540 115" class="connection"/>
  <!-- Group -> Join + Format -->
  <path d="M 740 115 C 770 115, 770 115, 540 115" class="connection" style="opacity:0"/>

  <!-- Join output -> Output -->
  <path d="M 740 115 C 770 115, 770 270, 510 270" class="connection"/>

  <!-- NODES -->
  <!-- Input: OTU tables -->
  <g class="node-card" transform="translate(20,70)">
    <rect width="180" height="70" rx="4" fill="white" stroke="#ffd700" stroke-width="1.5"/>
    <rect width="180" height="28" rx="4" fill="#ffd700"/>
    <rect x="0" y="24" width="180" height="4" fill="#ffd700"/>
    <text x="10" y="19" font-family="system-ui, sans-serif" font-size="11" fill="rgba(44,49,67,0.6)">1:</text>
    <text x="24" y="19" font-family="system-ui, sans-serif" font-size="11" font-weight="600" fill="#2C3143">OTU Tables</text>
    <text x="90" y="52" text-anchor="middle" font-family="system-ui, sans-serif" font-size="10" fill="#495057">list collection</text>
    <circle cx="180" cy="45" r="6" fill="white" stroke="#ffd700" stroke-width="2"/>
  </g>

  <!-- Extract at Rank (Text reformatting with mapped AWK code) -->
  <g class="node-card" transform="translate(280,80)">
    <rect width="200" height="90" rx="4" fill="white" stroke="#25537b" stroke-width="1"/>
    <rect width="200" height="28" rx="4" fill="#25537b"/>
    <rect x="0" y="24" width="200" height="4" fill="#25537b"/>
    <text x="10" y="19" font-family="system-ui, sans-serif" font-size="11" fill="rgba(255,255,255,0.7)">2:</text>
    <text x="26" y="19" font-family="system-ui, sans-serif" font-size="11" font-weight="600" fill="white">Extract at Rank</text>
    <text x="100" y="52" text-anchor="middle" font-family="system-ui, sans-serif" font-size="10" fill="#495057">Parse taxonomy to rank level</text>
    <text x="100" y="66" text-anchor="middle" font-family="system-ui, sans-serif" font-size="9" fill="#868e96">Configurable depth (e.g. phylum)</text>
    <circle cx="0" cy="45" r="6" fill="white" stroke="#25537b" stroke-width="2"/>
    <circle cx="200" cy="45" r="6" fill="white" stroke="#25537b" stroke-width="2"/>
  </g>

  <!-- Group + Aggregate + Filter -->
  <g class="node-card" transform="translate(530,80)">
    <rect width="200" height="90" rx="4" fill="white" stroke="#25537b" stroke-width="1"/>
    <rect width="200" height="28" rx="4" fill="#25537b"/>
    <rect x="0" y="24" width="200" height="4" fill="#25537b"/>
    <text x="10" y="19" font-family="system-ui, sans-serif" font-size="11" fill="rgba(255,255,255,0.7)">3:</text>
    <text x="26" y="19" font-family="system-ui, sans-serif" font-size="11" font-weight="600" fill="white">Group + Join + Format</text>
    <text x="100" y="52" text-anchor="middle" font-family="system-ui, sans-serif" font-size="10" fill="#495057">Sum abundances, join samples</text>
    <text x="100" y="66" text-anchor="middle" font-family="system-ui, sans-serif" font-size="9" fill="#868e96">Cross-sample summary matrix</text>
    <circle cx="0" cy="45" r="6" fill="white" stroke="#25537b" stroke-width="2"/>
    <circle cx="200" cy="45" r="6" fill="white" stroke="#25537b" stroke-width="2"/>
  </g>

  <!-- Output -->
  <g class="node-card" transform="translate(330,260)">
    <rect width="200" height="50" rx="4" fill="white" stroke="#f97316" stroke-width="1.5"/>
    <rect width="200" height="20" rx="4" fill="#f97316"/>
    <rect x="0" y="16" width="200" height="4" fill="#f97316"/>
    <text x="100" y="14" text-anchor="middle" font-family="system-ui, sans-serif" font-size="10" font-weight="600" fill="white">Taxonomic Rank Summary</text>
    <text x="100" y="38" text-anchor="middle" font-family="system-ui, sans-serif" font-size="8" fill="#868e96">tabular</text>
    <circle cx="0" cy="25" r="5" fill="white" stroke="#f97316" stroke-width="2"/>
  </g>

  <!-- Legend -->
  <g transform="translate(20,355)">
    <text x="0" y="0" font-family="system-ui, sans-serif" font-size="10" font-weight="600" fill="#495057">Legend:</text>
    <rect x="60" y="-10" width="14" height="14" rx="2" fill="white" stroke="#ffd700" stroke-width="1.5"/>
    <text x="80" y="0" font-family="system-ui, sans-serif" font-size="9" fill="#6c757d">Input</text>
    <line x1="120" y1="-4" x2="160" y2="-4" stroke="#25537b" stroke-width="4" stroke-linecap="round"/>
    <text x="168" y="0" font-family="system-ui, sans-serif" font-size="9" fill="#6c757d">Data flow</text>
    <line x1="240" y1="-4" x2="280" y2="-4" stroke="#25537b" stroke-width="3" stroke-linecap="round" stroke-dasharray="5 3"/>
    <text x="288" y="0" font-family="system-ui, sans-serif" font-size="9" fill="#6c757d">QC metrics</text>
    <rect x="360" y="-10" width="14" height="14" rx="2" fill="white" stroke="#f97316" stroke-width="1.5"/>
    <text x="380" y="0" font-family="system-ui, sans-serif" font-size="9" fill="#6c757d">Output</text>
    <rect x="430" y="-10" width="14" height="14" rx="2" fill="white" stroke="#10b981" stroke-width="1.5"/>
    <text x="450" y="0" font-family="system-ui, sans-serif" font-size="9" fill="#6c757d">Report</text>
  </g>
</svg>