<svg viewBox="0 0 1346 515" aria-label="Hi-C: Juicer Medium Tabix to Cooler" role="img" xmlns="http://www.w3.org/2000/svg">
  <title>Hi-C: Juicer Medium Tabix to Cooler</title>
  <defs>
    <pattern id="wd-grid" width="20" height="20" patternUnits="userSpaceOnUse">
      <path d="M 20 0 L 0 0 0 20" fill="none" stroke="#c5d5e4" stroke-width="0.5"/>
    </pattern>
    <pattern id="wd-grid-major" width="100" height="100" patternUnits="userSpaceOnUse">
      <rect width="100" height="100" fill="url(#wd-grid)"/>
      <path d="M 100 0 L 0 0 0 100" fill="none" stroke="#b0c4d8" stroke-width="1"/>
    </pattern>
    <filter id="wd-shadow" x="-5%" y="-5%" width="115%" height="115%">
      <feDropShadow dx="1" dy="2" stdDeviation="1.5" flood-opacity="0.15"/>
    </filter>
  </defs>
  <rect width="1346" height="515" fill="#f8f9fa"/>
  <rect width="1346" height="515" fill="url(#wd-grid-major)"/>
  <rect x="0" y="0" width="1346" height="45" fill="#25537b"/>
  <text x="20" y="28" font-family="system-ui, sans-serif" font-size="16" font-weight="600" fill="white">Hi-C: Juicer Medium Tabix to Cooler</text>
  <path d="M 200.0 128.0 C 349.9 128.0, 424.9 110.5, 574.8 110.5" stroke="white" fill="none" stroke-linecap="round" stroke-width="8"/>
  <path d="M 200.0 269.7 C 234.0 269.7, 251.0 274.3, 285.0 274.3" stroke="white" fill="none" stroke-linecap="round" stroke-width="7"/>
  <path d="M 200.0 437.0 C 234.0 437.0, 251.0 297.7, 285.0 297.7" stroke="white" fill="none" stroke-linecap="round" stroke-width="7"/>
  <path d="M 489.8 286.0 C 523.8 286.0, 540.8 128.0, 574.8 128.0" stroke="white" fill="none" stroke-linecap="round" stroke-width="8"/>
  <path d="M 200.0 288.3 C 349.9 288.3, 424.9 145.5, 574.8 145.5" stroke="white" fill="none" stroke-linecap="round" stroke-width="7"/>
  <path d="M 774.8 116.3 C 922.8 116.3, 996.8 117.5, 1144.8 117.5" stroke="white" fill="none" stroke-linecap="round" stroke-width="7"/>
  <path d="M 774.8 139.7 C 808.8 139.7, 825.8 128.0, 859.8 128.0" stroke="white" fill="none" stroke-linecap="round" stroke-width="8"/>
  <path d="M 1059.8 128.0 C 1096.2 128.0, 1114.4 275.5, 1150.8 275.5" stroke="white" fill="none" stroke-linecap="round" stroke-width="8"/>
  <path d="M 200.0 128.0 C 349.9 128.0, 424.9 110.5, 574.8 110.5" stroke="#25537b" fill="none" stroke-linecap="round" stroke-width="4"/>
  <path d="M 200.0 269.7 C 234.0 269.7, 251.0 274.3, 285.0 274.3" stroke="#25537b" fill="none" stroke-linecap="round" stroke-width="3"/>
  <path d="M 200.0 437.0 C 234.0 437.0, 251.0 297.7, 285.0 297.7" stroke="#25537b" fill="none" stroke-linecap="round" stroke-width="3"/>
  <path d="M 489.8 286.0 C 523.8 286.0, 540.8 128.0, 574.8 128.0" stroke="#25537b" fill="none" stroke-linecap="round" stroke-width="4"/>
  <path d="M 200.0 288.3 C 349.9 288.3, 424.9 145.5, 574.8 145.5" stroke="#25537b" fill="none" stroke-linecap="round" stroke-width="3"/>
  <path d="M 774.8 116.3 C 922.8 116.3, 996.8 117.5, 1144.8 117.5" stroke="#25537b" fill="none" stroke-linecap="round" stroke-width="3"/>
  <path d="M 774.8 139.7 C 808.8 139.7, 825.8 128.0, 859.8 128.0" stroke="#25537b" fill="none" stroke-linecap="round" stroke-width="4"/>
  <path d="M 1059.8 128.0 C 1096.2 128.0, 1114.4 275.5, 1150.8 275.5" stroke="#25537b" fill="none" stroke-linecap="round" stroke-width="4"/>
  <g filter="url(#wd-shadow)" transform="translate(20.0, 65.0)">
    <rect width="180.0" height="98.0" rx="4" fill="white" stroke="#ffd700" stroke-width="1.5"/>
    <rect width="180.0" height="28" rx="4" fill="#ffd700"/>
    <rect x="0" y="24" width="180.0" height="4" fill="#ffd700"/>
    <text x="10" y="19" font-family="system-ui, sans-serif" font-size="11" font-weight="500" fill="rgba(44,49,67,0.75)">1:</text>
    <text x="26" y="19" font-family="system-ui, sans-serif" font-size="11" font-weight="600" fill="#2C3143">Juicer Medium Tabix</text>
    <text x="90.0" y="52" text-anchor="middle" font-family="system-ui, sans-serif" font-size="10" fill="#495057">list collection</text>
    <text x="90.0" y="66" text-anchor="middle" font-family="system-ui, sans-serif" font-size="9" fill="#868e96">Valid interaction pairs</text>
    <circle cx="180.0" cy="63.0" r="6" fill="white" stroke="#ffd700" stroke-width="2"/>
  </g>
  <g filter="url(#wd-shadow)" transform="translate(20.0, 223.0)">
    <rect width="180.0" height="84.0" rx="4" fill="white" stroke="#ffd700" stroke-width="1.5"/>
    <rect width="180.0" height="28" rx="4" fill="#ffd700"/>
    <rect x="0" y="24" width="180.0" height="4" fill="#ffd700"/>
    <text x="10" y="19" font-family="system-ui, sans-serif" font-size="11" font-weight="600" fill="#2C3143">Genome Name</text>
    <text x="90.0" y="52" text-anchor="middle" font-family="system-ui, sans-serif" font-size="10" fill="#495057">Reference genome ID</text>
    <circle cx="180.0" cy="46.7" r="6" fill="white" stroke="#ffd700" stroke-width="2"/>
    <circle cx="180.0" cy="65.3" r="6" fill="white" stroke="#ffd700" stroke-width="2"/>
  </g>
  <g filter="url(#wd-shadow)" transform="translate(20.0, 381.0)">
    <rect width="180.0" height="84.0" rx="4" fill="white" stroke="#ffd700" stroke-width="1.5"/>
    <rect width="180.0" height="28" rx="4" fill="#ffd700"/>
    <rect x="0" y="24" width="180.0" height="4" fill="#ffd700"/>
    <text x="10" y="19" font-family="system-ui, sans-serif" font-size="11" font-weight="600" fill="#2C3143">Bin Size</text>
    <text x="90.0" y="52" text-anchor="middle" font-family="system-ui, sans-serif" font-size="10" fill="#495057">Resolution in bp</text>
    <circle cx="180.0" cy="56.0" r="6" fill="white" stroke="#ffd700" stroke-width="2"/>
  </g>
  <g filter="url(#wd-shadow)" transform="translate(285.0, 223.0)">
    <rect width="204.8" height="98.0" rx="4" fill="white" stroke="#25537b" stroke-width="1"/>
    <rect width="204.8" height="28" rx="4" fill="#25537b"/>
    <rect x="0" y="24" width="204.8" height="4" fill="#25537b"/>
    <text x="10" y="19" font-family="system-ui, sans-serif" font-size="11" font-weight="500" fill="rgba(255,255,255,0.85)">2:</text>
    <text x="26" y="19" font-family="system-ui, sans-serif" font-size="11" font-weight="600" fill="white">cooler makebins</text>
    <text x="102.4" y="52" text-anchor="middle" font-family="system-ui, sans-serif" font-size="10" fill="#495057">Create genomic bins</text>
    <text x="102.4" y="66" text-anchor="middle" font-family="system-ui, sans-serif" font-size="9" fill="#868e96">BED file at specified resolution</text>
    <circle cx="0.0" cy="51.3" r="6" fill="white" stroke="#25537b" stroke-width="2"/>
    <circle cx="0.0" cy="74.7" r="6" fill="white" stroke="#25537b" stroke-width="2"/>
    <circle cx="204.8" cy="63.0" r="6" fill="white" stroke="#25537b" stroke-width="2"/>
  </g>
  <g filter="url(#wd-shadow)" transform="translate(574.8, 65.0)">
    <rect width="200.0" height="98.0" rx="4" fill="white" stroke="#25537b" stroke-width="1"/>
    <rect width="200.0" height="28" rx="4" fill="#25537b"/>
    <rect x="0" y="24" width="200.0" height="4" fill="#25537b"/>
    <text x="10" y="19" font-family="system-ui, sans-serif" font-size="11" font-weight="500" fill="rgba(255,255,255,0.85)">3:</text>
    <text x="26" y="19" font-family="system-ui, sans-serif" font-size="11" font-weight="600" fill="white">cooler cload</text>
    <text x="100.0" y="52" text-anchor="middle" font-family="system-ui, sans-serif" font-size="10" fill="#495057">Load pairs into matrix</text>
    <text x="100.0" y="66" text-anchor="middle" font-family="system-ui, sans-serif" font-size="9" fill="#868e96">Juicer medium format input</text>
    <circle cx="0.0" cy="45.5" r="6" fill="white" stroke="#25537b" stroke-width="2"/>
    <circle cx="0.0" cy="63.0" r="6" fill="white" stroke="#25537b" stroke-width="2"/>
    <circle cx="0.0" cy="80.5" r="6" fill="white" stroke="#25537b" stroke-width="2"/>
    <circle cx="200.0" cy="51.3" r="6" fill="white" stroke="#25537b" stroke-width="2"/>
    <circle cx="200.0" cy="74.7" r="6" fill="white" stroke="#25537b" stroke-width="2"/>
  </g>
  <g filter="url(#wd-shadow)" transform="translate(859.8, 65.0)">
    <rect width="200.0" height="98.0" rx="4" fill="white" stroke="#25537b" stroke-width="1"/>
    <rect width="200.0" height="28" rx="4" fill="#25537b"/>
    <rect x="0" y="24" width="200.0" height="4" fill="#25537b"/>
    <text x="10" y="19" font-family="system-ui, sans-serif" font-size="11" font-weight="500" fill="rgba(255,255,255,0.85)">4:</text>
    <text x="26" y="19" font-family="system-ui, sans-serif" font-size="11" font-weight="600" fill="white">cooler balance</text>
    <text x="100.0" y="52" text-anchor="middle" font-family="system-ui, sans-serif" font-size="10" fill="#495057">ICE normalization</text>
    <text x="100.0" y="66" text-anchor="middle" font-family="system-ui, sans-serif" font-size="9" fill="#868e96">Iterative correction</text>
    <circle cx="0.0" cy="63.0" r="6" fill="white" stroke="#25537b" stroke-width="2"/>
    <circle cx="200.0" cy="63.0" r="6" fill="white" stroke="#25537b" stroke-width="2"/>
  </g>
  <g filter="url(#wd-shadow)" transform="translate(1144.8, 65.0)">
    <rect width="182.0" height="77.0" rx="4" fill="white" stroke="#10b981" stroke-width="1.5"/>
    <rect width="182.0" height="28" rx="4" fill="#10b981"/>
    <rect x="0" y="24" width="182.0" height="4" fill="#10b981"/>
    <text x="10" y="19" font-family="system-ui, sans-serif" font-size="11" font-weight="600" fill="white">Raw Cool Matrix</text>
    <text x="91.0" y="52" text-anchor="middle" font-family="system-ui, sans-serif" font-size="10" fill="#495057">Unbalanced contact matrix</text>
    <circle cx="0.0" cy="52.5" r="5" fill="white" stroke="#10b981" stroke-width="2"/>
  </g>
  <g filter="url(#wd-shadow)" transform="translate(1150.8, 223.0)">
    <rect width="170.0" height="77.0" rx="4" fill="white" stroke="#10b981" stroke-width="1.5"/>
    <rect width="170.0" height="28" rx="4" fill="#10b981"/>
    <rect x="0" y="24" width="170.0" height="4" fill="#10b981"/>
    <text x="10" y="19" font-family="system-ui, sans-serif" font-size="11" font-weight="600" fill="white">Balanced Cool Matrix</text>
    <text x="85.0" y="52" text-anchor="middle" font-family="system-ui, sans-serif" font-size="10" fill="#495057">ICE-normalized contacts</text>
    <circle cx="0.0" cy="52.5" r="5" fill="white" stroke="#10b981" stroke-width="2"/>
  </g>
  <g transform="translate(20, 500)">
    <text x="0" y="0" font-family="system-ui, sans-serif" font-size="10" font-weight="600" fill="#495057">Legend:</text>
    <rect x="60" y="-10" width="14" height="14" rx="2" fill="white" stroke="#ffd700" stroke-width="1.5"/>
    <text x="80" y="0" font-family="system-ui, sans-serif" font-size="9" fill="#6c757d">Input</text>
    <line x1="123.0" y1="-4" x2="163.0" y2="-4" stroke="#25537b" stroke-width="4" stroke-linecap="round"/>
    <text x="171.0" y="0" font-family="system-ui, sans-serif" font-size="9" fill="#6c757d">Data flow</text>
    <rect x="235.6" y="-10" width="14" height="14" rx="2" fill="white" stroke="#10b981" stroke-width="1.5"/>
    <text x="255.6" y="0" font-family="system-ui, sans-serif" font-size="9" fill="#6c757d">Output</text>
  </g>
</svg>