<svg viewBox="0 0 1158 487" aria-label="AMR Gene Detection" role="img" xmlns="http://www.w3.org/2000/svg">
  <title>AMR Gene Detection</title>
  <defs>
    <pattern id="wd-grid" width="20" height="20" patternUnits="userSpaceOnUse">
      <path d="M 20 0 L 0 0 0 20" fill="none" stroke="#c5d5e4" stroke-width="0.5"/>
    </pattern>
    <pattern id="wd-grid-major" width="100" height="100" patternUnits="userSpaceOnUse">
      <rect width="100" height="100" fill="url(#wd-grid)"/>
      <path d="M 100 0 L 0 0 0 100" fill="none" stroke="#b0c4d8" stroke-width="1"/>
    </pattern>
    <filter id="wd-shadow" x="-5%" y="-5%" width="115%" height="115%">
      <feDropShadow dx="1" dy="2" stdDeviation="1.5" flood-opacity="0.15"/>
    </filter>
  </defs>
  <rect width="1158" height="487" fill="#f8f9fa"/>
  <rect width="1158" height="487" fill="url(#wd-grid-major)"/>
  <rect x="0" y="0" width="1158" height="45" fill="#25537b"/>
  <text x="20" y="28" font-family="system-ui, sans-serif" font-size="16" font-weight="600" fill="white">AMR Gene Detection</text>
  <path d="M 210.0 107.0 C 257.6 107.0, 281.4 111.7, 329.0 111.7" stroke="white" fill="none" stroke-linecap="round" stroke-width="8"/>
  <path d="M 210.0 121.0 C 254.0 121.0, 276.0 255.7, 320.0 255.7" stroke="white" fill="none" stroke-linecap="round" stroke-width="8"/>
  <path d="M 210.0 135.0 C 257.6 135.0, 281.4 399.7, 329.0 399.7" stroke="white" fill="none" stroke-linecap="round" stroke-width="8"/>
  <path d="M 220.0 251.0 C 263.6 251.0, 285.4 130.3, 329.0 130.3" stroke="white" fill="none" stroke-linecap="round" stroke-width="7"/>
  <path d="M 220.0 265.0 C 260.0 265.0, 280.0 274.3, 320.0 274.3" stroke="white" fill="none" stroke-linecap="round" stroke-width="7"/>
  <path d="M 220.0 279.0 C 263.6 279.0, 285.4 418.3, 329.0 418.3" stroke="white" fill="none" stroke-linecap="round" stroke-width="7"/>
  <path d="M 529.0 111.7 C 692.6 111.7, 774.4 117.5, 938.0 117.5" stroke="white" fill="none" stroke-linecap="round" stroke-width="8"/>
  <path d="M 529.0 130.3 C 572.6 130.3, 594.4 251.0, 638.0 251.0" stroke="white" fill="none" stroke-linecap="round" stroke-width="8"/>
  <path d="M 538.0 255.7 C 701.6 255.7, 783.4 405.5, 947.0 405.5" stroke="white" fill="none" stroke-linecap="round" stroke-width="8"/>
  <path d="M 538.0 274.3 C 578.0 274.3, 598.0 265.0, 638.0 265.0" stroke="white" fill="none" stroke-linecap="round" stroke-width="8"/>
  <path d="M 529.0 409.0 C 572.6 409.0, 594.4 279.0, 638.0 279.0" stroke="white" fill="none" stroke-linecap="round" stroke-width="8"/>
  <path d="M 838.0 265.0 C 886.0 265.0, 910.0 261.5, 958.0 261.5" stroke="white" fill="none" stroke-linecap="round" stroke-width="8"/>
  <path d="M 210.0 107.0 C 257.6 107.0, 281.4 111.7, 329.0 111.7" stroke="#25537b" fill="none" stroke-linecap="round" stroke-width="4"/>
  <path d="M 210.0 121.0 C 254.0 121.0, 276.0 255.7, 320.0 255.7" stroke="#25537b" fill="none" stroke-linecap="round" stroke-width="4"/>
  <path d="M 210.0 135.0 C 257.6 135.0, 281.4 399.7, 329.0 399.7" stroke="#25537b" fill="none" stroke-linecap="round" stroke-width="4"/>
  <path d="M 220.0 251.0 C 263.6 251.0, 285.4 130.3, 329.0 130.3" stroke="#25537b" fill="none" stroke-linecap="round" stroke-width="3"/>
  <path d="M 220.0 265.0 C 260.0 265.0, 280.0 274.3, 320.0 274.3" stroke="#25537b" fill="none" stroke-linecap="round" stroke-width="3"/>
  <path d="M 220.0 279.0 C 263.6 279.0, 285.4 418.3, 329.0 418.3" stroke="#25537b" fill="none" stroke-linecap="round" stroke-width="3"/>
  <path d="M 529.0 111.7 C 692.6 111.7, 774.4 117.5, 938.0 117.5" stroke="#25537b" fill="none" stroke-linecap="round" stroke-width="4"/>
  <path d="M 529.0 130.3 C 572.6 130.3, 594.4 251.0, 638.0 251.0" stroke="#25537b" fill="none" stroke-linecap="round" stroke-width="4"/>
  <path d="M 538.0 255.7 C 701.6 255.7, 783.4 405.5, 947.0 405.5" stroke="#25537b" fill="none" stroke-linecap="round" stroke-width="4"/>
  <path d="M 538.0 274.3 C 578.0 274.3, 598.0 265.0, 638.0 265.0" stroke="#25537b" fill="none" stroke-linecap="round" stroke-width="4"/>
  <path d="M 529.0 409.0 C 572.6 409.0, 594.4 279.0, 638.0 279.0" stroke="#25537b" fill="none" stroke-linecap="round" stroke-width="4"/>
  <path d="M 838.0 265.0 C 886.0 265.0, 910.0 261.5, 958.0 261.5" stroke="#25537b" fill="none" stroke-linecap="round" stroke-width="4"/>
  <g filter="url(#wd-shadow)" transform="translate(30.0, 65.0)">
    <rect width="180.0" height="84.0" rx="4" fill="white" stroke="#ffd700" stroke-width="1.5"/>
    <rect width="180.0" height="28" rx="4" fill="#ffd700"/>
    <rect x="0" y="24" width="180.0" height="4" fill="#ffd700"/>
    <text x="10" y="19" font-family="system-ui, sans-serif" font-size="11" font-weight="600" fill="#2C3143">Assembled Genome</text>
    <text x="90.0" y="52" text-anchor="middle" font-family="system-ui, sans-serif" font-size="10" fill="#495057">FASTA contigs</text>
    <circle cx="180.0" cy="42.0" r="6" fill="white" stroke="#ffd700" stroke-width="2"/>
    <circle cx="180.0" cy="56.0" r="6" fill="white" stroke="#ffd700" stroke-width="2"/>
    <circle cx="180.0" cy="70.0" r="6" fill="white" stroke="#ffd700" stroke-width="2"/>
  </g>
  <g filter="url(#wd-shadow)" transform="translate(20.0, 209.0)">
    <rect width="200.0" height="84.0" rx="4" fill="white" stroke="#ffd700" stroke-width="1.5"/>
    <rect width="200.0" height="28" rx="4" fill="#ffd700"/>
    <rect x="0" y="24" width="200.0" height="4" fill="#ffd700"/>
    <text x="10" y="19" font-family="system-ui, sans-serif" font-size="11" font-weight="600" fill="#2C3143">Database Parameters</text>
    <text x="100.0" y="52" text-anchor="middle" font-family="system-ui, sans-serif" font-size="10" fill="#495057">StarAMR, AMRFinder, ABRicate</text>
    <circle cx="200.0" cy="42.0" r="6" fill="white" stroke="#ffd700" stroke-width="2"/>
    <circle cx="200.0" cy="56.0" r="6" fill="white" stroke="#ffd700" stroke-width="2"/>
    <circle cx="200.0" cy="70.0" r="6" fill="white" stroke="#ffd700" stroke-width="2"/>
  </g>
  <g filter="url(#wd-shadow)" transform="translate(329.0, 65.0)">
    <rect width="200.0" height="84.0" rx="4" fill="white" stroke="#25537b" stroke-width="1"/>
    <rect width="200.0" height="28" rx="4" fill="#25537b"/>
    <rect x="0" y="24" width="200.0" height="4" fill="#25537b"/>
    <text x="10" y="19" font-family="system-ui, sans-serif" font-size="11" font-weight="500" fill="rgba(255,255,255,0.85)">1:</text>
    <text x="26" y="19" font-family="system-ui, sans-serif" font-size="11" font-weight="600" fill="white">StarAMR</text>
    <text x="100.0" y="52" text-anchor="middle" font-family="system-ui, sans-serif" font-size="10" fill="#495057">ResFinder, PointFinder, MLST</text>
    <circle cx="0.0" cy="46.7" r="6" fill="white" stroke="#25537b" stroke-width="2"/>
    <circle cx="0.0" cy="65.3" r="6" fill="white" stroke="#25537b" stroke-width="2"/>
    <circle cx="200.0" cy="46.7" r="6" fill="white" stroke="#25537b" stroke-width="2"/>
    <circle cx="200.0" cy="65.3" r="6" fill="white" stroke="#25537b" stroke-width="2"/>
  </g>
  <g filter="url(#wd-shadow)" transform="translate(320.0, 209.0)">
    <rect width="218.0" height="84.0" rx="4" fill="white" stroke="#25537b" stroke-width="1"/>
    <rect width="218.0" height="28" rx="4" fill="#25537b"/>
    <rect x="0" y="24" width="218.0" height="4" fill="#25537b"/>
    <text x="10" y="19" font-family="system-ui, sans-serif" font-size="11" font-weight="500" fill="rgba(255,255,255,0.85)">2:</text>
    <text x="26" y="19" font-family="system-ui, sans-serif" font-size="11" font-weight="600" fill="white">AMRFinderPlus</text>
    <text x="109.0" y="52" text-anchor="middle" font-family="system-ui, sans-serif" font-size="10" fill="#495057">AMR genes &amp;amp; point mutations</text>
    <circle cx="0.0" cy="46.7" r="6" fill="white" stroke="#25537b" stroke-width="2"/>
    <circle cx="0.0" cy="65.3" r="6" fill="white" stroke="#25537b" stroke-width="2"/>
    <circle cx="218.0" cy="46.7" r="6" fill="white" stroke="#25537b" stroke-width="2"/>
    <circle cx="218.0" cy="65.3" r="6" fill="white" stroke="#25537b" stroke-width="2"/>
  </g>
  <g filter="url(#wd-shadow)" transform="translate(329.0, 353.0)">
    <rect width="200.0" height="84.0" rx="4" fill="white" stroke="#25537b" stroke-width="1"/>
    <rect width="200.0" height="28" rx="4" fill="#25537b"/>
    <rect x="0" y="24" width="200.0" height="4" fill="#25537b"/>
    <text x="10" y="19" font-family="system-ui, sans-serif" font-size="11" font-weight="500" fill="rgba(255,255,255,0.85)">3:</text>
    <text x="26" y="19" font-family="system-ui, sans-serif" font-size="11" font-weight="600" fill="white">ABRicate</text>
    <text x="100.0" y="52" text-anchor="middle" font-family="system-ui, sans-serif" font-size="10" fill="#495057">Virulence gene screening</text>
    <circle cx="0.0" cy="46.7" r="6" fill="white" stroke="#25537b" stroke-width="2"/>
    <circle cx="0.0" cy="65.3" r="6" fill="white" stroke="#25537b" stroke-width="2"/>
    <circle cx="200.0" cy="56.0" r="6" fill="white" stroke="#25537b" stroke-width="2"/>
  </g>
  <g filter="url(#wd-shadow)" transform="translate(638.0, 209.0)">
    <rect width="200.0" height="84.0" rx="4" fill="white" stroke="#25537b" stroke-width="1"/>
    <rect width="200.0" height="28" rx="4" fill="#25537b"/>
    <rect x="0" y="24" width="200.0" height="4" fill="#25537b"/>
    <text x="10" y="19" font-family="system-ui, sans-serif" font-size="11" font-weight="500" fill="rgba(255,255,255,0.85)">4:</text>
    <text x="26" y="19" font-family="system-ui, sans-serif" font-size="11" font-weight="600" fill="white">ToolDistillator</text>
    <text x="100.0" y="52" text-anchor="middle" font-family="system-ui, sans-serif" font-size="10" fill="#495057">Aggregate JSON results</text>
    <circle cx="0.0" cy="42.0" r="6" fill="white" stroke="#25537b" stroke-width="2"/>
    <circle cx="0.0" cy="56.0" r="6" fill="white" stroke="#25537b" stroke-width="2"/>
    <circle cx="0.0" cy="70.0" r="6" fill="white" stroke="#25537b" stroke-width="2"/>
    <circle cx="200.0" cy="56.0" r="6" fill="white" stroke="#25537b" stroke-width="2"/>
  </g>
  <g filter="url(#wd-shadow)" transform="translate(958.0, 209.0)">
    <rect width="160.0" height="77.0" rx="4" fill="white" stroke="#10b981" stroke-width="1.5"/>
    <rect width="160.0" height="28" rx="4" fill="#10b981"/>
    <rect x="0" y="24" width="160.0" height="4" fill="#10b981"/>
    <text x="10" y="19" font-family="system-ui, sans-serif" font-size="11" font-weight="600" fill="white">AMR Summary</text>
    <text x="80.0" y="52" text-anchor="middle" font-family="system-ui, sans-serif" font-size="10" fill="#495057">Combined JSON report</text>
    <circle cx="0.0" cy="52.5" r="5" fill="white" stroke="#10b981" stroke-width="2"/>
  </g>
  <g filter="url(#wd-shadow)" transform="translate(938.0, 65.0)">
    <rect width="200.0" height="77.0" rx="4" fill="white" stroke="#10b981" stroke-width="1.5"/>
    <rect width="200.0" height="28" rx="4" fill="#10b981"/>
    <rect x="0" y="24" width="200.0" height="4" fill="#10b981"/>
    <text x="10" y="19" font-family="system-ui, sans-serif" font-size="11" font-weight="600" fill="white">StarAMR Reports</text>
    <text x="100.0" y="52" text-anchor="middle" font-family="system-ui, sans-serif" font-size="10" fill="#495057">Resistance &amp;amp; MLST tables</text>
    <circle cx="0.0" cy="52.5" r="5" fill="white" stroke="#10b981" stroke-width="2"/>
  </g>
  <g filter="url(#wd-shadow)" transform="translate(947.0, 353.0)">
    <rect width="182.0" height="77.0" rx="4" fill="white" stroke="#10b981" stroke-width="1.5"/>
    <rect width="182.0" height="28" rx="4" fill="#10b981"/>
    <rect x="0" y="24" width="182.0" height="4" fill="#10b981"/>
    <text x="10" y="19" font-family="system-ui, sans-serif" font-size="11" font-weight="600" fill="white">AMRFinder Reports</text>
    <text x="91.0" y="52" text-anchor="middle" font-family="system-ui, sans-serif" font-size="10" fill="#495057">AMR &amp;amp; mutation tables</text>
    <circle cx="0.0" cy="52.5" r="5" fill="white" stroke="#10b981" stroke-width="2"/>
  </g>
  <g transform="translate(20, 472)">
    <text x="0" y="0" font-family="system-ui, sans-serif" font-size="10" font-weight="600" fill="#495057">Legend:</text>
    <rect x="60" y="-10" width="14" height="14" rx="2" fill="white" stroke="#ffd700" stroke-width="1.5"/>
    <text x="80" y="0" font-family="system-ui, sans-serif" font-size="9" fill="#6c757d">Input</text>
    <line x1="123.0" y1="-4" x2="163.0" y2="-4" stroke="#25537b" stroke-width="4" stroke-linecap="round"/>
    <text x="171.0" y="0" font-family="system-ui, sans-serif" font-size="9" fill="#6c757d">Data flow</text>
    <line x1="235.6" y1="-4" x2="275.6" y2="-4" stroke="#25537b" stroke-width="3" stroke-linecap="round"/>
    <text x="283.6" y="0" font-family="system-ui, sans-serif" font-size="9" fill="#6c757d">Secondary</text>
    <rect x="348.2" y="-10" width="14" height="14" rx="2" fill="white" stroke="#10b981" stroke-width="1.5"/>
    <text x="368.2" y="0" font-family="system-ui, sans-serif" font-size="9" fill="#6c757d">Output</text>
  </g>
</svg>