<svg xmlns="http://www.w3.org/2000/svg" viewBox="0 0 1200 680" role="img" aria-label="Scanpy scRNA-seq Preprocessing and Clustering workflow diagram">
  <title>Single-Cell RNA-seq Analysis: Scanpy Preprocessing and Clustering</title>
  <desc>End-to-end scRNA-seq pipeline: imports count matrices, applies QC filtering, normalizes and log-transforms data, identifies highly variable genes, performs PCA and UMAP embedding, Louvain clustering, and marker gene analysis with visualization.</desc>

  <defs>
    <pattern id="grid" width="20" height="20" patternUnits="userSpaceOnUse">
      <path d="M 20 0 L 0 0 0 20" fill="none" stroke="#c5d5e4" stroke-width="0.5"/>
    </pattern>
    <pattern id="grid-major" width="100" height="100" patternUnits="userSpaceOnUse">
      <rect width="100" height="100" fill="url(#grid)"/>
      <path d="M 100 0 L 0 0 0 100" fill="none" stroke="#b0c4d8" stroke-width="1"/>
    </pattern>
    <style>
      .connection { stroke: #25537b; stroke-width: 4; fill: none; stroke-linecap: round; }
      .connection-qc { stroke: #25537b; stroke-width: 3; fill: none; stroke-linecap: round; stroke-dasharray: 5 3; }
      .connection-secondary { stroke: #25537b; stroke-width: 3; fill: none; stroke-linecap: round; }
      .node-card { filter: drop-shadow(1px 2px 3px rgba(0,0,0,0.15)); }
    </style>
  </defs>

  <!-- Background -->
  <rect width="1200" height="680" fill="#f8f9fa"/>
  <rect width="1200" height="680" fill="url(#grid-major)"/>

  <!-- Title bar -->
  <rect x="0" y="0" width="1200" height="45" fill="#25537b"/>
  <text x="20" y="28" font-family="system-ui, sans-serif" font-size="16" font-weight="600" fill="white">Single-Cell RNA-seq: Scanpy Preprocessing and Clustering</text>

  <!-- CONNECTIONS -->

  <!-- Barcodes -> Import Anndata -->
  <path class="connection" d="M 180 125 C 220 125, 230 135, 270 135"/>
  <!-- Genes -> Import Anndata -->
  <path class="connection" d="M 180 225 C 220 225, 230 155, 270 155"/>
  <!-- Matrix -> Import Anndata -->
  <path class="connection" d="M 180 325 C 220 325, 230 175, 270 175"/>

  <!-- Import -> Filter Genes -->
  <path class="connection" d="M 450 155 C 490 155, 475 195, 510 195"/>
  <!-- Filter Genes -> QC Metrics -->
  <path class="connection" d="M 690 195 C 720 195, 710 195, 740 195"/>
  <!-- QC Metrics -> Filter Cells -->
  <path class="connection" d="M 920 195 C 950 195, 940 155, 970 155"/>

  <!-- Filter Cells -> Normalize -->
  <path class="connection" d="M 270 405 C 310 405, 300 405, 340 405"/>
  <!-- Normalize -> Log Transform -->
  <path class="connection" d="M 520 405 C 560 405, 550 405, 590 405"/>
  <!-- Log Transform -> HVG -->
  <path class="connection" d="M 770 405 C 810 405, 800 405, 840 405"/>

  <!-- HVG -> PCA -->
  <path class="connection" d="M 270 555 C 310 555, 300 555, 340 555"/>
  <!-- PCA -> UMAP -->
  <path class="connection" d="M 520 555 C 560 555, 550 555, 590 555"/>
  <!-- UMAP -> Louvain -->
  <path class="connection" d="M 770 555 C 810 555, 800 555, 840 555"/>
  <!-- Louvain -> Marker Genes -->
  <path class="connection" d="M 1020 555 C 1050 555, 1040 555, 1065 555"/>

  <!-- QC dashed: QC Metrics -> QC Plots -->
  <path class="connection-qc" d="M 830 230 C 830 280, 1070 275, 1070 280"/>

  <!-- Louvain -> UMAP Plot output -->
  <path class="connection" d="M 930 530 C 950 530, 960 480, 1030 480"/>
  <!-- Marker Genes -> Ranked Genes output -->
  <path class="connection" d="M 1065 530 C 1085 530, 1100 480, 1090 480"/>

  <!-- Row 2 to Row 3 connection (curved down) -->
  <path class="connection" d="M 1020 405 C 1060 405, 250 520, 270 540"/>

  <!-- Row 1 to Row 2 connection (Filter Cells down) -->
  <path class="connection" d="M 1060 195 C 1090 195, 260 370, 270 390"/>

  <!-- NODES -->

  <!-- INPUT: Barcodes -->
  <g class="node-card" transform="translate(30, 80)">
    <rect width="150" height="90" rx="4" fill="white" stroke="#ffd700" stroke-width="1.5"/>
    <rect width="150" height="28" rx="4" fill="#ffd700"/>
    <rect x="0" y="24" width="150" height="4" fill="#ffd700"/>
    <text x="10" y="19" font-family="system-ui, sans-serif" font-size="11" fill="rgba(44,49,67,0.6)">1:</text>
    <text x="26" y="19" font-family="system-ui, sans-serif" font-size="11" font-weight="600" fill="#2C3143">Barcodes</text>
    <text x="75" y="55" text-anchor="middle" font-family="system-ui, sans-serif" font-size="10" fill="#495057">Cell barcodes file</text>
    <text x="75" y="72" text-anchor="middle" font-family="system-ui, sans-serif" font-size="9" fill="#868e96">10x Genomics</text>
    <circle cx="150" cy="45" r="6" fill="white" stroke="#ffd700" stroke-width="2"/>
  </g>

  <!-- INPUT: Genes -->
  <g class="node-card" transform="translate(30, 180)">
    <rect width="150" height="90" rx="4" fill="white" stroke="#ffd700" stroke-width="1.5"/>
    <rect width="150" height="28" rx="4" fill="#ffd700"/>
    <rect x="0" y="24" width="150" height="4" fill="#ffd700"/>
    <text x="10" y="19" font-family="system-ui, sans-serif" font-size="11" fill="rgba(44,49,67,0.6)">2:</text>
    <text x="26" y="19" font-family="system-ui, sans-serif" font-size="11" font-weight="600" fill="#2C3143">Genes</text>
    <text x="75" y="55" text-anchor="middle" font-family="system-ui, sans-serif" font-size="10" fill="#495057">Gene features file</text>
    <text x="75" y="72" text-anchor="middle" font-family="system-ui, sans-serif" font-size="9" fill="#868e96">10x Genomics</text>
    <circle cx="150" cy="45" r="6" fill="white" stroke="#ffd700" stroke-width="2"/>
  </g>

  <!-- INPUT: Matrix -->
  <g class="node-card" transform="translate(30, 280)">
    <rect width="150" height="90" rx="4" fill="white" stroke="#ffd700" stroke-width="1.5"/>
    <rect width="150" height="28" rx="4" fill="#ffd700"/>
    <rect x="0" y="24" width="150" height="4" fill="#ffd700"/>
    <text x="10" y="19" font-family="system-ui, sans-serif" font-size="11" fill="rgba(44,49,67,0.6)">3:</text>
    <text x="26" y="19" font-family="system-ui, sans-serif" font-size="11" font-weight="600" fill="#2C3143">Matrix</text>
    <text x="75" y="55" text-anchor="middle" font-family="system-ui, sans-serif" font-size="10" fill="#495057">Count matrix</text>
    <text x="75" y="72" text-anchor="middle" font-family="system-ui, sans-serif" font-size="9" fill="#868e96">MEX format</text>
    <circle cx="150" cy="45" r="6" fill="white" stroke="#ffd700" stroke-width="2"/>
  </g>

  <!-- PROCESSING ROW 1 -->

  <!-- Import AnnData -->
  <g class="node-card" transform="translate(270, 110)">
    <rect width="180" height="90" rx="4" fill="white" stroke="#25537b" stroke-width="1"/>
    <rect width="180" height="28" rx="4" fill="#25537b"/>
    <rect x="0" y="24" width="180" height="4" fill="#25537b"/>
    <text x="10" y="19" font-family="system-ui, sans-serif" font-size="11" fill="rgba(255,255,255,0.7)">4:</text>
    <text x="26" y="19" font-family="system-ui, sans-serif" font-size="11" font-weight="600" fill="white">Import AnnData</text>
    <text x="90" y="55" text-anchor="middle" font-family="system-ui, sans-serif" font-size="10" fill="#495057">Build AnnData object</text>
    <text x="90" y="72" text-anchor="middle" font-family="system-ui, sans-serif" font-size="9" fill="#868e96">From 10x matrices</text>
    <circle cx="0" cy="45" r="6" fill="white" stroke="#25537b" stroke-width="2"/>
    <circle cx="180" cy="45" r="6" fill="white" stroke="#25537b" stroke-width="2"/>
  </g>

  <!-- Filter Genes -->
  <g class="node-card" transform="translate(510, 150)">
    <rect width="180" height="90" rx="4" fill="white" stroke="#25537b" stroke-width="1"/>
    <rect width="180" height="28" rx="4" fill="#25537b"/>
    <rect x="0" y="24" width="180" height="4" fill="#25537b"/>
    <text x="10" y="19" font-family="system-ui, sans-serif" font-size="11" fill="rgba(255,255,255,0.7)">5:</text>
    <text x="26" y="19" font-family="system-ui, sans-serif" font-size="11" font-weight="600" fill="white">Filter Genes</text>
    <text x="90" y="55" text-anchor="middle" font-family="system-ui, sans-serif" font-size="10" fill="#495057">By min cells expressed</text>
    <text x="90" y="72" text-anchor="middle" font-family="system-ui, sans-serif" font-size="9" fill="#868e96">+ flag mito genes</text>
    <circle cx="0" cy="45" r="6" fill="white" stroke="#25537b" stroke-width="2"/>
    <circle cx="180" cy="45" r="6" fill="white" stroke="#25537b" stroke-width="2"/>
  </g>

  <!-- QC Metrics -->
  <g class="node-card" transform="translate(740, 150)">
    <rect width="180" height="90" rx="4" fill="white" stroke="#25537b" stroke-width="1"/>
    <rect width="180" height="28" rx="4" fill="#25537b"/>
    <rect x="0" y="24" width="180" height="4" fill="#25537b"/>
    <text x="10" y="19" font-family="system-ui, sans-serif" font-size="11" fill="rgba(255,255,255,0.7)">6:</text>
    <text x="26" y="19" font-family="system-ui, sans-serif" font-size="11" font-weight="600" fill="white">QC Metrics</text>
    <text x="90" y="55" text-anchor="middle" font-family="system-ui, sans-serif" font-size="10" fill="#495057">n_genes, n_counts</text>
    <text x="90" y="72" text-anchor="middle" font-family="system-ui, sans-serif" font-size="9" fill="#868e96">pct_mito</text>
    <circle cx="0" cy="45" r="6" fill="white" stroke="#25537b" stroke-width="2"/>
    <circle cx="180" cy="45" r="6" fill="white" stroke="#25537b" stroke-width="2"/>
    <circle cx="90" cy="90" r="5" fill="white" stroke="#25537b" stroke-width="1.5"/>
  </g>

  <!-- Filter Cells -->
  <g class="node-card" transform="translate(970, 110)">
    <rect width="180" height="90" rx="4" fill="white" stroke="#25537b" stroke-width="1"/>
    <rect width="180" height="28" rx="4" fill="#25537b"/>
    <rect x="0" y="24" width="180" height="4" fill="#25537b"/>
    <text x="10" y="19" font-family="system-ui, sans-serif" font-size="11" fill="rgba(255,255,255,0.7)">7:</text>
    <text x="26" y="19" font-family="system-ui, sans-serif" font-size="11" font-weight="600" fill="white">Filter Cells</text>
    <text x="90" y="55" text-anchor="middle" font-family="system-ui, sans-serif" font-size="10" fill="#495057">By genes, mito %</text>
    <text x="90" y="72" text-anchor="middle" font-family="system-ui, sans-serif" font-size="9" fill="#868e96">Min/max thresholds</text>
    <circle cx="0" cy="45" r="6" fill="white" stroke="#25537b" stroke-width="2"/>
    <circle cx="90" cy="90" r="5" fill="white" stroke="#25537b" stroke-width="1.5"/>
  </g>

  <!-- PROCESSING ROW 2 -->

  <!-- Normalize -->
  <g class="node-card" transform="translate(270, 360)">
    <rect width="180" height="90" rx="4" fill="white" stroke="#25537b" stroke-width="1"/>
    <rect width="180" height="28" rx="4" fill="#25537b"/>
    <rect x="0" y="24" width="180" height="4" fill="#25537b"/>
    <text x="10" y="19" font-family="system-ui, sans-serif" font-size="11" fill="rgba(255,255,255,0.7)">8:</text>
    <text x="26" y="19" font-family="system-ui, sans-serif" font-size="11" font-weight="600" fill="white">Normalize</text>
    <text x="90" y="55" text-anchor="middle" font-family="system-ui, sans-serif" font-size="10" fill="#495057">Target sum scaling</text>
    <text x="90" y="72" text-anchor="middle" font-family="system-ui, sans-serif" font-size="9" fill="#868e96">Per-cell normalization</text>
    <circle cx="0" cy="45" r="6" fill="white" stroke="#25537b" stroke-width="2"/>
    <circle cx="180" cy="45" r="6" fill="white" stroke="#25537b" stroke-width="2"/>
  </g>

  <!-- Log Transform -->
  <g class="node-card" transform="translate(510, 360)">
    <rect width="180" height="90" rx="4" fill="white" stroke="#25537b" stroke-width="1"/>
    <rect width="180" height="28" rx="4" fill="#25537b"/>
    <rect x="0" y="24" width="180" height="4" fill="#25537b"/>
    <text x="10" y="19" font-family="system-ui, sans-serif" font-size="11" fill="rgba(255,255,255,0.7)">9:</text>
    <text x="26" y="19" font-family="system-ui, sans-serif" font-size="11" font-weight="600" fill="white">Log + Regress</text>
    <text x="90" y="55" text-anchor="middle" font-family="system-ui, sans-serif" font-size="10" fill="#495057">Logarithmize, scale</text>
    <text x="90" y="72" text-anchor="middle" font-family="system-ui, sans-serif" font-size="9" fill="#868e96">Regress confounders</text>
    <circle cx="0" cy="45" r="6" fill="white" stroke="#25537b" stroke-width="2"/>
    <circle cx="180" cy="45" r="6" fill="white" stroke="#25537b" stroke-width="2"/>
  </g>

  <!-- Highly Variable Genes -->
  <g class="node-card" transform="translate(840, 360)">
    <rect width="180" height="90" rx="4" fill="white" stroke="#25537b" stroke-width="1"/>
    <rect width="180" height="28" rx="4" fill="#25537b"/>
    <rect x="0" y="24" width="180" height="4" fill="#25537b"/>
    <text x="10" y="19" font-family="system-ui, sans-serif" font-size="11" fill="rgba(255,255,255,0.7)">10:</text>
    <text x="30" y="19" font-family="system-ui, sans-serif" font-size="11" font-weight="600" fill="white">Variable Genes</text>
    <text x="90" y="55" text-anchor="middle" font-family="system-ui, sans-serif" font-size="10" fill="#495057">Highly variable genes</text>
    <text x="90" y="72" text-anchor="middle" font-family="system-ui, sans-serif" font-size="9" fill="#868e96">Feature selection</text>
    <circle cx="0" cy="45" r="6" fill="white" stroke="#25537b" stroke-width="2"/>
    <circle cx="90" cy="90" r="5" fill="white" stroke="#25537b" stroke-width="1.5"/>
  </g>

  <!-- PROCESSING ROW 3 -->

  <!-- PCA -->
  <g class="node-card" transform="translate(270, 510)">
    <rect width="180" height="90" rx="4" fill="white" stroke="#25537b" stroke-width="1"/>
    <rect width="180" height="28" rx="4" fill="#25537b"/>
    <rect x="0" y="24" width="180" height="4" fill="#25537b"/>
    <text x="10" y="19" font-family="system-ui, sans-serif" font-size="11" fill="rgba(255,255,255,0.7)">11:</text>
    <text x="30" y="19" font-family="system-ui, sans-serif" font-size="11" font-weight="600" fill="white">PCA</text>
    <text x="90" y="55" text-anchor="middle" font-family="system-ui, sans-serif" font-size="10" fill="#495057">Dimensionality reduction</text>
    <text x="90" y="72" text-anchor="middle" font-family="system-ui, sans-serif" font-size="9" fill="#868e96">+ neighborhood graph</text>
    <circle cx="0" cy="45" r="6" fill="white" stroke="#25537b" stroke-width="2"/>
    <circle cx="180" cy="45" r="6" fill="white" stroke="#25537b" stroke-width="2"/>
  </g>

  <!-- UMAP -->
  <g class="node-card" transform="translate(510, 510)">
    <rect width="180" height="90" rx="4" fill="white" stroke="#25537b" stroke-width="1"/>
    <rect width="180" height="28" rx="4" fill="#25537b"/>
    <rect x="0" y="24" width="180" height="4" fill="#25537b"/>
    <text x="10" y="19" font-family="system-ui, sans-serif" font-size="11" fill="rgba(255,255,255,0.7)">12:</text>
    <text x="30" y="19" font-family="system-ui, sans-serif" font-size="11" font-weight="600" fill="white">UMAP Embed</text>
    <text x="90" y="55" text-anchor="middle" font-family="system-ui, sans-serif" font-size="10" fill="#495057">2D embedding</text>
    <text x="90" y="72" text-anchor="middle" font-family="system-ui, sans-serif" font-size="9" fill="#868e96">Visualization space</text>
    <circle cx="0" cy="45" r="6" fill="white" stroke="#25537b" stroke-width="2"/>
    <circle cx="180" cy="45" r="6" fill="white" stroke="#25537b" stroke-width="2"/>
  </g>

  <!-- Louvain Clustering -->
  <g class="node-card" transform="translate(750, 510)">
    <rect width="180" height="90" rx="4" fill="white" stroke="#25537b" stroke-width="1"/>
    <rect width="180" height="28" rx="4" fill="#25537b"/>
    <rect x="0" y="24" width="180" height="4" fill="#25537b"/>
    <text x="10" y="19" font-family="system-ui, sans-serif" font-size="11" fill="rgba(255,255,255,0.7)">13:</text>
    <text x="30" y="19" font-family="system-ui, sans-serif" font-size="11" font-weight="600" fill="white">Louvain Cluster</text>
    <text x="90" y="55" text-anchor="middle" font-family="system-ui, sans-serif" font-size="10" fill="#495057">Community detection</text>
    <text x="90" y="72" text-anchor="middle" font-family="system-ui, sans-serif" font-size="9" fill="#868e96">Cell type clusters</text>
    <circle cx="0" cy="45" r="6" fill="white" stroke="#25537b" stroke-width="2"/>
    <circle cx="180" cy="45" r="6" fill="white" stroke="#25537b" stroke-width="2"/>
  </g>

  <!-- Marker Genes -->
  <g class="node-card" transform="translate(990, 510)">
    <rect width="180" height="90" rx="4" fill="white" stroke="#25537b" stroke-width="1"/>
    <rect width="180" height="28" rx="4" fill="#25537b"/>
    <rect x="0" y="24" width="180" height="4" fill="#25537b"/>
    <text x="10" y="19" font-family="system-ui, sans-serif" font-size="11" fill="rgba(255,255,255,0.7)">14:</text>
    <text x="30" y="19" font-family="system-ui, sans-serif" font-size="11" font-weight="600" fill="white">Marker Genes</text>
    <text x="90" y="55" text-anchor="middle" font-family="system-ui, sans-serif" font-size="10" fill="#495057">Wilcoxon rank test</text>
    <text x="90" y="72" text-anchor="middle" font-family="system-ui, sans-serif" font-size="9" fill="#868e96">Cluster annotation</text>
    <circle cx="0" cy="45" r="6" fill="white" stroke="#25537b" stroke-width="2"/>
  </g>

  <!-- QC OUTPUTS -->

  <!-- QC Plots -->
  <g class="node-card" transform="translate(1020, 260)">
    <rect width="150" height="80" rx="4" fill="white" stroke="#10b981" stroke-width="1.5"/>
    <rect width="150" height="28" rx="4" fill="#10b981"/>
    <rect x="0" y="24" width="150" height="4" fill="#10b981"/>
    <text x="75" y="19" text-anchor="middle" font-family="system-ui, sans-serif" font-size="11" font-weight="600" fill="white">QC Plots</text>
    <text x="75" y="52" text-anchor="middle" font-family="system-ui, sans-serif" font-size="10" fill="#495057">Scatter, violin plots</text>
    <text x="75" y="68" text-anchor="middle" font-family="system-ui, sans-serif" font-size="9" fill="#868e96">Genes vs mito %</text>
    <circle cx="0" cy="40" r="5" fill="white" stroke="#10b981" stroke-width="1.5"/>
  </g>

  <!-- OUTPUTS -->

  <!-- UMAP Plot -->
  <g class="node-card" transform="translate(1030, 445)">
    <rect width="140" height="50" rx="4" fill="white" stroke="#f97316" stroke-width="1.5"/>
    <rect width="140" height="22" rx="4" fill="#f97316"/>
    <rect x="0" y="18" width="140" height="4" fill="#f97316"/>
    <text x="70" y="15" text-anchor="middle" font-family="system-ui, sans-serif" font-size="10" font-weight="600" fill="white">UMAP Plots</text>
    <text x="70" y="38" text-anchor="middle" font-family="system-ui, sans-serif" font-size="9" fill="#868e96">Clusters + markers</text>
    <circle cx="0" cy="25" r="5" fill="white" stroke="#f97316" stroke-width="2"/>
  </g>

  <!-- Legend -->
  <g transform="translate(30, 645)">
    <text x="0" y="0" font-family="system-ui, sans-serif" font-size="10" font-weight="600" fill="#495057">Legend:</text>
    <rect x="60" y="-10" width="14" height="14" rx="2" fill="white" stroke="#ffd700" stroke-width="1.5"/>
    <text x="80" y="0" font-family="system-ui, sans-serif" font-size="9" fill="#6c757d">Input</text>
    <rect x="130" y="-10" width="14" height="14" rx="2" fill="white" stroke="#25537b" stroke-width="1.5"/>
    <text x="150" y="0" font-family="system-ui, sans-serif" font-size="9" fill="#6c757d">Processing</text>
    <line x1="230" y1="-4" x2="270" y2="-4" stroke="#25537b" stroke-width="4" stroke-linecap="round"/>
    <text x="278" y="0" font-family="system-ui, sans-serif" font-size="9" fill="#6c757d">Data flow</text>
    <line x1="350" y1="-4" x2="390" y2="-4" stroke="#25537b" stroke-width="3" stroke-linecap="round" stroke-dasharray="5 3"/>
    <text x="398" y="0" font-family="system-ui, sans-serif" font-size="9" fill="#6c757d">QC metrics</text>
    <rect x="480" y="-10" width="14" height="14" rx="2" fill="white" stroke="#f97316" stroke-width="1.5"/>
    <text x="500" y="0" font-family="system-ui, sans-serif" font-size="9" fill="#6c757d">Output</text>
    <rect x="560" y="-10" width="14" height="14" rx="2" fill="white" stroke="#10b981" stroke-width="1.5"/>
    <text x="580" y="0" font-family="system-ui, sans-serif" font-size="9" fill="#6c757d">Report</text>
  </g>

</svg>